  0
SECTION
  2
HEADER
  9
$ACADVER
  1
AC1014
  9
$ACADMAINTVER
 70
     9
  9
$DWGCODEPAGE
  3
ANSI_1252
  9
$INSBASE
 10
0.0
 20
0.0
 30
0.0
  9
$EXTMIN
 10
248.1006711409396
 20
257.3540268456376
 30
0.0
  9
$EXTMAX
 10
307.1006711409396
 20
316.3540268456376
 30
0.0
  9
$LIMMIN
 10
0.0
 20
0.0
  9
$LIMMAX
 10
420.0
 20
297.0
  9
$ORTHOMODE
 70
     0
  9
$REGENMODE
 70
     1
  9
$FILLMODE
 70
     1
  9
$QTEXTMODE
 70
     0
  9
$MIRRTEXT
 70
     0
  9
$DRAGMODE
 70
     2
  9
$LTSCALE
 40
1.0
  9
$OSMODE
 70
    37
  9
$ATTMODE
 70
     0
  9
$TEXTSIZE
 40
2.5
  9
$TRACEWID
 40
15.68
  9
$TEXTSTYLE
  7
STANDARD
  9
$CLAYER
  8
0
  9
$CELTYPE
  6
BYBLOCK
  9
$CECOLOR
 62
   256
  9
$CELTSCALE
 40
1.0
  9
$DELOBJ
 70
     1
  9
$DISPSILH
 70
     0
  9
$DIMSCALE
 40
1.0
  9
$DIMASZ
 40
2.5
  9
$DIMEXO
 40
0.625
  9
$DIMDLI
 40
3.75
  9
$DIMRND
 40
0.0
  9
$DIMDLE
 40
0.0
  9
$DIMEXE
 40
1.25
  9
$DIMTP
 40
0.0
  9
$DIMTM
 40
0.0
  9
$DIMTXT
 40
2.5
  9
$DIMCEN
 40
2.5
  9
$DIMTSZ
 40
0.0
  9
$DIMTOL
 70
     0
  9
$DIMLIM
 70
     0
  9
$DIMTIH
 70
     0
  9
$DIMTOH
 70
     0
  9
$DIMSE1
 70
     0
  9
$DIMSE2
 70
     0
  9
$DIMTAD
 70
     1
  9
$DIMZIN
 70
     8
  9
$DIMBLK
  1

  9
$DIMASO
 70
     1
  9
$DIMSHO
 70
     1
  9
$DIMPOST
  1

  9
$DIMAPOST
  1

  9
$DIMALT
 70
     0
  9
$DIMALTD
 70
     3
  9
$DIMALTF
 40
0.03937
  9
$DIMLFAC
 40
1.0
  9
$DIMTOFL
 70
     1
  9
$DIMTVP
 40
0.0
  9
$DIMTIX
 70
     0
  9
$DIMSOXD
 70
     0
  9
$DIMSAH
 70
     0
  9
$DIMBLK1
  1

  9
$DIMBLK2
  1

  9
$DIMSTYLE
  2
STANDARD
  9
$DIMCLRD
 70
     0
  9
$DIMCLRE
 70
     0
  9
$DIMCLRT
 70
     0
  9
$DIMTFAC
 40
1.0
  9
$DIMGAP
 40
0.625
  9
$DIMJUST
 70
     0
  9
$DIMSD1
 70
     0
  9
$DIMSD2
 70
     0
  9
$DIMTOLJ
 70
     0
  9
$DIMTZIN
 70
     8
  9
$DIMALTZ
 70
     0
  9
$DIMALTTZ
 70
     0
  9
$DIMFIT
 70
     3
  9
$DIMUPT
 70
     0
  9
$DIMUNIT
 70
     2
  9
$DIMDEC
 70
     4
  9
$DIMTDEC
 70
     2
  9
$DIMALTU
 70
     2
  9
$DIMALTTD
 70
     3
  9
$DIMTXSTY
  7
STANDARD
  9
$DIMAUNIT
 70
     0
  9
$LUNITS
 70
     2
  9
$LUPREC
 70
     2
  9
$SKETCHINC
 40
1.0
  9
$FILLETRAD
 40
0.0
  9
$AUNITS
 70
     0
  9
$AUPREC
 70
     2
  9
$MENU
  1
.
  9
$ELEVATION
 40
0.0
  9
$PELEVATION
 40
0.0
  9
$THICKNESS
 40
0.0
  9
$LIMCHECK
 70
     0
  9
$CHAMFERA
 40
0.0
  9
$CHAMFERB
 40
0.0
  9
$CHAMFERC
 40
0.0
  9
$CHAMFERD
 40
0.0
  9
$SKPOLY
 70
     0
  9
$TDCREATE
 40
0.0
  9
$TDUPDATE
 40
2457407.901917373
  9
$TDINDWG
 40
0.0
  9
$TDUSRTIMER
 40
0.0
  9
$USRTIMER
 70
     1
  9
$ANGBASE
 50
0.0
  9
$ANGDIR
 70
     0
  9
$PDMODE
 70
    34
  9
$PDSIZE
 40
0.0
  9
$PLINEWID
 40
0.0
  9
$COORDS
 70
     1
  9
$SPLFRAME
 70
     0
  9
$SPLINETYPE
 70
     6
  9
$SPLINESEGS
 70
     8
  9
$ATTDIA
 70
     0
  9
$ATTREQ
 70
     1
  9
$HANDLING
 70
     1
  9
$HANDSEED
  5
10072
  9
$SURFTAB1
 70
     6
  9
$SURFTAB2
 70
     6
  9
$SURFTYPE
 70
     6
  9
$SURFU
 70
     6
  9
$SURFV
 70
     6
  9
$UCSNAME
  2

  9
$UCSORG
 10
0.0
 20
0.0
 30
0.0
  9
$UCSXDIR
 10
1.0
 20
0.0
 30
0.0
  9
$UCSYDIR
 10
0.0
 20
1.0
 30
0.0
  9
$PUCSNAME
  2

  9
$PUCSORG
 10
0.0
 20
0.0
 30
0.0
  9
$PUCSXDIR
 10
1.0
 20
0.0
 30
0.0
  9
$PUCSYDIR
 10
0.0
 20
1.0
 30
0.0
  9
$USERI1
 70
     0
  9
$USERI2
 70
     0
  9
$USERI3
 70
     0
  9
$USERI4
 70
     0
  9
$USERI5
 70
     0
  9
$USERR1
 40
0.0
  9
$USERR2
 40
0.0
  9
$USERR3
 40
0.0
  9
$USERR4
 40
0.0
  9
$USERR5
 40
0.0
  9
$WORLDVIEW
 70
     1
  9
$SHADEDGE
 70
     3
  9
$SHADEDIF
 70
    70
  9
$TILEMODE
 70
     1
  9
$MAXACTVP
 70
    64
  9
$PINSBASE
 10
-151.7806208053691
 20
-116.8399748322148
 30
0.0
  9
$PLIMCHECK
 70
     0
  9
$PEXTMIN
 10
0.0
 20
0.0
 30
0.0
  9
$PEXTMAX
 10
0.0
 20
0.0
 30
0.0
  9
$PLIMMIN
 10
0.0
 20
0.0
  9
$PLIMMAX
 10
210.0
 20
297.0
  9
$UNITMODE
 70
     0
  9
$VISRETAIN
 70
     1
  9
$PLINEGEN
 70
     0
  9
$PSLTSCALE
 70
     1
  9
$TREEDEPTH
 70
  3020
  9
$PICKSTYLE
 70
     1
  9
$CMLSTYLE
  2
STANDARD
  9
$CMLJUST
 70
     0
  9
$CMLSCALE
 40
20.0
  9
$PROXYGRAPHICS
 70
     1
  9
$MEASUREMENT
 70
     1
  0
ENDSEC
  0
SECTION
  2
CLASSES
  0
CLASS
  1
ACDBDICTIONARYWDFLT
  2
AcDbDictionaryWithDefault
  3
ObjectDBX Classes
 90
        0
280
     0
281
     0
  0
CLASS
  1
DICTIONARYVAR
  2
AcDbDictionaryVar
  3
ObjectDBX Classes
 90
        0
280
     0
281
     0
  0
CLASS
  1
SCALE
  2
AcDbScale
  3
ObjectDBX Classes
 90
     1153
280
     0
281
     0
  0
CLASS
  1
VISUALSTYLE
  2
AcDbVisualStyle
  3
ObjectDBX Classes
 90
     4095
280
     0
281
     0
  0
CLASS
  1
MATERIAL
  2
AcDbMaterial
  3
ObjectDBX Classes
 90
     1153
280
     0
281
     0
  0
CLASS
  1
TABLESTYLE
  2
AcDbTableStyle
  3
ObjectDBX Classes
 90
     4095
280
     0
281
     0
  0
CLASS
  1
MLEADERSTYLE
  2
AcDbMLeaderStyle
  3
ACDB_MLEADERSTYLE_CLASS
 90
     4095
280
     0
281
     0
  0
CLASS
  1
XRECORD
  2
AcDbXrecord
  3
ObjectDBX Classes
 90
        0
280
     0
281
     0
  0
CLASS
  1
LWPOLYLINE
  2
AcDbPolyline
  3
ObjectDBX Classes
 90
        0
280
     0
281
     1
  0
CLASS
  1
HATCH
  2
AcDbHatch
  3
ObjectDBX Classes
 90
        0
280
     0
281
     1
  0
CLASS
  1
ACDBPLACEHOLDER
  2
AcDbPlaceHolder
  3
ObjectDBX Classes
 90
        0
280
     0
281
     0
  0
CLASS
  1
LAYOUT
  2
AcDbLayout
  3
ObjectDBX Classes
 90
        0
280
     0
281
     0
  0
ENDSEC
  0
SECTION
  2
TABLES
  0
TABLE
  2
VPORT
  5
8
102
{ACAD_XDICTIONARY
360
10068
102
}
330
0
100
AcDbSymbolTable
 70
     1
  0
VPORT
  5
30
330
8
100
AcDbSymbolTableRecord
100
AcDbViewportTableRecord
  2
*ACTIVE
 70
     0
 10
0.0
 20
0.0
 11
1.0
 21
1.0
 12
286.3055555555555
 22
148.5
 13
0.0
 23
0.0
 14
10.0
 24
10.0
 15
10.0
 25
10.0
 16
0.0
 26
0.0
 36
1.0
 17
0.0
 27
0.0
 37
0.0
 40
297.0
 41
1.92798353909465
 42
50.0
 43
0.0
 44
0.0
 50
0.0
 51
0.0
 71
     0
 72
   100
 73
     1
 74
     3
 75
     1
 76
     1
 77
     0
 78
     0
  0
ENDTAB
  0
TABLE
  2
LTYPE
  5
5
330
0
100
AcDbSymbolTable
 70
    45
  0
LTYPE
  5
14
330
5
100
AcDbSymbolTableRecord
100
AcDbLinetypeTableRecord
  2
BYBLOCK
 70
     0
  3

 72
    65
 73
     0
 40
0.0
  0
LTYPE
  5
15
330
5
100
AcDbSymbolTableRecord
100
AcDbLinetypeTableRecord
  2
BYLAYER
 70
     0
  3

 72
    65
 73
     0
 40
0.0
  0
LTYPE
  5
16
330
5
100
AcDbSymbolTableRecord
100
AcDbLinetypeTableRecord
  2
CONTINUOUS
 70
     0
  3
Solid line
 72
    65
 73
     0
 40
0.0
  0
LTYPE
  5
31
330
5
100
AcDbSymbolTableRecord
100
AcDbLinetypeTableRecord
  2
DOTTINY
 70
     0
  3
Dot (.15x) .....................................
 72
    65
 73
     2
 40
0.9525
 49
0.1
 74
     0
 49
-0.8525
 74
     0
  0
LTYPE
  5
32
330
5
100
AcDbSymbolTableRecord
100
AcDbLinetypeTableRecord
  2
ACAD_ISO12W100
 70
     0
  3
ISO dash double-dot __ . . __ . . __ . . __ . . 
 72
    65
 73
     6
 40
21.0
 49
12.0
 74
     0
 49
-3.0
 74
     0
 49
0.0
 74
     0
 49
-3.0
 74
     0
 49
0.0
 74
     0
 49
-3.0
 74
     0
  0
LTYPE
  5
33
330
5
100
AcDbSymbolTableRecord
100
AcDbLinetypeTableRecord
  2
ACAD_ISO04W100
 70
     0
  3
ISO long-dash dot ____ . ____ . ____ . ____ . _
 72
    65
 73
     4
 40
30.0
 49
24.0
 74
     0
 49
-3.0
 74
     0
 49
0.0
 74
     0
 49
-3.0
 74
     0
  0
LTYPE
  5
34
330
5
100
AcDbSymbolTableRecord
100
AcDbLinetypeTableRecord
  2
PHANTOM
 70
     0
  3
Phantom ______  __  __  ______  __  __  ______ 
 72
    65
 73
     6
 40
63.50000000000001
 49
31.75
 74
     0
 49
-6.35
 74
     0
 49
6.35
 74
     0
 49
-6.35
 74
     0
 49
6.35
 74
     0
 49
-6.35
 74
     0
  0
LTYPE
  5
35
330
5
100
AcDbSymbolTableRecord
100
AcDbLinetypeTableRecord
  2
BORDER
 70
     0
  3
Border __ __ . __ __ . __ __ . __ __ . __ __ .
 72
    65
 73
     6
 40
44.45
 49
12.7
 74
     0
 49
-6.35
 74
     0
 49
12.7
 74
     0
 49
-6.3
 74
     0
 49
0.1
 74
     0
 49
-6.3
 74
     0
  0
LTYPE
  5
36
330
5
100
AcDbSymbolTableRecord
100
AcDbLinetypeTableRecord
  2
DIVIDEX2
 70
     0
  3
Divide (2x) ________  .  .  ________  .  .  _
 72
    65
 73
     6
 40
63.5
 49
25.4
 74
     0
 49
-12.65
 74
     0
 49
0.1
 74
     0
 49
-12.6
 74
     0
 49
0.1
 74
     0
 49
-12.65
 74
     0
  0
LTYPE
  5
37
330
5
100
AcDbSymbolTableRecord
100
AcDbLinetypeTableRecord
  2
ACAD_ISO11W100
 70
     0
  3
ISO double-dash dot __ __ . __ __ . __ __ . __ _
 72
    65
 73
     6
 40
33.0
 49
12.0
 74
     0
 49
-3.0
 74
     0
 49
12.0
 74
     0
 49
-3.0
 74
     0
 49
0.0
 74
     0
 49
-3.0
 74
     0
  0
LTYPE
  5
38
330
5
100
AcDbSymbolTableRecord
100
AcDbLinetypeTableRecord
  2
ACAD_ISO03W100
 70
     0
  3
ISO dash space __    __    __    __    __    __
 72
    65
 73
     2
 40
30.0
 49
12.0
 74
     0
 49
-18.0
 74
     0
  0
LTYPE
  5
39
330
5
100
AcDbSymbolTableRecord
100
AcDbLinetypeTableRecord
  2
DASHED2
 70
     0
  3
Dashed (.5x) _ _ _ _ _ _ _ _ _ _ _ _ _ _ _ _ _
 72
    65
 73
     2
 40
9.524999999999999
 49
6.35
 74
     0
 49
-3.175
 74
     0
  0
LTYPE
  5
3A
330
5
100
AcDbSymbolTableRecord
100
AcDbLinetypeTableRecord
  2
BORDERTINY
 70
     0
  3
Border (.15x) __.__.__.__.__.__.__.__.__.__.__.
 72
    65
 73
     6
 40
6.6675
 49
1.905
 74
     0
 49
-0.9525
 74
     0
 49
1.905
 74
     0
 49
-0.9025
 74
     0
 49
0.1
 74
     0
 49
-0.9025
 74
     0
  0
LTYPE
  5
3B
330
5
100
AcDbSymbolTableRecord
100
AcDbLinetypeTableRecord
  2
ACAD_ISO10W100
 70
     0
  3
ISO dash dot __ . __ . __ . __ . __ . __ . __ . 
 72
    65
 73
     4
 40
18.0
 49
12.0
 74
     0
 49
-3.0
 74
     0
 49
0.0
 74
     0
 49
-3.0
 74
     0
  0
LTYPE
  5
3C
330
5
100
AcDbSymbolTableRecord
100
AcDbLinetypeTableRecord
  2
HIDDEN
 70
     0
  3
Hidden __ __ __ __ __ __ __ __ __ __ __ __ __ __
 72
    65
 73
     2
 40
9.524999999999999
 49
6.35
 74
     0
 49
-3.175
 74
     0
  0
LTYPE
  5
3D
330
5
100
AcDbSymbolTableRecord
100
AcDbLinetypeTableRecord
  2
ACAD_ISO02W100
 70
     0
  3
ISO dash __ __ __ __ __ __ __ __ __ __ __ __ __
 72
    65
 73
     2
 40
15.0
 49
12.0
 74
     0
 49
-3.0
 74
     0
  0
LTYPE
  5
3E
330
5
100
AcDbSymbolTableRecord
100
AcDbLinetypeTableRecord
  2
CENTER2
 70
     0
  3
Center (.5x) ___ _ ___ _ ___ _ ___ _ ___ _ ___
 72
    65
 73
     4
 40
28.575
 49
19.05
 74
     0
 49
-3.175
 74
     0
 49
3.175
 74
     0
 49
-3.175
 74
     0
  0
LTYPE
  5
3F
330
5
100
AcDbSymbolTableRecord
100
AcDbLinetypeTableRecord
  2
DASHEDTINY
 70
     0
  3
Dashed (.15x) _ _ _ _ _ _ _ _ _ _ _ _ _ _ _ _ _
 72
    65
 73
     2
 40
2.8575
 49
1.905
 74
     0
 49
-0.9525
 74
     0
  0
LTYPE
  5
40
330
5
100
AcDbSymbolTableRecord
100
AcDbLinetypeTableRecord
  2
DASHDOT
 70
     0
  3
Dash dot __ . __ . __ . __ . __ . __ . __ . __
 72
    65
 73
     4
 40
25.4
 49
12.7
 74
     0
 49
-6.3
 74
     0
 49
0.1
 74
     0
 49
-6.3
 74
     0
  0
LTYPE
  5
41
330
5
100
AcDbSymbolTableRecord
100
AcDbLinetypeTableRecord
  2
DOT
 70
     0
  3
Dot . . . . . . . . . . . . . . . . . . . . . .
 72
    65
 73
     2
 40
6.35
 49
0.1
 74
     0
 49
-6.25
 74
     0
  0
LTYPE
  5
42
330
5
100
AcDbSymbolTableRecord
100
AcDbLinetypeTableRecord
  2
DASHEDX2
 70
     0
  3
Dashed (2x) ____  ____  ____  ____  ____  ___
 72
    65
 73
     2
 40
38.09999999999999
 49
25.4
 74
     0
 49
-12.7
 74
     0
  0
LTYPE
  5
43
330
5
100
AcDbSymbolTableRecord
100
AcDbLinetypeTableRecord
  2
DIVIDETINY
 70
     0
  3
Divide (.15x) __..__..__..__..__..__..__..__.._
 72
    65
 73
     6
 40
4.7625
 49
1.905
 74
     0
 49
-0.9025
 74
     0
 49
0.1
 74
     0
 49
-0.8524999999999999
 74
     0
 49
0.1
 74
     0
 49
-0.9025
 74
     0
  0
LTYPE
  5
44
330
5
100
AcDbSymbolTableRecord
100
AcDbLinetypeTableRecord
  2
DASHDOTTINY
 70
     0
  3
Dash dot (.15x) _._._._._._._._._._._._._._._.
 72
    65
 73
     4
 40
3.81
 49
1.905
 74
     0
 49
-0.9025
 74
     0
 49
0.1
 74
     0
 49
-0.9025
 74
     0
  0
LTYPE
  5
45
330
5
100
AcDbSymbolTableRecord
100
AcDbLinetypeTableRecord
  2
ACAD_ISO09W100
 70
     0
  3
ISO long-dash double-short-dash ____ __ __ ____
 72
    65
 73
     6
 40
45.0
 49
24.0
 74
     0
 49
-3.0
 74
     0
 49
6.0
 74
     0
 49
-3.0
 74
     0
 49
6.0
 74
     0
 49
-3.0
 74
     0
  0
LTYPE
  5
46
330
5
100
AcDbSymbolTableRecord
100
AcDbLinetypeTableRecord
  2
CENTERX2
 70
     0
  3
Center (2x) ________  __  ________  __  _____
 72
    65
 73
     4
 40
101.6
 49
63.5
 74
     0
 49
-12.7
 74
     0
 49
12.7
 74
     0
 49
-12.7
 74
     0
  0
LTYPE
  5
47
330
5
100
AcDbSymbolTableRecord
100
AcDbLinetypeTableRecord
  2
CENTERTINY
 70
     0
  3
Center (.15x) ___ _ ___ _ ___ _ ___ _ ___ _ ___
 72
    65
 73
     4
 40
7.619999999999999
 49
4.7625
 74
     0
 49
-0.9525
 74
     0
 49
0.9525
 74
     0
 49
-0.9525
 74
     0
  0
LTYPE
  5
48
330
5
100
AcDbSymbolTableRecord
100
AcDbLinetypeTableRecord
  2
DOTX2
 70
     0
  3
Dot (2x) .  .  .  .  .  .  .  .  .  .  .  .  .
 72
    65
 73
     2
 40
12.7
 49
0.1
 74
     0
 49
-12.6
 74
     0
  0
LTYPE
  5
49
330
5
100
AcDbSymbolTableRecord
100
AcDbLinetypeTableRecord
  2
ACAD_ISO08W100
 70
     0
  3
ISO long-dash short-dash ____ __ ____ __ ____ _
 72
    65
 73
     4
 40
36.0
 49
24.0
 74
     0
 49
-3.0
 74
     0
 49
6.0
 74
     0
 49
-3.0
 74
     0
  0
LTYPE
  5
4A
330
5
100
AcDbSymbolTableRecord
100
AcDbLinetypeTableRecord
  2
BORDER2
 70
     0
  3
Border (.5x) __.__.__.__.__.__.__.__.__.__.__.
 72
    65
 73
     6
 40
22.225
 49
6.35
 74
     0
 49
-3.175
 74
     0
 49
6.35
 74
     0
 49
-3.125
 74
     0
 49
0.1
 74
     0
 49
-3.125
 74
     0
  0
LTYPE
  5
4B
330
5
100
AcDbSymbolTableRecord
100
AcDbLinetypeTableRecord
  2
BORDERX2
 70
     0
  3
Border (2x) ____  ____  .  ____  ____  .  ___
 72
    65
 73
     6
 40
88.89999999999998
 49
25.4
 74
     0
 49
-12.7
 74
     0
 49
25.4
 74
     0
 49
-12.65
 74
     0
 49
0.1
 74
     0
 49
-12.65
 74
     0
  0
LTYPE
  5
4C
330
5
100
AcDbSymbolTableRecord
100
AcDbLinetypeTableRecord
  2
ACAD_ISO15W100
 70
     0
  3
ISO double-dash triple-dot __ __ . . . __ __ . .
 72
    65
 73
    10
 40
39.0
 49
12.0
 74
     0
 49
-3.0
 74
     0
 49
12.0
 74
     0
 49
-3.0
 74
     0
 49
0.0
 74
     0
 49
-3.0
 74
     0
 49
0.0
 74
     0
 49
-3.0
 74
     0
 49
0.0
 74
     0
 49
-3.0
 74
     0
  0
LTYPE
  5
4D
330
5
100
AcDbSymbolTableRecord
100
AcDbLinetypeTableRecord
  2
DASHDOTX2
 70
     0
  3
Dash dot (2x) ____  .  ____  .  ____  .  ___
 72
    65
 73
     4
 40
50.8
 49
25.4
 74
     0
 49
-12.65
 74
     0
 49
0.1
 74
     0
 49
-12.65
 74
     0
  0
LTYPE
  5
4E
330
5
100
AcDbSymbolTableRecord
100
AcDbLinetypeTableRecord
  2
DIVIDE2
 70
     0
  3
Divide (.5x) __..__..__..__..__..__..__..__.._
 72
    65
 73
     6
 40
15.875
 49
6.35
 74
     0
 49
-3.125
 74
     0
 49
0.1
 74
     0
 49
-3.075
 74
     0
 49
0.1
 74
     0
 49
-3.125
 74
     0
  0
LTYPE
  5
4F
330
5
100
AcDbSymbolTableRecord
100
AcDbLinetypeTableRecord
  2
ACAD_ISO07W100
 70
     0
  3
ISO dot . . . . . . . . . . . . . . . . . . . . 
 72
    65
 73
     2
 40
3.0
 49
0.0
 74
     0
 49
-3.0
 74
     0
  0
LTYPE
  5
50
330
5
100
AcDbSymbolTableRecord
100
AcDbLinetypeTableRecord
  2
DASHDOT2
 70
     0
  3
Dash dot (.5x) _._._._._._._._._._._._._._._.
 72
    65
 73
     4
 40
12.7
 49
6.35
 74
     0
 49
-3.125
 74
     0
 49
0.1
 74
     0
 49
-3.125
 74
     0
  0
LTYPE
  5
51
330
5
100
AcDbSymbolTableRecord
100
AcDbLinetypeTableRecord
  2
DOT2
 70
     0
  3
Dot (.5x) .....................................
 72
    65
 73
     2
 40
3.175
 49
0.1
 74
     0
 49
-3.075
 74
     0
  0
LTYPE
  5
52
330
5
100
AcDbSymbolTableRecord
100
AcDbLinetypeTableRecord
  2
HIDDEN2
 70
     0
  3
Hidden (.5x) _ _ _ _ _ _ _ _ _ _ _ _ _ _ _ _ _ 
 72
    65
 73
     2
 40
4.762499999999999
 49
3.175
 74
     0
 49
-1.5875
 74
     0
  0
LTYPE
  5
53
330
5
100
AcDbSymbolTableRecord
100
AcDbLinetypeTableRecord
  2
PHANTOM2
 70
     0
  3
Phantom (.5x) ___ _ _ ___ _ _ ___ _ _ ___ _ _
 72
    65
 73
     6
 40
31.75
 49
15.875
 74
     0
 49
-3.175
 74
     0
 49
3.175
 74
     0
 49
-3.175
 74
     0
 49
3.175
 74
     0
 49
-3.175
 74
     0
  0
LTYPE
  5
54
330
5
100
AcDbSymbolTableRecord
100
AcDbLinetypeTableRecord
  2
ACAD_ISO14W100
 70
     0
  3
ISO dash triple-dot __ . . . __ . . . __ . . . _
 72
    65
 73
     8
 40
24.0
 49
12.0
 74
     0
 49
-3.0
 74
     0
 49
0.0
 74
     0
 49
-3.0
 74
     0
 49
0.0
 74
     0
 49
-3.0
 74
     0
 49
0.0
 74
     0
 49
-3.0
 74
     0
  0
LTYPE
  5
55
330
5
100
AcDbSymbolTableRecord
100
AcDbLinetypeTableRecord
  2
ACAD_ISO06W100
 70
     0
  3
ISO long-dash triple-dot ____ ... ____ ... ____
 72
    65
 73
     8
 40
36.0
 49
24.0
 74
     0
 49
-3.0
 74
     0
 49
0.0
 74
     0
 49
-3.0
 74
     0
 49
0.0
 74
     0
 49
-3.0
 74
     0
 49
0.0
 74
     0
 49
-3.0
 74
     0
  0
LTYPE
  5
56
330
5
100
AcDbSymbolTableRecord
100
AcDbLinetypeTableRecord
  2
CENTER
 70
     0
  3
Center ____ _ ____ _ ____ _ ____ _ ____ _ ____
 72
    65
 73
     4
 40
50.8
 49
31.75
 74
     0
 49
-6.35
 74
     0
 49
6.35
 74
     0
 49
-6.35
 74
     0
  0
LTYPE
  5
57
330
5
100
AcDbSymbolTableRecord
100
AcDbLinetypeTableRecord
  2
PHANTOMX2
 70
     0
  3
Phantom (2x) ____________    ____    ____   _
 72
    65
 73
     6
 40
127.0
 49
63.5
 74
     0
 49
-12.7
 74
     0
 49
12.7
 74
     0
 49
-12.7
 74
     0
 49
12.7
 74
     0
 49
-12.7
 74
     0
  0
LTYPE
  5
58
330
5
100
AcDbSymbolTableRecord
100
AcDbLinetypeTableRecord
  2
DIVIDE
 70
     0
  3
Divide ____ . . ____ . . ____ . . ____ . . ____
 72
    65
 73
     6
 40
31.75
 49
12.7
 74
     0
 49
-6.3
 74
     0
 49
0.1
 74
     0
 49
-6.25
 74
     0
 49
0.1
 74
     0
 49
-6.3
 74
     0
  0
LTYPE
  5
59
330
5
100
AcDbSymbolTableRecord
100
AcDbLinetypeTableRecord
  2
HIDDENX2
 70
     0
  3
Hidden (2x) ____ ____ ____ ____ ____ ____ ____ 
 72
    65
 73
     2
 40
19.05
 49
12.7
 74
     0
 49
-6.35
 74
     0
  0
LTYPE
  5
5A
330
5
100
AcDbSymbolTableRecord
100
AcDbLinetypeTableRecord
  2
DASHED
 70
     0
  3
Dashed _ _ _ _ _ _ _ _ _ _ _ _ _ _ _ _ _
 72
    65
 73
     2
 40
19.05
 49
12.7
 74
     0
 49
-6.35
 74
     0
  0
LTYPE
  5
5B
330
5
100
AcDbSymbolTableRecord
100
AcDbLinetypeTableRecord
  2
ACAD_ISO13W100
 70
     0
  3
ISO double-dash double-dot __ __ . . __ __ . . _
 72
    65
 73
     8
 40
36.0
 49
12.0
 74
     0
 49
-3.0
 74
     0
 49
12.0
 74
     0
 49
-3.0
 74
     0
 49
0.0
 74
     0
 49
-3.0
 74
     0
 49
0.0
 74
     0
 49
-3.0
 74
     0
  0
LTYPE
  5
5C
330
5
100
AcDbSymbolTableRecord
100
AcDbLinetypeTableRecord
  2
ACAD_ISO05W100
 70
     0
  3
ISO long-dash double-dot ____ .. ____ .. ____ . 
 72
    65
 73
     6
 40
33.0
 49
24.0
 74
     0
 49
-3.0
 74
     0
 49
0.0
 74
     0
 49
-3.0
 74
     0
 49
0.0
 74
     0
 49
-3.0
 74
     0
  0
ENDTAB
  0
TABLE
  2
LAYER
  5
2
330
0
100
AcDbSymbolTable
 70
    13
  0
LAYER
  5
10
330
2
100
AcDbSymbolTableRecord
100
AcDbLayerTableRecord
  2
0
 70
     1
 62
    -7
  6
CONTINUOUS
  0
LAYER
  5
5D
330
2
100
AcDbSymbolTableRecord
100
AcDbLayerTableRecord
  2
BASE_TOP
 70
     1
 62
    -4
  6
CONTINUOUS
  0
LAYER
  5
5E
330
2
100
AcDbSymbolTableRecord
100
AcDbLayerTableRecord
  2
WORKING
 70
     1
 62
    -3
  6
CONTINUOUS
  0
LAYER
  5
5F
330
2
100
AcDbSymbolTableRecord
100
AcDbLayerTableRecord
  2
MIDDLE
 70
     0
 62
     7
  6
CONTINUOUS
  0
LAYER
  5
60
330
2
100
AcDbSymbolTableRecord
100
AcDbLayerTableRecord
  2
BACK
 70
     1
 62
  -136
  6
CONTINUOUS
  0
LAYER
  5
61
330
2
100
AcDbSymbolTableRecord
100
AcDbLayerTableRecord
  2
BASE_MAIN
 70
     1
 62
    -2
  6
CONTINUOUS
  0
LAYER
  5
62
330
2
100
AcDbSymbolTableRecord
100
AcDbLayerTableRecord
  2
FRONT
 70
     1
 62
    -4
  6
CONTINUOUS
  0
LAYER
  5
63
330
2
100
AcDbSymbolTableRecord
100
AcDbLayerTableRecord
  2
HIDDEN
 70
     1
 62
    -1
  6
DASHEDX2
  0
LAYER
  5
64
330
2
100
AcDbSymbolTableRecord
100
AcDbLayerTableRecord
  2
CENTRE
 70
     1
 62
    -1
  6
CENTER
  0
LAYER
  5
65
330
2
100
AcDbSymbolTableRecord
100
AcDbLayerTableRecord
  2
SEGMENT
 70
     0
 62
     7
  6
CONTINUOUS
  0
LAYER
  5
66
330
2
100
AcDbSymbolTableRecord
100
AcDbLayerTableRecord
  2
MAIN_RING
 70
     0
 62
     2
  6
CONTINUOUS
  0
LAYER
  5
67
330
2
100
AcDbSymbolTableRecord
100
AcDbLayerTableRecord
  2
BASE_FLOOR
 70
     1
 62
    -4
  6
CONTINUOUS
  0
LAYER
  5
68
330
2
100
AcDbSymbolTableRecord
100
AcDbLayerTableRecord
  2
LED_RING
 70
     0
 62
     2
  6
CONTINUOUS
  0
ENDTAB
  0
TABLE
  2
STYLE
  5
3
330
0
100
AcDbSymbolTable
 70
     1
  0
STYLE
  5
69
330
3
100
AcDbSymbolTableRecord
100
AcDbTextStyleTableRecord
  2
STANDARD
 70
     0
 40
0.0
 41
1.0
 50
0.0
 71
     0
 42
2.5
  3

  4

1001
ACAD
1000
txt
1071
        0
  0
ENDTAB
  0
TABLE
  2
VIEW
  5
6
330
0
100
AcDbSymbolTable
 70
     0
  0
ENDTAB
  0
TABLE
  2
UCS
  5
7
330
0
100
AcDbSymbolTable
 70
     0
  0
ENDTAB
  0
TABLE
  2
APPID
  5
9
330
0
100
AcDbSymbolTable
 70
     3
  0
APPID
  5
12
330
9
100
AcDbSymbolTableRecord
100
AcDbRegAppTableRecord
  2
ACAD
 70
     0
  0
APPID
  5
6A
330
9
100
AcDbSymbolTableRecord
100
AcDbRegAppTableRecord
  2
QCAD
 70
     0
  0
APPID
  5
10071
330
9
100
AcDbSymbolTableRecord
100
AcDbRegAppTableRecord
  2
ACAD_MLEADERVER
 70
     0
  0
ENDTAB
  0
TABLE
  2
DIMSTYLE
  5
A
330
0
100
AcDbSymbolTable
 70
     1
  0
DIMSTYLE
105
27
330
A
100
AcDbSymbolTableRecord
100
AcDbDimStyleTableRecord
  2
STANDARD
 70
     0
  3

  4

  5

  6

  7

 40
1.0
 41
2.5
 42
0.625
 43
3.75
 44
1.25
 45
0.0
 46
0.0
 47
0.0
 48
0.0
140
2.5
141
2.5
142
0.0
143
0.03937007874016
144
1.0
145
0.0
146
1.0
147
0.625
 71
     0
 72
     0
 73
     0
 74
     0
 75
     0
 76
     0
 77
     1
 78
     8
170
     0
171
     3
172
     1
173
     0
174
     0
175
     0
176
     0
177
     0
178
     0
270
     2
271
     2
272
     2
273
     2
274
     3
340
69
275
     0
280
     0
281
     0
282
     0
283
     0
284
     8
285
     0
286
     0
287
     3
288
     0
  0
ENDTAB
  0
TABLE
  2
BLOCK_RECORD
  5
1
330
0
100
AcDbSymbolTable
 70
     5
  0
BLOCK_RECORD
  5
1F
330
1
100
AcDbSymbolTableRecord
100
AcDbBlockTableRecord
  2
*MODEL_SPACE
  0
BLOCK_RECORD
  5
1B
330
1
100
AcDbSymbolTableRecord
100
AcDbBlockTableRecord
  2
*PAPER_SPACE
  0
BLOCK_RECORD
  5
6B
330
1
100
AcDbSymbolTableRecord
100
AcDbBlockTableRecord
  2
SMOOTH_SEGMENT
  0
BLOCK_RECORD
  5
6C
330
1
100
AcDbSymbolTableRecord
100
AcDbBlockTableRecord
  2
FACE_CUTOUT
  0
BLOCK_RECORD
  5
6D
330
1
100
AcDbSymbolTableRecord
100
AcDbBlockTableRecord
  2
SEGMENT2
  0
BLOCK_RECORD
  5
6E
330
1
100
AcDbSymbolTableRecord
100
AcDbBlockTableRecord
  2
SEGMENT
  0
ENDTAB
  0
ENDSEC
  0
SECTION
  2
BLOCKS
  0
BLOCK
  5
20
330
1F
100
AcDbEntity
  8
0
100
AcDbBlockBegin
  2
*MODEL_SPACE
 70
     0
 10
0.0
 20
0.0
 30
0.0
  3
*MODEL_SPACE
  1

  0
ENDBLK
  5
21
330
1F
100
AcDbEntity
  8
0
100
AcDbBlockEnd
  0
BLOCK
  5
1C
330
1B
100
AcDbEntity
 67
     1
  8
0
100
AcDbBlockBegin
  2
*PAPER_SPACE
 70
     0
 10
0.0
 20
0.0
 30
0.0
  3
*PAPER_SPACE
  1

  0
ENDBLK
  5
1D
330
1B
100
AcDbEntity
 67
     1
  8
0
100
AcDbBlockEnd
  0
BLOCK
  5
6F
330
6B
100
AcDbEntity
  8
0
100
AcDbBlockBegin
  2
SMOOTH_SEGMENT
 70
     0
 10
0.0
 20
0.0
 30
0.0
  3
SMOOTH_SEGMENT
  1

  0
ARC
  5
70
330
6B
100
AcDbEntity
  8
SEGMENT
100
AcDbCircle
 10
-20.91974669599961
 20
-85.80096416125375
 30
0.0
 40
1.0
100
AcDbArc
 50
164.9999999999993
 51
238.3984504009753
  0
ARC
  5
71
330
6B
100
AcDbEntity
  8
SEGMENT
100
AcDbCircle
 10
-24.58780928473939
 20
-91.76295349746167
 30
0.0
 40
5.99999999999848
100
AcDbArc
 50
359.4441454294956
 51
58.39845040097675
  0
ARC
  5
72
330
6B
100
AcDbEntity
  8
SEGMENT
100
AcDbCircle
 10
-17.58813869849945
 20
-91.83086287911289
 30
0.0
 40
1.0
100
AcDbArc
 50
179.4441454294958
 51
259.1575848180193
  0
ARC
  5
73
330
6B
100
AcDbEntity
  8
SEGMENT
100
AcDbCircle
 10
0.0
 20
0.0
 30
0.0
 40
94.50000000000033
100
AcDbArc
 50
259.1575848180216
 51
280.8424151819775
  0
ARC
  5
74
330
6B
100
AcDbEntity
  8
SEGMENT
100
AcDbCircle
 10
17.58813869849774
 20
-91.83086287911314
 30
0.0
 40
1.0
100
AcDbArc
 50
280.8424151819769
 51
0.5558545705067379
  0
ARC
  5
75
330
6B
100
AcDbEntity
  8
SEGMENT
100
AcDbCircle
 10
24.58780928473959
 20
-91.76295349746167
 30
0.0
 40
6.000000000002029
100
AcDbArc
 50
121.6015495990154
 51
180.5558545705063
  0
ARC
  5
76
330
6B
100
AcDbEntity
  8
SEGMENT
100
AcDbCircle
 10
20.9197466959979
 20
-85.8009641612488
 30
0.0
 40
1.0
100
AcDbArc
 50
301.6015495990164
 51
15.00000000000075
  0
LINE
  5
77
330
6B
100
AcDbEntity
  8
SEGMENT
100
AcDbLine
 10
21.885672522287
 20
-85.54214511614626
 30
0.0
 11
7.68904650809867
 21
-32.55961553514129
 31
0.0
  0
ARC
  5
78
330
6B
100
AcDbEntity
  8
SEGMENT
100
AcDbCircle
 10
6.723120681809576
 20
-32.81843458024383
 30
0.0
 40
1.0
100
AcDbArc
 50
15.00000000000075
 51
101.5773211656793
  0
ARC
  5
79
330
6B
100
AcDbEntity
  8
SEGMENT
100
AcDbCircle
 10
4.882312598729186
 20
-33.1423147002171
 30
0.0
 40
1.0
100
AcDbArc
 50
98.38017235866921
 51
172.3686103094687
  0
LINE
  5
7A
330
6B
100
AcDbEntity
  8
SEGMENT
100
AcDbLine
 10
3.891764825148471
 20
-33.00507333086088
 30
0.0
 11
3.89116966434716
 21
-33.00951528898071
 31
0.0
  0
ARC
  5
7B
330
6B
100
AcDbEntity
  8
SEGMENT
100
AcDbCircle
 10
2.900621890766502
 20
-32.87227391962449
 30
0.0
 40
1.0
100
AcDbArc
 50
275.042670948024
 51
352.3686103094683
  0
ARC
  5
7C
330
6B
100
AcDbEntity
  8
SEGMENT
100
AcDbCircle
 10
0.0
 20
0.0
 30
0.0
 40
34.0
100
AcDbArc
 50
264.9846051048588
 51
275.0426709480242
  0
ARC
  5
7D
330
6B
100
AcDbEntity
  8
SEGMENT
100
AcDbCircle
 10
-2.884972488876997
 20
-32.87365105579906
 30
0.0
 40
1.0
100
AcDbArc
 50
183.2476926755675
 51
264.9846051048569
  0
ARC
  5
7E
330
6B
100
AcDbEntity
  8
SEGMENT
100
AcDbCircle
 10
-4.881760394455455
 20
-32.98695621955349
 30
0.0
 40
1.0
100
AcDbArc
 50
3.247692675566134
 51
81.58186254204097
  0
ARC
  5
7F
330
6B
100
AcDbEntity
  8
SEGMENT
100
AcDbCircle
 10
0.0
 20
0.0
 30
0.0
 40
32.34622715060247
100
AcDbArc
 50
258.4384811131197
 51
261.5818625420392
  0
LINE
  5
80
330
6B
100
AcDbEntity
  8
SEGMENT
100
AcDbLine
 10
-21.8856725222887
 20
-85.5421451161512
 30
0.0
 11
-7.649175719283164
 21
-32.4108157255433
 31
0.0
  0
ARC
  5
81
330
6B
100
AcDbEntity
  8
SEGMENT
100
AcDbCircle
 10
-6.683249892994127
 20
-32.66963477064581
 30
0.0
 40
1.0
100
AcDbArc
 50
78.43848111311907
 51
165.0
  0
LINE
  5
82
330
6B
100
AcDbEntity
  8
SEGMENT
100
AcDbLine
 10
4.736571924140264
 20
-32.15299187334492
 30
0.0
 11
6.5224305122033
 21
-31.83877981665444
 31
0.0
  0
ENDBLK
  5
83
330
6B
100
AcDbEntity
  8
0
100
AcDbBlockEnd
  0
BLOCK
  5
84
330
6C
100
AcDbEntity
  8
0
100
AcDbBlockBegin
  2
FACE_CUTOUT
 70
     0
 10
0.0
 20
0.0
 30
0.0
  3
FACE_CUTOUT
  1

  0
ARC
  5
85
330
6C
100
AcDbEntity
  8
FRONT
100
AcDbCircle
 10
4.000000000000171
 20
37.78888725538235
 30
0.0
 40
1.0
100
AcDbArc
 50
180.0
 51
263.9576715809472
  0
ARC
  5
86
330
6C
100
AcDbEntity
  8
FRONT
100
AcDbCircle
 10
0.0
 20
0.0
 30
0.0
 40
36.9999999999992
100
AcDbArc
 50
66.04232841905413
 51
83.9576715809456
  0
ARC
  5
87
330
6C
100
AcDbEntity
  8
FRONT
100
AcDbCircle
 10
15.43034201255301
 20
34.72613634390621
 30
0.0
 40
1.0
100
AcDbArc
 50
246.0423284190538
 51
329.9999999999994
  0
LINE
  5
88
330
6C
100
AcDbEntity
  8
FRONT
100
AcDbLine
 10
40.85592245390222
 20
76.76453348025257
 30
0.0
 11
16.29636741633743
 21
34.22613634390621
 31
0.0
  0
ARC
  5
89
330
6C
100
AcDbEntity
  8
FRONT
100
AcDbCircle
 10
39.9898970501178
 20
77.26453348025257
 30
0.0
 40
1.0
100
AcDbArc
 50
329.9999999999994
 51
62.63521769469886
  0
ARC
  5
8A
330
6C
100
AcDbEntity
  8
FRONT
100
AcDbCircle
 10
0.0
 20
0.0
 30
0.0
 40
88.00000000000037
100
AcDbArc
 50
62.63521769469891
 51
87.36478230530089
  0
ARC
  5
8B
330
6C
100
AcDbEntity
  8
FRONT
100
AcDbCircle
 10
4.000000000000171
 20
86.90799733051102
 30
0.0
 40
1.0
100
AcDbArc
 50
87.36478230530075
 51
180.0
  0
LINE
  5
8C
330
6C
100
AcDbEntity
  8
FRONT
100
AcDbLine
 10
3.000000000000171
 20
86.90799733051102
 30
0.0
 11
3.000000000000171
 21
37.78888725538235
 31
0.0
  0
ENDBLK
  5
8D
330
6C
100
AcDbEntity
  8
0
100
AcDbBlockEnd
  0
BLOCK
  5
8E
330
6D
100
AcDbEntity
  8
0
100
AcDbBlockBegin
  2
SEGMENT2
 70
     0
 10
0.0
 20
0.0
 30
0.0
  3
SEGMENT2
  1

  0
LINE
  5
8F
330
6D
100
AcDbEntity
  8
SEGMENT
100
AcDbLine
 10
1.000000000000114
 20
-94.49470884658038
 30
0.0
 11
1.000000000000114
 21
-32.48461174155989
 31
0.0
  0
LINE
  5
90
330
6D
100
AcDbEntity
  8
SEGMENT
100
AcDbLine
 10
46.38132901950593
 20
-82.33481838435307
 30
0.0
 11
15.37628046699672
 21
-28.63249900026739
 31
0.0
  0
ARC
  5
91
330
6D
100
AcDbEntity
  8
SEGMENT
100
AcDbCircle
 10
0.0
 20
0.0
 30
0.0
 40
94.50000000000033
100
AcDbArc
 50
270.6063158612398
 51
299.3936841387602
  0
ARC
  5
92
330
6D
100
AcDbEntity
  8
SEGMENT
100
AcDbCircle
 10
0.0
 20
0.0
 30
0.0
 40
32.49999999999835
100
AcDbArc
 50
292.0562466825749
 51
298.2367746424276
  0
ARC
  5
93
330
6D
100
AcDbEntity
  8
SEGMENT
100
AcDbCircle
 10
0.0
 20
0.0
 30
0.0
 40
32.34622715060247
100
AcDbArc
 50
271.7632253575724
 51
277.9322144603843
  0
ARC
  5
94
330
6D
100
AcDbEntity
  8
SEGMENT
100
AcDbCircle
 10
0.0
 20
0.0
 30
0.0
 40
34.0
100
AcDbArc
 50
278.6053280286986
 51
291.3946719713078
  0
LINE
  5
95
330
6D
100
AcDbEntity
  8
SEGMENT
100
AcDbLine
 10
4.463825816810584
 20
-32.03673937771364
 30
0.0
 11
5.087327821847055
 21
-33.61724402197569
 31
0.0
  0
LINE
  5
96
330
6D
100
AcDbEntity
  8
SEGMENT
100
AcDbLine
 10
12.40286687989249
 20
-31.65705123917365
 30
0.0
 11
12.20429014023176
 21
-30.12150896241644
 31
0.0
  0
ENDBLK
  5
97
330
6D
100
AcDbEntity
  8
0
100
AcDbBlockEnd
  0
BLOCK
  5
98
330
6E
100
AcDbEntity
  8
0
100
AcDbBlockBegin
  2
SEGMENT
 70
     0
 10
0.0
 20
0.0
 30
0.0
  3
SEGMENT
  1

  0
LINE
  5
99
330
6E
100
AcDbEntity
  8
LED_RING
100
AcDbLine
 10
7.76457135307561
 20
-28.97777478867209
 30
0.0
 11
8.230445634260093
 21
-30.71644127599239
 31
0.0
  0
LINE
  5
9A
330
6E
100
AcDbEntity
  8
LED_RING
100
AcDbLine
 10
10.26060429977002
 20
-28.19077862357727
 30
0.0
 11
10.87624055775632
 21
-29.88222534099185
 31
0.0
  0
LINE
  5
9B
330
6E
100
AcDbEntity
  8
WORKING
100
AcDbLine
 10
1.000000000000114
 20
-32.48461174155989
 30
0.0
 11
0.9952685277108912
 21
-32.33091170128242
 31
0.0
  0
LINE
  5
9C
330
6E
100
AcDbEntity
  8
SEGMENT
100
AcDbLine
 10
1.000000000000114
 20
-94.49470884658038
 30
0.0
 11
1.000000000000114
 21
-32.48461174155989
 31
0.0
  0
LINE
  5
9D
330
6E
100
AcDbEntity
  8
SEGMENT
100
AcDbLine
 10
46.38132901950593
 20
-82.33481838435307
 30
0.0
 11
15.37628046699672
 21
-28.63249900026739
 31
0.0
  0
ARC
  5
9E
330
6E
100
AcDbEntity
  8
SEGMENT
100
AcDbCircle
 10
0.0
 20
0.0
 30
0.0
 40
94.50000000000033
100
AcDbArc
 50
270.6063158612398
 51
299.3936841387602
  0
ARC
  5
9F
330
6E
100
AcDbEntity
  8
SEGMENT
100
AcDbCircle
 10
0.0
 20
0.0
 30
0.0
 40
32.49999999999835
100
AcDbArc
 50
292.0562466825749
 51
298.2367746424276
  0
ARC
  5
A0
330
6E
100
AcDbEntity
  8
SEGMENT
100
AcDbCircle
 10
0.0
 20
0.0
 30
0.0
 40
32.34622715060247
100
AcDbArc
 50
271.7632253575724
 51
277.9322144603843
  0
ARC
  5
A1
330
6E
100
AcDbEntity
  8
SEGMENT
100
AcDbCircle
 10
0.0
 20
0.0
 30
0.0
 40
34.0
100
AcDbArc
 50
278.6053280286986
 51
291.3946719713078
  0
LINE
  5
A2
330
6E
100
AcDbEntity
  8
SEGMENT
100
AcDbLine
 10
4.463825816810584
 20
-32.03673937771364
 30
0.0
 11
5.087327821847055
 21
-33.61724402197569
 31
0.0
  0
LINE
  5
A3
330
6E
100
AcDbEntity
  8
SEGMENT
100
AcDbLine
 10
12.40286687989249
 20
-31.65705123917365
 30
0.0
 11
12.20429014023176
 21
-30.12150896241644
 31
0.0
  0
ENDBLK
  5
A4
330
6E
100
AcDbEntity
  8
0
100
AcDbBlockEnd
  0
ENDSEC
  0
SECTION
  2
ENTITIES
  0
LINE
  5
A5
330
1F
100
AcDbEntity
  8
CENTRE
100
AcDbLine
 10
133.248322147651
 20
286.8540268456376
 30
0.0
 11
433.248322147651
 21
286.8540268456376
 31
0.0
  0
LINE
  5
A6
330
1F
100
AcDbEntity
  8
CENTRE
100
AcDbLine
 10
277.6006711409396
 20
142.501677852349
 30
0.0
 11
277.6006711409396
 21
442.501677852349
 31
0.0
  0
LINE
  5
A7
330
1F
100
AcDbEntity
  8
CENTRE
100
AcDbLine
 10
349.7768456375838
 20
161.8412255214926
 30
0.0
 11
199.7768456375839
 21
421.6488466568243
 31
0.0
  0
LINE
  5
A8
330
1F
100
AcDbEntity
  8
CENTRE
100
AcDbLine
 10
314.9618082656884
 20
147.4203648675274
 30
0.0
 11
237.3160947349321
 21
437.1981127542479
 31
0.0
  0
CIRCLE
  5
A9
330
1F
100
AcDbEntity
  8
FRONT
100
AcDbCircle
 10
277.6006711409396
 20
286.8540268456376
 30
0.0
 40
25.0
  0
INSERT
  5
AA
330
1F
100
AcDbEntity
  8
FRONT
100
AcDbBlockReference
  2
FACE_CUTOUT
 10
277.6006711409396
 20
286.8540268456376
 30
0.0
 50
15.00000000000001
  0
INSERT
  5
AB
330
1F
100
AcDbEntity
  8
FRONT
100
AcDbBlockReference
  2
FACE_CUTOUT
 10
277.6006711409396
 20
286.8540268456376
 30
0.0
 50
45.0
  0
INSERT
  5
AC
330
1F
100
AcDbEntity
  8
FRONT
100
AcDbBlockReference
  2
FACE_CUTOUT
 10
277.6006711409396
 20
286.8540268456376
 30
0.0
 50
75.0
  0
INSERT
  5
AD
330
1F
100
AcDbEntity
  8
FRONT
100
AcDbBlockReference
  2
FACE_CUTOUT
 10
277.6006711409396
 20
286.8540268456376
 30
0.0
 50
105.0
  0
INSERT
  5
AE
330
1F
100
AcDbEntity
  8
FRONT
100
AcDbBlockReference
  2
FACE_CUTOUT
 10
277.6006711409396
 20
286.8540268456376
 30
0.0
 50
135.0
  0
INSERT
  5
AF
330
1F
100
AcDbEntity
  8
FRONT
100
AcDbBlockReference
  2
FACE_CUTOUT
 10
277.6006711409396
 20
286.8540268456376
 30
0.0
 50
165.0
  0
INSERT
  5
B0
330
1F
100
AcDbEntity
  8
FRONT
100
AcDbBlockReference
  2
FACE_CUTOUT
 10
277.6006711409396
 20
286.8540268456376
 30
0.0
 50
195.0
  0
INSERT
  5
B1
330
1F
100
AcDbEntity
  8
FRONT
100
AcDbBlockReference
  2
FACE_CUTOUT
 10
277.6006711409396
 20
286.8540268456376
 30
0.0
 50
225.0
  0
INSERT
  5
B2
330
1F
100
AcDbEntity
  8
FRONT
100
AcDbBlockReference
  2
FACE_CUTOUT
 10
277.6006711409396
 20
286.8540268456376
 30
0.0
 50
255.0
  0
INSERT
  5
B3
330
1F
100
AcDbEntity
  8
FRONT
100
AcDbBlockReference
  2
FACE_CUTOUT
 10
277.6006711409396
 20
286.8540268456376
 30
0.0
 50
285.0
  0
INSERT
  5
B4
330
1F
100
AcDbEntity
  8
FRONT
100
AcDbBlockReference
  2
FACE_CUTOUT
 10
277.6006711409396
 20
286.8540268456376
 30
0.0
 50
314.9999999999998
  0
INSERT
  5
B5
330
1F
100
AcDbEntity
  8
FRONT
100
AcDbBlockReference
  2
FACE_CUTOUT
 10
277.6006711409396
 20
286.8540268456376
 30
0.0
 50
345.0
  0
INSERT
  5
B6
330
1F
100
AcDbEntity
  8
FRONT
100
AcDbBlockReference
  2
FACE_CUTOUT
 10
277.6006711409396
 20
286.8540268456376
 30
0.0
 50
14.99999999999998
  0
ARC
  5
B7
330
1F
100
AcDbEntity
  8
FRONT
100
AcDbCircle
 10
250.7187666306895
 20
189.4971410598762
 30
0.0
 40
1.0
100
AcDbArc
 50
0.0
 51
74.56425877950687
  0
LINE
  5
B8
330
1F
100
AcDbEntity
  8
FRONT
100
AcDbLine
 10
251.7187666306895
 20
189.4971410598762
 30
0.0
 11
251.7187666306895
 21
181.2614442167307
 31
0.0
  0
ARC
  5
B9
330
1F
100
AcDbEntity
  8
FRONT
100
AcDbCircle
 10
252.7187666306895
 20
181.2614442167307
 30
0.0
 40
1.0
100
AcDbArc
 50
180.0
 51
270.0
  0
LINE
  5
BA
330
1F
100
AcDbEntity
  8
FRONT
100
AcDbLine
 10
252.7187666306895
 20
180.2614442167306
 30
0.0
 11
302.4825756511918
 21
180.2614442167306
 31
0.0
  0
ARC
  5
BB
330
1F
100
AcDbEntity
  8
FRONT
100
AcDbCircle
 10
302.4825756511918
 20
181.2614442167306
 30
0.0
 40
1.0
100
AcDbArc
 50
270.0
 51
0.0
  0
LINE
  5
BC
330
1F
100
AcDbEntity
  8
FRONT
100
AcDbLine
 10
303.4825756511918
 20
189.4971410598762
 30
0.0
 11
303.4825756511918
 21
181.2614442167306
 31
0.0
  0
ARC
  5
BD
330
1F
100
AcDbEntity
  8
FRONT
100
AcDbCircle
 10
304.4825756511918
 20
189.4971410598762
 30
0.0
 40
1.0
100
AcDbArc
 50
105.4357412204932
 51
180.0
  0
ARC
  5
BE
330
1F
100
AcDbEntity
  8
FRONT
100
AcDbCircle
 10
277.6006711409396
 20
286.8540268456376
 30
0.0
 40
99.99999999999991
100
AcDbArc
 50
285.4357412204943
 51
254.5642587795069
  0
ARC
  5
BF
330
1F
100
AcDbEntity
  8
MAIN_RING
100
AcDbCircle
 10
250.7187666306895
 20
189.4971410598762
 30
0.0
 40
1.0
100
AcDbArc
 50
0.0
 51
74.56425877950687
  0
LINE
  5
C0
330
1F
100
AcDbEntity
  8
MAIN_RING
100
AcDbLine
 10
251.7187666306895
 20
189.4971410598762
 30
0.0
 11
251.7187666306895
 21
181.2614442167307
 31
0.0
  0
ARC
  5
C1
330
1F
100
AcDbEntity
  8
MAIN_RING
100
AcDbCircle
 10
252.7187666306895
 20
181.2614442167307
 30
0.0
 40
1.0
100
AcDbArc
 50
180.0
 51
270.0
  0
LINE
  5
C2
330
1F
100
AcDbEntity
  8
MAIN_RING
100
AcDbLine
 10
252.7187666306895
 20
180.2614442167306
 30
0.0
 11
302.4825756511918
 21
180.2614442167306
 31
0.0
  0
ARC
  5
C3
330
1F
100
AcDbEntity
  8
MAIN_RING
100
AcDbCircle
 10
302.4825756511918
 20
181.2614442167306
 30
0.0
 40
1.0
100
AcDbArc
 50
270.0
 51
0.0
  0
LINE
  5
C4
330
1F
100
AcDbEntity
  8
MAIN_RING
100
AcDbLine
 10
303.4825756511918
 20
189.4971410598762
 30
0.0
 11
303.4825756511918
 21
181.2614442167306
 31
0.0
  0
ARC
  5
C5
330
1F
100
AcDbEntity
  8
MAIN_RING
100
AcDbCircle
 10
304.4825756511918
 20
189.4971410598762
 30
0.0
 40
1.0
100
AcDbArc
 50
105.4357412204932
 51
180.0
  0
ARC
  5
C6
330
1F
100
AcDbEntity
  8
MAIN_RING
100
AcDbCircle
 10
277.6006711409396
 20
286.8540268456376
 30
0.0
 40
99.99999999999991
100
AcDbArc
 50
285.4357412204943
 51
254.5642587795069
  0
LINE
  5
C7
330
1F
100
AcDbEntity
  8
SEGMENT
100
AcDbLine
 10
281.3238076759428
 20
258.469711317683
 30
0.0
 11
281.3251848186863
 21
258.5632556050278
 31
0.0
  0
LINE
  5
C8
330
1F
100
AcDbEntity
  8
SEGMENT
100
AcDbLine
 10
288.5073231110913
 20
260.5076444896605
 30
0.0
 11
288.5676382513991
 21
260.4073115523282
 31
0.0
  0
INSERT
  5
C9
330
1F
100
AcDbEntity
  8
SEGMENT
100
AcDbBlockReference
  2
SMOOTH_SEGMENT
 10
277.6006711409396
 20
286.8540268456376
 30
0.0
  0
INSERT
  5
CA
330
1F
100
AcDbEntity
  8
SEGMENT
100
AcDbBlockReference
  2
SMOOTH_SEGMENT
 10
277.6006711409396
 20
286.8540268456376
 30
0.0
 50
29.99999999999999
  0
INSERT
  5
CB
330
1F
100
AcDbEntity
  8
SEGMENT
100
AcDbBlockReference
  2
SMOOTH_SEGMENT
 10
277.6006711409396
 20
286.8540268456376
 30
0.0
 50
60.0
  0
INSERT
  5
CC
330
1F
100
AcDbEntity
  8
SEGMENT
100
AcDbBlockReference
  2
SMOOTH_SEGMENT
 10
277.6006711409396
 20
286.8540268456376
 30
0.0
 50
90.0
  0
INSERT
  5
CD
330
1F
100
AcDbEntity
  8
SEGMENT
100
AcDbBlockReference
  2
SMOOTH_SEGMENT
 10
277.6006711409396
 20
286.8540268456376
 30
0.0
 50
120.0
  0
INSERT
  5
CE
330
1F
100
AcDbEntity
  8
SEGMENT
100
AcDbBlockReference
  2
SMOOTH_SEGMENT
 10
277.6006711409396
 20
286.8540268456376
 30
0.0
 50
150.0
  0
INSERT
  5
CF
330
1F
100
AcDbEntity
  8
SEGMENT
100
AcDbBlockReference
  2
SMOOTH_SEGMENT
 10
277.6006711409396
 20
286.8540268456376
 30
0.0
 50
180.0
  0
INSERT
  5
D0
330
1F
100
AcDbEntity
  8
SEGMENT
100
AcDbBlockReference
  2
SMOOTH_SEGMENT
 10
277.6006711409396
 20
286.8540268456376
 30
0.0
 50
210.0
  0
INSERT
  5
D1
330
1F
100
AcDbEntity
  8
SEGMENT
100
AcDbBlockReference
  2
SMOOTH_SEGMENT
 10
277.6006711409396
 20
286.8540268456376
 30
0.0
 50
240.0
  0
INSERT
  5
D2
330
1F
100
AcDbEntity
  8
SEGMENT
100
AcDbBlockReference
  2
SMOOTH_SEGMENT
 10
277.6006711409396
 20
286.8540268456376
 30
0.0
 50
270.0
  0
INSERT
  5
D3
330
1F
100
AcDbEntity
  8
SEGMENT
100
AcDbBlockReference
  2
SMOOTH_SEGMENT
 10
277.6006711409396
 20
286.8540268456376
 30
0.0
 50
300.0
  0
INSERT
  5
D4
330
1F
100
AcDbEntity
  8
SEGMENT
100
AcDbBlockReference
  2
SMOOTH_SEGMENT
 10
277.6006711409396
 20
286.8540268456376
 30
0.0
 50
330.0
  0
INSERT
  5
D5
330
1F
100
AcDbEntity
  8
SEGMENT
100
AcDbBlockReference
  2
SMOOTH_SEGMENT
 10
277.6006711409396
 20
286.8540268456376
 30
0.0
 50
360.0
  0
ARC
  5
D6
330
1F
100
AcDbEntity
  8
MAIN_RING
100
AcDbCircle
 10
247.6378052566865
 20
197.7573003737729
 30
0.0
 40
1.0
100
AcDbArc
 50
251.4124176886309
 51
333.616886517565
  0
ARC
  5
D7
330
1F
100
AcDbEntity
  8
MAIN_RING
100
AcDbCircle
 10
253.0128618562002
 20
195.0910733481759
 30
0.0
 40
5.0
100
AcDbArc
 50
356.3831134824362
 51
153.616886517564
  0
ARC
  5
D8
330
1F
100
AcDbEntity
  8
MAIN_RING
100
AcDbCircle
 10
259.0009109309556
 20
194.7125653848428
 30
0.0
 40
1.0
100
AcDbArc
 50
176.3831134824361
 51
258.5875823113678
  0
ARC
  5
D9
330
1F
100
AcDbEntity
  8
MAIN_RING
100
AcDbCircle
 10
307.5635370251927
 20
197.7573003737728
 30
0.0
 40
1.0
100
AcDbArc
 50
206.3831134824356
 51
288.5875823113675
  0
ARC
  5
DA
330
1F
100
AcDbEntity
  8
MAIN_RING
100
AcDbCircle
 10
277.6006711409396
 20
286.8540268456376
 30
0.0
 40
95.00000000000007
100
AcDbArc
 50
288.5875823113699
 51
311.4124176886305
  0
ARC
  5
DB
330
1F
100
AcDbEntity
  8
MAIN_RING
100
AcDbCircle
 10
339.7792667174821
 20
216.3570605837565
 30
0.0
 40
1.0
100
AcDbArc
 50
311.4124176886265
 51
33.61688651756357
  0
ARC
  5
DC
330
1F
100
AcDbEntity
  8
MAIN_RING
100
AcDbCircle
 10
344.7758153536617
 20
219.6788826329154
 30
0.0
 40
5.0
100
AcDbArc
 50
56.38311348244078
 51
213.6168865175624
  0
ARC
  5
DD
330
1F
100
AcDbEntity
  8
MAIN_RING
100
AcDbCircle
 10
348.0976374028192
 20
224.6754312690937
 30
0.0
 40
1.0
100
AcDbArc
 50
236.3831134824415
 51
318.5875823113706
  0
ARC
  5
DE
330
1F
100
AcDbEntity
  8
MAIN_RING
100
AcDbCircle
 10
277.6006711409396
 20
286.8540268456376
 30
0.0
 40
95.00000000000001
100
AcDbArc
 50
318.5875823113683
 51
341.4124176886307
  0
ARC
  5
DF
330
1F
100
AcDbEntity
  8
MAIN_RING
100
AcDbCircle
 10
366.6973976128047
 20
256.8911609613858
 30
0.0
 40
1.0
100
AcDbArc
 50
341.4124176886273
 51
63.6168865175617
  0
ARC
  5
E0
330
1F
100
AcDbEntity
  8
MAIN_RING
100
AcDbCircle
 10
369.3636246384012
 20
262.2662175608979
 30
0.0
 40
5.0
100
AcDbArc
 50
86.38311348243886
 51
243.616886517562
  0
ARC
  5
E1
330
1F
100
AcDbEntity
  8
MAIN_RING
100
AcDbCircle
 10
369.7421326017341
 20
268.2542666356536
 30
0.0
 40
1.0
100
AcDbArc
 50
266.3831134824385
 51
348.5875823113698
  0
ARC
  5
E2
330
1F
100
AcDbEntity
  8
MAIN_RING
100
AcDbCircle
 10
277.6006711409396
 20
286.8540268456376
 30
0.0
 40
94.9999999999999
100
AcDbArc
 50
348.5875823113695
 51
11.41241768862868
  0
ARC
  5
E3
330
1F
100
AcDbEntity
  8
MAIN_RING
100
AcDbCircle
 10
369.7421326017347
 20
305.4537870556186
 30
0.0
 40
1.0
100
AcDbArc
 50
11.41241768862769
 51
93.61688651756496
  0
ARC
  5
E4
330
1F
100
AcDbEntity
  8
MAIN_RING
100
AcDbCircle
 10
369.3636246384012
 20
311.4418361303768
 30
0.0
 40
5.0
100
AcDbArc
 50
116.3831134824345
 51
273.6168865175663
  0
ARC
  5
E5
330
1F
100
AcDbEntity
  8
MAIN_RING
100
AcDbCircle
 10
366.6973976128039
 20
316.8168927298915
 30
0.0
 40
1.0
100
AcDbArc
 50
296.3831134824359
 51
18.58758231137062
  0
ARC
  5
E6
330
1F
100
AcDbEntity
  8
MAIN_RING
100
AcDbCircle
 10
277.6006711409396
 20
286.8540268456376
 30
0.0
 40
94.99999999999979
100
AcDbArc
 50
18.58758231137062
 51
41.41241768862788
  0
ARC
  5
E7
330
1F
100
AcDbEntity
  8
MAIN_RING
100
AcDbCircle
 10
348.0976374028234
 20
349.0326224221768
 30
0.0
 40
1.0
100
AcDbArc
 50
41.4124176886293
 51
123.6168865175679
  0
ARC
  5
E8
330
1F
100
AcDbEntity
  8
MAIN_RING
100
AcDbCircle
 10
344.7758153536618
 20
354.0291710583593
 30
0.0
 40
5.0
100
AcDbArc
 50
146.3831134824352
 51
303.6168865175695
  0
ARC
  5
E9
330
1F
100
AcDbEntity
  8
MAIN_RING
100
AcDbCircle
 10
339.7792667174806
 20
357.3509931075195
 30
0.0
 40
1.0
100
AcDbArc
 50
326.3831134824349
 51
48.58758231136796
  0
ARC
  5
EA
330
1F
100
AcDbEntity
  8
MAIN_RING
100
AcDbCircle
 10
277.6006711409396
 20
286.8540268456376
 30
0.0
 40
94.99999999999966
100
AcDbArc
 50
48.58758231137048
 51
71.41241768862815
  0
ARC
  5
EB
330
1F
100
AcDbEntity
  8
MAIN_RING
100
AcDbCircle
 10
307.5635370251954
 20
375.9507533175013
 30
0.0
 40
1.0
100
AcDbArc
 50
71.41241768862832
 51
153.6168865175712
  0
ARC
  5
EC
330
1F
100
AcDbEntity
  8
MAIN_RING
100
AcDbCircle
 10
302.1884804256792
 20
378.6169803430988
 30
0.0
 40
5.0
100
AcDbArc
 50
176.3831134824447
 51
333.6168865175699
  0
ARC
  5
ED
330
1F
100
AcDbEntity
  8
MAIN_RING
100
AcDbCircle
 10
296.2004313509277
 20
378.9954883064308
 30
0.0
 40
1.0
100
AcDbArc
 50
356.3831134824429
 51
78.58758231136723
  0
ARC
  5
EE
330
1F
100
AcDbEntity
  8
MAIN_RING
100
AcDbCircle
 10
277.6006711409396
 20
286.8540268456376
 30
0.0
 40
94.9999999999996
100
AcDbArc
 50
78.58758231136687
 51
101.4124176886322
  0
ARC
  5
EF
330
1F
100
AcDbEntity
  8
MAIN_RING
100
AcDbCircle
 10
259.000910930953
 20
378.9954883064312
 30
0.0
 40
1.0
100
AcDbArc
 50
101.4124176886334
 51
183.6168865175589
  0
ARC
  5
F0
330
1F
100
AcDbEntity
  8
MAIN_RING
100
AcDbCircle
 10
253.0128618562002
 20
378.6169803430988
 30
0.0
 40
5.0
100
AcDbArc
 50
206.3831134824345
 51
3.616886517557879
  0
ARC
  5
F1
330
1F
100
AcDbEntity
  8
MAIN_RING
100
AcDbCircle
 10
247.6378052566856
 20
375.9507533175016
 30
0.0
 40
1.0
100
AcDbArc
 50
26.38311348243438
 51
108.5875823113722
  0
ARC
  5
F2
330
1F
100
AcDbEntity
  8
MAIN_RING
100
AcDbCircle
 10
277.6006711409396
 20
286.8540268456376
 30
0.0
 40
94.99999999999956
100
AcDbArc
 50
108.5875823113708
 51
131.41241768863
  0
ARC
  5
F3
330
1F
100
AcDbEntity
  8
MAIN_RING
100
AcDbCircle
 10
215.4220755643981
 20
357.3509931075188
 30
0.0
 40
1.0
100
AcDbArc
 50
131.4124176886302
 51
213.6168865175641
  0
ARC
  5
F4
330
1F
100
AcDbEntity
  8
MAIN_RING
100
AcDbCircle
 10
210.4255269282177
 20
354.0291710583593
 30
0.0
 40
5.0
100
AcDbArc
 50
236.3831134824363
 51
33.61688651756339
  0
ARC
  5
F5
330
1F
100
AcDbEntity
  8
MAIN_RING
100
AcDbCircle
 10
207.1037048790589
 20
349.0326224221799
 30
0.0
 40
1.0
100
AcDbArc
 50
56.38311348243643
 51
138.587582311369
  0
ARC
  5
F6
330
1F
100
AcDbEntity
  8
MAIN_RING
100
AcDbCircle
 10
277.6006711409396
 20
286.8540268456376
 30
0.0
 40
94.99999999999966
100
AcDbArc
 50
138.5875823113694
 51
161.412417688632
  0
ARC
  5
F7
330
1F
100
AcDbEntity
  8
MAIN_RING
100
AcDbCircle
 10
188.5039446690742
 20
316.8168927298874
 30
0.0
 40
1.0
100
AcDbArc
 50
161.4124176886309
 51
243.6168865175591
  0
ARC
  5
F8
330
1F
100
AcDbEntity
  8
MAIN_RING
100
AcDbCircle
 10
185.8377176434782
 20
311.4418361303768
 30
0.0
 40
5.0
100
AcDbArc
 50
266.3831134824352
 51
63.61688651755938
  0
ARC
  5
F9
330
1F
100
AcDbEntity
  8
MAIN_RING
100
AcDbCircle
 10
185.459209680145
 20
305.4537870556215
 30
0.0
 40
1.0
100
AcDbArc
 50
86.38311348243572
 51
168.5875823113697
  0
ARC
  5
FA
330
1F
100
AcDbEntity
  8
MAIN_RING
100
AcDbCircle
 10
277.6006711409396
 20
286.8540268456376
 30
0.0
 40
94.99999999999977
100
AcDbArc
 50
168.5875823113695
 51
191.4124176886306
  0
ARC
  5
FB
330
1F
100
AcDbEntity
  8
MAIN_RING
100
AcDbCircle
 10
185.4592096801451
 20
268.2542666356535
 30
0.0
 40
1.0
100
AcDbArc
 50
191.4124176886287
 51
273.6168865175633
  0
ARC
  5
FC
330
1F
100
AcDbEntity
  8
MAIN_RING
100
AcDbCircle
 10
185.8377176434782
 20
262.2662175608979
 30
0.0
 40
5.0
100
AcDbArc
 50
296.3831134824363
 51
93.61688651756309
  0
ARC
  5
FD
330
1F
100
AcDbEntity
  8
MAIN_RING
100
AcDbCircle
 10
188.5039446690748
 20
256.891160961385
 30
0.0
 40
1.0
100
AcDbArc
 50
116.383113482437
 51
198.5875823113727
  0
ARC
  5
FE
330
1F
100
AcDbEntity
  8
MAIN_RING
100
AcDbCircle
 10
277.6006711409396
 20
286.8540268456376
 30
0.0
 40
94.99999999999991
100
AcDbArc
 50
198.5875823113698
 51
221.4124176886299
  0
ARC
  5
FF
330
1F
100
AcDbEntity
  8
MAIN_RING
100
AcDbCircle
 10
207.1037048790579
 20
224.675431269096
 30
0.0
 40
1.0
100
AcDbArc
 50
221.4124176886311
 51
303.6168865175646
  0
ARC
  5
100
330
1F
100
AcDbEntity
  8
MAIN_RING
100
AcDbCircle
 10
210.4255269282177
 20
219.6788826329154
 30
0.0
 40
5.0
100
AcDbArc
 50
326.3831134824366
 51
123.6168865175648
  0
ARC
  5
101
330
1F
100
AcDbEntity
  8
MAIN_RING
100
AcDbCircle
 10
277.6006711409396
 20
286.8540268456376
 30
0.0
 40
95.00000000000003
100
AcDbArc
 50
228.5875823113696
 51
251.4124176886299
  0
ARC
  5
102
330
1F
100
AcDbEntity
  8
MAIN_RING
100
AcDbCircle
 10
215.4220755643974
 20
216.3570605837564
 30
0.0
 40
1.0
100
AcDbArc
 50
146.3831134824369
 51
228.5875823113663
  0
ARC
  5
103
330
1F
100
AcDbEntity
  8
LED_RING
100
AcDbCircle
 10
284.6021691880775
 20
256.860377099468
 30
0.0
 40
1.0
100
AcDbArc
 50
283.1394204352919
 51
14.99999999999759
  0
LINE
  5
104
330
1F
100
AcDbEntity
  8
LED_RING
100
AcDbLine
 10
285.6198859518466
 20
256.9259097345237
 30
0.0
 11
285.5680950143666
 21
257.1191961445705
 31
0.0
  0
ARC
  5
105
330
1F
100
AcDbEntity
  8
LED_RING
100
AcDbCircle
 10
284.6539601255575
 20
256.6670906894212
 30
0.0
 40
1.0
100
AcDbArc
 50
14.99999999999759
 51
103.1514283547721
  0
ARC
  5
106
330
1F
100
AcDbEntity
  8
LED_RING
100
AcDbCircle
 10
277.6006711409396
 20
286.8540268456376
 30
0.0
 40
30.0
100
AcDbArc
 50
291.8485716452287
 51
283.1514283547713
  0
ARC
  5
107
330
1F
100
AcDbEntity
  8
LED_RING
100
AcDbCircle
 10
289.1374703150675
 20
258.0807360221016
 30
0.0
 40
1.0
100
AcDbArc
 50
111.8485716452285
 51
200.0000000000037
  0
ARC
  5
108
330
1F
100
AcDbEntity
  8
LED_RING
100
AcDbCircle
 10
277.6006711409396
 20
286.8540268456376
 30
0.0
 40
31.8
100
AcDbArc
 50
291.8605795647082
 51
283.1394204352917
  0
LINE
  5
109
330
1F
100
AcDbEntity
  8
LED_RING
100
AcDbLine
 10
288.1977776942816
 20
257.7387158787758
 30
0.0
 11
288.1293378163249
 21
257.9267528980521
 31
0.0
  0
ARC
  5
10A
330
1F
100
AcDbEntity
  8
LED_RING
100
AcDbCircle
 10
289.0690304371108
 20
258.2687730413778
 30
0.0
 40
1.0
100
AcDbArc
 50
200.0000000000037
 51
291.8605795647085
  0
ARC
  5
10B
330
1F
100
AcDbEntity
  8
MAIN_RING
100
AcDbCircle
 10
277.6006711409395
 20
286.8540268456376
 30
0.0
 40
95.00000000000018
100
AcDbArc
 50
258.5876044591099
 51
285.0
  0
ARC
  5
10C
330
1F
100
AcDbEntity
  8
MAIN_RING
100
AcDbCircle
 10
301.9296613805766
 20
196.0569991744651
 30
0.0
 40
1.0
100
AcDbArc
 50
285.0000000000022
 51
15.00000000000316
  0
LINE
  5
10D
330
1F
100
AcDbEntity
  8
MAIN_RING
100
AcDbLine
 10
302.2578307798
 20
198.69595760823
 30
0.0
 11
302.8955872068656
 21
196.3158182195677
 31
0.0
  0
ARC
  5
10E
330
1F
100
AcDbEntity
  8
MAIN_RING
100
AcDbCircle
 10
302.1884804256792
 20
195.0910733481759
 30
0.0
 40
5.0
100
AcDbArc
 50
26.38311348243568
 51
75.00000000000554
  0
ARC
  5
10F
330
1F
100
AcDbEntity
  8
MAIN_RING
100
AcDbCircle
 10
303.223756606089
 20
198.9547766533325
 30
0.0
 40
1.0
100
AcDbArc
 50
75.00000000000531
 51
195.0000000000024
  0
LINE
  5
110
330
1F
100
AcDbEntity
  8
BACK
100
AcDbLine
 10
250.9849241010884
 20
190.4610706221115
 30
0.0
 11
304.2164181807914
 21
190.4610706221115
 31
0.0
  0
ARC
  5
111
330
1F
100
AcDbEntity
  8
BACK
100
AcDbCircle
 10
277.6006711409396
 20
286.8540268456376
 30
0.0
 40
99.99999999999982
100
AcDbArc
 50
285.4357412204932
 51
254.5642587795071
  0
CIRCLE
  5
112
330
1F
100
AcDbEntity
  8
BACK
100
AcDbCircle
 10
344.7758153536617
 20
219.6788826329154
 30
0.0
 40
1.0
  0
CIRCLE
  5
113
330
1F
100
AcDbEntity
  8
BACK
100
AcDbCircle
 10
210.4255269282177
 20
219.6788826329154
 30
0.0
 40
1.0
  0
CIRCLE
  5
114
330
1F
100
AcDbEntity
  8
BACK
100
AcDbCircle
 10
210.4255269282177
 20
354.0291710583593
 30
0.0
 40
1.0
  0
CIRCLE
  5
115
330
1F
100
AcDbEntity
  8
BACK
100
AcDbCircle
 10
344.7758153536618
 20
354.0291710583593
 30
0.0
 40
1.0
  0
ARC
  5
116
330
1F
100
AcDbEntity
  8
0
100
AcDbCircle
 10
250.7187666306895
 20
189.4971410598762
 30
0.0
 40
1.0
100
AcDbArc
 50
0.0
 51
74.56425877950687
  0
LINE
  5
117
330
1F
100
AcDbEntity
  8
0
100
AcDbLine
 10
251.7187666306895
 20
189.4971410598762
 30
0.0
 11
251.7187666306895
 21
181.2614442167307
 31
0.0
  0
ARC
  5
118
330
1F
100
AcDbEntity
  8
0
100
AcDbCircle
 10
252.7187666306895
 20
181.2614442167307
 30
0.0
 40
1.0
100
AcDbArc
 50
180.0
 51
270.0
  0
LINE
  5
119
330
1F
100
AcDbEntity
  8
0
100
AcDbLine
 10
252.7187666306895
 20
180.2614442167306
 30
0.0
 11
302.4825756511918
 21
180.2614442167306
 31
0.0
  0
ARC
  5
11A
330
1F
100
AcDbEntity
  8
0
100
AcDbCircle
 10
302.4825756511918
 20
181.2614442167306
 30
0.0
 40
1.0
100
AcDbArc
 50
270.0
 51
0.0
  0
LINE
  5
11B
330
1F
100
AcDbEntity
  8
0
100
AcDbLine
 10
303.4825756511918
 20
189.4971410598762
 30
0.0
 11
303.4825756511918
 21
181.2614442167306
 31
0.0
  0
ARC
  5
11C
330
1F
100
AcDbEntity
  8
0
100
AcDbCircle
 10
304.4825756511918
 20
189.4971410598762
 30
0.0
 40
1.0
100
AcDbArc
 50
105.4357412204932
 51
180.0
  0
ARC
  5
11D
330
1F
100
AcDbEntity
  8
0
100
AcDbCircle
 10
277.6006711409396
 20
286.8540268456376
 30
0.0
 40
99.99999999999991
100
AcDbArc
 50
285.4357412204943
 51
254.5642587795069
  0
ARC
  5
11E
330
1F
100
AcDbEntity
  8
0
100
AcDbCircle
 10
247.6378052566865
 20
197.7573003737729
 30
0.0
 40
1.0
100
AcDbArc
 50
251.4124176886309
 51
333.616886517565
  0
ARC
  5
11F
330
1F
100
AcDbEntity
  8
0
100
AcDbCircle
 10
253.0128618562002
 20
195.0910733481759
 30
0.0
 40
5.0
100
AcDbArc
 50
356.3831134824362
 51
153.616886517564
  0
ARC
  5
120
330
1F
100
AcDbEntity
  8
0
100
AcDbCircle
 10
259.0009109309556
 20
194.7125653848428
 30
0.0
 40
1.0
100
AcDbArc
 50
176.3831134824361
 51
258.5875823113678
  0
ARC
  5
121
330
1F
100
AcDbEntity
  8
0
100
AcDbCircle
 10
307.5635370251927
 20
197.7573003737728
 30
0.0
 40
1.0
100
AcDbArc
 50
206.3831134824356
 51
288.5875823113675
  0
ARC
  5
122
330
1F
100
AcDbEntity
  8
0
100
AcDbCircle
 10
277.6006711409396
 20
286.8540268456376
 30
0.0
 40
95.00000000000007
100
AcDbArc
 50
288.5875823113699
 51
311.4124176886305
  0
ARC
  5
123
330
1F
100
AcDbEntity
  8
0
100
AcDbCircle
 10
339.7792667174821
 20
216.3570605837565
 30
0.0
 40
1.0
100
AcDbArc
 50
311.4124176886265
 51
33.61688651756357
  0
ARC
  5
124
330
1F
100
AcDbEntity
  8
0
100
AcDbCircle
 10
344.7758153536617
 20
219.6788826329154
 30
0.0
 40
5.0
100
AcDbArc
 50
56.38311348244078
 51
213.6168865175624
  0
ARC
  5
125
330
1F
100
AcDbEntity
  8
0
100
AcDbCircle
 10
348.0976374028192
 20
224.6754312690937
 30
0.0
 40
1.0
100
AcDbArc
 50
236.3831134824415
 51
318.5875823113706
  0
ARC
  5
126
330
1F
100
AcDbEntity
  8
0
100
AcDbCircle
 10
277.6006711409396
 20
286.8540268456376
 30
0.0
 40
95.00000000000001
100
AcDbArc
 50
318.5875823113683
 51
341.4124176886307
  0
ARC
  5
127
330
1F
100
AcDbEntity
  8
0
100
AcDbCircle
 10
366.6973976128047
 20
256.8911609613858
 30
0.0
 40
1.0
100
AcDbArc
 50
341.4124176886273
 51
63.6168865175617
  0
ARC
  5
128
330
1F
100
AcDbEntity
  8
0
100
AcDbCircle
 10
369.3636246384012
 20
262.2662175608979
 30
0.0
 40
5.0
100
AcDbArc
 50
86.38311348243886
 51
243.616886517562
  0
ARC
  5
129
330
1F
100
AcDbEntity
  8
0
100
AcDbCircle
 10
369.7421326017341
 20
268.2542666356536
 30
0.0
 40
1.0
100
AcDbArc
 50
266.3831134824385
 51
348.5875823113698
  0
ARC
  5
12A
330
1F
100
AcDbEntity
  8
0
100
AcDbCircle
 10
277.6006711409396
 20
286.8540268456376
 30
0.0
 40
94.9999999999999
100
AcDbArc
 50
348.5875823113695
 51
11.41241768862868
  0
ARC
  5
12B
330
1F
100
AcDbEntity
  8
0
100
AcDbCircle
 10
369.7421326017347
 20
305.4537870556186
 30
0.0
 40
1.0
100
AcDbArc
 50
11.41241768862769
 51
93.61688651756496
  0
ARC
  5
12C
330
1F
100
AcDbEntity
  8
0
100
AcDbCircle
 10
369.3636246384012
 20
311.4418361303768
 30
0.0
 40
5.0
100
AcDbArc
 50
116.3831134824345
 51
273.6168865175663
  0
ARC
  5
12D
330
1F
100
AcDbEntity
  8
0
100
AcDbCircle
 10
366.6973976128039
 20
316.8168927298915
 30
0.0
 40
1.0
100
AcDbArc
 50
296.3831134824359
 51
18.58758231137062
  0
ARC
  5
12E
330
1F
100
AcDbEntity
  8
0
100
AcDbCircle
 10
277.6006711409396
 20
286.8540268456376
 30
0.0
 40
94.99999999999979
100
AcDbArc
 50
18.58758231137062
 51
41.41241768862788
  0
ARC
  5
12F
330
1F
100
AcDbEntity
  8
0
100
AcDbCircle
 10
348.0976374028234
 20
349.0326224221768
 30
0.0
 40
1.0
100
AcDbArc
 50
41.4124176886293
 51
123.6168865175679
  0
ARC
  5
130
330
1F
100
AcDbEntity
  8
0
100
AcDbCircle
 10
344.7758153536618
 20
354.0291710583593
 30
0.0
 40
5.0
100
AcDbArc
 50
146.3831134824352
 51
303.6168865175695
  0
ARC
  5
131
330
1F
100
AcDbEntity
  8
0
100
AcDbCircle
 10
339.7792667174806
 20
357.3509931075195
 30
0.0
 40
1.0
100
AcDbArc
 50
326.3831134824349
 51
48.58758231136796
  0
ARC
  5
132
330
1F
100
AcDbEntity
  8
0
100
AcDbCircle
 10
277.6006711409396
 20
286.8540268456376
 30
0.0
 40
94.99999999999966
100
AcDbArc
 50
48.58758231137048
 51
71.41241768862815
  0
ARC
  5
133
330
1F
100
AcDbEntity
  8
0
100
AcDbCircle
 10
307.5635370251954
 20
375.9507533175013
 30
0.0
 40
1.0
100
AcDbArc
 50
71.41241768862832
 51
153.6168865175712
  0
ARC
  5
134
330
1F
100
AcDbEntity
  8
0
100
AcDbCircle
 10
302.1884804256792
 20
378.6169803430988
 30
0.0
 40
5.0
100
AcDbArc
 50
176.3831134824447
 51
333.6168865175699
  0
ARC
  5
135
330
1F
100
AcDbEntity
  8
0
100
AcDbCircle
 10
296.2004313509277
 20
378.9954883064308
 30
0.0
 40
1.0
100
AcDbArc
 50
356.3831134824429
 51
78.58758231136723
  0
ARC
  5
136
330
1F
100
AcDbEntity
  8
0
100
AcDbCircle
 10
277.6006711409396
 20
286.8540268456376
 30
0.0
 40
94.9999999999996
100
AcDbArc
 50
78.58758231136687
 51
101.4124176886322
  0
ARC
  5
137
330
1F
100
AcDbEntity
  8
0
100
AcDbCircle
 10
259.000910930953
 20
378.9954883064312
 30
0.0
 40
1.0
100
AcDbArc
 50
101.4124176886334
 51
183.6168865175589
  0
ARC
  5
138
330
1F
100
AcDbEntity
  8
0
100
AcDbCircle
 10
253.0128618562002
 20
378.6169803430988
 30
0.0
 40
5.0
100
AcDbArc
 50
206.3831134824345
 51
3.616886517557879
  0
ARC
  5
139
330
1F
100
AcDbEntity
  8
0
100
AcDbCircle
 10
247.6378052566856
 20
375.9507533175016
 30
0.0
 40
1.0
100
AcDbArc
 50
26.38311348243438
 51
108.5875823113722
  0
ARC
  5
13A
330
1F
100
AcDbEntity
  8
0
100
AcDbCircle
 10
277.6006711409396
 20
286.8540268456376
 30
0.0
 40
94.99999999999956
100
AcDbArc
 50
108.5875823113708
 51
131.41241768863
  0
ARC
  5
13B
330
1F
100
AcDbEntity
  8
0
100
AcDbCircle
 10
215.4220755643981
 20
357.3509931075188
 30
0.0
 40
1.0
100
AcDbArc
 50
131.4124176886302
 51
213.6168865175641
  0
ARC
  5
13C
330
1F
100
AcDbEntity
  8
0
100
AcDbCircle
 10
210.4255269282177
 20
354.0291710583593
 30
0.0
 40
5.0
100
AcDbArc
 50
236.3831134824363
 51
33.61688651756339
  0
ARC
  5
13D
330
1F
100
AcDbEntity
  8
0
100
AcDbCircle
 10
207.1037048790589
 20
349.0326224221799
 30
0.0
 40
1.0
100
AcDbArc
 50
56.38311348243643
 51
138.587582311369
  0
ARC
  5
13E
330
1F
100
AcDbEntity
  8
0
100
AcDbCircle
 10
277.6006711409396
 20
286.8540268456376
 30
0.0
 40
94.99999999999966
100
AcDbArc
 50
138.5875823113694
 51
161.412417688632
  0
ARC
  5
13F
330
1F
100
AcDbEntity
  8
0
100
AcDbCircle
 10
188.5039446690742
 20
316.8168927298874
 30
0.0
 40
1.0
100
AcDbArc
 50
161.4124176886309
 51
243.6168865175591
  0
ARC
  5
140
330
1F
100
AcDbEntity
  8
0
100
AcDbCircle
 10
185.8377176434782
 20
311.4418361303768
 30
0.0
 40
5.0
100
AcDbArc
 50
266.3831134824352
 51
63.61688651755938
  0
ARC
  5
141
330
1F
100
AcDbEntity
  8
0
100
AcDbCircle
 10
185.459209680145
 20
305.4537870556215
 30
0.0
 40
1.0
100
AcDbArc
 50
86.38311348243572
 51
168.5875823113697
  0
ARC
  5
142
330
1F
100
AcDbEntity
  8
0
100
AcDbCircle
 10
277.6006711409396
 20
286.8540268456376
 30
0.0
 40
94.99999999999977
100
AcDbArc
 50
168.5875823113695
 51
191.4124176886306
  0
ARC
  5
143
330
1F
100
AcDbEntity
  8
0
100
AcDbCircle
 10
185.4592096801451
 20
268.2542666356535
 30
0.0
 40
1.0
100
AcDbArc
 50
191.4124176886287
 51
273.6168865175633
  0
ARC
  5
144
330
1F
100
AcDbEntity
  8
0
100
AcDbCircle
 10
185.8377176434782
 20
262.2662175608979
 30
0.0
 40
5.0
100
AcDbArc
 50
296.3831134824363
 51
93.61688651756309
  0
ARC
  5
145
330
1F
100
AcDbEntity
  8
0
100
AcDbCircle
 10
188.5039446690748
 20
256.891160961385
 30
0.0
 40
1.0
100
AcDbArc
 50
116.383113482437
 51
198.5875823113727
  0
ARC
  5
146
330
1F
100
AcDbEntity
  8
0
100
AcDbCircle
 10
277.6006711409396
 20
286.8540268456376
 30
0.0
 40
94.99999999999991
100
AcDbArc
 50
198.5875823113698
 51
221.4124176886299
  0
ARC
  5
147
330
1F
100
AcDbEntity
  8
0
100
AcDbCircle
 10
207.1037048790579
 20
224.675431269096
 30
0.0
 40
1.0
100
AcDbArc
 50
221.4124176886311
 51
303.6168865175646
  0
ARC
  5
148
330
1F
100
AcDbEntity
  8
0
100
AcDbCircle
 10
210.4255269282177
 20
219.6788826329154
 30
0.0
 40
5.0
100
AcDbArc
 50
326.3831134824366
 51
123.6168865175648
  0
ARC
  5
149
330
1F
100
AcDbEntity
  8
0
100
AcDbCircle
 10
277.6006711409396
 20
286.8540268456376
 30
0.0
 40
95.00000000000003
100
AcDbArc
 50
228.5875823113696
 51
251.4124176886299
  0
ARC
  5
14A
330
1F
100
AcDbEntity
  8
0
100
AcDbCircle
 10
215.4220755643974
 20
216.3570605837564
 30
0.0
 40
1.0
100
AcDbArc
 50
146.3831134824369
 51
228.5875823113663
  0
ARC
  5
14B
330
1F
100
AcDbEntity
  8
0
100
AcDbCircle
 10
284.6021691880775
 20
256.860377099468
 30
0.0
 40
1.0
100
AcDbArc
 50
283.1394204352919
 51
14.99999999999759
  0
LINE
  5
14C
330
1F
100
AcDbEntity
  8
0
100
AcDbLine
 10
285.6198859518466
 20
256.9259097345237
 30
0.0
 11
285.5680950143666
 21
257.1191961445705
 31
0.0
  0
ARC
  5
14D
330
1F
100
AcDbEntity
  8
0
100
AcDbCircle
 10
284.6539601255575
 20
256.6670906894212
 30
0.0
 40
1.0
100
AcDbArc
 50
14.99999999999759
 51
103.1514283547721
  0
ARC
  5
14E
330
1F
100
AcDbEntity
  8
0
100
AcDbCircle
 10
277.6006711409396
 20
286.8540268456376
 30
0.0
 40
30.0
100
AcDbArc
 50
291.8485716452287
 51
283.1514283547713
  0
ARC
  5
14F
330
1F
100
AcDbEntity
  8
0
100
AcDbCircle
 10
289.1374703150675
 20
258.0807360221016
 30
0.0
 40
1.0
100
AcDbArc
 50
111.8485716452285
 51
200.0000000000037
  0
ARC
  5
150
330
1F
100
AcDbEntity
  8
0
100
AcDbCircle
 10
277.6006711409396
 20
286.8540268456376
 30
0.0
 40
31.8
100
AcDbArc
 50
291.8605795647082
 51
283.1394204352917
  0
LINE
  5
151
330
1F
100
AcDbEntity
  8
0
100
AcDbLine
 10
288.1977776942816
 20
257.7387158787758
 30
0.0
 11
288.1293378163249
 21
257.9267528980521
 31
0.0
  0
ARC
  5
152
330
1F
100
AcDbEntity
  8
0
100
AcDbCircle
 10
289.0690304371108
 20
258.2687730413778
 30
0.0
 40
1.0
100
AcDbArc
 50
200.0000000000037
 51
291.8605795647085
  0
ARC
  5
153
330
1F
100
AcDbEntity
  8
0
100
AcDbCircle
 10
277.6006711409395
 20
286.8540268456376
 30
0.0
 40
95.00000000000018
100
AcDbArc
 50
258.5876044591099
 51
285.0
  0
ARC
  5
154
330
1F
100
AcDbEntity
  8
0
100
AcDbCircle
 10
301.9296613805766
 20
196.0569991744651
 30
0.0
 40
1.0
100
AcDbArc
 50
285.0000000000022
 51
15.00000000000316
  0
LINE
  5
155
330
1F
100
AcDbEntity
  8
0
100
AcDbLine
 10
302.2578307798
 20
198.69595760823
 30
0.0
 11
302.8955872068656
 21
196.3158182195677
 31
0.0
  0
ARC
  5
156
330
1F
100
AcDbEntity
  8
0
100
AcDbCircle
 10
302.1884804256792
 20
195.0910733481759
 30
0.0
 40
5.0
100
AcDbArc
 50
26.38311348243568
 51
75.00000000000554
  0
ARC
  5
157
330
1F
100
AcDbEntity
  8
0
100
AcDbCircle
 10
303.223756606089
 20
198.9547766533325
 30
0.0
 40
1.0
100
AcDbArc
 50
75.00000000000531
 51
195.0000000000024
  0
ARC
  5
158
330
1F
100
AcDbEntity
  8
0
100
AcDbCircle
 10
202.6006711409396
 20
251.8540268456376
 30
0.0
 40
5.0
100
AcDbArc
 50
180.0
 51
270.0
  0
LINE
  5
159
330
1F
100
AcDbEntity
  8
0
100
AcDbLine
 10
202.6006711409396
 20
246.8540268456376
 30
0.0
 11
352.6006711409396
 21
246.8540268456376
 31
0.0
  0
ARC
  5
15A
330
1F
100
AcDbEntity
  8
0
100
AcDbCircle
 10
352.6006711409396
 20
251.8540268456375
 30
0.0
 40
5.0
100
AcDbArc
 50
270.0
 51
0.0
  0
LINE
  5
15B
330
1F
100
AcDbEntity
  8
0
100
AcDbLine
 10
357.6006711409396
 20
251.8540268456375
 30
0.0
 11
357.6006711409396
 21
321.8540268456376
 31
0.0
  0
ARC
  5
15C
330
1F
100
AcDbEntity
  8
0
100
AcDbCircle
 10
352.6006711409396
 20
321.8540268456376
 30
0.0
 40
5.0
100
AcDbArc
 50
0.0
 51
90.0
  0
LINE
  5
15D
330
1F
100
AcDbEntity
  8
0
100
AcDbLine
 10
202.6006711409396
 20
326.8540268456376
 30
0.0
 11
352.6006711409396
 21
326.8540268456376
 31
0.0
  0
LINE
  5
15E
330
1F
100
AcDbEntity
  8
0
100
AcDbLine
 10
197.6006711409396
 20
251.8540268456376
 30
0.0
 11
197.6006711409396
 21
321.8540268456376
 31
0.0
  0
ARC
  5
15F
330
1F
100
AcDbEntity
  8
0
100
AcDbCircle
 10
202.6006711409396
 20
321.8540268456376
 30
0.0
 40
5.0
100
AcDbArc
 50
90.0
 51
180.0
  0
ARC
  5
160
330
1F
100
AcDbEntity
  8
0
100
AcDbCircle
 10
207.6006711409396
 20
256.8540268456376
 30
0.0
 40
2.0
100
AcDbArc
 50
180.0
 51
270.0
  0
LINE
  5
161
330
1F
100
AcDbEntity
  8
0
100
AcDbLine
 10
207.6006711409396
 20
254.8540268456376
 30
0.0
 11
240.6006711409396
 21
254.8540268456376
 31
0.0
  0
ARC
  5
162
330
1F
100
AcDbEntity
  8
0
100
AcDbCircle
 10
240.6006711409396
 20
256.8540268456376
 30
0.0
 40
2.0
100
AcDbArc
 50
270.0
 51
0.0
  0
LINE
  5
163
330
1F
100
AcDbEntity
  8
0
100
AcDbLine
 10
242.6006711409396
 20
256.8540268456376
 30
0.0
 11
242.6006711409396
 21
297.8540268456376
 31
0.0
  0
ARC
  5
164
330
1F
100
AcDbEntity
  8
0
100
AcDbCircle
 10
244.6006711409396
 20
297.8540268456376
 30
0.0
 40
2.0
100
AcDbArc
 50
90.0
 51
180.0
  0
LINE
  5
165
330
1F
100
AcDbEntity
  8
0
100
AcDbLine
 10
244.6006711409396
 20
299.8540268456376
 30
0.0
 11
310.6006711409396
 21
299.8540268456376
 31
0.0
  0
ARC
  5
166
330
1F
100
AcDbEntity
  8
0
100
AcDbCircle
 10
310.6006711409396
 20
297.8540268456376
 30
0.0
 40
2.0
100
AcDbArc
 50
0.0
 51
90.0
  0
LINE
  5
167
330
1F
100
AcDbEntity
  8
0
100
AcDbLine
 10
312.6006711409396
 20
256.8540268456376
 30
0.0
 11
312.6006711409396
 21
297.8540268456376
 31
0.0
  0
ARC
  5
168
330
1F
100
AcDbEntity
  8
0
100
AcDbCircle
 10
314.6006711409396
 20
256.8540268456376
 30
0.0
 40
2.0
100
AcDbArc
 50
180.0
 51
270.0
  0
LINE
  5
169
330
1F
100
AcDbEntity
  8
0
100
AcDbLine
 10
314.6006711409396
 20
254.8540268456376
 30
0.0
 11
347.6006711409396
 21
254.8540268456376
 31
0.0
  0
ARC
  5
16A
330
1F
100
AcDbEntity
  8
0
100
AcDbCircle
 10
347.6006711409396
 20
256.8540268456376
 30
0.0
 40
2.0
100
AcDbArc
 50
270.0
 51
0.0
  0
LINE
  5
16B
330
1F
100
AcDbEntity
  8
0
100
AcDbLine
 10
349.6006711409396
 20
256.8540268456376
 30
0.0
 11
349.6006711409396
 21
316.8540268456376
 31
0.0
  0
ARC
  5
16C
330
1F
100
AcDbEntity
  8
0
100
AcDbCircle
 10
347.6006711409396
 20
316.8540268456376
 30
0.0
 40
2.0
100
AcDbArc
 50
0.0
 51
90.0
  0
LINE
  5
16D
330
1F
100
AcDbEntity
  8
0
100
AcDbLine
 10
207.6006711409396
 20
318.8540268456376
 30
0.0
 11
347.6006711409396
 21
318.8540268456376
 31
0.0
  0
LINE
  5
16E
330
1F
100
AcDbEntity
  8
0
100
AcDbLine
 10
205.6006711409396
 20
256.8540268456376
 30
0.0
 11
205.6006711409396
 21
316.8540268456376
 31
0.0
  0
ARC
  5
16F
330
1F
100
AcDbEntity
  8
0
100
AcDbCircle
 10
207.6006711409396
 20
316.8540268456376
 30
0.0
 40
2.0
100
AcDbArc
 50
90.0
 51
180.0
  0
ARC
  5
170
330
1F
100
AcDbEntity
  8
0
100
AcDbCircle
 10
251.9849249420498
 20
291.1040268456376
 30
0.0
 40
1.0
100
AcDbArc
 50
90.0
 51
180.0
  0
LINE
  5
171
330
1F
100
AcDbEntity
  8
0
100
AcDbLine
 10
251.9849249420498
 20
292.1040268456376
 30
0.0
 11
303.2164202886397
 21
292.1040268456376
 31
0.0
  0
ARC
  5
172
330
1F
100
AcDbEntity
  8
0
100
AcDbCircle
 10
303.2164202886397
 20
291.1040268456376
 30
0.0
 40
1.0
100
AcDbArc
 50
0.0
 51
90.0
  0
LINE
  5
173
330
1F
100
AcDbEntity
  8
0
100
AcDbLine
 10
304.2164202886397
 20
282.6040268456376
 30
0.0
 11
304.2164202886397
 21
291.1040268456376
 31
0.0
  0
ARC
  5
174
330
1F
100
AcDbEntity
  8
0
100
AcDbCircle
 10
303.2164202886397
 20
282.6040268456376
 30
0.0
 40
1.0
100
AcDbArc
 50
270.0
 51
0.0
  0
LINE
  5
175
330
1F
100
AcDbEntity
  8
0
100
AcDbLine
 10
251.9849249420498
 20
281.6040268456376
 30
0.0
 11
303.2164202886397
 21
281.6040268456376
 31
0.0
  0
LINE
  5
176
330
1F
100
AcDbEntity
  8
0
100
AcDbLine
 10
250.9849249420498
 20
282.6040268456376
 30
0.0
 11
250.9849249420498
 21
291.1040268456376
 31
0.0
  0
ARC
  5
177
330
1F
100
AcDbEntity
  8
0
100
AcDbCircle
 10
251.9849249420498
 20
282.6040268456376
 30
0.0
 40
1.0
100
AcDbArc
 50
180.0
 51
270.0
  0
ARC
  5
178
330
1F
100
AcDbEntity
  8
0
100
AcDbCircle
 10
285.0785688120245
 20
194.6792723947028
 30
0.0
 40
1.0
100
AcDbArc
 50
283.1394204352919
 51
14.99999999999759
  0
LINE
  5
179
330
1F
100
AcDbEntity
  8
0
100
AcDbLine
 10
286.0962855757936
 20
194.7448050297585
 30
0.0
 11
286.0444946383136
 21
194.9380914398052
 31
0.0
  0
ARC
  5
17A
330
1F
100
AcDbEntity
  8
0
100
AcDbCircle
 10
285.1303597495045
 20
194.4859859846559
 30
0.0
 40
1.0
100
AcDbArc
 50
14.99999999999759
 51
103.1514283547721
  0
ARC
  5
17B
330
1F
100
AcDbEntity
  8
0
100
AcDbCircle
 10
278.0770707648866
 20
224.6729221408723
 30
0.0
 40
30.0
100
AcDbArc
 50
291.8485716452287
 51
283.1514283547713
  0
ARC
  5
17C
330
1F
100
AcDbEntity
  8
0
100
AcDbCircle
 10
289.6138699390145
 20
195.8996313173363
 30
0.0
 40
1.0
100
AcDbArc
 50
111.8485716452285
 51
200.0000000000037
  0
ARC
  5
17D
330
1F
100
AcDbEntity
  8
0
100
AcDbCircle
 10
278.0770707648866
 20
224.6729221408723
 30
0.0
 40
31.8
100
AcDbArc
 50
291.8605795647082
 51
283.1394204352917
  0
LINE
  5
17E
330
1F
100
AcDbEntity
  8
0
100
AcDbLine
 10
288.6741773182286
 20
195.5576111740106
 30
0.0
 11
288.6057374402719
 21
195.7456481932869
 31
0.0
  0
ARC
  5
17F
330
1F
100
AcDbEntity
  8
0
100
AcDbCircle
 10
289.5454300610578
 20
196.0876683366126
 30
0.0
 40
1.0
100
AcDbArc
 50
200.0000000000037
 51
291.8605795647085
  0
ARC
  5
180
330
1F
100
AcDbEntity
  8
0
100
AcDbCircle
 10
202.4079625628944
 20
263.2774853435184
 30
0.0
 40
5.0
100
AcDbArc
 50
180.0
 51
270.0
  0
LINE
  5
181
330
1F
100
AcDbEntity
  8
0
100
AcDbLine
 10
202.4079625628944
 20
258.2774853435184
 30
0.0
 11
352.4079625628943
 21
258.2774853435184
 31
0.0
  0
ARC
  5
182
330
1F
100
AcDbEntity
  8
0
100
AcDbCircle
 10
352.4079625628943
 20
263.2774853435183
 30
0.0
 40
5.0
100
AcDbArc
 50
270.0
 51
0.0
  0
LINE
  5
183
330
1F
100
AcDbEntity
  8
0
100
AcDbLine
 10
357.4079625628943
 20
263.2774853435183
 30
0.0
 11
357.4079625628943
 21
333.2774853435184
 31
0.0
  0
ARC
  5
184
330
1F
100
AcDbEntity
  8
0
100
AcDbCircle
 10
352.4079625628943
 20
333.2774853435184
 30
0.0
 40
5.0
100
AcDbArc
 50
0.0
 51
90.0
  0
LINE
  5
185
330
1F
100
AcDbEntity
  8
0
100
AcDbLine
 10
202.4079625628944
 20
338.2774853435184
 30
0.0
 11
352.4079625628943
 21
338.2774853435184
 31
0.0
  0
LINE
  5
186
330
1F
100
AcDbEntity
  8
0
100
AcDbLine
 10
197.4079625628944
 20
263.2774853435184
 30
0.0
 11
197.4079625628944
 21
333.2774853435184
 31
0.0
  0
ARC
  5
187
330
1F
100
AcDbEntity
  8
0
100
AcDbCircle
 10
202.4079625628944
 20
333.2774853435184
 30
0.0
 40
5.0
100
AcDbArc
 50
90.0
 51
180.0
  0
ARC
  5
188
330
1F
100
AcDbEntity
  8
0
100
AcDbCircle
 10
207.4079625628944
 20
268.2774853435184
 30
0.0
 40
2.0
100
AcDbArc
 50
180.0
 51
270.0
  0
LINE
  5
189
330
1F
100
AcDbEntity
  8
0
100
AcDbLine
 10
207.4079625628944
 20
266.2774853435184
 30
0.0
 11
240.4079625628944
 21
266.2774853435184
 31
0.0
  0
ARC
  5
18A
330
1F
100
AcDbEntity
  8
0
100
AcDbCircle
 10
240.4079625628944
 20
268.2774853435184
 30
0.0
 40
2.0
100
AcDbArc
 50
270.0
 51
0.0
  0
LINE
  5
18B
330
1F
100
AcDbEntity
  8
0
100
AcDbLine
 10
242.4079625628944
 20
268.2774853435184
 30
0.0
 11
242.4079625628944
 21
309.2774853435184
 31
0.0
  0
ARC
  5
18C
330
1F
100
AcDbEntity
  8
0
100
AcDbCircle
 10
244.4079625628944
 20
309.2774853435184
 30
0.0
 40
2.0
100
AcDbArc
 50
90.0
 51
180.0
  0
LINE
  5
18D
330
1F
100
AcDbEntity
  8
0
100
AcDbLine
 10
244.4079625628944
 20
311.2774853435184
 30
0.0
 11
310.4079625628943
 21
311.2774853435184
 31
0.0
  0
ARC
  5
18E
330
1F
100
AcDbEntity
  8
0
100
AcDbCircle
 10
310.4079625628943
 20
309.2774853435184
 30
0.0
 40
2.0
100
AcDbArc
 50
0.0
 51
90.0
  0
LINE
  5
18F
330
1F
100
AcDbEntity
  8
0
100
AcDbLine
 10
312.4079625628943
 20
268.2774853435184
 30
0.0
 11
312.4079625628943
 21
309.2774853435184
 31
0.0
  0
ARC
  5
190
330
1F
100
AcDbEntity
  8
0
100
AcDbCircle
 10
314.4079625628943
 20
268.2774853435184
 30
0.0
 40
2.0
100
AcDbArc
 50
180.0
 51
270.0
  0
LINE
  5
191
330
1F
100
AcDbEntity
  8
0
100
AcDbLine
 10
314.4079625628943
 20
266.2774853435184
 30
0.0
 11
347.4079625628943
 21
266.2774853435184
 31
0.0
  0
ARC
  5
192
330
1F
100
AcDbEntity
  8
0
100
AcDbCircle
 10
347.4079625628943
 20
268.2774853435184
 30
0.0
 40
2.0
100
AcDbArc
 50
270.0
 51
0.0
  0
LINE
  5
193
330
1F
100
AcDbEntity
  8
0
100
AcDbLine
 10
349.4079625628943
 20
268.2774853435184
 30
0.0
 11
349.4079625628943
 21
328.2774853435184
 31
0.0
  0
ARC
  5
194
330
1F
100
AcDbEntity
  8
0
100
AcDbCircle
 10
347.4079625628943
 20
328.2774853435184
 30
0.0
 40
2.0
100
AcDbArc
 50
0.0
 51
90.0
  0
LINE
  5
195
330
1F
100
AcDbEntity
  8
0
100
AcDbLine
 10
207.4079625628944
 20
330.2774853435184
 30
0.0
 11
347.4079625628943
 21
330.2774853435184
 31
0.0
  0
LINE
  5
196
330
1F
100
AcDbEntity
  8
0
100
AcDbLine
 10
205.4079625628944
 20
268.2774853435184
 30
0.0
 11
205.4079625628944
 21
328.2774853435184
 31
0.0
  0
ARC
  5
197
330
1F
100
AcDbEntity
  8
0
100
AcDbCircle
 10
207.4079625628944
 20
328.2774853435184
 30
0.0
 40
2.0
100
AcDbArc
 50
90.0
 51
180.0
  0
ARC
  5
198
330
1F
100
AcDbEntity
  8
0
100
AcDbCircle
 10
251.7922163640046
 20
302.5274853435184
 30
0.0
 40
1.0
100
AcDbArc
 50
90.0
 51
180.0
  0
LINE
  5
199
330
1F
100
AcDbEntity
  8
0
100
AcDbLine
 10
251.7922163640046
 20
303.5274853435184
 30
0.0
 11
303.0237117105945
 21
303.5274853435184
 31
0.0
  0
ARC
  5
19A
330
1F
100
AcDbEntity
  8
0
100
AcDbCircle
 10
303.0237117105945
 20
302.5274853435184
 30
0.0
 40
1.0
100
AcDbArc
 50
0.0
 51
90.0
  0
LINE
  5
19B
330
1F
100
AcDbEntity
  8
0
100
AcDbLine
 10
304.0237117105945
 20
294.0274853435184
 30
0.0
 11
304.0237117105945
 21
302.5274853435184
 31
0.0
  0
ARC
  5
19C
330
1F
100
AcDbEntity
  8
0
100
AcDbCircle
 10
303.0237117105945
 20
294.0274853435184
 30
0.0
 40
1.0
100
AcDbArc
 50
270.0
 51
0.0
  0
LINE
  5
19D
330
1F
100
AcDbEntity
  8
0
100
AcDbLine
 10
251.7922163640046
 20
293.0274853435184
 30
0.0
 11
303.0237117105945
 21
293.0274853435184
 31
0.0
  0
LINE
  5
19E
330
1F
100
AcDbEntity
  8
0
100
AcDbLine
 10
250.7922163640046
 20
294.0274853435184
 30
0.0
 11
250.7922163640046
 21
302.5274853435184
 31
0.0
  0
ARC
  5
19F
330
1F
100
AcDbEntity
  8
0
100
AcDbCircle
 10
251.7922163640046
 20
294.0274853435184
 30
0.0
 40
1.0
100
AcDbArc
 50
180.0
 51
270.0
  0
ARC
  5
1A0
330
1F
100
AcDbEntity
  8
BASE_MAIN
100
AcDbCircle
 10
202.6006711409396
 20
96.42427200441026
 30
0.0
 40
5.0
100
AcDbArc
 50
180.0
 51
270.0
  0
ARC
  5
1A1
330
1F
100
AcDbEntity
  8
BASE_MAIN
100
AcDbCircle
 10
352.6006711409396
 20
96.42427200441014
 30
0.0
 40
5.0
100
AcDbArc
 50
270.0
 51
0.0
  0
LINE
  5
1A2
330
1F
100
AcDbEntity
  8
BASE_MAIN
100
AcDbLine
 10
357.6006711409396
 20
96.42427200441014
 30
0.0
 11
357.6006711409396
 21
166.4242720044102
 31
0.0
  0
ARC
  5
1A3
330
1F
100
AcDbEntity
  8
BASE_MAIN
100
AcDbCircle
 10
352.6006711409396
 20
166.4242720044102
 30
0.0
 40
5.0
100
AcDbArc
 50
0.0
 51
90.0
  0
LINE
  5
1A4
330
1F
100
AcDbEntity
  8
BASE_MAIN
100
AcDbLine
 10
202.6006711409396
 20
171.4242720044102
 30
0.0
 11
352.6006711409396
 21
171.4242720044102
 31
0.0
  0
LINE
  5
1A5
330
1F
100
AcDbEntity
  8
BASE_MAIN
100
AcDbLine
 10
197.6006711409396
 20
96.42427200441026
 30
0.0
 11
197.6006711409396
 21
166.4242720044102
 31
0.0
  0
ARC
  5
1A6
330
1F
100
AcDbEntity
  8
BASE_MAIN
100
AcDbCircle
 10
202.6006711409396
 20
166.4242720044102
 30
0.0
 40
5.0
100
AcDbArc
 50
90.0
 51
180.0
  0
ARC
  5
1A7
330
1F
100
AcDbEntity
  8
BASE_MAIN
100
AcDbCircle
 10
207.6006711409396
 20
101.4242720044102
 30
0.0
 40
2.0
100
AcDbArc
 50
180.0
 51
270.0
  0
LINE
  5
1A8
330
1F
100
AcDbEntity
  8
BASE_MAIN
100
AcDbLine
 10
207.6006711409396
 20
99.42427200441026
 30
0.0
 11
240.6006711409396
 21
99.42427200441026
 31
0.0
  0
ARC
  5
1A9
330
1F
100
AcDbEntity
  8
BASE_MAIN
100
AcDbCircle
 10
240.6006711409396
 20
101.4242720044102
 30
0.0
 40
2.0
100
AcDbArc
 50
270.0
 51
0.0
  0
LINE
  5
1AA
330
1F
100
AcDbEntity
  8
BASE_MAIN
100
AcDbLine
 10
242.6006711409396
 20
101.4242720044102
 30
0.0
 11
242.6006711409396
 21
142.4242720044102
 31
0.0
  0
ARC
  5
1AB
330
1F
100
AcDbEntity
  8
BASE_MAIN
100
AcDbCircle
 10
244.6006711409396
 20
142.4242720044102
 30
0.0
 40
2.0
100
AcDbArc
 50
90.0
 51
180.0
  0
LINE
  5
1AC
330
1F
100
AcDbEntity
  8
BASE_MAIN
100
AcDbLine
 10
244.6006711409396
 20
144.4242720044102
 30
0.0
 11
310.6006711409396
 21
144.4242720044102
 31
0.0
  0
ARC
  5
1AD
330
1F
100
AcDbEntity
  8
BASE_MAIN
100
AcDbCircle
 10
310.6006711409396
 20
142.4242720044102
 30
0.0
 40
2.0
100
AcDbArc
 50
0.0
 51
90.0
  0
LINE
  5
1AE
330
1F
100
AcDbEntity
  8
BASE_MAIN
100
AcDbLine
 10
312.6006711409396
 20
101.4242720044102
 30
0.0
 11
312.6006711409396
 21
142.4242720044102
 31
0.0
  0
ARC
  5
1AF
330
1F
100
AcDbEntity
  8
BASE_MAIN
100
AcDbCircle
 10
314.6006711409396
 20
101.4242720044102
 30
0.0
 40
2.0
100
AcDbArc
 50
180.0
 51
270.0
  0
LINE
  5
1B0
330
1F
100
AcDbEntity
  8
BASE_MAIN
100
AcDbLine
 10
314.6006711409396
 20
99.42427200441026
 30
0.0
 11
347.6006711409396
 21
99.42427200441026
 31
0.0
  0
ARC
  5
1B1
330
1F
100
AcDbEntity
  8
BASE_MAIN
100
AcDbCircle
 10
347.6006711409396
 20
101.4242720044102
 30
0.0
 40
2.0
100
AcDbArc
 50
270.0
 51
0.0
  0
LINE
  5
1B2
330
1F
100
AcDbEntity
  8
BASE_MAIN
100
AcDbLine
 10
349.6006711409396
 20
101.4242720044102
 30
0.0
 11
349.6006711409396
 21
161.4242720044102
 31
0.0
  0
ARC
  5
1B3
330
1F
100
AcDbEntity
  8
BASE_MAIN
100
AcDbCircle
 10
347.6006711409396
 20
161.4242720044102
 30
0.0
 40
2.0
100
AcDbArc
 50
0.0
 51
90.0
  0
LINE
  5
1B4
330
1F
100
AcDbEntity
  8
BASE_MAIN
100
AcDbLine
 10
207.6006711409396
 20
163.4242720044102
 30
0.0
 11
347.6006711409396
 21
163.4242720044102
 31
0.0
  0
LINE
  5
1B5
330
1F
100
AcDbEntity
  8
BASE_MAIN
100
AcDbLine
 10
205.6006711409396
 20
101.4242720044102
 30
0.0
 11
205.6006711409396
 21
161.4242720044102
 31
0.0
  0
ARC
  5
1B6
330
1F
100
AcDbEntity
  8
BASE_MAIN
100
AcDbCircle
 10
207.6006711409396
 20
161.4242720044102
 30
0.0
 40
2.0
100
AcDbArc
 50
90.0
 51
180.0
  0
ARC
  5
1B7
330
1F
100
AcDbEntity
  8
BASE_MAIN
100
AcDbCircle
 10
251.9849249420498
 20
135.6742720044102
 30
0.0
 40
1.0
100
AcDbArc
 50
90.0
 51
180.0
  0
LINE
  5
1B8
330
1F
100
AcDbEntity
  8
BASE_MAIN
100
AcDbLine
 10
251.9849249420498
 20
136.6742720044102
 30
0.0
 11
303.2164202886397
 21
136.6742720044102
 31
0.0
  0
ARC
  5
1B9
330
1F
100
AcDbEntity
  8
BASE_MAIN
100
AcDbCircle
 10
303.2164202886397
 20
135.6742720044102
 30
0.0
 40
1.0
100
AcDbArc
 50
0.0
 51
90.0
  0
LINE
  5
1BA
330
1F
100
AcDbEntity
  8
BASE_MAIN
100
AcDbLine
 10
304.2164202886397
 20
127.1742720044102
 30
0.0
 11
304.2164202886397
 21
135.6742720044102
 31
0.0
  0
ARC
  5
1BB
330
1F
100
AcDbEntity
  8
BASE_MAIN
100
AcDbCircle
 10
303.2164202886397
 20
127.1742720044102
 30
0.0
 40
1.0
100
AcDbArc
 50
270.0
 51
0.0
  0
LINE
  5
1BC
330
1F
100
AcDbEntity
  8
BASE_MAIN
100
AcDbLine
 10
251.9849249420498
 20
126.1742720044102
 30
0.0
 11
303.2164202886397
 21
126.1742720044102
 31
0.0
  0
LINE
  5
1BD
330
1F
100
AcDbEntity
  8
BASE_MAIN
100
AcDbLine
 10
250.9849249420498
 20
127.1742720044102
 30
0.0
 11
250.9849249420498
 21
135.6742720044102
 31
0.0
  0
ARC
  5
1BE
330
1F
100
AcDbEntity
  8
BASE_MAIN
100
AcDbCircle
 10
251.9849249420498
 20
127.1742720044102
 30
0.0
 40
1.0
100
AcDbArc
 50
180.0
 51
270.0
  0
LINE
  5
1BF
330
1F
100
AcDbEntity
  8
CENTRE
100
AcDbLine
 10
331.1006711409396
 20
56.42427200441026
 30
0.0
 11
331.1006711409396
 21
136.4242720044103
 31
0.0
  0
LINE
  5
1C0
330
1F
100
AcDbEntity
  8
BASE_MAIN
100
AcDbLine
 10
202.6006711409396
 20
91.42427200441026
 30
0.0
 11
324.1006711409396
 21
91.42427200441026
 31
0.0
  0
ARC
  5
1C1
330
1F
100
AcDbEntity
  8
BASE_MAIN
100
AcDbCircle
 10
324.1006711409396
 20
92.42427200441027
 30
0.0
 40
1.0
100
AcDbArc
 50
270.0
 51
0.0
  0
LINE
  5
1C2
330
1F
100
AcDbEntity
  8
BASE_MAIN
100
AcDbLine
 10
325.1006711409396
 20
92.42427200441027
 30
0.0
 11
325.1006711409396
 21
95.42427200441027
 31
0.0
  0
ARC
  5
1C3
330
1F
100
AcDbEntity
  8
BASE_MAIN
100
AcDbCircle
 10
326.1006711409396
 20
95.42427200441027
 30
0.0
 40
1.0
100
AcDbArc
 50
90.0
 51
180.0
  0
LINE
  5
1C4
330
1F
100
AcDbEntity
  8
BASE_MAIN
100
AcDbLine
 10
326.1006711409396
 20
96.42427200441026
 30
0.0
 11
336.1006711409396
 21
96.42427200441026
 31
0.0
  0
ARC
  5
1C5
330
1F
100
AcDbEntity
  8
BASE_MAIN
100
AcDbCircle
 10
336.1006711409396
 20
95.42427200441026
 30
0.0
 40
1.0
100
AcDbArc
 50
0.0
 51
90.0
  0
LINE
  5
1C6
330
1F
100
AcDbEntity
  8
BASE_MAIN
100
AcDbLine
 10
337.1006711409396
 20
92.42427200441026
 30
0.0
 11
337.1006711409396
 21
95.42427200441026
 31
0.0
  0
LINE
  5
1C7
330
1F
100
AcDbEntity
  8
BASE_MAIN
100
AcDbLine
 10
352.6006711409396
 20
91.42427200441014
 30
0.0
 11
338.1006711409396
 21
91.42427200441024
 31
0.0
  0
ARC
  5
1C8
330
1F
100
AcDbEntity
  8
BASE_MAIN
100
AcDbCircle
 10
338.1006711409396
 20
92.42427200441026
 30
0.0
 40
1.0
100
AcDbArc
 50
180.0
 51
270.0
  0
ARC
  5
1C9
330
1F
100
AcDbEntity
  8
BASE_FLOOR
100
AcDbCircle
 10
202.6006711409396
 20
96.42427200441026
 30
0.0
 40
5.0
100
AcDbArc
 50
180.0
 51
270.0
  0
ARC
  5
1CA
330
1F
100
AcDbEntity
  8
BASE_FLOOR
100
AcDbCircle
 10
352.6006711409396
 20
96.42427200441014
 30
0.0
 40
5.0
100
AcDbArc
 50
270.0
 51
0.0
  0
LINE
  5
1CB
330
1F
100
AcDbEntity
  8
BASE_FLOOR
100
AcDbLine
 10
357.6006711409396
 20
96.42427200441014
 30
0.0
 11
357.6006711409396
 21
166.4242720044102
 31
0.0
  0
ARC
  5
1CC
330
1F
100
AcDbEntity
  8
BASE_FLOOR
100
AcDbCircle
 10
352.6006711409396
 20
166.4242720044102
 30
0.0
 40
5.0
100
AcDbArc
 50
0.0
 51
90.0
  0
LINE
  5
1CD
330
1F
100
AcDbEntity
  8
BASE_FLOOR
100
AcDbLine
 10
202.6006711409396
 20
171.4242720044102
 30
0.0
 11
352.6006711409396
 21
171.4242720044102
 31
0.0
  0
LINE
  5
1CE
330
1F
100
AcDbEntity
  8
BASE_FLOOR
100
AcDbLine
 10
197.6006711409396
 20
96.42427200441026
 30
0.0
 11
197.6006711409396
 21
166.4242720044102
 31
0.0
  0
ARC
  5
1CF
330
1F
100
AcDbEntity
  8
BASE_FLOOR
100
AcDbCircle
 10
202.6006711409396
 20
166.4242720044102
 30
0.0
 40
5.0
100
AcDbArc
 50
90.0
 51
180.0
  0
LINE
  5
1D0
330
1F
100
AcDbEntity
  8
BASE_FLOOR
100
AcDbLine
 10
202.6006711409396
 20
91.42427200441026
 30
0.0
 11
352.6006711409396
 21
91.42427200441014
 31
0.0
  0
ARC
  5
1D1
330
1F
100
AcDbEntity
  8
BASE_TOP
100
AcDbCircle
 10
251.9849249420498
 20
135.6742720044102
 30
0.0
 40
1.0
100
AcDbArc
 50
90.0
 51
180.0
  0
LINE
  5
1D2
330
1F
100
AcDbEntity
  8
BASE_TOP
100
AcDbLine
 10
251.9849249420498
 20
136.6742720044102
 30
0.0
 11
303.2164202886397
 21
136.6742720044102
 31
0.0
  0
ARC
  5
1D3
330
1F
100
AcDbEntity
  8
BASE_TOP
100
AcDbCircle
 10
303.2164202886397
 20
135.6742720044102
 30
0.0
 40
1.0
100
AcDbArc
 50
0.0
 51
90.0
  0
LINE
  5
1D4
330
1F
100
AcDbEntity
  8
BASE_TOP
100
AcDbLine
 10
304.2164202886397
 20
127.1742720044102
 30
0.0
 11
304.2164202886397
 21
135.6742720044102
 31
0.0
  0
ARC
  5
1D5
330
1F
100
AcDbEntity
  8
BASE_TOP
100
AcDbCircle
 10
303.2164202886397
 20
127.1742720044102
 30
0.0
 40
1.0
100
AcDbArc
 50
270.0
 51
0.0
  0
LINE
  5
1D6
330
1F
100
AcDbEntity
  8
BASE_TOP
100
AcDbLine
 10
251.9849249420498
 20
126.1742720044102
 30
0.0
 11
303.2164202886397
 21
126.1742720044102
 31
0.0
  0
LINE
  5
1D7
330
1F
100
AcDbEntity
  8
BASE_TOP
100
AcDbLine
 10
250.9849249420498
 20
127.1742720044102
 30
0.0
 11
250.9849249420498
 21
135.6742720044102
 31
0.0
  0
ARC
  5
1D8
330
1F
100
AcDbEntity
  8
BASE_TOP
100
AcDbCircle
 10
251.9849249420498
 20
127.1742720044102
 30
0.0
 40
1.0
100
AcDbArc
 50
180.0
 51
270.0
  0
ARC
  5
1D9
330
1F
100
AcDbEntity
  8
BASE_TOP
100
AcDbCircle
 10
202.6006711409396
 20
96.42427200441026
 30
0.0
 40
5.0
100
AcDbArc
 50
180.0
 51
270.0
  0
ARC
  5
1DA
330
1F
100
AcDbEntity
  8
BASE_TOP
100
AcDbCircle
 10
352.6006711409396
 20
96.42427200441014
 30
0.0
 40
5.0
100
AcDbArc
 50
270.0
 51
0.0
  0
LINE
  5
1DB
330
1F
100
AcDbEntity
  8
BASE_TOP
100
AcDbLine
 10
357.6006711409396
 20
96.42427200441014
 30
0.0
 11
357.6006711409396
 21
166.4242720044102
 31
0.0
  0
ARC
  5
1DC
330
1F
100
AcDbEntity
  8
BASE_TOP
100
AcDbCircle
 10
352.6006711409396
 20
166.4242720044102
 30
0.0
 40
5.0
100
AcDbArc
 50
0.0
 51
90.0
  0
LINE
  5
1DD
330
1F
100
AcDbEntity
  8
BASE_TOP
100
AcDbLine
 10
202.6006711409396
 20
171.4242720044102
 30
0.0
 11
352.6006711409396
 21
171.4242720044102
 31
0.0
  0
LINE
  5
1DE
330
1F
100
AcDbEntity
  8
BASE_TOP
100
AcDbLine
 10
197.6006711409396
 20
96.42427200441026
 30
0.0
 11
197.6006711409396
 21
166.4242720044102
 31
0.0
  0
ARC
  5
1DF
330
1F
100
AcDbEntity
  8
BASE_TOP
100
AcDbCircle
 10
202.6006711409396
 20
166.4242720044102
 30
0.0
 40
5.0
100
AcDbArc
 50
90.0
 51
180.0
  0
LINE
  5
1E0
330
1F
100
AcDbEntity
  8
BASE_TOP
100
AcDbLine
 10
202.6006711409396
 20
91.42427200441026
 30
0.0
 11
352.6006711409396
 21
91.42427200441014
 31
0.0
  0
ARC
  5
1E1
330
1F
100
AcDbEntity
  8
MIDDLE
100
AcDbCircle
 10
280.323916024415
 20
258.4844315488305
 30
0.0
 40
1.0
100
AcDbArc
 50
275.48311763612
 51
359.1565624198521
  0
ARC
  5
1E2
330
1F
100
AcDbEntity
  8
MIDDLE
100
AcDbCircle
 10
282.3250764702141
 20
258.5485353738804
 30
0.0
 40
1.0
100
AcDbArc
 50
109.966017770203
 51
179.1565624198521
  0
ARC
  5
1E3
330
1F
100
AcDbEntity
  8
MIDDLE
100
AcDbCircle
 10
293.5933472142747
 20
227.5319902013678
 30
0.0
 40
34.0
100
AcDbArc
 50
100.3751996260166
 51
109.9660177702019
  0
ARC
  5
1E4
330
1F
100
AcDbEntity
  8
MIDDLE
100
AcDbCircle
 10
287.6502653036749
 20
259.9924242311822
 30
0.0
 40
1.0
100
AcDbArc
 50
31.01217850499671
 51
100.3751996260176
  0
ARC
  5
1E5
330
1F
100
AcDbEntity
  8
MIDDLE
100
AcDbCircle
 10
277.6006711409396
 20
286.8540268456376
 30
0.0
 40
29.5
100
AcDbArc
 50
294.5116380358752
 51
275.48311763612
  0
ARC
  5
1E6
330
1F
100
AcDbEntity
  8
MIDDLE
100
AcDbCircle
 10
289.4246960588155
 20
260.9225318108066
 30
0.0
 40
1.0
100
AcDbArc
 50
211.0121785049978
 51
294.511638035875
  0
CIRCLE
  5
1E7
330
1F
100
AcDbEntity
  8
BASE_FLOOR
100
AcDbCircle
 10
352.6006711409396
 20
166.4242720044102
 30
0.0
 40
1.0
  0
CIRCLE
  5
1E8
330
1F
100
AcDbEntity
  8
BASE_FLOOR
100
AcDbCircle
 10
352.6006711409396
 20
96.42427200441014
 30
0.0
 40
1.0
  0
CIRCLE
  5
1E9
330
1F
100
AcDbEntity
  8
BASE_FLOOR
100
AcDbCircle
 10
202.6006711409396
 20
96.42427200441026
 30
0.0
 40
1.0
  0
CIRCLE
  5
1EA
330
1F
100
AcDbEntity
  8
BASE_FLOOR
100
AcDbCircle
 10
202.6006711409396
 20
166.4242720044102
 30
0.0
 40
1.0
  0
ENDSEC
  0
SECTION
  2
OBJECTS
  0
DICTIONARY
  5
C
330
0
100
AcDbDictionary
  3
ACAD_GROUP
350
D
  3
ACAD_LAYOUT
350
1A
  3
ACAD_MATERIAL
350
1003A
  3
ACAD_MLEADERSTYLE
350
10040
  3
ACAD_MLINESTYLE
350
17
  3
ACAD_PLOTSETTINGS
350
19
  3
ACAD_SCALELIST
350
FFFF
  3
ACAD_VISUALSTYLE
350
10021
  3
ACDBHEADERROUNDTRIPXREC
350
10042
  3
ACDBVARIABLEDICTIONARY
350
1EB
  3
QCAD_OBJECTS
350
1EC
  0
DICTIONARY
  5
10068
330
8
100
AcDbDictionary
280
     1
  3
ACAD_XREC_ROUNDTRIP
360
10069
  0
DICTIONARY
  5
D
330
C
100
AcDbDictionary
  0
DICTIONARY
  5
1A
330
C
100
AcDbDictionary
  0
DICTIONARY
  5
1003A
102
{ACAD_REACTORS
330
C
102
}
330
C
100
AcDbDictionary
  3
BYBLOCK
350
1003C
  3
BYLAYER
350
1003B
  3
GLOBAL
350
1003D
  0
DICTIONARY
  5
10040
102
{ACAD_REACTORS
330
C
102
}
330
C
100
AcDbDictionary
  3
STANDARD
350
10041
  0
DICTIONARY
  5
17
330
C
100
AcDbDictionary
  3
STANDARD
350
18
  0
DICTIONARY
  5
19
330
C
100
AcDbDictionary
  0
DICTIONARY
  5
FFFF
102
{ACAD_REACTORS
330
C
102
}
330
C
100
AcDbDictionary
  3
A0
350
10000
  3
A1
350
10001
  3
A2
350
10002
  3
A3
350
10003
  3
A4
350
10004
  3
A5
350
10005
  3
A6
350
10006
  3
A7
350
10007
  3
A8
350
10008
  3
A9
350
10009
  3
B0
350
1000A
  3
B1
350
1000B
  3
B2
350
1000C
  3
B3
350
1000D
  3
B4
350
1000E
  3
B5
350
1000F
  3
B6
350
10010
  3
B7
350
10011
  3
B8
350
10012
  3
B9
350
10013
  3
C0
350
10014
  3
C1
350
10015
  3
C2
350
10016
  3
C3
350
10017
  3
C4
350
10018
  3
C5
350
10019
  3
C6
350
1001A
  3
C7
350
1001B
  3
C8
350
1001C
  3
C9
350
1001D
  3
D0
350
1001E
  3
D1
350
1001F
  3
D2
350
10020
  0
DICTIONARY
  5
10021
102
{ACAD_REACTORS
330
C
102
}
330
C
100
AcDbDictionary
  3
2DWIREFRAME
350
10026
  3
BASIC
350
10029
  3
BRIGHTEN
350
1002D
  3
COLORCHANGE
350
10031
  3
CONCEPTUAL
350
1002B
  3
DIM
350
1002C
  3
EDGECOLOROFF
350
10034
  3
FACEPATTERN
350
10030
  3
FLAT
350
10022
  3
FLATWITHEDGES
350
10023
  3
GOURAUD
350
10024
  3
GOURAUDWITHEDGES
350
10025
  3
HIDDEN
350
10028
  3
JITTEROFF
350
10032
  3
LINEPATTERN
350
1002F
  3
OVERHANGOFF
350
10033
  3
REALISTIC
350
1002A
  3
SHADED
350
10039
  3
SHADED_WITH_EDGES
350
10038
  3
SHADES_OF_GRAY
350
10035
  3
SKETCHY
350
10036
  3
THICKEN
350
1002E
  3
WIREFRAME
350
10027
  3
X-RAY
350
10037
  0
DICTIONARY
  5
10042
102
{ACAD_REACTORS
330
C
102
}
330
C
100
AcDbDictionary
  3
CEPSNID
350
1004C
  3
CEPSNTYPE
350
1004B
  3
DIMSTYLEDATA
350
10062
  3
FINGERPRINTGUID
350
1004D
  3
HYPERLINKBASE
350
10045
  3
INSUNITS
350
1004A
  3
LAYOUTDICT
350
10047
  3
LWETCUNION
350
10049
  3
PLOTSETDICT
350
10048
  3
PSVPSCALE
350
1004F
  3
PUCSBASE
350
10052
  3
PUCSORGBACK
350
10058
  3
PUCSORGBOTTOM
350
10054
  3
PUCSORGFRONT
350
10057
  3
PUCSORGLEFT
350
10055
  3
PUCSORGRIGHT
350
10056
  3
PUCSORGTOP
350
10053
  3
PUCSORTHOREF
350
10050
  3
PUCSORTHOVIEW
350
10051
  3
STYLESHEET
350
10046
  3
TSTACKALIGN
350
10043
  3
TSTACKSIZE
350
10044
  3
UCSBASE
350
1005B
  3
UCSORGBACK
350
10061
  3
UCSORGBOTTOM
350
1005D
  3
UCSORGFRONT
350
10060
  3
UCSORGLEFT
350
1005E
  3
UCSORGRIGHT
350
1005F
  3
UCSORGTOP
350
1005C
  3
UCSORTHOREF
350
10059
  3
UCSORTHOVIEW
350
1005A
  3
VERSIONGUID
350
1004E
  0
DICTIONARY
  5
1EB
330
C
100
AcDbDictionary
  3
CANNOSCALE
350
1006A
  3
CMLEADERSTYLE
350
10064
  3
CTABLESTYLE
350
10063
  3
DIMASSOC
350
1EE
  3
HIDETEXT
350
1ED
  3
MSLTSCALE
350
10065
  0
DICTIONARY
  5
1EC
330
C
100
AcDbDictionary
  3
COLORSETTINGS/BACKGROUNDCOLOR
350
1EF
  3
COLORSETTINGS/COLORMODE
350
1F0
  3
GRID/DISPLAYGRID00
350
1F1
  3
GRID/DISPLAYGRID01
350
1F2
  3
GRID/DISPLAYGRID02
350
1F3
  3
GRID/DISPLAYGRID03
350
1F4
  3
GRID/GRIDSPACINGX00
350
1F5
  3
GRID/GRIDSPACINGX01
350
1F6
  3
GRID/GRIDSPACINGX02
350
1F7
  3
GRID/GRIDSPACINGX03
350
1F8
  3
GRID/GRIDSPACINGY00
350
1F9
  3
GRID/GRIDSPACINGY01
350
1FA
  3
GRID/GRIDSPACINGY02
350
1FB
  3
GRID/GRIDSPACINGY03
350
1FC
  3
GRID/ISOMETRICGRID00
350
1FD
  3
GRID/ISOMETRICGRID01
350
1FE
  3
GRID/ISOMETRICGRID02
350
1FF
  3
GRID/ISOMETRICGRID03
350
200
  3
GRID/ISOMETRICPROJECTION00
350
201
  3
GRID/ISOMETRICPROJECTION01
350
202
  3
GRID/ISOMETRICPROJECTION02
350
203
  3
GRID/ISOMETRICPROJECTION03
350
204
  3
GRID/METAGRIDSPACINGX00
350
205
  3
GRID/METAGRIDSPACINGX01
350
206
  3
GRID/METAGRIDSPACINGX02
350
207
  3
GRID/METAGRIDSPACINGX03
350
208
  3
GRID/METAGRIDSPACINGY00
350
209
  3
GRID/METAGRIDSPACINGY01
350
20A
  3
GRID/METAGRIDSPACINGY02
350
20B
  3
GRID/METAGRIDSPACINGY03
350
20C
  3
MULTIPAGESETTINGS/COLUMNS
350
20D
  3
MULTIPAGESETTINGS/GLUEMAR0
350
20F
  3
MULTIPAGESETTINGS/GLUEMAR1
350
210
  3
MULTIPAGESETTINGS/GLUEMAR2
350
211
  3
MULTIPAGESETTINGS/GLUEMARG
350
20E
  3
MULTIPAGESETTINGS/PRINTCRO
350
212
  3
MULTIPAGESETTINGS/ROWS
350
213
  3
PAGESETTINGS/OFFSETX
350
214
  3
PAGESETTINGS/OFFSETY
350
215
  3
PAGESETTINGS/PAGEORIENTATION
350
216
  3
PAGESETTINGS/PAPERHEIGHT
350
217
  3
PAGESETTINGS/PAPERWIDTH
350
218
  3
PAGESETTINGS/SCALE
350
219
  3
PAGESETTINGS/SHOWPAPERBORDERS
350
21A
  3
QCADVERSION
350
21B
  3
UNITSETTINGS/PAPERUNIT
350
21C
  0
XRECORD
  5
10069
102
{ACAD_REACTORS
330
10068
102
}
330
10068
100
AcDbXrecord
102
VTR_0.000_0.000_1.000_1.000_VISUALSTYLE
340
10026
102
VTR_0.000_0.000_1.000_1.000_GRIDDISPLAY
 70
     3
102
VTR_0.000_0.000_1.000_1.000_GRIDMAJOR
 70
     5
102
VTR_0.000_0.000_1.000_1.000_DEFAULTLIGHTING
280
     1
102
VTR_0.000_0.000_1.000_1.000_DEFAULTLIGHTINGTYPE
 70
     1
102
VTR_0.000_0.000_1.000_1.000_BRIGHTNESS
141
0.0
102
VTR_0.000_0.000_1.000_1.000_CONTRAST
142
0.0
  0
MATERIAL
  5
1003C
102
{ACAD_REACTORS
330
1003A
102
}
102
{ACAD_XDICTIONARY
360
1006D
102
}
330
1003A
100
AcDbMaterial
  1
BYBLOCK
  0
MATERIAL
  5
1003B
102
{ACAD_REACTORS
330
1003A
102
}
102
{ACAD_XDICTIONARY
360
1006B
102
}
330
1003A
100
AcDbMaterial
  1
BYLAYER
  0
MATERIAL
  5
1003D
102
{ACAD_REACTORS
330
1003A
102
}
102
{ACAD_XDICTIONARY
360
1006F
102
}
330
1003A
100
AcDbMaterial
  1
GLOBAL
  0
ACAD_PROXY_OBJECT
  5
10041
102
{ACAD_REACTORS
330
10040
102
}
330
10040
100
AcDbProxyObject
 90
      499
 91
      506
 93
      610
310
40901902A4063FBFFFFFE0000000000000020400000000000020404214DD185B99185C990000000000000104090141901A00000000000004100000000000000041025764000000000000039000
340
14
340
0
340
69
340
0
 94
        0
1001
ACAD_MLEADERVER
1070
     2
  0
MLINESTYLE
  5
18
330
17
100
AcDbMlineStyle
  2
STANDARD
 70
     0
  3

 62
   256
 51
90.0
 52
90.0
 71
     2
 49
0.5
 62
   256
  6
BYLAYER
 49
-0.5
 62
   256
  6
BYLAYER
  0
ACAD_PROXY_OBJECT
  5
10000
102
{ACAD_REACTORS
330
FFFF
102
}
330
FFFF
100
AcDbProxyObject
 90
      499
 91
      502
 93
       41
310
903313A31580
  0
ACAD_PROXY_OBJECT
  5
10001
102
{ACAD_REACTORS
330
FFFF
102
}
330
FFFF
100
AcDbProxyObject
 90
      499
 91
      502
 93
      105
310
903313A324000000000000004000
  0
ACAD_PROXY_OBJECT
  5
10002
102
{ACAD_REACTORS
330
FFFF
102
}
330
FFFF
100
AcDbProxyObject
 90
      499
 91
      502
 93
      105
310
903313A344000000000000104000
  0
ACAD_PROXY_OBJECT
  5
10003
102
{ACAD_REACTORS
330
FFFF
102
}
330
FFFF
100
AcDbProxyObject
 90
      499
 91
      502
 93
      105
310
903313A354000000000000144000
  0
ACAD_PROXY_OBJECT
  5
10004
102
{ACAD_REACTORS
330
FFFF
102
}
330
FFFF
100
AcDbProxyObject
 90
      499
 91
      502
 93
      105
310
903313A384000000000000204000
  0
ACAD_PROXY_OBJECT
  5
10005
102
{ACAD_REACTORS
330
FFFF
102
}
330
FFFF
100
AcDbProxyObject
 90
      499
 91
      502
 93
      113
310
904313A31304000000000000244000
  0
ACAD_PROXY_OBJECT
  5
10006
102
{ACAD_REACTORS
330
FFFF
102
}
330
FFFF
100
AcDbProxyObject
 90
      499
 91
      502
 93
      113
310
904313A31364000000000000304000
  0
ACAD_PROXY_OBJECT
  5
10007
102
{ACAD_REACTORS
330
FFFF
102
}
330
FFFF
100
AcDbProxyObject
 90
      499
 91
      502
 93
      113
310
904313A32304000000000000344000
  0
ACAD_PROXY_OBJECT
  5
10008
102
{ACAD_REACTORS
330
FFFF
102
}
330
FFFF
100
AcDbProxyObject
 90
      499
 91
      502
 93
      113
310
904313A333040000000000003E4000
  0
ACAD_PROXY_OBJECT
  5
10009
102
{ACAD_REACTORS
330
FFFF
102
}
330
FFFF
100
AcDbProxyObject
 90
      499
 91
      502
 93
      113
310
904313A34304000000000000444000
  0
ACAD_PROXY_OBJECT
  5
1000A
102
{ACAD_REACTORS
330
FFFF
102
}
330
FFFF
100
AcDbProxyObject
 90
      499
 91
      502
 93
      113
310
904313A35304000000000000494000
  0
ACAD_PROXY_OBJECT
  5
1000B
102
{ACAD_REACTORS
330
FFFF
102
}
330
FFFF
100
AcDbProxyObject
 90
      499
 91
      502
 93
      121
310
905313A3130304000000000000594000
  0
ACAD_PROXY_OBJECT
  5
1000C
102
{ACAD_REACTORS
330
FFFF
102
}
330
FFFF
100
AcDbProxyObject
 90
      499
 91
      502
 93
      105
310
903323A310000000000000010100
  0
ACAD_PROXY_OBJECT
  5
1000D
102
{ACAD_REACTORS
330
FFFF
102
}
330
FFFF
100
AcDbProxyObject
 90
      499
 91
      502
 93
      105
310
903343A310000000000000410100
  0
ACAD_PROXY_OBJECT
  5
1000E
102
{ACAD_REACTORS
330
FFFF
102
}
330
FFFF
100
AcDbProxyObject
 90
      499
 91
      502
 93
      105
310
903383A310000000000000810100
  0
ACAD_PROXY_OBJECT
  5
1000F
102
{ACAD_REACTORS
330
FFFF
102
}
330
FFFF
100
AcDbProxyObject
 90
      499
 91
      502
 93
      113
310
90431303A310000000000000910100
  0
ACAD_PROXY_OBJECT
  5
10010
102
{ACAD_REACTORS
330
FFFF
102
}
330
FFFF
100
AcDbProxyObject
 90
      499
 91
      502
 93
      121
310
9053130303A310000000000001650100
  0
ACAD_PROXY_OBJECT
  5
10011
102
{ACAD_REACTORS
330
FFFF
102
}
330
FFFF
100
AcDbProxyObject
 90
      499
 91
      502
 93
      257
310
90E312F31323822203D2031272D3022000000000000200FC000000000000284000
  0
ACAD_PROXY_OBJECT
  5
10012
102
{ACAD_REACTORS
330
FFFF
102
}
330
FFFF
100
AcDbProxyObject
 90
      499
 91
      502
 93
      249
310
90D312F363422203D2031272D3022000000000000240FC000000000000284000
  0
ACAD_PROXY_OBJECT
  5
10013
102
{ACAD_REACTORS
330
FFFF
102
}
330
FFFF
100
AcDbProxyObject
 90
      499
 91
      502
 93
      249
310
90D312F333222203D2031272D3022000000000000280FC000000000000284000
  0
ACAD_PROXY_OBJECT
  5
10014
102
{ACAD_REACTORS
330
FFFF
102
}
330
FFFF
100
AcDbProxyObject
 90
      499
 91
      502
 93
      249
310
90D312F313622203D2031272D30220000000000002C0FC000000000000284000
  0
ACAD_PROXY_OBJECT
  5
10015
102
{ACAD_REACTORS
330
FFFF
102
}
330
FFFF
100
AcDbProxyObject
 90
      499
 91
      502
 93
      249
310
90D332F333222203D2031272D30220000000000002E0FC000000000000284000
  0
ACAD_PROXY_OBJECT
  5
10016
102
{ACAD_REACTORS
330
FFFF
102
}
330
FFFF
100
AcDbProxyObject
 90
      499
 91
      502
 93
      241
310
90C312F3822203D2031272D3022000000000000300FC000000000000284000
  0
ACAD_PROXY_OBJECT
  5
10017
102
{ACAD_REACTORS
330
FFFF
102
}
330
FFFF
100
AcDbProxyObject
 90
      499
 91
      502
 93
      249
310
90D332F313622203D2031272D3022000000000000320FC000000000000284000
  0
ACAD_PROXY_OBJECT
  5
10018
102
{ACAD_REACTORS
330
FFFF
102
}
330
FFFF
100
AcDbProxyObject
 90
      499
 91
      502
 93
      241
310
90C312F3422203D2031272D3022000000000000340FC000000000000284000
  0
ACAD_PROXY_OBJECT
  5
10019
102
{ACAD_REACTORS
330
FFFF
102
}
330
FFFF
100
AcDbProxyObject
 90
      499
 91
      502
 93
      241
310
90C332F3822203D2031272D3022000000000000360FC000000000000284000
  0
ACAD_PROXY_OBJECT
  5
1001A
102
{ACAD_REACTORS
330
FFFF
102
}
330
FFFF
100
AcDbProxyObject
 90
      499
 91
      502
 93
      241
310
90C312F3222203D2031272D3022000000000000380FC000000000000284000
  0
ACAD_PROXY_OBJECT
  5
1001B
102
{ACAD_REACTORS
330
FFFF
102
}
330
FFFF
100
AcDbProxyObject
 90
      499
 91
      502
 93
      241
310
90C332F3422203D2031272D30220000000000003A0FC000000000000284000
  0
ACAD_PROXY_OBJECT
  5
1001C
102
{ACAD_REACTORS
330
FFFF
102
}
330
FFFF
100
AcDbProxyObject
 90
      499
 91
      502
 93
      161
310
90A3122203D2031272D30224000000000000284000
  0
ACAD_PROXY_OBJECT
  5
1001D
102
{ACAD_REACTORS
330
FFFF
102
}
330
FFFF
100
AcDbProxyObject
 90
      499
 91
      502
 93
      257
310
90E312D312F3222203D2031272D30220000000000003E0FC000000000000284000
  0
ACAD_PROXY_OBJECT
  5
1001E
102
{ACAD_REACTORS
330
FFFF
102
}
330
FFFF
100
AcDbProxyObject
 90
      499
 91
      502
 93
      225
310
90A3322203D2031272D302200000000000002100000000000000284000
  0
ACAD_PROXY_OBJECT
  5
1001F
102
{ACAD_REACTORS
330
FFFF
102
}
330
FFFF
100
AcDbProxyObject
 90
      499
 91
      502
 93
      225
310
90A3622203D2031272D302200000000000006100000000000000284000
  0
ACAD_PROXY_OBJECT
  5
10020
102
{ACAD_REACTORS
330
FFFF
102
}
330
FFFF
100
AcDbProxyObject
 90
      499
 91
      502
 93
      249
310
90D31272D3022203D2031272D30220000000000000A100000000000000284000
  0
ACAD_PROXY_OBJECT
  5
10026
102
{ACAD_REACTORS
330
10021
102
}
330
10021
100
AcDbProxyObject
 90
      499
 91
      503
 93
      436
310
42CC9915DA5C99599C985B595049028333333333333E33F0000000000000F90107901411070040501600405405064090741402480A0340
1001
ACAD
1000
AcDbSavedByObjectVersion
1070
     0
  0
ACAD_PROXY_OBJECT
  5
10029
102
{ACAD_REACTORS
330
10021
102
}
330
10021
100
AcDbProxyObject
 90
      499
 91
      503
 93
      388
310
4150985CDA58D07406404333333333333E33F0000000000000F90107A41107004050150841D405064090741402480A0350
1001
ACAD
1000
AcDbSavedByObjectVersion
1070
     0
  0
ACAD_PROXY_OBJECT
  5
1002D
102
{ACAD_REACTORS
330
10021
102
}
330
10021
100
AcDbProxyObject
 90
      499
 91
      503
 93
      428
310
42109C9A59DA1D195B90C409028333333333333E33F0000000000000F9010790141107004050150841D405064090741402480A029950
1001
ACAD
1000
AcDbSavedByObjectVersion
1070
     0
  0
ACAD_PROXY_OBJECT
  5
10031
102
{ACAD_REACTORS
330
10021
102
}
330
10021
100
AcDbProxyObject
 90
      499
 91
      503
 93
      452
310
42D0DBDB1BDC90DA185B99D95104090240C333333333333E33F0000000000000F90108901411070040501508421405064090741402480A0350
1001
ACAD
1000
AcDbSavedByObjectVersion
1070
     0
  0
ACAD_PROXY_OBJECT
  5
1002B
102
{ACAD_REACTORS
330
10021
102
}
330
10021
100
AcDbProxyObject
 90
      499
 91
      503
 93
      500
310
4290DBDB98D95C1D1D585B10940D028333333333333E33F0000000000000F90107902409070040501000000000018199010841D405064090740C02480A0340
1001
ACAD
1000
AcDbSavedByObjectVersion
1070
     0
  0
ACAD_PROXY_OBJECT
  5
1002C
102
{ACAD_REACTORS
330
10021
102
}
330
10021
100
AcDbProxyObject
 90
      499
 91
      503
 93
      412
310
40D11A5B50B409028333333333333E33F0000000000000F9010790141107004050150841D405064090741402480A02677FFFFFD0
1001
ACAD
1000
AcDbSavedByObjectVersion
1070
     0
  0
ACAD_PROXY_OBJECT
  5
10034
102
{ACAD_REACTORS
330
10021
102
}
330
10021
100
AcDbProxyObject
 90
      499
 91
      503
 93
      452
310
43115919D950DBDB1BDC93D999916409028333333333333E33F0000000000000F9010790141107004050150841D405064090741402480A0350
1001
ACAD
1000
AcDbSavedByObjectVersion
1070
     0
  0
ACAD_PROXY_OBJECT
  5
10030
102
{ACAD_REACTORS
330
10021
102
}
330
10021
100
AcDbProxyObject
 90
      499
 91
      503
 93
      444
310
42D19858D95C185D1D195C9B90F409028333333333333E33F0000000000000F9010790141107004050150841D405064090741402480A0350
1001
ACAD
1000
AcDbSavedByObjectVersion
1070
     0
  0
ACAD_PROXY_OBJECT
  5
10022
102
{ACAD_REACTORS
330
10021
102
}
330
10021
100
AcDbProxyObject
 90
      499
 91
      503
 93
      380
310
41119B185D240901404333333333333E33F0000000000000F9010740A907004050150841D405064090741402480A1B50
1001
ACAD
1000
AcDbSavedByObjectVersion
1070
     0
  0
ACAD_PROXY_OBJECT
  5
10023
102
{ACAD_REACTORS
330
10021
102
}
330
10021
100
AcDbProxyObject
 90
      499
 91
      503
 93
      468
310
43519B185D15DA5D1A115919D95CD0140901404333333333333E33F0000000000000F90107409019070040501600405405064090741402480A1B50
1001
ACAD
1000
AcDbSavedByObjectVersion
1070
     0
  0
ACAD_PROXY_OBJECT
  5
10024
102
{ACAD_REACTORS
330
10021
102
}
330
10021
100
AcDbProxyObject
 90
      499
 91
      503
 93
      404
310
41D1DBDD5C985D5910240902404333333333333E33F0000000000000F9010740A9070040501641D405064090741402480A1B50
1001
ACAD
1000
AcDbSavedByObjectVersion
1070
     0
  0
ACAD_PROXY_OBJECT
  5
10025
102
{ACAD_REACTORS
330
10021
102
}
330
10021
100
AcDbProxyObject
 90
      499
 91
      503
 93
      492
310
4411DBDD5C985D5915DA5D1A115919D95CD0340902404333333333333E33F0000000000000F90107409019070040501600405405064090741402480A1B50
1001
ACAD
1000
AcDbSavedByObjectVersion
1070
     0
  0
ACAD_PROXY_OBJECT
  5
10028
102
{ACAD_REACTORS
330
10021
102
}
330
10021
100
AcDbProxyObject
 90
      499
 91
      503
 93
      476
310
41921A5919195B90640502408333333333333E33F0000000000000F901079024090700405020000000000001110200405405064090740C02480A0340
1001
ACAD
1000
AcDbSavedByObjectVersion
1070
     0
  0
ACAD_PROXY_OBJECT
  5
10032
102
{ACAD_REACTORS
330
10021
102
}
330
10021
100
AcDbProxyObject
 90
      499
 91
      503
 93
      428
310
42529A5D1D195C93D999914409028333333333333E33F0000000000000F9010790141107004050150A41D405064090741402480A0350
1001
ACAD
1000
AcDbSavedByObjectVersion
1070
     0
  0
ACAD_PROXY_OBJECT
  5
1002F
102
{ACAD_REACTORS
330
10021
102
}
330
10021
100
AcDbProxyObject
 90
      499
 91
      503
 93
      444
310
42D31A5B995C185D1D195C9B90E409028333333333333E33F0000000000000F9010790141107004050750841D405064090741402483A0350
1001
ACAD
1000
AcDbSavedByObjectVersion
1070
     0
  0
ACAD_PROXY_OBJECT
  5
10033
102
{ACAD_REACTORS
330
10021
102
}
330
10021
100
AcDbProxyObject
 90
      499
 91
      503
 93
      444
310
42D3DD995C9A185B99D3D999915409028333333333333E33F0000000000000F9010790141107004050150941D405064090741402480A0350
1001
ACAD
1000
AcDbSavedByObjectVersion
1070
     0
  0
ACAD_PROXY_OBJECT
  5
1002A
102
{ACAD_REACTORS
330
10021
102
}
330
10021
100
AcDbProxyObject
 90
      499
 91
      503
 93
      428
310
425499585B1A5CDD1A58D08409038333333333333E33F0000000000000F9010740A907004050150800405405064090740C02480A1B40
1001
ACAD
1000
AcDbSavedByObjectVersion
1070
     0
  0
ACAD_PROXY_OBJECT
  5
10039
102
{ACAD_REACTORS
330
10021
102
}
330
10021
100
AcDbProxyObject
 90
      499
 91
      503
 93
      420
310
4194DA1859195911B40902404333333333333E33F0000000000000F9010740A41107004050150800405405064090840C02480A0B40
1001
ACAD
1000
AcDbSavedByObjectVersion
1070
     0
  0
ACAD_PROXY_OBJECT
  5
10038
102
{ACAD_REACTORS
330
10021
102
}
330
10021
100
AcDbProxyObject
 90
      499
 91
      503
 93
      516
310
4454DA18591959081DDA5D1A08195919D95CD1A40902404333333333333E33F0000000000000F901074090142907004050250800405405064090740C02480A0B40
1001
ACAD
1000
AcDbSavedByObjectVersion
1070
     0
  0
ACAD_PROXY_OBJECT
  5
10035
102
{ACAD_REACTORS
330
10021
102
}
330
10021
100
AcDbProxyObject
 90
      499
 91
      503
 93
      532
310
4394DA1859195CC81BD98811DC985E5174090240C333333333333E33F0000000000000F901079024090741D01000000000000111010841D405064090740C02480A0340
1001
ACAD
1000
AcDbSavedByObjectVersion
1070
     0
  0
ACAD_PROXY_OBJECT
  5
10036
102
{ACAD_REACTORS
330
10021
102
}
330
10021
100
AcDbProxyObject
 90
      499
 91
      503
 93
      476
310
41D4DAD95D18DA1E51840502408333333333333E33F0000000000000F901079024090741D01000000000000111010B41D405064090741802480A0340
1001
ACAD
1000
AcDbSavedByObjectVersion
1070
     0
  0
ACAD_PROXY_OBJECT
  5
1002E
102
{ACAD_REACTORS
330
10021
102
}
330
10021
100
AcDbProxyObject
 90
      499
 91
      503
 93
      412
310
41D51A1A58DAD95B90D409028333333333333E33F0000000000000F9010790141107004050150C41D405064090741402480A0350
1001
ACAD
1000
AcDbSavedByObjectVersion
1070
     0
  0
ACAD_PROXY_OBJECT
  5
10027
102
{ACAD_REACTORS
330
10021
102
}
330
10021
100
AcDbProxyObject
 90
      499
 91
      503
 93
      420
310
4255DA5C99599C985B595059028333333333333E33F0000000000000F90107901411070040501600405405064090740C02480A0340
1001
ACAD
1000
AcDbSavedByObjectVersion
1070
     0
  0
ACAD_PROXY_OBJECT
  5
10037
102
{ACAD_REACTORS
330
10021
102
}
330
10021
100
AcDbProxyObject
 90
      499
 91
      503
 93
      404
310
41560B54985E51940902404000000000000E03F0000000000000F9010740501907004050150841D405064090740C02480A1B40
1001
ACAD
1000
AcDbSavedByObjectVersion
1070
     0
  0
XRECORD
  5
1004C
102
{ACAD_REACTORS
330
10042
102
}
330
10042
100
AcDbXrecord
340
0
  0
XRECORD
  5
1004B
102
{ACAD_REACTORS
330
10042
102
}
330
10042
100
AcDbXrecord
 90
        0
  0
XRECORD
  5
10062
102
{ACAD_REACTORS
330
10042
102
}
330
10042
100
AcDbXrecord
1000
DSTYLE
1002
{
1070
   179
 70
     2
1070
   143
 40
0.03937
1070
   271
 70
     4
1070
   278
 70
     0
1070
   340
340
69
1002
}
  0
XRECORD
  5
1004D
102
{ACAD_REACTORS
330
10042
102
}
330
10042
100
AcDbXrecord
  1
{A8FE72DD-6051-4032-B938-B791DDEC5C06}
  0
XRECORD
  5
10045
102
{ACAD_REACTORS
330
10042
102
}
330
10042
100
AcDbXrecord
  1

  0
XRECORD
  5
1004A
102
{ACAD_REACTORS
330
10042
102
}
330
10042
100
AcDbXrecord
 90
        4
  0
XRECORD
  5
10047
102
{ACAD_REACTORS
330
10042
102
}
330
10042
100
AcDbXrecord
340
1A
  0
XRECORD
  5
10049
102
{ACAD_REACTORS
330
10042
102
}
330
10042
100
AcDbXrecord
 90
    10781
  0
XRECORD
  5
10048
102
{ACAD_REACTORS
330
10042
102
}
330
10042
100
AcDbXrecord
340
19
  0
XRECORD
  5
1004F
102
{ACAD_REACTORS
330
10042
102
}
330
10042
100
AcDbXrecord
 40
0.0
  0
XRECORD
  5
10052
102
{ACAD_REACTORS
330
10042
102
}
330
10042
100
AcDbXrecord
340
0
  0
XRECORD
  5
10058
102
{ACAD_REACTORS
330
10042
102
}
330
10042
100
AcDbXrecord
 10
0.0
 20
0.0
 30
0.0
  0
XRECORD
  5
10054
102
{ACAD_REACTORS
330
10042
102
}
330
10042
100
AcDbXrecord
 10
0.0
 20
0.0
 30
0.0
  0
XRECORD
  5
10057
102
{ACAD_REACTORS
330
10042
102
}
330
10042
100
AcDbXrecord
 10
0.0
 20
0.0
 30
0.0
  0
XRECORD
  5
10055
102
{ACAD_REACTORS
330
10042
102
}
330
10042
100
AcDbXrecord
 10
0.0
 20
0.0
 30
0.0
  0
XRECORD
  5
10056
102
{ACAD_REACTORS
330
10042
102
}
330
10042
100
AcDbXrecord
 10
0.0
 20
0.0
 30
0.0
  0
XRECORD
  5
10053
102
{ACAD_REACTORS
330
10042
102
}
330
10042
100
AcDbXrecord
 10
0.0
 20
0.0
 30
0.0
  0
XRECORD
  5
10050
102
{ACAD_REACTORS
330
10042
102
}
330
10042
100
AcDbXrecord
340
0
  0
XRECORD
  5
10051
102
{ACAD_REACTORS
330
10042
102
}
330
10042
100
AcDbXrecord
 70
     0
  0
XRECORD
  5
10046
102
{ACAD_REACTORS
330
10042
102
}
330
10042
100
AcDbXrecord
  1

  0
XRECORD
  5
10043
102
{ACAD_REACTORS
330
10042
102
}
330
10042
100
AcDbXrecord
 90
        1
  0
XRECORD
  5
10044
102
{ACAD_REACTORS
330
10042
102
}
330
10042
100
AcDbXrecord
 90
       70
  0
XRECORD
  5
1005B
102
{ACAD_REACTORS
330
10042
102
}
330
10042
100
AcDbXrecord
340
0
  0
XRECORD
  5
10061
102
{ACAD_REACTORS
330
10042
102
}
330
10042
100
AcDbXrecord
 10
0.0
 20
0.0
 30
0.0
  0
XRECORD
  5
1005D
102
{ACAD_REACTORS
330
10042
102
}
330
10042
100
AcDbXrecord
 10
0.0
 20
0.0
 30
0.0
  0
XRECORD
  5
10060
102
{ACAD_REACTORS
330
10042
102
}
330
10042
100
AcDbXrecord
 10
0.0
 20
0.0
 30
0.0
  0
XRECORD
  5
1005E
102
{ACAD_REACTORS
330
10042
102
}
330
10042
100
AcDbXrecord
 10
0.0
 20
0.0
 30
0.0
  0
XRECORD
  5
1005F
102
{ACAD_REACTORS
330
10042
102
}
330
10042
100
AcDbXrecord
 10
0.0
 20
0.0
 30
0.0
  0
XRECORD
  5
1005C
102
{ACAD_REACTORS
330
10042
102
}
330
10042
100
AcDbXrecord
 10
0.0
 20
0.0
 30
0.0
  0
XRECORD
  5
10059
102
{ACAD_REACTORS
330
10042
102
}
330
10042
100
AcDbXrecord
340
0
  0
XRECORD
  5
1005A
102
{ACAD_REACTORS
330
10042
102
}
330
10042
100
AcDbXrecord
 70
     0
  0
XRECORD
  5
1004E
102
{ACAD_REACTORS
330
10042
102
}
330
10042
100
AcDbXrecord
  1
{FAEB1C32-E019-11D5-929B-00C0DF256EC4}
  0
DICTIONARYVAR
  5
1006A
102
{ACAD_REACTORS
330
1EB
102
}
330
1EB
100
DictionaryVariables
280
     0
  1
1:1
  0
DICTIONARYVAR
  5
10064
102
{ACAD_REACTORS
330
1EB
102
}
330
1EB
100
DictionaryVariables
280
     0
  1
Standard
  0
DICTIONARYVAR
  5
10063
102
{ACAD_REACTORS
330
1EB
102
}
330
1EB
100
DictionaryVariables
280
     0
  1
Standard
  0
DICTIONARYVAR
  5
1EE
330
1EB
100
DictionaryVariables
280
     0
  1
1
  0
DICTIONARYVAR
  5
1ED
330
1EB
100
DictionaryVariables
280
     0
  1
2
  0
DICTIONARYVAR
  5
10065
102
{ACAD_REACTORS
330
1EB
102
}
330
1EB
100
DictionaryVariables
280
     0
  1
0
  0
XRECORD
  5
1EF
330
1EC
100
AcDbXrecord
1000
White
  0
XRECORD
  5
1F0
330
1EC
100
AcDbXrecord
1000
FullColor
  0
ACAD_PROXY_OBJECT
  5
1F1
330
1EC
100
AcDbProxyObject
 90
      499
 91
      507
 93
       34
310
40C8804040
  0
ACAD_PROXY_OBJECT
  5
1F2
330
1EC
100
AcDbProxyObject
 90
      499
 91
      507
 93
       34
310
40C8804040
  0
ACAD_PROXY_OBJECT
  5
1F3
330
1EC
100
AcDbProxyObject
 90
      499
 91
      507
 93
       34
310
40C8804040
  0
ACAD_PROXY_OBJECT
  5
1F4
330
1EC
100
AcDbProxyObject
 90
      499
 91
      507
 93
       34
310
40C8804040
  0
XRECORD
  5
1F5
330
1EC
100
AcDbXrecord
1000
auto
  0
XRECORD
  5
1F6
330
1EC
100
AcDbXrecord
1000
auto
  0
XRECORD
  5
1F7
330
1EC
100
AcDbXrecord
1000
auto
  0
XRECORD
  5
1F8
330
1EC
100
AcDbXrecord
1000
auto
  0
XRECORD
  5
1F9
330
1EC
100
AcDbXrecord
1000
auto
  0
XRECORD
  5
1FA
330
1EC
100
AcDbXrecord
1000
auto
  0
XRECORD
  5
1FB
330
1EC
100
AcDbXrecord
1000
auto
  0
XRECORD
  5
1FC
330
1EC
100
AcDbXrecord
1000
auto
  0
ACAD_PROXY_OBJECT
  5
1FD
330
1EC
100
AcDbProxyObject
 90
      499
 91
      507
 93
       34
310
40C8804000
  0
ACAD_PROXY_OBJECT
  5
1FE
330
1EC
100
AcDbProxyObject
 90
      499
 91
      507
 93
       34
310
40C8804000
  0
ACAD_PROXY_OBJECT
  5
1FF
330
1EC
100
AcDbProxyObject
 90
      499
 91
      507
 93
       34
310
40C8804000
  0
ACAD_PROXY_OBJECT
  5
200
330
1EC
100
AcDbProxyObject
 90
      499
 91
      507
 93
       34
310
40C8804000
  0
XRECORD
  5
201
330
1EC
100
AcDbXrecord
 90
        0
  0
XRECORD
  5
202
330
1EC
100
AcDbXrecord
 90
        0
  0
XRECORD
  5
203
330
1EC
100
AcDbXrecord
 90
        0
  0
XRECORD
  5
204
330
1EC
100
AcDbXrecord
 90
        0
  0
XRECORD
  5
205
330
1EC
100
AcDbXrecord
1000
auto
  0
XRECORD
  5
206
330
1EC
100
AcDbXrecord
1000
auto
  0
XRECORD
  5
207
330
1EC
100
AcDbXrecord
1000
auto
  0
XRECORD
  5
208
330
1EC
100
AcDbXrecord
1000
auto
  0
XRECORD
  5
209
330
1EC
100
AcDbXrecord
1000
auto
  0
XRECORD
  5
20A
330
1EC
100
AcDbXrecord
1000
auto
  0
XRECORD
  5
20B
330
1EC
100
AcDbXrecord
1000
auto
  0
XRECORD
  5
20C
330
1EC
100
AcDbXrecord
1000
auto
  0
XRECORD
  5
20D
330
1EC
100
AcDbXrecord
 90
        1
  0
XRECORD
  5
20F
330
1EC
100
AcDbXrecord
 40
10.0
  0
XRECORD
  5
210
330
1EC
100
AcDbXrecord
 40
10.0
  0
XRECORD
  5
211
330
1EC
100
AcDbXrecord
 40
10.0
  0
XRECORD
  5
20E
330
1EC
100
AcDbXrecord
 40
10.0
  0
ACAD_PROXY_OBJECT
  5
212
330
1EC
100
AcDbProxyObject
 90
      499
 91
      507
 93
       34
310
40C8804000
  0
XRECORD
  5
213
330
1EC
100
AcDbXrecord
 90
        1
  0
XRECORD
  5
214
330
1EC
100
AcDbXrecord
 40
0.0
  0
XRECORD
  5
215
330
1EC
100
AcDbXrecord
 40
0.0
  0
XRECORD
  5
216
330
1EC
100
AcDbXrecord
1000
Portrait
  0
XRECORD
  5
217
330
1EC
100
AcDbXrecord
 40
297.0
  0
XRECORD
  5
218
330
1EC
100
AcDbXrecord
 40
210.0
  0
XRECORD
  5
219
330
1EC
100
AcDbXrecord
1000
1:1
  0
ACAD_PROXY_OBJECT
  5
21A
330
1EC
100
AcDbProxyObject
 90
      499
 91
      507
 93
       34
310
40C8804040
  0
XRECORD
  5
21B
330
1EC
100
AcDbXrecord
1000
3.12.5
  0
XRECORD
  5
21C
330
1EC
100
AcDbXrecord
 90
        4
  0
DICTIONARY
  5
1006D
330
1003C
100
AcDbDictionary
280
     1
  3
ACAD_XREC_ROUNDTRIP
360
1006E
  0
DICTIONARY
  5
1006B
330
1003B
100
AcDbDictionary
280
     1
  3
ACAD_XREC_ROUNDTRIP
360
1006C
  0
DICTIONARY
  5
1006F
330
1003D
100
AcDbDictionary
280
     1
  3
ACAD_XREC_ROUNDTRIP
360
10070
  0
XRECORD
  5
1006E
102
{ACAD_REACTORS
330
1006D
102
}
330
1006D
100
AcDbXrecord
102
MATERIAL
148
0.0
149
0.0
149
0.0
 93
        0
 94
      127
282
     0
 72
     1
 77
     1
171
     1
175
     1
179
     1
273
     0
  0
XRECORD
  5
1006C
102
{ACAD_REACTORS
330
1006B
102
}
330
1006B
100
AcDbXrecord
102
MATERIAL
148
0.0
149
0.0
149
0.0
 93
        0
 94
      127
282
     0
 72
     1
 77
     1
171
     1
175
     1
179
     1
273
     0
  0
XRECORD
  5
10070
102
{ACAD_REACTORS
330
1006F
102
}
330
1006F
100
AcDbXrecord
102
MATERIAL
148
0.0
149
0.0
149
0.0
 93
        0
 94
      127
282
     0
 72
     1
 77
     1
171
     1
175
     1
179
     1
273
     0
  0
ENDSEC
  0
EOF
