G04 #@! TF.FileFunction,Other,Fab,Top*
%FSLAX46Y46*%
G04 Gerber Fmt 4.6, Leading zero omitted, Abs format (unit mm)*
G04 Created by KiCad (PCBNEW 4.0.1-stable) date Wednesday, 10 February 2016 'pmt' 16:49:47*
%MOMM*%
G01*
G04 APERTURE LIST*
%ADD10C,0.100000*%
%ADD11C,0.152400*%
%ADD12C,0.150000*%
G04 APERTURE END LIST*
D10*
D11*
X186200000Y-123950000D02*
X162200000Y-123950000D01*
X162200000Y-123950000D02*
X162200000Y-107950000D01*
X162200000Y-107950000D02*
X186200000Y-107950000D01*
X186200000Y-107950000D02*
X186200000Y-123950000D01*
D12*
X175712381Y-140342857D02*
X175712381Y-140914286D01*
X175712381Y-140628572D02*
X174712381Y-140628572D01*
X174855238Y-140723810D01*
X174950476Y-140819048D01*
X174998095Y-140914286D01*
X174712381Y-139723810D02*
X174712381Y-139628571D01*
X174760000Y-139533333D01*
X174807619Y-139485714D01*
X174902857Y-139438095D01*
X175093333Y-139390476D01*
X175331429Y-139390476D01*
X175521905Y-139438095D01*
X175617143Y-139485714D01*
X175664762Y-139533333D01*
X175712381Y-139628571D01*
X175712381Y-139723810D01*
X175664762Y-139819048D01*
X175617143Y-139866667D01*
X175521905Y-139914286D01*
X175331429Y-139961905D01*
X175093333Y-139961905D01*
X174902857Y-139914286D01*
X174807619Y-139866667D01*
X174760000Y-139819048D01*
X174712381Y-139723810D01*
X175045714Y-138533333D02*
X175712381Y-138533333D01*
X175045714Y-138961905D02*
X175569524Y-138961905D01*
X175664762Y-138914286D01*
X175712381Y-138819048D01*
X175712381Y-138676190D01*
X175664762Y-138580952D01*
X175617143Y-138533333D01*
X161742381Y-130182857D02*
X161742381Y-130754286D01*
X161742381Y-130468572D02*
X160742381Y-130468572D01*
X160885238Y-130563810D01*
X160980476Y-130659048D01*
X161028095Y-130754286D01*
X160742381Y-129563810D02*
X160742381Y-129468571D01*
X160790000Y-129373333D01*
X160837619Y-129325714D01*
X160932857Y-129278095D01*
X161123333Y-129230476D01*
X161361429Y-129230476D01*
X161551905Y-129278095D01*
X161647143Y-129325714D01*
X161694762Y-129373333D01*
X161742381Y-129468571D01*
X161742381Y-129563810D01*
X161694762Y-129659048D01*
X161647143Y-129706667D01*
X161551905Y-129754286D01*
X161361429Y-129801905D01*
X161123333Y-129801905D01*
X160932857Y-129754286D01*
X160837619Y-129706667D01*
X160790000Y-129659048D01*
X160742381Y-129563810D01*
X161075714Y-128373333D02*
X161742381Y-128373333D01*
X161075714Y-128801905D02*
X161599524Y-128801905D01*
X161694762Y-128754286D01*
X161742381Y-128659048D01*
X161742381Y-128516190D01*
X161694762Y-128420952D01*
X161647143Y-128373333D01*
X169802381Y-130182857D02*
X169802381Y-130659048D01*
X168802381Y-130659048D01*
X169278571Y-129849524D02*
X169278571Y-129516190D01*
X169802381Y-129373333D02*
X169802381Y-129849524D01*
X168802381Y-129849524D01*
X168802381Y-129373333D01*
X169802381Y-128944762D02*
X168802381Y-128944762D01*
X168802381Y-128706667D01*
X168850000Y-128563809D01*
X168945238Y-128468571D01*
X169040476Y-128420952D01*
X169230952Y-128373333D01*
X169373810Y-128373333D01*
X169564286Y-128420952D01*
X169659524Y-128468571D01*
X169754762Y-128563809D01*
X169802381Y-128706667D01*
X169802381Y-128944762D01*
X157372381Y-148653333D02*
X156372381Y-148653333D01*
X156372381Y-148272380D01*
X156420000Y-148177142D01*
X156467619Y-148129523D01*
X156562857Y-148081904D01*
X156705714Y-148081904D01*
X156800952Y-148129523D01*
X156848571Y-148177142D01*
X156896190Y-148272380D01*
X156896190Y-148653333D01*
X156372381Y-147748571D02*
X157372381Y-147510476D01*
X156658095Y-147319999D01*
X157372381Y-147129523D01*
X156372381Y-146891428D01*
X157372381Y-145939047D02*
X156896190Y-146272381D01*
X157372381Y-146510476D02*
X156372381Y-146510476D01*
X156372381Y-146129523D01*
X156420000Y-146034285D01*
X156467619Y-145986666D01*
X156562857Y-145939047D01*
X156705714Y-145939047D01*
X156800952Y-145986666D01*
X156848571Y-146034285D01*
X156896190Y-146129523D01*
X156896190Y-146510476D01*
X174093334Y-105825714D02*
X174093334Y-106492381D01*
X173855238Y-105444762D02*
X173617143Y-106159048D01*
X174236191Y-106159048D01*
X174521905Y-105492381D02*
X175188572Y-105492381D01*
X174760000Y-106492381D01*
X175760000Y-105492381D02*
X175855239Y-105492381D01*
X175950477Y-105540000D01*
X175998096Y-105587619D01*
X176045715Y-105682857D01*
X176093334Y-105873333D01*
X176093334Y-106111429D01*
X176045715Y-106301905D01*
X175998096Y-106397143D01*
X175950477Y-106444762D01*
X175855239Y-106492381D01*
X175760000Y-106492381D01*
X175664762Y-106444762D01*
X175617143Y-106397143D01*
X175569524Y-106301905D01*
X175521905Y-106111429D01*
X175521905Y-105873333D01*
X175569524Y-105682857D01*
X175617143Y-105587619D01*
X175664762Y-105540000D01*
X175760000Y-105492381D01*
X176521905Y-106492381D02*
X176521905Y-105492381D01*
X176617143Y-106111429D02*
X176902858Y-106492381D01*
X176902858Y-105825714D02*
X176521905Y-106206667D01*
X163234762Y-106492381D02*
X162663333Y-106492381D01*
X162949047Y-106492381D02*
X162949047Y-105492381D01*
X162853809Y-105635238D01*
X162758571Y-105730476D01*
X162663333Y-105778095D01*
X163853809Y-105492381D02*
X163949048Y-105492381D01*
X164044286Y-105540000D01*
X164091905Y-105587619D01*
X164139524Y-105682857D01*
X164187143Y-105873333D01*
X164187143Y-106111429D01*
X164139524Y-106301905D01*
X164091905Y-106397143D01*
X164044286Y-106444762D01*
X163949048Y-106492381D01*
X163853809Y-106492381D01*
X163758571Y-106444762D01*
X163710952Y-106397143D01*
X163663333Y-106301905D01*
X163615714Y-106111429D01*
X163615714Y-105873333D01*
X163663333Y-105682857D01*
X163710952Y-105587619D01*
X163758571Y-105540000D01*
X163853809Y-105492381D01*
X164615714Y-106492381D02*
X164615714Y-105492381D01*
X164710952Y-106111429D02*
X164996667Y-106492381D01*
X164996667Y-105825714D02*
X164615714Y-106206667D01*
X177204762Y-144592381D02*
X176633333Y-144592381D01*
X176919047Y-144592381D02*
X176919047Y-143592381D01*
X176823809Y-143735238D01*
X176728571Y-143830476D01*
X176633333Y-143878095D01*
X177823809Y-143592381D02*
X177919048Y-143592381D01*
X178014286Y-143640000D01*
X178061905Y-143687619D01*
X178109524Y-143782857D01*
X178157143Y-143973333D01*
X178157143Y-144211429D01*
X178109524Y-144401905D01*
X178061905Y-144497143D01*
X178014286Y-144544762D01*
X177919048Y-144592381D01*
X177823809Y-144592381D01*
X177728571Y-144544762D01*
X177680952Y-144497143D01*
X177633333Y-144401905D01*
X177585714Y-144211429D01*
X177585714Y-143973333D01*
X177633333Y-143782857D01*
X177680952Y-143687619D01*
X177728571Y-143640000D01*
X177823809Y-143592381D01*
X178585714Y-144592381D02*
X178585714Y-143592381D01*
X178680952Y-144211429D02*
X178966667Y-144592381D01*
X178966667Y-143925714D02*
X178585714Y-144306667D01*
X175342381Y-131325714D02*
X175342381Y-130706666D01*
X175723333Y-131040000D01*
X175723333Y-130897142D01*
X175770952Y-130801904D01*
X175818571Y-130754285D01*
X175913810Y-130706666D01*
X176151905Y-130706666D01*
X176247143Y-130754285D01*
X176294762Y-130801904D01*
X176342381Y-130897142D01*
X176342381Y-131182857D01*
X176294762Y-131278095D01*
X176247143Y-131325714D01*
X175342381Y-130373333D02*
X175342381Y-129754285D01*
X175723333Y-130087619D01*
X175723333Y-129944761D01*
X175770952Y-129849523D01*
X175818571Y-129801904D01*
X175913810Y-129754285D01*
X176151905Y-129754285D01*
X176247143Y-129801904D01*
X176294762Y-129849523D01*
X176342381Y-129944761D01*
X176342381Y-130230476D01*
X176294762Y-130325714D01*
X176247143Y-130373333D01*
X175342381Y-129135238D02*
X175342381Y-129039999D01*
X175390000Y-128944761D01*
X175437619Y-128897142D01*
X175532857Y-128849523D01*
X175723333Y-128801904D01*
X175961429Y-128801904D01*
X176151905Y-128849523D01*
X176247143Y-128897142D01*
X176294762Y-128944761D01*
X176342381Y-129039999D01*
X176342381Y-129135238D01*
X176294762Y-129230476D01*
X176247143Y-129278095D01*
X176151905Y-129325714D01*
X175961429Y-129373333D01*
X175723333Y-129373333D01*
X175532857Y-129325714D01*
X175437619Y-129278095D01*
X175390000Y-129230476D01*
X175342381Y-129135238D01*
X176342381Y-127801904D02*
X175866190Y-128135238D01*
X176342381Y-128373333D02*
X175342381Y-128373333D01*
X175342381Y-127992380D01*
X175390000Y-127897142D01*
X175437619Y-127849523D01*
X175532857Y-127801904D01*
X175675714Y-127801904D01*
X175770952Y-127849523D01*
X175818571Y-127897142D01*
X175866190Y-127992380D01*
X175866190Y-128373333D01*
X164504762Y-134432381D02*
X163933333Y-134432381D01*
X164219047Y-134432381D02*
X164219047Y-133432381D01*
X164123809Y-133575238D01*
X164028571Y-133670476D01*
X163933333Y-133718095D01*
X165123809Y-133432381D02*
X165219048Y-133432381D01*
X165314286Y-133480000D01*
X165361905Y-133527619D01*
X165409524Y-133622857D01*
X165457143Y-133813333D01*
X165457143Y-134051429D01*
X165409524Y-134241905D01*
X165361905Y-134337143D01*
X165314286Y-134384762D01*
X165219048Y-134432381D01*
X165123809Y-134432381D01*
X165028571Y-134384762D01*
X164980952Y-134337143D01*
X164933333Y-134241905D01*
X164885714Y-134051429D01*
X164885714Y-133813333D01*
X164933333Y-133622857D01*
X164980952Y-133527619D01*
X165028571Y-133480000D01*
X165123809Y-133432381D01*
X165885714Y-134432381D02*
X165885714Y-133432381D01*
X165980952Y-134051429D02*
X166266667Y-134432381D01*
X166266667Y-133765714D02*
X165885714Y-134146667D01*
X164504762Y-128722381D02*
X163933333Y-128722381D01*
X164219047Y-128722381D02*
X164219047Y-127722381D01*
X164123809Y-127865238D01*
X164028571Y-127960476D01*
X163933333Y-128008095D01*
X165123809Y-127722381D02*
X165219048Y-127722381D01*
X165314286Y-127770000D01*
X165361905Y-127817619D01*
X165409524Y-127912857D01*
X165457143Y-128103333D01*
X165457143Y-128341429D01*
X165409524Y-128531905D01*
X165361905Y-128627143D01*
X165314286Y-128674762D01*
X165219048Y-128722381D01*
X165123809Y-128722381D01*
X165028571Y-128674762D01*
X164980952Y-128627143D01*
X164933333Y-128531905D01*
X164885714Y-128341429D01*
X164885714Y-128103333D01*
X164933333Y-127912857D01*
X164980952Y-127817619D01*
X165028571Y-127770000D01*
X165123809Y-127722381D01*
X165885714Y-128722381D02*
X165885714Y-127722381D01*
X165980952Y-128341429D02*
X166266667Y-128722381D01*
X166266667Y-128055714D02*
X165885714Y-128436667D01*
X180792381Y-137342381D02*
X180316190Y-137675715D01*
X180792381Y-137913810D02*
X179792381Y-137913810D01*
X179792381Y-137532857D01*
X179840000Y-137437619D01*
X179887619Y-137390000D01*
X179982857Y-137342381D01*
X180125714Y-137342381D01*
X180220952Y-137390000D01*
X180268571Y-137437619D01*
X180316190Y-137532857D01*
X180316190Y-137913810D01*
X180268571Y-136913810D02*
X180268571Y-136580476D01*
X180792381Y-136437619D02*
X180792381Y-136913810D01*
X179792381Y-136913810D01*
X179792381Y-136437619D01*
X180744762Y-136056667D02*
X180792381Y-135913810D01*
X180792381Y-135675714D01*
X180744762Y-135580476D01*
X180697143Y-135532857D01*
X180601905Y-135485238D01*
X180506667Y-135485238D01*
X180411429Y-135532857D01*
X180363810Y-135580476D01*
X180316190Y-135675714D01*
X180268571Y-135866191D01*
X180220952Y-135961429D01*
X180173333Y-136009048D01*
X180078095Y-136056667D01*
X179982857Y-136056667D01*
X179887619Y-136009048D01*
X179840000Y-135961429D01*
X179792381Y-135866191D01*
X179792381Y-135628095D01*
X179840000Y-135485238D01*
X180268571Y-135056667D02*
X180268571Y-134723333D01*
X180792381Y-134580476D02*
X180792381Y-135056667D01*
X179792381Y-135056667D01*
X179792381Y-134580476D01*
X179792381Y-134294762D02*
X179792381Y-133723333D01*
X180792381Y-134009048D02*
X179792381Y-134009048D01*
X180268571Y-131230476D02*
X180268571Y-131563810D01*
X180792381Y-131563810D02*
X179792381Y-131563810D01*
X179792381Y-131087619D01*
X180792381Y-130230476D02*
X180792381Y-130706667D01*
X179792381Y-130706667D01*
X180506667Y-129944762D02*
X180506667Y-129468571D01*
X180792381Y-130040000D02*
X179792381Y-129706667D01*
X180792381Y-129373333D01*
X180744762Y-129087619D02*
X180792381Y-128944762D01*
X180792381Y-128706666D01*
X180744762Y-128611428D01*
X180697143Y-128563809D01*
X180601905Y-128516190D01*
X180506667Y-128516190D01*
X180411429Y-128563809D01*
X180363810Y-128611428D01*
X180316190Y-128706666D01*
X180268571Y-128897143D01*
X180220952Y-128992381D01*
X180173333Y-129040000D01*
X180078095Y-129087619D01*
X179982857Y-129087619D01*
X179887619Y-129040000D01*
X179840000Y-128992381D01*
X179792381Y-128897143D01*
X179792381Y-128659047D01*
X179840000Y-128516190D01*
X180792381Y-128087619D02*
X179792381Y-128087619D01*
X180268571Y-128087619D02*
X180268571Y-127516190D01*
X180792381Y-127516190D02*
X179792381Y-127516190D01*
X161123810Y-140914381D02*
X160647619Y-140914381D01*
X160647619Y-139914381D01*
X161457143Y-140914381D02*
X161457143Y-139914381D01*
X161790477Y-140628667D01*
X162123810Y-139914381D01*
X162123810Y-140914381D01*
X163123810Y-140914381D02*
X162552381Y-140914381D01*
X162838095Y-140914381D02*
X162838095Y-139914381D01*
X162742857Y-140057238D01*
X162647619Y-140152476D01*
X162552381Y-140200095D01*
X164076191Y-140914381D02*
X163504762Y-140914381D01*
X163790476Y-140914381D02*
X163790476Y-139914381D01*
X163695238Y-140057238D01*
X163600000Y-140152476D01*
X163504762Y-140200095D01*
X165028572Y-140914381D02*
X164457143Y-140914381D01*
X164742857Y-140914381D02*
X164742857Y-139914381D01*
X164647619Y-140057238D01*
X164552381Y-140152476D01*
X164457143Y-140200095D01*
X165361905Y-139914381D02*
X166028572Y-139914381D01*
X165600000Y-140914381D01*
X166409524Y-140533429D02*
X167171429Y-140533429D01*
X167552381Y-139914381D02*
X168171429Y-139914381D01*
X167838095Y-140295333D01*
X167980953Y-140295333D01*
X168076191Y-140342952D01*
X168123810Y-140390571D01*
X168171429Y-140485810D01*
X168171429Y-140723905D01*
X168123810Y-140819143D01*
X168076191Y-140866762D01*
X167980953Y-140914381D01*
X167695238Y-140914381D01*
X167600000Y-140866762D01*
X167552381Y-140819143D01*
X168600000Y-140819143D02*
X168647619Y-140866762D01*
X168600000Y-140914381D01*
X168552381Y-140866762D01*
X168600000Y-140819143D01*
X168600000Y-140914381D01*
X168980952Y-139914381D02*
X169600000Y-139914381D01*
X169266666Y-140295333D01*
X169409524Y-140295333D01*
X169504762Y-140342952D01*
X169552381Y-140390571D01*
X169600000Y-140485810D01*
X169600000Y-140723905D01*
X169552381Y-140819143D01*
X169504762Y-140866762D01*
X169409524Y-140914381D01*
X169123809Y-140914381D01*
X169028571Y-140866762D01*
X168980952Y-140819143D01*
X176728571Y-119164286D02*
X176728571Y-118830952D01*
X177252381Y-118688095D02*
X177252381Y-119164286D01*
X176252381Y-119164286D01*
X176252381Y-118688095D01*
X177204762Y-118307143D02*
X177252381Y-118164286D01*
X177252381Y-117926190D01*
X177204762Y-117830952D01*
X177157143Y-117783333D01*
X177061905Y-117735714D01*
X176966667Y-117735714D01*
X176871429Y-117783333D01*
X176823810Y-117830952D01*
X176776190Y-117926190D01*
X176728571Y-118116667D01*
X176680952Y-118211905D01*
X176633333Y-118259524D01*
X176538095Y-118307143D01*
X176442857Y-118307143D01*
X176347619Y-118259524D01*
X176300000Y-118211905D01*
X176252381Y-118116667D01*
X176252381Y-117878571D01*
X176300000Y-117735714D01*
X177252381Y-117307143D02*
X176252381Y-117307143D01*
X176252381Y-116926190D01*
X176300000Y-116830952D01*
X176347619Y-116783333D01*
X176442857Y-116735714D01*
X176585714Y-116735714D01*
X176680952Y-116783333D01*
X176728571Y-116830952D01*
X176776190Y-116926190D01*
X176776190Y-117307143D01*
X176871429Y-116307143D02*
X176871429Y-115545238D01*
X177252381Y-114545238D02*
X177252381Y-115116667D01*
X177252381Y-114830953D02*
X176252381Y-114830953D01*
X176395238Y-114926191D01*
X176490476Y-115021429D01*
X176538095Y-115116667D01*
X176347619Y-114164286D02*
X176300000Y-114116667D01*
X176252381Y-114021429D01*
X176252381Y-113783333D01*
X176300000Y-113688095D01*
X176347619Y-113640476D01*
X176442857Y-113592857D01*
X176538095Y-113592857D01*
X176680952Y-113640476D01*
X177252381Y-114211905D01*
X177252381Y-113592857D01*
X176728571Y-113164286D02*
X176728571Y-112830952D01*
X177252381Y-112688095D02*
X177252381Y-113164286D01*
X176252381Y-113164286D01*
X176252381Y-112688095D01*
X182554762Y-100782381D02*
X181983333Y-100782381D01*
X182269047Y-100782381D02*
X182269047Y-99782381D01*
X182173809Y-99925238D01*
X182078571Y-100020476D01*
X181983333Y-100068095D01*
X183173809Y-99782381D02*
X183269048Y-99782381D01*
X183364286Y-99830000D01*
X183411905Y-99877619D01*
X183459524Y-99972857D01*
X183507143Y-100163333D01*
X183507143Y-100401429D01*
X183459524Y-100591905D01*
X183411905Y-100687143D01*
X183364286Y-100734762D01*
X183269048Y-100782381D01*
X183173809Y-100782381D01*
X183078571Y-100734762D01*
X183030952Y-100687143D01*
X182983333Y-100591905D01*
X182935714Y-100401429D01*
X182935714Y-100163333D01*
X182983333Y-99972857D01*
X183030952Y-99877619D01*
X183078571Y-99830000D01*
X183173809Y-99782381D01*
X184126190Y-99782381D02*
X184221429Y-99782381D01*
X184316667Y-99830000D01*
X184364286Y-99877619D01*
X184411905Y-99972857D01*
X184459524Y-100163333D01*
X184459524Y-100401429D01*
X184411905Y-100591905D01*
X184364286Y-100687143D01*
X184316667Y-100734762D01*
X184221429Y-100782381D01*
X184126190Y-100782381D01*
X184030952Y-100734762D01*
X183983333Y-100687143D01*
X183935714Y-100591905D01*
X183888095Y-100401429D01*
X183888095Y-100163333D01*
X183935714Y-99972857D01*
X183983333Y-99877619D01*
X184030952Y-99830000D01*
X184126190Y-99782381D01*
X185078571Y-99782381D02*
X185173810Y-99782381D01*
X185269048Y-99830000D01*
X185316667Y-99877619D01*
X185364286Y-99972857D01*
X185411905Y-100163333D01*
X185411905Y-100401429D01*
X185364286Y-100591905D01*
X185316667Y-100687143D01*
X185269048Y-100734762D01*
X185173810Y-100782381D01*
X185078571Y-100782381D01*
X184983333Y-100734762D01*
X184935714Y-100687143D01*
X184888095Y-100591905D01*
X184840476Y-100401429D01*
X184840476Y-100163333D01*
X184888095Y-99972857D01*
X184935714Y-99877619D01*
X184983333Y-99830000D01*
X185078571Y-99782381D01*
X186269048Y-100115714D02*
X186269048Y-100782381D01*
X185840476Y-100115714D02*
X185840476Y-100639524D01*
X185888095Y-100734762D01*
X185983333Y-100782381D01*
X186126191Y-100782381D01*
X186221429Y-100734762D01*
X186269048Y-100687143D01*
M02*
