M48
INCH,TZ
T1C0.016
T2C0.031
T3C0.040
T4C0.098
%
G90
G05
T1
X46500Y-39000
X48500Y-38000
X53000Y-38000
X53500Y-41000
X54500Y-36000
X56000Y-37500
X57000Y-36500
T2
X48500Y-36000
X51500Y-45500
X52484Y-45500
X58000Y-44500
X62500Y-36000
T3
X47500Y-39500
X47500Y-40500
X47500Y-41500
X47500Y-42500
X47500Y-43500
X47500Y-44500
X47500Y-45500
X47500Y-46500
X48500Y-39500
X48500Y-40500
X48500Y-41500
X48500Y-42500
X48500Y-43500
X48500Y-44500
X48500Y-45500
X48500Y-46500
X49500Y-39500
X49500Y-40500
X49500Y-41500
X49500Y-42500
X49500Y-43500
X49500Y-44500
X49500Y-45500
X49500Y-46500
X59000Y-48500
X60000Y-37000
X60000Y-48500
X61000Y-37000
X61000Y-48500
X63500Y-37000
X63500Y-40500
X63500Y-41500
X63500Y-42500
X63500Y-43500
X63500Y-44500
X63500Y-45500
T4
X47000Y-34000
X47000Y-49000
X63500Y-34000
X63500Y-49000
T0
M30
