G04 #@! TF.FileFunction,Copper,L1,Top,Signal*
%FSLAX46Y46*%
G04 Gerber Fmt 4.6, Leading zero omitted, Abs format (unit mm)*
G04 Created by KiCad (PCBNEW 4.0.1-stable) date Wednesday, 17 February 2016 'pmt' 21:43:36*
%MOMM*%
G01*
G04 APERTURE LIST*
%ADD10C,0.100000*%
%ADD11R,2.999740X1.501140*%
%ADD12C,1.300000*%
%ADD13R,1.300000X1.300000*%
%ADD14R,1.500000X1.300000*%
%ADD15R,1.727200X2.032000*%
%ADD16O,1.727200X2.032000*%
%ADD17R,2.032000X1.727200*%
%ADD18O,2.032000X1.727200*%
%ADD19R,1.200000X0.900000*%
%ADD20R,0.900000X1.200000*%
%ADD21R,1.000000X2.750000*%
%ADD22R,3.657600X2.032000*%
%ADD23R,1.016000X2.032000*%
%ADD24O,1.100000X2.400000*%
%ADD25R,2.400000X1.100000*%
%ADD26O,2.400000X1.100000*%
%ADD27R,2.032000X2.032000*%
%ADD28O,2.032000X2.032000*%
%ADD29R,2.235200X2.235200*%
%ADD30C,1.000000*%
%ADD31C,0.600000*%
%ADD32C,1.000000*%
%ADD33C,0.250000*%
%ADD34C,0.254000*%
G04 APERTURE END LIST*
D10*
D11*
X154398980Y-119380000D03*
X150401020Y-119380000D03*
X134078980Y-123190000D03*
X130081020Y-123190000D03*
D12*
X133310000Y-115570000D03*
D13*
X130810000Y-115570000D03*
D14*
X152320000Y-97790000D03*
X155020000Y-97790000D03*
D15*
X149860000Y-123190000D03*
D16*
X152400000Y-123190000D03*
X154940000Y-123190000D03*
D17*
X161290000Y-102870000D03*
D18*
X161290000Y-105410000D03*
X161290000Y-107950000D03*
X161290000Y-110490000D03*
X161290000Y-113030000D03*
X161290000Y-115570000D03*
D17*
X125730000Y-118110000D03*
D18*
X125730000Y-115570000D03*
X125730000Y-113030000D03*
X125730000Y-110490000D03*
X125730000Y-107950000D03*
X125730000Y-105410000D03*
X125730000Y-102870000D03*
X125730000Y-100330000D03*
D17*
X123190000Y-118110000D03*
D18*
X123190000Y-115570000D03*
X123190000Y-113030000D03*
X123190000Y-110490000D03*
X123190000Y-107950000D03*
X123190000Y-105410000D03*
X123190000Y-102870000D03*
X123190000Y-100330000D03*
D17*
X120650000Y-118110000D03*
D18*
X120650000Y-115570000D03*
X120650000Y-113030000D03*
X120650000Y-110490000D03*
X120650000Y-107950000D03*
X120650000Y-105410000D03*
X120650000Y-102870000D03*
X120650000Y-100330000D03*
D19*
X123020000Y-93980000D03*
X120820000Y-93980000D03*
X125900000Y-96520000D03*
X128100000Y-96520000D03*
X125900000Y-93980000D03*
X128100000Y-93980000D03*
X154770000Y-100330000D03*
X152570000Y-100330000D03*
D20*
X156210000Y-104310000D03*
X156210000Y-106510000D03*
X152400000Y-104310000D03*
X152400000Y-106510000D03*
D21*
X125000000Y-84755000D03*
X125000000Y-90505000D03*
X129000000Y-90505000D03*
X129000000Y-84755000D03*
X155670000Y-90505000D03*
X155670000Y-84755000D03*
X151670000Y-84755000D03*
X151670000Y-90505000D03*
D22*
X140970000Y-116078000D03*
D23*
X140970000Y-122682000D03*
X143256000Y-122682000D03*
X138684000Y-122682000D03*
D24*
X135070000Y-108460000D03*
X137070000Y-108460000D03*
X139070000Y-108460000D03*
X141070000Y-108460000D03*
X143070000Y-108460000D03*
X145070000Y-108460000D03*
D25*
X132080000Y-92710000D03*
D26*
X132080000Y-94710000D03*
X132080000Y-96710000D03*
X132080000Y-98710000D03*
X132080000Y-100710000D03*
X132080000Y-102710000D03*
X132080000Y-104710000D03*
X132080000Y-106710000D03*
X148080000Y-106710000D03*
X148080000Y-104710000D03*
X148080000Y-102710000D03*
X148080000Y-100710000D03*
X148080000Y-98710000D03*
X148080000Y-96710000D03*
X148080000Y-94710000D03*
X148080000Y-92710000D03*
D27*
X154940000Y-93980000D03*
D28*
X152400000Y-93980000D03*
D29*
X161290000Y-93980000D03*
D30*
X123190000Y-91440000D03*
X158750000Y-91440000D03*
X147320000Y-113030000D03*
D31*
X144780000Y-92710000D03*
X142240000Y-95250000D03*
X135890000Y-104140000D03*
X118110000Y-99060000D03*
X134620000Y-96520000D03*
X123190000Y-96520000D03*
X138430000Y-91440000D03*
D32*
X124125000Y-90505000D02*
X123190000Y-91440000D01*
X124125000Y-90505000D02*
X125000000Y-90505000D01*
X134078980Y-123190000D02*
X134078980Y-116338980D01*
X134078980Y-116338980D02*
X133310000Y-115570000D01*
X134078980Y-123190000D02*
X134078980Y-123731020D01*
X155670000Y-90505000D02*
X157815000Y-90505000D01*
X157815000Y-90505000D02*
X158750000Y-91440000D01*
X152400000Y-106510000D02*
X148280000Y-106510000D01*
X148280000Y-106510000D02*
X148080000Y-106710000D01*
X134078980Y-123190000D02*
X138176000Y-123190000D01*
X138176000Y-123190000D02*
X138684000Y-122682000D01*
X147320000Y-113030000D02*
X147320000Y-106680000D01*
X147320000Y-106680000D02*
X148080000Y-106710000D01*
X138684000Y-124714000D02*
X138684000Y-122682000D01*
X139700000Y-125730000D02*
X138684000Y-124714000D01*
X151130000Y-125730000D02*
X139700000Y-125730000D01*
X152400000Y-124460000D02*
X151130000Y-125730000D01*
X152400000Y-123190000D02*
X152400000Y-124460000D01*
X152400000Y-123190000D02*
X152400000Y-121378980D01*
X152400000Y-121378980D02*
X154398980Y-119380000D01*
X149860000Y-123190000D02*
X149860000Y-119921020D01*
X149860000Y-119921020D02*
X150401020Y-119380000D01*
X149860000Y-123190000D02*
X143764000Y-123190000D01*
X143764000Y-123190000D02*
X143256000Y-122682000D01*
X125730000Y-110490000D02*
X128300000Y-110490000D01*
X128300000Y-110490000D02*
X132080000Y-106710000D01*
X125900000Y-93980000D02*
X123020000Y-93980000D01*
X125900000Y-96520000D02*
X125900000Y-93980000D01*
X125900000Y-96520000D02*
X125900000Y-100160000D01*
X125900000Y-100160000D02*
X125730000Y-100330000D01*
X130081020Y-123190000D02*
X130081020Y-116298980D01*
X130081020Y-116298980D02*
X130810000Y-115570000D01*
X140970000Y-122682000D02*
X140970000Y-116078000D01*
X156210000Y-104310000D02*
X156210000Y-98980000D01*
X156210000Y-98980000D02*
X155020000Y-97790000D01*
X154940000Y-123190000D02*
X157480000Y-120650000D01*
X157480000Y-105580000D02*
X156210000Y-104310000D01*
X157480000Y-120650000D02*
X157480000Y-105580000D01*
X155020000Y-97790000D02*
X155020000Y-97850002D01*
X130081020Y-123190000D02*
X130081020Y-122461020D01*
X130081020Y-122461020D02*
X125730000Y-118110000D01*
D33*
X152320000Y-97790000D02*
X152320000Y-97880000D01*
X152320000Y-97880000D02*
X154770000Y-100330000D01*
X144780000Y-92710000D02*
X148080000Y-92710000D01*
X142780000Y-94710000D02*
X148080000Y-94710000D01*
X142240000Y-95250000D02*
X142780000Y-94710000D01*
X148080000Y-102710000D02*
X146210000Y-102710000D01*
X121920000Y-111760000D02*
X120650000Y-113030000D01*
X129540000Y-111760000D02*
X121920000Y-111760000D01*
X135890000Y-105410000D02*
X129540000Y-111760000D01*
X143510000Y-105410000D02*
X135890000Y-105410000D01*
X146210000Y-102710000D02*
X143510000Y-105410000D01*
X156210000Y-106510000D02*
X156040000Y-106510000D01*
X156040000Y-106510000D02*
X154940000Y-105410000D01*
X154940000Y-105410000D02*
X154940000Y-104140000D01*
X154940000Y-104140000D02*
X153510000Y-102710000D01*
X153510000Y-102710000D02*
X148080000Y-102710000D01*
X148240000Y-102870000D02*
X148080000Y-102710000D01*
X132080000Y-102710000D02*
X130970000Y-102710000D01*
X130970000Y-102710000D02*
X129540000Y-104140000D01*
X129540000Y-104140000D02*
X129540000Y-107950000D01*
X129540000Y-107950000D02*
X128270000Y-109220000D01*
X128270000Y-109220000D02*
X121920000Y-109220000D01*
X121920000Y-109220000D02*
X120650000Y-110490000D01*
X132080000Y-100710000D02*
X131700000Y-100710000D01*
X131700000Y-100710000D02*
X128270000Y-104140000D01*
X128270000Y-104140000D02*
X128270000Y-105410000D01*
X128270000Y-105410000D02*
X127000000Y-106680000D01*
X127000000Y-106680000D02*
X121920000Y-106680000D01*
X121920000Y-106680000D02*
X120650000Y-107950000D01*
X132080000Y-98710000D02*
X131160000Y-98710000D01*
X131160000Y-98710000D02*
X128270000Y-101600000D01*
X128270000Y-101600000D02*
X128270000Y-102870000D01*
X128270000Y-102870000D02*
X127000000Y-104140000D01*
X127000000Y-104140000D02*
X121920000Y-104140000D01*
X121920000Y-104140000D02*
X120650000Y-105410000D01*
X135320000Y-104710000D02*
X135890000Y-104140000D01*
X132080000Y-104710000D02*
X135320000Y-104710000D01*
X118110000Y-101600000D02*
X119380000Y-102870000D01*
X118110000Y-99060000D02*
X118110000Y-101600000D01*
X119380000Y-102870000D02*
X120650000Y-102870000D01*
X132080000Y-104710000D02*
X131380000Y-104710000D01*
X132080000Y-94710000D02*
X132810000Y-94710000D01*
X132810000Y-94710000D02*
X134620000Y-96520000D01*
X123190000Y-96520000D02*
X120820000Y-94150000D01*
X120820000Y-94150000D02*
X120820000Y-93980000D01*
X120820000Y-93980000D02*
X120650000Y-94150000D01*
X120650000Y-94150000D02*
X120650000Y-100330000D01*
X128100000Y-96520000D02*
X131890000Y-96520000D01*
X131890000Y-96520000D02*
X132080000Y-96710000D01*
X128100000Y-93980000D02*
X128100000Y-91405000D01*
X128100000Y-91405000D02*
X129000000Y-90505000D01*
X132080000Y-92710000D02*
X129370000Y-92710000D01*
X129370000Y-92710000D02*
X128100000Y-93980000D01*
X137160000Y-92710000D02*
X132080000Y-92710000D01*
X138430000Y-91440000D02*
X137160000Y-92710000D01*
X152400000Y-93980000D02*
X152400000Y-91235000D01*
X152400000Y-91235000D02*
X151670000Y-90505000D01*
X152570000Y-100330000D02*
X152400000Y-100330000D01*
X152400000Y-100330000D02*
X149860000Y-97790000D01*
X149860000Y-92315000D02*
X151670000Y-90505000D01*
X149860000Y-97790000D02*
X149860000Y-92315000D01*
X152570000Y-100330000D02*
X148460000Y-100330000D01*
X148460000Y-100330000D02*
X148080000Y-100710000D01*
X152400000Y-104310000D02*
X148480000Y-104310000D01*
X148480000Y-104310000D02*
X148080000Y-104710000D01*
X148780000Y-105410000D02*
X148080000Y-104710000D01*
D34*
G36*
X123852560Y-83380000D02*
X123852560Y-86130000D01*
X123896838Y-86365317D01*
X124035910Y-86581441D01*
X124248110Y-86726431D01*
X124500000Y-86777440D01*
X125500000Y-86777440D01*
X125735317Y-86733162D01*
X125951441Y-86594090D01*
X126096431Y-86381890D01*
X126147440Y-86130000D01*
X126147440Y-83380000D01*
X126120156Y-83235000D01*
X127881923Y-83235000D01*
X127852560Y-83380000D01*
X127852560Y-86130000D01*
X127896838Y-86365317D01*
X128035910Y-86581441D01*
X128248110Y-86726431D01*
X128500000Y-86777440D01*
X129500000Y-86777440D01*
X129735317Y-86733162D01*
X129951441Y-86594090D01*
X130096431Y-86381890D01*
X130147440Y-86130000D01*
X130147440Y-83380000D01*
X130120156Y-83235000D01*
X130683000Y-83235000D01*
X130683000Y-91440000D01*
X130693006Y-91489410D01*
X130721447Y-91531035D01*
X130735105Y-91539824D01*
X130644683Y-91556838D01*
X130428559Y-91695910D01*
X130283569Y-91908110D01*
X130275086Y-91950000D01*
X130133265Y-91950000D01*
X130147440Y-91880000D01*
X130147440Y-89130000D01*
X130103162Y-88894683D01*
X129964090Y-88678559D01*
X129751890Y-88533569D01*
X129500000Y-88482560D01*
X128500000Y-88482560D01*
X128264683Y-88526838D01*
X128048559Y-88665910D01*
X127903569Y-88878110D01*
X127852560Y-89130000D01*
X127852560Y-90577638D01*
X127562599Y-90867599D01*
X127397852Y-91114161D01*
X127340000Y-91405000D01*
X127340000Y-92912666D01*
X127264683Y-92926838D01*
X127048559Y-93065910D01*
X127002031Y-93134006D01*
X126859698Y-92991673D01*
X126626309Y-92895000D01*
X126185750Y-92895000D01*
X126027000Y-93053750D01*
X126027000Y-93853000D01*
X126047000Y-93853000D01*
X126047000Y-94107000D01*
X126027000Y-94107000D01*
X126027000Y-94906250D01*
X126185750Y-95065000D01*
X126626309Y-95065000D01*
X126859698Y-94968327D01*
X127000936Y-94827090D01*
X127035910Y-94881441D01*
X127248110Y-95026431D01*
X127500000Y-95077440D01*
X128700000Y-95077440D01*
X128935317Y-95033162D01*
X129151441Y-94894090D01*
X129296431Y-94681890D01*
X129347440Y-94430000D01*
X129347440Y-93807362D01*
X129684802Y-93470000D01*
X130272074Y-93470000D01*
X130276838Y-93495317D01*
X130415910Y-93711441D01*
X130604099Y-93840025D01*
X130556128Y-93872078D01*
X130299253Y-94256520D01*
X130209050Y-94710000D01*
X130299253Y-95163480D01*
X130556128Y-95547922D01*
X130798696Y-95710000D01*
X130723865Y-95760000D01*
X129255105Y-95760000D01*
X129164090Y-95618559D01*
X128951890Y-95473569D01*
X128700000Y-95422560D01*
X127500000Y-95422560D01*
X127264683Y-95466838D01*
X127048559Y-95605910D01*
X127002031Y-95674006D01*
X126859698Y-95531673D01*
X126626309Y-95435000D01*
X126185750Y-95435000D01*
X126027000Y-95593750D01*
X126027000Y-96393000D01*
X126047000Y-96393000D01*
X126047000Y-96647000D01*
X126027000Y-96647000D01*
X126027000Y-97446250D01*
X126185750Y-97605000D01*
X126626309Y-97605000D01*
X126859698Y-97508327D01*
X127000936Y-97367090D01*
X127035910Y-97421441D01*
X127248110Y-97566431D01*
X127500000Y-97617440D01*
X128700000Y-97617440D01*
X128935317Y-97573162D01*
X129151441Y-97434090D01*
X129256726Y-97280000D01*
X130377109Y-97280000D01*
X130556128Y-97547922D01*
X130798696Y-97710000D01*
X130556128Y-97872078D01*
X130299253Y-98256520D01*
X130239803Y-98555395D01*
X127732599Y-101062599D01*
X127567852Y-101309161D01*
X127510000Y-101600000D01*
X127510000Y-102555198D01*
X127322200Y-102742998D01*
X127216218Y-102742998D01*
X127337358Y-102510974D01*
X127334709Y-102495209D01*
X127080732Y-101967964D01*
X126668892Y-101600000D01*
X127080732Y-101232036D01*
X127334709Y-100704791D01*
X127337358Y-100689026D01*
X127216217Y-100457000D01*
X125857000Y-100457000D01*
X125857000Y-102743000D01*
X125877000Y-102743000D01*
X125877000Y-102997000D01*
X125857000Y-102997000D01*
X125857000Y-103017000D01*
X125603000Y-103017000D01*
X125603000Y-102997000D01*
X125583000Y-102997000D01*
X125583000Y-102743000D01*
X125603000Y-102743000D01*
X125603000Y-100457000D01*
X125583000Y-100457000D01*
X125583000Y-100203000D01*
X125603000Y-100203000D01*
X125603000Y-98989076D01*
X125857000Y-98989076D01*
X125857000Y-100203000D01*
X127216217Y-100203000D01*
X127337358Y-99970974D01*
X127334709Y-99955209D01*
X127080732Y-99427964D01*
X126644320Y-99038046D01*
X126091913Y-98844816D01*
X125857000Y-98989076D01*
X125603000Y-98989076D01*
X125368087Y-98844816D01*
X124815680Y-99038046D01*
X124479754Y-99338184D01*
X124434415Y-99270330D01*
X123948234Y-98945474D01*
X123374745Y-98831400D01*
X123005255Y-98831400D01*
X122431766Y-98945474D01*
X121945585Y-99270330D01*
X121920000Y-99308621D01*
X121894415Y-99270330D01*
X121410000Y-98946654D01*
X121410000Y-95814802D01*
X122254878Y-96659680D01*
X122254838Y-96705167D01*
X122396883Y-97048943D01*
X122659673Y-97312192D01*
X123003201Y-97454838D01*
X123375167Y-97455162D01*
X123718943Y-97313117D01*
X123982192Y-97050327D01*
X124083749Y-96805750D01*
X124665000Y-96805750D01*
X124665000Y-97096310D01*
X124761673Y-97329699D01*
X124940302Y-97508327D01*
X125173691Y-97605000D01*
X125614250Y-97605000D01*
X125773000Y-97446250D01*
X125773000Y-96647000D01*
X124823750Y-96647000D01*
X124665000Y-96805750D01*
X124083749Y-96805750D01*
X124124838Y-96706799D01*
X124125162Y-96334833D01*
X123983117Y-95991057D01*
X123935833Y-95943690D01*
X124665000Y-95943690D01*
X124665000Y-96234250D01*
X124823750Y-96393000D01*
X125773000Y-96393000D01*
X125773000Y-95593750D01*
X125614250Y-95435000D01*
X125173691Y-95435000D01*
X124940302Y-95531673D01*
X124761673Y-95710301D01*
X124665000Y-95943690D01*
X123935833Y-95943690D01*
X123720327Y-95727808D01*
X123376799Y-95585162D01*
X123329923Y-95585121D01*
X122772026Y-95027224D01*
X122893000Y-94906250D01*
X122893000Y-94107000D01*
X123147000Y-94107000D01*
X123147000Y-94906250D01*
X123305750Y-95065000D01*
X123746309Y-95065000D01*
X123979698Y-94968327D01*
X124158327Y-94789699D01*
X124255000Y-94556310D01*
X124255000Y-94265750D01*
X124665000Y-94265750D01*
X124665000Y-94556310D01*
X124761673Y-94789699D01*
X124940302Y-94968327D01*
X125173691Y-95065000D01*
X125614250Y-95065000D01*
X125773000Y-94906250D01*
X125773000Y-94107000D01*
X124823750Y-94107000D01*
X124665000Y-94265750D01*
X124255000Y-94265750D01*
X124096250Y-94107000D01*
X123147000Y-94107000D01*
X122893000Y-94107000D01*
X122873000Y-94107000D01*
X122873000Y-93853000D01*
X122893000Y-93853000D01*
X122893000Y-93053750D01*
X123147000Y-93053750D01*
X123147000Y-93853000D01*
X124096250Y-93853000D01*
X124255000Y-93694250D01*
X124255000Y-93403690D01*
X124665000Y-93403690D01*
X124665000Y-93694250D01*
X124823750Y-93853000D01*
X125773000Y-93853000D01*
X125773000Y-93053750D01*
X125614250Y-92895000D01*
X125173691Y-92895000D01*
X124940302Y-92991673D01*
X124761673Y-93170301D01*
X124665000Y-93403690D01*
X124255000Y-93403690D01*
X124158327Y-93170301D01*
X123979698Y-92991673D01*
X123746309Y-92895000D01*
X123305750Y-92895000D01*
X123147000Y-93053750D01*
X122893000Y-93053750D01*
X122734250Y-92895000D01*
X122293691Y-92895000D01*
X122060302Y-92991673D01*
X121919064Y-93132910D01*
X121884090Y-93078559D01*
X121671890Y-92933569D01*
X121420000Y-92882560D01*
X120220000Y-92882560D01*
X119984683Y-92926838D01*
X119768559Y-93065910D01*
X119623569Y-93278110D01*
X119572560Y-93530000D01*
X119572560Y-94430000D01*
X119616838Y-94665317D01*
X119755910Y-94881441D01*
X119890000Y-94973061D01*
X119890000Y-98946654D01*
X119405585Y-99270330D01*
X119080729Y-99756511D01*
X118966655Y-100330000D01*
X119080729Y-100903489D01*
X119405585Y-101389670D01*
X119720366Y-101600000D01*
X119405585Y-101810330D01*
X119401398Y-101816596D01*
X118870000Y-101285198D01*
X118870000Y-99622463D01*
X118902192Y-99590327D01*
X119044838Y-99246799D01*
X119045162Y-98874833D01*
X118903117Y-98531057D01*
X118640327Y-98267808D01*
X118296799Y-98125162D01*
X117924833Y-98124838D01*
X117581057Y-98266883D01*
X117317808Y-98529673D01*
X117175162Y-98873201D01*
X117174838Y-99245167D01*
X117316883Y-99588943D01*
X117350000Y-99622118D01*
X117350000Y-101600000D01*
X117407852Y-101890839D01*
X117572599Y-102137401D01*
X118842599Y-103407401D01*
X119089160Y-103572148D01*
X119178581Y-103589935D01*
X119405585Y-103929670D01*
X119720366Y-104140000D01*
X119405585Y-104350330D01*
X119080729Y-104836511D01*
X118966655Y-105410000D01*
X119080729Y-105983489D01*
X119405585Y-106469670D01*
X119720366Y-106680000D01*
X119405585Y-106890330D01*
X119080729Y-107376511D01*
X118966655Y-107950000D01*
X119080729Y-108523489D01*
X119405585Y-109009670D01*
X119720366Y-109220000D01*
X119405585Y-109430330D01*
X119080729Y-109916511D01*
X118966655Y-110490000D01*
X119080729Y-111063489D01*
X119405585Y-111549670D01*
X119720366Y-111760000D01*
X119405585Y-111970330D01*
X119080729Y-112456511D01*
X118966655Y-113030000D01*
X119080729Y-113603489D01*
X119405585Y-114089670D01*
X119720366Y-114300000D01*
X119405585Y-114510330D01*
X119080729Y-114996511D01*
X118966655Y-115570000D01*
X119080729Y-116143489D01*
X119405585Y-116629670D01*
X119427780Y-116644500D01*
X119274302Y-116708073D01*
X119095673Y-116886701D01*
X118999000Y-117120090D01*
X118999000Y-117824250D01*
X119157750Y-117983000D01*
X120523000Y-117983000D01*
X120523000Y-117963000D01*
X120777000Y-117963000D01*
X120777000Y-117983000D01*
X120797000Y-117983000D01*
X120797000Y-118237000D01*
X120777000Y-118237000D01*
X120777000Y-119449850D01*
X120935750Y-119608600D01*
X121792309Y-119608600D01*
X121908263Y-119560570D01*
X121922110Y-119570031D01*
X122174000Y-119621040D01*
X124206000Y-119621040D01*
X124441317Y-119576762D01*
X124468539Y-119559245D01*
X124587691Y-119608600D01*
X125444250Y-119608600D01*
X125603000Y-119449850D01*
X125603000Y-118237000D01*
X125857000Y-118237000D01*
X125857000Y-119449850D01*
X126015750Y-119608600D01*
X126872309Y-119608600D01*
X127105698Y-119511927D01*
X127284327Y-119333299D01*
X127381000Y-119099910D01*
X127381000Y-118395750D01*
X127222250Y-118237000D01*
X125857000Y-118237000D01*
X125603000Y-118237000D01*
X125583000Y-118237000D01*
X125583000Y-117983000D01*
X125603000Y-117983000D01*
X125603000Y-115697000D01*
X125857000Y-115697000D01*
X125857000Y-117983000D01*
X127222250Y-117983000D01*
X127381000Y-117824250D01*
X127381000Y-117120090D01*
X127284327Y-116886701D01*
X127105698Y-116708073D01*
X126908139Y-116626241D01*
X127080732Y-116472036D01*
X127334709Y-115944791D01*
X127337358Y-115929026D01*
X127299101Y-115855750D01*
X129525000Y-115855750D01*
X129525000Y-116346310D01*
X129621673Y-116579699D01*
X129800302Y-116758327D01*
X130033691Y-116855000D01*
X130524250Y-116855000D01*
X130683000Y-116696250D01*
X130683000Y-115697000D01*
X129683750Y-115697000D01*
X129525000Y-115855750D01*
X127299101Y-115855750D01*
X127216217Y-115697000D01*
X125857000Y-115697000D01*
X125603000Y-115697000D01*
X125583000Y-115697000D01*
X125583000Y-115443000D01*
X125603000Y-115443000D01*
X125603000Y-113157000D01*
X125857000Y-113157000D01*
X125857000Y-115443000D01*
X127216217Y-115443000D01*
X127337358Y-115210974D01*
X127334709Y-115195209D01*
X127141295Y-114793690D01*
X129525000Y-114793690D01*
X129525000Y-115284250D01*
X129683750Y-115443000D01*
X130683000Y-115443000D01*
X130683000Y-114443750D01*
X130524250Y-114285000D01*
X130033691Y-114285000D01*
X129800302Y-114381673D01*
X129621673Y-114560301D01*
X129525000Y-114793690D01*
X127141295Y-114793690D01*
X127080732Y-114667964D01*
X126668892Y-114300000D01*
X127080732Y-113932036D01*
X127334709Y-113404791D01*
X127337358Y-113389026D01*
X127216217Y-113157000D01*
X125857000Y-113157000D01*
X125603000Y-113157000D01*
X125583000Y-113157000D01*
X125583000Y-112903000D01*
X125603000Y-112903000D01*
X125603000Y-112883000D01*
X125857000Y-112883000D01*
X125857000Y-112903000D01*
X127216217Y-112903000D01*
X127337358Y-112670974D01*
X127334709Y-112655209D01*
X127269578Y-112520000D01*
X129540000Y-112520000D01*
X129830839Y-112462148D01*
X130077401Y-112297401D01*
X133885000Y-108489802D01*
X133885000Y-109145950D01*
X133975203Y-109599430D01*
X134232078Y-109983872D01*
X134616520Y-110240747D01*
X135070000Y-110330950D01*
X135523480Y-110240747D01*
X135907922Y-109983872D01*
X136070000Y-109741304D01*
X136232078Y-109983872D01*
X136616520Y-110240747D01*
X137070000Y-110330950D01*
X137523480Y-110240747D01*
X137907922Y-109983872D01*
X138070000Y-109741304D01*
X138232078Y-109983872D01*
X138616520Y-110240747D01*
X139070000Y-110330950D01*
X139523480Y-110240747D01*
X139907922Y-109983872D01*
X140070000Y-109741304D01*
X140232078Y-109983872D01*
X140616520Y-110240747D01*
X141070000Y-110330950D01*
X141523480Y-110240747D01*
X141907922Y-109983872D01*
X142070000Y-109741304D01*
X142232078Y-109983872D01*
X142616520Y-110240747D01*
X143070000Y-110330950D01*
X143523480Y-110240747D01*
X143907922Y-109983872D01*
X144070000Y-109741304D01*
X144232078Y-109983872D01*
X144616520Y-110240747D01*
X145070000Y-110330950D01*
X145523480Y-110240747D01*
X145907922Y-109983872D01*
X146164797Y-109599430D01*
X146185000Y-109497863D01*
X146185000Y-113029010D01*
X146184803Y-113254775D01*
X146357233Y-113672086D01*
X146676235Y-113991645D01*
X147093244Y-114164803D01*
X147544775Y-114165197D01*
X147962086Y-113992767D01*
X148281645Y-113673765D01*
X148454803Y-113256756D01*
X148455197Y-112805225D01*
X148455000Y-112804748D01*
X148455000Y-107895000D01*
X148765950Y-107895000D01*
X149219430Y-107804797D01*
X149458584Y-107645000D01*
X151608203Y-107645000D01*
X151698110Y-107706431D01*
X151950000Y-107757440D01*
X152850000Y-107757440D01*
X153085317Y-107713162D01*
X153301441Y-107574090D01*
X153446431Y-107361890D01*
X153497440Y-107110000D01*
X153497440Y-106698826D01*
X153535000Y-106510000D01*
X153497440Y-106321174D01*
X153497440Y-105910000D01*
X153453162Y-105674683D01*
X153314090Y-105458559D01*
X153244289Y-105410866D01*
X153301441Y-105374090D01*
X153446431Y-105161890D01*
X153497440Y-104910000D01*
X153497440Y-103772242D01*
X154180000Y-104454802D01*
X154180000Y-105410000D01*
X154237852Y-105700839D01*
X154402599Y-105947401D01*
X155112560Y-106657362D01*
X155112560Y-107110000D01*
X155156838Y-107345317D01*
X155295910Y-107561441D01*
X155508110Y-107706431D01*
X155760000Y-107757440D01*
X156660000Y-107757440D01*
X156895317Y-107713162D01*
X157111441Y-107574090D01*
X157256431Y-107361890D01*
X157307440Y-107110000D01*
X157307440Y-105910000D01*
X157263162Y-105674683D01*
X157124090Y-105458559D01*
X157055994Y-105412031D01*
X157058025Y-105410000D01*
X159606655Y-105410000D01*
X159720729Y-105983489D01*
X160045585Y-106469670D01*
X160360366Y-106680000D01*
X160045585Y-106890330D01*
X159720729Y-107376511D01*
X159606655Y-107950000D01*
X159720729Y-108523489D01*
X160045585Y-109009670D01*
X160360366Y-109220000D01*
X160045585Y-109430330D01*
X159720729Y-109916511D01*
X159606655Y-110490000D01*
X159720729Y-111063489D01*
X160045585Y-111549670D01*
X160360366Y-111760000D01*
X160045585Y-111970330D01*
X159720729Y-112456511D01*
X159606655Y-113030000D01*
X159720729Y-113603489D01*
X160045585Y-114089670D01*
X160360366Y-114300000D01*
X160045585Y-114510330D01*
X159720729Y-114996511D01*
X159606655Y-115570000D01*
X159720729Y-116143489D01*
X160045585Y-116629670D01*
X160531766Y-116954526D01*
X161105255Y-117068600D01*
X161474745Y-117068600D01*
X162048234Y-116954526D01*
X162534415Y-116629670D01*
X162859271Y-116143489D01*
X162973345Y-115570000D01*
X162859271Y-114996511D01*
X162534415Y-114510330D01*
X162219634Y-114300000D01*
X162534415Y-114089670D01*
X162859271Y-113603489D01*
X162973345Y-113030000D01*
X162859271Y-112456511D01*
X162534415Y-111970330D01*
X162219634Y-111760000D01*
X162534415Y-111549670D01*
X162859271Y-111063489D01*
X162973345Y-110490000D01*
X162859271Y-109916511D01*
X162534415Y-109430330D01*
X162219634Y-109220000D01*
X162534415Y-109009670D01*
X162859271Y-108523489D01*
X162973345Y-107950000D01*
X162859271Y-107376511D01*
X162534415Y-106890330D01*
X162219634Y-106680000D01*
X162534415Y-106469670D01*
X162859271Y-105983489D01*
X162973345Y-105410000D01*
X162859271Y-104836511D01*
X162534415Y-104350330D01*
X162520087Y-104340757D01*
X162541317Y-104336762D01*
X162757441Y-104197690D01*
X162902431Y-103985490D01*
X162953440Y-103733600D01*
X162953440Y-102006400D01*
X162909162Y-101771083D01*
X162770090Y-101554959D01*
X162557890Y-101409969D01*
X162306000Y-101358960D01*
X160274000Y-101358960D01*
X160038683Y-101403238D01*
X159822559Y-101542310D01*
X159677569Y-101754510D01*
X159626560Y-102006400D01*
X159626560Y-103733600D01*
X159670838Y-103968917D01*
X159809910Y-104185041D01*
X160022110Y-104330031D01*
X160063439Y-104338400D01*
X160045585Y-104350330D01*
X159720729Y-104836511D01*
X159606655Y-105410000D01*
X157058025Y-105410000D01*
X157198327Y-105269698D01*
X157295000Y-105036309D01*
X157295000Y-104595750D01*
X157136250Y-104437000D01*
X156337000Y-104437000D01*
X156337000Y-104457000D01*
X156083000Y-104457000D01*
X156083000Y-104437000D01*
X156063000Y-104437000D01*
X156063000Y-104183000D01*
X156083000Y-104183000D01*
X156083000Y-103233750D01*
X156337000Y-103233750D01*
X156337000Y-104183000D01*
X157136250Y-104183000D01*
X157295000Y-104024250D01*
X157295000Y-103583691D01*
X157198327Y-103350302D01*
X157019699Y-103171673D01*
X156786310Y-103075000D01*
X156495750Y-103075000D01*
X156337000Y-103233750D01*
X156083000Y-103233750D01*
X155924250Y-103075000D01*
X155633690Y-103075000D01*
X155400301Y-103171673D01*
X155223388Y-103348586D01*
X154047401Y-102172599D01*
X153800839Y-102007852D01*
X153510000Y-101950000D01*
X149655938Y-101950000D01*
X149603872Y-101872078D01*
X149361304Y-101710000D01*
X149603872Y-101547922D01*
X149860747Y-101163480D01*
X149875363Y-101090000D01*
X151414895Y-101090000D01*
X151505910Y-101231441D01*
X151718110Y-101376431D01*
X151970000Y-101427440D01*
X153170000Y-101427440D01*
X153405317Y-101383162D01*
X153621441Y-101244090D01*
X153669134Y-101174289D01*
X153705910Y-101231441D01*
X153918110Y-101376431D01*
X154170000Y-101427440D01*
X155370000Y-101427440D01*
X155605317Y-101383162D01*
X155821441Y-101244090D01*
X155966431Y-101031890D01*
X156017440Y-100780000D01*
X156017440Y-99880000D01*
X155973162Y-99644683D01*
X155834090Y-99428559D01*
X155621890Y-99283569D01*
X155370000Y-99232560D01*
X154747362Y-99232560D01*
X154589802Y-99075000D01*
X154734250Y-99075000D01*
X154893000Y-98916250D01*
X154893000Y-97917000D01*
X155147000Y-97917000D01*
X155147000Y-98916250D01*
X155305750Y-99075000D01*
X155896309Y-99075000D01*
X156129698Y-98978327D01*
X156308327Y-98799699D01*
X156405000Y-98566310D01*
X156405000Y-98075750D01*
X156246250Y-97917000D01*
X155147000Y-97917000D01*
X154893000Y-97917000D01*
X154873000Y-97917000D01*
X154873000Y-97663000D01*
X154893000Y-97663000D01*
X154893000Y-96663750D01*
X155147000Y-96663750D01*
X155147000Y-97663000D01*
X156246250Y-97663000D01*
X156405000Y-97504250D01*
X156405000Y-97013690D01*
X156308327Y-96780301D01*
X156129698Y-96601673D01*
X155896309Y-96505000D01*
X155305750Y-96505000D01*
X155147000Y-96663750D01*
X154893000Y-96663750D01*
X154734250Y-96505000D01*
X154143691Y-96505000D01*
X153910302Y-96601673D01*
X153731673Y-96780301D01*
X153675346Y-96916287D01*
X153673162Y-96904683D01*
X153534090Y-96688559D01*
X153321890Y-96543569D01*
X153070000Y-96492560D01*
X151570000Y-96492560D01*
X151334683Y-96536838D01*
X151118559Y-96675910D01*
X150973569Y-96888110D01*
X150922560Y-97140000D01*
X150922560Y-97777758D01*
X150620000Y-97475198D01*
X150620000Y-92629802D01*
X150832123Y-92417679D01*
X150918110Y-92476431D01*
X151170000Y-92527440D01*
X151610882Y-92527440D01*
X151232567Y-92780222D01*
X150874675Y-93315845D01*
X150749000Y-93947655D01*
X150749000Y-94012345D01*
X150874675Y-94644155D01*
X151232567Y-95179778D01*
X151768190Y-95537670D01*
X152400000Y-95663345D01*
X153031810Y-95537670D01*
X153371792Y-95310501D01*
X153459910Y-95447441D01*
X153672110Y-95592431D01*
X153924000Y-95643440D01*
X155956000Y-95643440D01*
X156191317Y-95599162D01*
X156407441Y-95460090D01*
X156552431Y-95247890D01*
X156603440Y-94996000D01*
X156603440Y-92964000D01*
X156584323Y-92862400D01*
X159524960Y-92862400D01*
X159524960Y-95097600D01*
X159569238Y-95332917D01*
X159708310Y-95549041D01*
X159920510Y-95694031D01*
X160172400Y-95745040D01*
X162407600Y-95745040D01*
X162642917Y-95700762D01*
X162859041Y-95561690D01*
X163004031Y-95349490D01*
X163055040Y-95097600D01*
X163055040Y-92862400D01*
X163010762Y-92627083D01*
X162871690Y-92410959D01*
X162659490Y-92265969D01*
X162407600Y-92214960D01*
X160172400Y-92214960D01*
X159937083Y-92259238D01*
X159720959Y-92398310D01*
X159575969Y-92610510D01*
X159524960Y-92862400D01*
X156584323Y-92862400D01*
X156559162Y-92728683D01*
X156420090Y-92512559D01*
X156383166Y-92487330D01*
X156405317Y-92483162D01*
X156621441Y-92344090D01*
X156766431Y-92131890D01*
X156817440Y-91880000D01*
X156817440Y-91640000D01*
X157344868Y-91640000D01*
X157947020Y-92242152D01*
X158106235Y-92401645D01*
X158523244Y-92574803D01*
X158974775Y-92575197D01*
X159184345Y-92488604D01*
X159184346Y-92488604D01*
X159184347Y-92488603D01*
X159392086Y-92402767D01*
X159711645Y-92083765D01*
X159884803Y-91666756D01*
X159885197Y-91215225D01*
X159712767Y-90797914D01*
X159393765Y-90478355D01*
X159393290Y-90478158D01*
X158617566Y-89702434D01*
X158249346Y-89456397D01*
X157815000Y-89370000D01*
X156817440Y-89370000D01*
X156817440Y-89130000D01*
X156773162Y-88894683D01*
X156634090Y-88678559D01*
X156421890Y-88533569D01*
X156170000Y-88482560D01*
X155170000Y-88482560D01*
X154934683Y-88526838D01*
X154718559Y-88665910D01*
X154573569Y-88878110D01*
X154522560Y-89130000D01*
X154522560Y-91880000D01*
X154566838Y-92115317D01*
X154696334Y-92316560D01*
X153924000Y-92316560D01*
X153688683Y-92360838D01*
X153472559Y-92499910D01*
X153370802Y-92648837D01*
X153160000Y-92507984D01*
X153160000Y-91235000D01*
X153102148Y-90944161D01*
X152937401Y-90697599D01*
X152817440Y-90577638D01*
X152817440Y-89130000D01*
X152773162Y-88894683D01*
X152634090Y-88678559D01*
X152421890Y-88533569D01*
X152170000Y-88482560D01*
X151170000Y-88482560D01*
X150934683Y-88526838D01*
X150718559Y-88665910D01*
X150573569Y-88878110D01*
X150522560Y-89130000D01*
X150522560Y-90577638D01*
X149987000Y-91113198D01*
X149987000Y-83235000D01*
X150551923Y-83235000D01*
X150522560Y-83380000D01*
X150522560Y-86130000D01*
X150566838Y-86365317D01*
X150705910Y-86581441D01*
X150918110Y-86726431D01*
X151170000Y-86777440D01*
X152170000Y-86777440D01*
X152405317Y-86733162D01*
X152621441Y-86594090D01*
X152766431Y-86381890D01*
X152817440Y-86130000D01*
X152817440Y-83380000D01*
X152790156Y-83235000D01*
X154551923Y-83235000D01*
X154522560Y-83380000D01*
X154522560Y-86130000D01*
X154566838Y-86365317D01*
X154705910Y-86581441D01*
X154918110Y-86726431D01*
X155170000Y-86777440D01*
X156170000Y-86777440D01*
X156404557Y-86733305D01*
X159404674Y-86733305D01*
X159691043Y-87426372D01*
X160220839Y-87957093D01*
X160913405Y-88244672D01*
X161663305Y-88245326D01*
X162356372Y-87958957D01*
X162887093Y-87429161D01*
X163174672Y-86736595D01*
X163175326Y-85986695D01*
X162888957Y-85293628D01*
X162359161Y-84762907D01*
X161666595Y-84475328D01*
X160916695Y-84474674D01*
X160223628Y-84761043D01*
X159692907Y-85290839D01*
X159405328Y-85983405D01*
X159404674Y-86733305D01*
X156404557Y-86733305D01*
X156405317Y-86733162D01*
X156621441Y-86594090D01*
X156766431Y-86381890D01*
X156817440Y-86130000D01*
X156817440Y-83380000D01*
X156790156Y-83235000D01*
X164415000Y-83235000D01*
X164415000Y-127585000D01*
X116255000Y-127585000D01*
X116255000Y-124833305D01*
X117494674Y-124833305D01*
X117781043Y-125526372D01*
X118310839Y-126057093D01*
X119003405Y-126344672D01*
X119753305Y-126345326D01*
X120446372Y-126058957D01*
X120977093Y-125529161D01*
X121264672Y-124836595D01*
X121265326Y-124086695D01*
X121012890Y-123475750D01*
X127946150Y-123475750D01*
X127946150Y-124066880D01*
X128042823Y-124300269D01*
X128221452Y-124478897D01*
X128454841Y-124575570D01*
X129795270Y-124575570D01*
X129954020Y-124416820D01*
X129954020Y-123317000D01*
X128104900Y-123317000D01*
X127946150Y-123475750D01*
X121012890Y-123475750D01*
X120978957Y-123393628D01*
X120449161Y-122862907D01*
X119756595Y-122575328D01*
X119006695Y-122574674D01*
X118313628Y-122861043D01*
X117782907Y-123390839D01*
X117495328Y-124083405D01*
X117494674Y-124833305D01*
X116255000Y-124833305D01*
X116255000Y-122313120D01*
X127946150Y-122313120D01*
X127946150Y-122904250D01*
X128104900Y-123063000D01*
X129954020Y-123063000D01*
X129954020Y-121963180D01*
X130208020Y-121963180D01*
X130208020Y-123063000D01*
X130228020Y-123063000D01*
X130228020Y-123317000D01*
X130208020Y-123317000D01*
X130208020Y-124416820D01*
X130366770Y-124575570D01*
X131707199Y-124575570D01*
X131940588Y-124478897D01*
X132080743Y-124338743D01*
X132115020Y-124392011D01*
X132327220Y-124537001D01*
X132579110Y-124588010D01*
X133357865Y-124588010D01*
X133644634Y-124779623D01*
X134078980Y-124866020D01*
X134513326Y-124779623D01*
X134800095Y-124588010D01*
X135578850Y-124588010D01*
X135814167Y-124543732D01*
X136030291Y-124404660D01*
X136084720Y-124325000D01*
X137549000Y-124325000D01*
X137549000Y-124714000D01*
X137635397Y-125148346D01*
X137733826Y-125295655D01*
X137881434Y-125516566D01*
X138897434Y-126532566D01*
X139265654Y-126778603D01*
X139700000Y-126865000D01*
X151130000Y-126865000D01*
X151564346Y-126778603D01*
X151932566Y-126532566D01*
X153202566Y-125262566D01*
X153426494Y-124927434D01*
X153448603Y-124894346D01*
X153460744Y-124833305D01*
X159404674Y-124833305D01*
X159691043Y-125526372D01*
X160220839Y-126057093D01*
X160913405Y-126344672D01*
X161663305Y-126345326D01*
X162356372Y-126058957D01*
X162887093Y-125529161D01*
X163174672Y-124836595D01*
X163175326Y-124086695D01*
X162888957Y-123393628D01*
X162359161Y-122862907D01*
X161666595Y-122575328D01*
X160916695Y-122574674D01*
X160223628Y-122861043D01*
X159692907Y-123390839D01*
X159405328Y-124083405D01*
X159404674Y-124833305D01*
X153460744Y-124833305D01*
X153535000Y-124460000D01*
X153535000Y-124321676D01*
X153666461Y-124124931D01*
X154037964Y-124540732D01*
X154565209Y-124794709D01*
X154580974Y-124797358D01*
X154813000Y-124676217D01*
X154813000Y-123317000D01*
X155067000Y-123317000D01*
X155067000Y-124676217D01*
X155299026Y-124797358D01*
X155314791Y-124794709D01*
X155842036Y-124540732D01*
X156231954Y-124104320D01*
X156425184Y-123551913D01*
X156280924Y-123317000D01*
X155067000Y-123317000D01*
X154813000Y-123317000D01*
X154793000Y-123317000D01*
X154793000Y-123063000D01*
X154813000Y-123063000D01*
X154813000Y-121703783D01*
X155067000Y-121703783D01*
X155067000Y-123063000D01*
X156280924Y-123063000D01*
X156425184Y-122828087D01*
X156231954Y-122275680D01*
X155842036Y-121839268D01*
X155314791Y-121585291D01*
X155299026Y-121582642D01*
X155067000Y-121703783D01*
X154813000Y-121703783D01*
X154580974Y-121582642D01*
X154565209Y-121585291D01*
X154037964Y-121839268D01*
X153666461Y-122255069D01*
X153535000Y-122058324D01*
X153535000Y-121849112D01*
X154606102Y-120778010D01*
X155898850Y-120778010D01*
X156134167Y-120733732D01*
X156350291Y-120594660D01*
X156495281Y-120382460D01*
X156546290Y-120130570D01*
X156546290Y-118629430D01*
X156502012Y-118394113D01*
X156362940Y-118177989D01*
X156150740Y-118032999D01*
X155898850Y-117981990D01*
X152899110Y-117981990D01*
X152663793Y-118026268D01*
X152447669Y-118165340D01*
X152400893Y-118233799D01*
X152364980Y-118177989D01*
X152152780Y-118032999D01*
X151900890Y-117981990D01*
X148901150Y-117981990D01*
X148665833Y-118026268D01*
X148449709Y-118165340D01*
X148304719Y-118377540D01*
X148253710Y-118629430D01*
X148253710Y-120130570D01*
X148297988Y-120365887D01*
X148437060Y-120582011D01*
X148649260Y-120727001D01*
X148725000Y-120742339D01*
X148725000Y-121594057D01*
X148544959Y-121709910D01*
X148399969Y-121922110D01*
X148373058Y-122055000D01*
X144411440Y-122055000D01*
X144411440Y-121666000D01*
X144367162Y-121430683D01*
X144228090Y-121214559D01*
X144015890Y-121069569D01*
X143764000Y-121018560D01*
X142748000Y-121018560D01*
X142512683Y-121062838D01*
X142296559Y-121201910D01*
X142151569Y-121414110D01*
X142113000Y-121604569D01*
X142113000Y-121539690D01*
X142016327Y-121306301D01*
X141837698Y-121127673D01*
X141604309Y-121031000D01*
X141255750Y-121031000D01*
X141097000Y-121189750D01*
X141097000Y-122555000D01*
X141117000Y-122555000D01*
X141117000Y-122809000D01*
X141097000Y-122809000D01*
X141097000Y-124174250D01*
X141255750Y-124333000D01*
X141604309Y-124333000D01*
X141837698Y-124236327D01*
X142016327Y-124057699D01*
X142113000Y-123824310D01*
X142113000Y-123764113D01*
X142144838Y-123933317D01*
X142283910Y-124149441D01*
X142496110Y-124294431D01*
X142748000Y-124345440D01*
X143764000Y-124345440D01*
X143872629Y-124325000D01*
X148371351Y-124325000D01*
X148393238Y-124441317D01*
X148492130Y-124595000D01*
X140170132Y-124595000D01*
X139819000Y-124243868D01*
X139819000Y-123798936D01*
X139827000Y-123759431D01*
X139827000Y-123824310D01*
X139923673Y-124057699D01*
X140102302Y-124236327D01*
X140335691Y-124333000D01*
X140684250Y-124333000D01*
X140843000Y-124174250D01*
X140843000Y-122809000D01*
X140823000Y-122809000D01*
X140823000Y-122555000D01*
X140843000Y-122555000D01*
X140843000Y-121189750D01*
X140684250Y-121031000D01*
X140335691Y-121031000D01*
X140102302Y-121127673D01*
X139923673Y-121306301D01*
X139827000Y-121539690D01*
X139827000Y-121599887D01*
X139795162Y-121430683D01*
X139656090Y-121214559D01*
X139443890Y-121069569D01*
X139192000Y-121018560D01*
X138176000Y-121018560D01*
X137940683Y-121062838D01*
X137724559Y-121201910D01*
X137579569Y-121414110D01*
X137528560Y-121666000D01*
X137528560Y-122055000D01*
X136086060Y-122055000D01*
X136042940Y-121987989D01*
X135830740Y-121842999D01*
X135578850Y-121791990D01*
X135213980Y-121791990D01*
X135213980Y-116363750D01*
X138506200Y-116363750D01*
X138506200Y-117220310D01*
X138602873Y-117453699D01*
X138781502Y-117632327D01*
X139014891Y-117729000D01*
X140684250Y-117729000D01*
X140843000Y-117570250D01*
X140843000Y-116205000D01*
X141097000Y-116205000D01*
X141097000Y-117570250D01*
X141255750Y-117729000D01*
X142925109Y-117729000D01*
X143158498Y-117632327D01*
X143337127Y-117453699D01*
X143433800Y-117220310D01*
X143433800Y-116363750D01*
X143275050Y-116205000D01*
X141097000Y-116205000D01*
X140843000Y-116205000D01*
X138664950Y-116205000D01*
X138506200Y-116363750D01*
X135213980Y-116363750D01*
X135213980Y-116338980D01*
X135127583Y-115904634D01*
X134881546Y-115536414D01*
X134549153Y-115204021D01*
X134438281Y-114935690D01*
X138506200Y-114935690D01*
X138506200Y-115792250D01*
X138664950Y-115951000D01*
X140843000Y-115951000D01*
X140843000Y-114585750D01*
X141097000Y-114585750D01*
X141097000Y-115951000D01*
X143275050Y-115951000D01*
X143433800Y-115792250D01*
X143433800Y-114935690D01*
X143337127Y-114702301D01*
X143158498Y-114523673D01*
X142925109Y-114427000D01*
X141255750Y-114427000D01*
X141097000Y-114585750D01*
X140843000Y-114585750D01*
X140684250Y-114427000D01*
X139014891Y-114427000D01*
X138781502Y-114523673D01*
X138602873Y-114702301D01*
X138506200Y-114935690D01*
X134438281Y-114935690D01*
X134400005Y-114843057D01*
X134038845Y-114481265D01*
X133566724Y-114285223D01*
X133055519Y-114284777D01*
X132583057Y-114479995D01*
X132221265Y-114841155D01*
X132095000Y-115145235D01*
X132095000Y-114793690D01*
X131998327Y-114560301D01*
X131819698Y-114381673D01*
X131586309Y-114285000D01*
X131095750Y-114285000D01*
X130937000Y-114443750D01*
X130937000Y-115443000D01*
X130957000Y-115443000D01*
X130957000Y-115697000D01*
X130937000Y-115697000D01*
X130937000Y-116696250D01*
X131095750Y-116855000D01*
X131586309Y-116855000D01*
X131819698Y-116758327D01*
X131998327Y-116579699D01*
X132095000Y-116346310D01*
X132095000Y-115994433D01*
X132219995Y-116296943D01*
X132581155Y-116658735D01*
X132943980Y-116809393D01*
X132943980Y-121791990D01*
X132579110Y-121791990D01*
X132343793Y-121836268D01*
X132127669Y-121975340D01*
X132081864Y-122042378D01*
X131940588Y-121901103D01*
X131707199Y-121804430D01*
X130366770Y-121804430D01*
X130208020Y-121963180D01*
X129954020Y-121963180D01*
X129795270Y-121804430D01*
X128454841Y-121804430D01*
X128221452Y-121901103D01*
X128042823Y-122079731D01*
X127946150Y-122313120D01*
X116255000Y-122313120D01*
X116255000Y-118395750D01*
X118999000Y-118395750D01*
X118999000Y-119099910D01*
X119095673Y-119333299D01*
X119274302Y-119511927D01*
X119507691Y-119608600D01*
X120364250Y-119608600D01*
X120523000Y-119449850D01*
X120523000Y-118237000D01*
X119157750Y-118237000D01*
X118999000Y-118395750D01*
X116255000Y-118395750D01*
X116255000Y-91664775D01*
X122054803Y-91664775D01*
X122227233Y-92082086D01*
X122546235Y-92401645D01*
X122963244Y-92574803D01*
X123414775Y-92575197D01*
X123832086Y-92402767D01*
X123984136Y-92250982D01*
X124035910Y-92331441D01*
X124248110Y-92476431D01*
X124500000Y-92527440D01*
X125500000Y-92527440D01*
X125735317Y-92483162D01*
X125951441Y-92344090D01*
X126096431Y-92131890D01*
X126147440Y-91880000D01*
X126147440Y-89130000D01*
X126103162Y-88894683D01*
X125964090Y-88678559D01*
X125751890Y-88533569D01*
X125500000Y-88482560D01*
X124500000Y-88482560D01*
X124264683Y-88526838D01*
X124048559Y-88665910D01*
X123903569Y-88878110D01*
X123852560Y-89130000D01*
X123852560Y-89424191D01*
X123690655Y-89456396D01*
X123322434Y-89702434D01*
X122387848Y-90637020D01*
X122228355Y-90796235D01*
X122055197Y-91213244D01*
X122054803Y-91664775D01*
X116255000Y-91664775D01*
X116255000Y-86733305D01*
X117494674Y-86733305D01*
X117781043Y-87426372D01*
X118310839Y-87957093D01*
X119003405Y-88244672D01*
X119753305Y-88245326D01*
X120446372Y-87958957D01*
X120977093Y-87429161D01*
X121264672Y-86736595D01*
X121265326Y-85986695D01*
X120978957Y-85293628D01*
X120449161Y-84762907D01*
X119756595Y-84475328D01*
X119006695Y-84474674D01*
X118313628Y-84761043D01*
X117782907Y-85290839D01*
X117495328Y-85983405D01*
X117494674Y-86733305D01*
X116255000Y-86733305D01*
X116255000Y-83235000D01*
X123881923Y-83235000D01*
X123852560Y-83380000D01*
X123852560Y-83380000D01*
G37*
X123852560Y-83380000D02*
X123852560Y-86130000D01*
X123896838Y-86365317D01*
X124035910Y-86581441D01*
X124248110Y-86726431D01*
X124500000Y-86777440D01*
X125500000Y-86777440D01*
X125735317Y-86733162D01*
X125951441Y-86594090D01*
X126096431Y-86381890D01*
X126147440Y-86130000D01*
X126147440Y-83380000D01*
X126120156Y-83235000D01*
X127881923Y-83235000D01*
X127852560Y-83380000D01*
X127852560Y-86130000D01*
X127896838Y-86365317D01*
X128035910Y-86581441D01*
X128248110Y-86726431D01*
X128500000Y-86777440D01*
X129500000Y-86777440D01*
X129735317Y-86733162D01*
X129951441Y-86594090D01*
X130096431Y-86381890D01*
X130147440Y-86130000D01*
X130147440Y-83380000D01*
X130120156Y-83235000D01*
X130683000Y-83235000D01*
X130683000Y-91440000D01*
X130693006Y-91489410D01*
X130721447Y-91531035D01*
X130735105Y-91539824D01*
X130644683Y-91556838D01*
X130428559Y-91695910D01*
X130283569Y-91908110D01*
X130275086Y-91950000D01*
X130133265Y-91950000D01*
X130147440Y-91880000D01*
X130147440Y-89130000D01*
X130103162Y-88894683D01*
X129964090Y-88678559D01*
X129751890Y-88533569D01*
X129500000Y-88482560D01*
X128500000Y-88482560D01*
X128264683Y-88526838D01*
X128048559Y-88665910D01*
X127903569Y-88878110D01*
X127852560Y-89130000D01*
X127852560Y-90577638D01*
X127562599Y-90867599D01*
X127397852Y-91114161D01*
X127340000Y-91405000D01*
X127340000Y-92912666D01*
X127264683Y-92926838D01*
X127048559Y-93065910D01*
X127002031Y-93134006D01*
X126859698Y-92991673D01*
X126626309Y-92895000D01*
X126185750Y-92895000D01*
X126027000Y-93053750D01*
X126027000Y-93853000D01*
X126047000Y-93853000D01*
X126047000Y-94107000D01*
X126027000Y-94107000D01*
X126027000Y-94906250D01*
X126185750Y-95065000D01*
X126626309Y-95065000D01*
X126859698Y-94968327D01*
X127000936Y-94827090D01*
X127035910Y-94881441D01*
X127248110Y-95026431D01*
X127500000Y-95077440D01*
X128700000Y-95077440D01*
X128935317Y-95033162D01*
X129151441Y-94894090D01*
X129296431Y-94681890D01*
X129347440Y-94430000D01*
X129347440Y-93807362D01*
X129684802Y-93470000D01*
X130272074Y-93470000D01*
X130276838Y-93495317D01*
X130415910Y-93711441D01*
X130604099Y-93840025D01*
X130556128Y-93872078D01*
X130299253Y-94256520D01*
X130209050Y-94710000D01*
X130299253Y-95163480D01*
X130556128Y-95547922D01*
X130798696Y-95710000D01*
X130723865Y-95760000D01*
X129255105Y-95760000D01*
X129164090Y-95618559D01*
X128951890Y-95473569D01*
X128700000Y-95422560D01*
X127500000Y-95422560D01*
X127264683Y-95466838D01*
X127048559Y-95605910D01*
X127002031Y-95674006D01*
X126859698Y-95531673D01*
X126626309Y-95435000D01*
X126185750Y-95435000D01*
X126027000Y-95593750D01*
X126027000Y-96393000D01*
X126047000Y-96393000D01*
X126047000Y-96647000D01*
X126027000Y-96647000D01*
X126027000Y-97446250D01*
X126185750Y-97605000D01*
X126626309Y-97605000D01*
X126859698Y-97508327D01*
X127000936Y-97367090D01*
X127035910Y-97421441D01*
X127248110Y-97566431D01*
X127500000Y-97617440D01*
X128700000Y-97617440D01*
X128935317Y-97573162D01*
X129151441Y-97434090D01*
X129256726Y-97280000D01*
X130377109Y-97280000D01*
X130556128Y-97547922D01*
X130798696Y-97710000D01*
X130556128Y-97872078D01*
X130299253Y-98256520D01*
X130239803Y-98555395D01*
X127732599Y-101062599D01*
X127567852Y-101309161D01*
X127510000Y-101600000D01*
X127510000Y-102555198D01*
X127322200Y-102742998D01*
X127216218Y-102742998D01*
X127337358Y-102510974D01*
X127334709Y-102495209D01*
X127080732Y-101967964D01*
X126668892Y-101600000D01*
X127080732Y-101232036D01*
X127334709Y-100704791D01*
X127337358Y-100689026D01*
X127216217Y-100457000D01*
X125857000Y-100457000D01*
X125857000Y-102743000D01*
X125877000Y-102743000D01*
X125877000Y-102997000D01*
X125857000Y-102997000D01*
X125857000Y-103017000D01*
X125603000Y-103017000D01*
X125603000Y-102997000D01*
X125583000Y-102997000D01*
X125583000Y-102743000D01*
X125603000Y-102743000D01*
X125603000Y-100457000D01*
X125583000Y-100457000D01*
X125583000Y-100203000D01*
X125603000Y-100203000D01*
X125603000Y-98989076D01*
X125857000Y-98989076D01*
X125857000Y-100203000D01*
X127216217Y-100203000D01*
X127337358Y-99970974D01*
X127334709Y-99955209D01*
X127080732Y-99427964D01*
X126644320Y-99038046D01*
X126091913Y-98844816D01*
X125857000Y-98989076D01*
X125603000Y-98989076D01*
X125368087Y-98844816D01*
X124815680Y-99038046D01*
X124479754Y-99338184D01*
X124434415Y-99270330D01*
X123948234Y-98945474D01*
X123374745Y-98831400D01*
X123005255Y-98831400D01*
X122431766Y-98945474D01*
X121945585Y-99270330D01*
X121920000Y-99308621D01*
X121894415Y-99270330D01*
X121410000Y-98946654D01*
X121410000Y-95814802D01*
X122254878Y-96659680D01*
X122254838Y-96705167D01*
X122396883Y-97048943D01*
X122659673Y-97312192D01*
X123003201Y-97454838D01*
X123375167Y-97455162D01*
X123718943Y-97313117D01*
X123982192Y-97050327D01*
X124083749Y-96805750D01*
X124665000Y-96805750D01*
X124665000Y-97096310D01*
X124761673Y-97329699D01*
X124940302Y-97508327D01*
X125173691Y-97605000D01*
X125614250Y-97605000D01*
X125773000Y-97446250D01*
X125773000Y-96647000D01*
X124823750Y-96647000D01*
X124665000Y-96805750D01*
X124083749Y-96805750D01*
X124124838Y-96706799D01*
X124125162Y-96334833D01*
X123983117Y-95991057D01*
X123935833Y-95943690D01*
X124665000Y-95943690D01*
X124665000Y-96234250D01*
X124823750Y-96393000D01*
X125773000Y-96393000D01*
X125773000Y-95593750D01*
X125614250Y-95435000D01*
X125173691Y-95435000D01*
X124940302Y-95531673D01*
X124761673Y-95710301D01*
X124665000Y-95943690D01*
X123935833Y-95943690D01*
X123720327Y-95727808D01*
X123376799Y-95585162D01*
X123329923Y-95585121D01*
X122772026Y-95027224D01*
X122893000Y-94906250D01*
X122893000Y-94107000D01*
X123147000Y-94107000D01*
X123147000Y-94906250D01*
X123305750Y-95065000D01*
X123746309Y-95065000D01*
X123979698Y-94968327D01*
X124158327Y-94789699D01*
X124255000Y-94556310D01*
X124255000Y-94265750D01*
X124665000Y-94265750D01*
X124665000Y-94556310D01*
X124761673Y-94789699D01*
X124940302Y-94968327D01*
X125173691Y-95065000D01*
X125614250Y-95065000D01*
X125773000Y-94906250D01*
X125773000Y-94107000D01*
X124823750Y-94107000D01*
X124665000Y-94265750D01*
X124255000Y-94265750D01*
X124096250Y-94107000D01*
X123147000Y-94107000D01*
X122893000Y-94107000D01*
X122873000Y-94107000D01*
X122873000Y-93853000D01*
X122893000Y-93853000D01*
X122893000Y-93053750D01*
X123147000Y-93053750D01*
X123147000Y-93853000D01*
X124096250Y-93853000D01*
X124255000Y-93694250D01*
X124255000Y-93403690D01*
X124665000Y-93403690D01*
X124665000Y-93694250D01*
X124823750Y-93853000D01*
X125773000Y-93853000D01*
X125773000Y-93053750D01*
X125614250Y-92895000D01*
X125173691Y-92895000D01*
X124940302Y-92991673D01*
X124761673Y-93170301D01*
X124665000Y-93403690D01*
X124255000Y-93403690D01*
X124158327Y-93170301D01*
X123979698Y-92991673D01*
X123746309Y-92895000D01*
X123305750Y-92895000D01*
X123147000Y-93053750D01*
X122893000Y-93053750D01*
X122734250Y-92895000D01*
X122293691Y-92895000D01*
X122060302Y-92991673D01*
X121919064Y-93132910D01*
X121884090Y-93078559D01*
X121671890Y-92933569D01*
X121420000Y-92882560D01*
X120220000Y-92882560D01*
X119984683Y-92926838D01*
X119768559Y-93065910D01*
X119623569Y-93278110D01*
X119572560Y-93530000D01*
X119572560Y-94430000D01*
X119616838Y-94665317D01*
X119755910Y-94881441D01*
X119890000Y-94973061D01*
X119890000Y-98946654D01*
X119405585Y-99270330D01*
X119080729Y-99756511D01*
X118966655Y-100330000D01*
X119080729Y-100903489D01*
X119405585Y-101389670D01*
X119720366Y-101600000D01*
X119405585Y-101810330D01*
X119401398Y-101816596D01*
X118870000Y-101285198D01*
X118870000Y-99622463D01*
X118902192Y-99590327D01*
X119044838Y-99246799D01*
X119045162Y-98874833D01*
X118903117Y-98531057D01*
X118640327Y-98267808D01*
X118296799Y-98125162D01*
X117924833Y-98124838D01*
X117581057Y-98266883D01*
X117317808Y-98529673D01*
X117175162Y-98873201D01*
X117174838Y-99245167D01*
X117316883Y-99588943D01*
X117350000Y-99622118D01*
X117350000Y-101600000D01*
X117407852Y-101890839D01*
X117572599Y-102137401D01*
X118842599Y-103407401D01*
X119089160Y-103572148D01*
X119178581Y-103589935D01*
X119405585Y-103929670D01*
X119720366Y-104140000D01*
X119405585Y-104350330D01*
X119080729Y-104836511D01*
X118966655Y-105410000D01*
X119080729Y-105983489D01*
X119405585Y-106469670D01*
X119720366Y-106680000D01*
X119405585Y-106890330D01*
X119080729Y-107376511D01*
X118966655Y-107950000D01*
X119080729Y-108523489D01*
X119405585Y-109009670D01*
X119720366Y-109220000D01*
X119405585Y-109430330D01*
X119080729Y-109916511D01*
X118966655Y-110490000D01*
X119080729Y-111063489D01*
X119405585Y-111549670D01*
X119720366Y-111760000D01*
X119405585Y-111970330D01*
X119080729Y-112456511D01*
X118966655Y-113030000D01*
X119080729Y-113603489D01*
X119405585Y-114089670D01*
X119720366Y-114300000D01*
X119405585Y-114510330D01*
X119080729Y-114996511D01*
X118966655Y-115570000D01*
X119080729Y-116143489D01*
X119405585Y-116629670D01*
X119427780Y-116644500D01*
X119274302Y-116708073D01*
X119095673Y-116886701D01*
X118999000Y-117120090D01*
X118999000Y-117824250D01*
X119157750Y-117983000D01*
X120523000Y-117983000D01*
X120523000Y-117963000D01*
X120777000Y-117963000D01*
X120777000Y-117983000D01*
X120797000Y-117983000D01*
X120797000Y-118237000D01*
X120777000Y-118237000D01*
X120777000Y-119449850D01*
X120935750Y-119608600D01*
X121792309Y-119608600D01*
X121908263Y-119560570D01*
X121922110Y-119570031D01*
X122174000Y-119621040D01*
X124206000Y-119621040D01*
X124441317Y-119576762D01*
X124468539Y-119559245D01*
X124587691Y-119608600D01*
X125444250Y-119608600D01*
X125603000Y-119449850D01*
X125603000Y-118237000D01*
X125857000Y-118237000D01*
X125857000Y-119449850D01*
X126015750Y-119608600D01*
X126872309Y-119608600D01*
X127105698Y-119511927D01*
X127284327Y-119333299D01*
X127381000Y-119099910D01*
X127381000Y-118395750D01*
X127222250Y-118237000D01*
X125857000Y-118237000D01*
X125603000Y-118237000D01*
X125583000Y-118237000D01*
X125583000Y-117983000D01*
X125603000Y-117983000D01*
X125603000Y-115697000D01*
X125857000Y-115697000D01*
X125857000Y-117983000D01*
X127222250Y-117983000D01*
X127381000Y-117824250D01*
X127381000Y-117120090D01*
X127284327Y-116886701D01*
X127105698Y-116708073D01*
X126908139Y-116626241D01*
X127080732Y-116472036D01*
X127334709Y-115944791D01*
X127337358Y-115929026D01*
X127299101Y-115855750D01*
X129525000Y-115855750D01*
X129525000Y-116346310D01*
X129621673Y-116579699D01*
X129800302Y-116758327D01*
X130033691Y-116855000D01*
X130524250Y-116855000D01*
X130683000Y-116696250D01*
X130683000Y-115697000D01*
X129683750Y-115697000D01*
X129525000Y-115855750D01*
X127299101Y-115855750D01*
X127216217Y-115697000D01*
X125857000Y-115697000D01*
X125603000Y-115697000D01*
X125583000Y-115697000D01*
X125583000Y-115443000D01*
X125603000Y-115443000D01*
X125603000Y-113157000D01*
X125857000Y-113157000D01*
X125857000Y-115443000D01*
X127216217Y-115443000D01*
X127337358Y-115210974D01*
X127334709Y-115195209D01*
X127141295Y-114793690D01*
X129525000Y-114793690D01*
X129525000Y-115284250D01*
X129683750Y-115443000D01*
X130683000Y-115443000D01*
X130683000Y-114443750D01*
X130524250Y-114285000D01*
X130033691Y-114285000D01*
X129800302Y-114381673D01*
X129621673Y-114560301D01*
X129525000Y-114793690D01*
X127141295Y-114793690D01*
X127080732Y-114667964D01*
X126668892Y-114300000D01*
X127080732Y-113932036D01*
X127334709Y-113404791D01*
X127337358Y-113389026D01*
X127216217Y-113157000D01*
X125857000Y-113157000D01*
X125603000Y-113157000D01*
X125583000Y-113157000D01*
X125583000Y-112903000D01*
X125603000Y-112903000D01*
X125603000Y-112883000D01*
X125857000Y-112883000D01*
X125857000Y-112903000D01*
X127216217Y-112903000D01*
X127337358Y-112670974D01*
X127334709Y-112655209D01*
X127269578Y-112520000D01*
X129540000Y-112520000D01*
X129830839Y-112462148D01*
X130077401Y-112297401D01*
X133885000Y-108489802D01*
X133885000Y-109145950D01*
X133975203Y-109599430D01*
X134232078Y-109983872D01*
X134616520Y-110240747D01*
X135070000Y-110330950D01*
X135523480Y-110240747D01*
X135907922Y-109983872D01*
X136070000Y-109741304D01*
X136232078Y-109983872D01*
X136616520Y-110240747D01*
X137070000Y-110330950D01*
X137523480Y-110240747D01*
X137907922Y-109983872D01*
X138070000Y-109741304D01*
X138232078Y-109983872D01*
X138616520Y-110240747D01*
X139070000Y-110330950D01*
X139523480Y-110240747D01*
X139907922Y-109983872D01*
X140070000Y-109741304D01*
X140232078Y-109983872D01*
X140616520Y-110240747D01*
X141070000Y-110330950D01*
X141523480Y-110240747D01*
X141907922Y-109983872D01*
X142070000Y-109741304D01*
X142232078Y-109983872D01*
X142616520Y-110240747D01*
X143070000Y-110330950D01*
X143523480Y-110240747D01*
X143907922Y-109983872D01*
X144070000Y-109741304D01*
X144232078Y-109983872D01*
X144616520Y-110240747D01*
X145070000Y-110330950D01*
X145523480Y-110240747D01*
X145907922Y-109983872D01*
X146164797Y-109599430D01*
X146185000Y-109497863D01*
X146185000Y-113029010D01*
X146184803Y-113254775D01*
X146357233Y-113672086D01*
X146676235Y-113991645D01*
X147093244Y-114164803D01*
X147544775Y-114165197D01*
X147962086Y-113992767D01*
X148281645Y-113673765D01*
X148454803Y-113256756D01*
X148455197Y-112805225D01*
X148455000Y-112804748D01*
X148455000Y-107895000D01*
X148765950Y-107895000D01*
X149219430Y-107804797D01*
X149458584Y-107645000D01*
X151608203Y-107645000D01*
X151698110Y-107706431D01*
X151950000Y-107757440D01*
X152850000Y-107757440D01*
X153085317Y-107713162D01*
X153301441Y-107574090D01*
X153446431Y-107361890D01*
X153497440Y-107110000D01*
X153497440Y-106698826D01*
X153535000Y-106510000D01*
X153497440Y-106321174D01*
X153497440Y-105910000D01*
X153453162Y-105674683D01*
X153314090Y-105458559D01*
X153244289Y-105410866D01*
X153301441Y-105374090D01*
X153446431Y-105161890D01*
X153497440Y-104910000D01*
X153497440Y-103772242D01*
X154180000Y-104454802D01*
X154180000Y-105410000D01*
X154237852Y-105700839D01*
X154402599Y-105947401D01*
X155112560Y-106657362D01*
X155112560Y-107110000D01*
X155156838Y-107345317D01*
X155295910Y-107561441D01*
X155508110Y-107706431D01*
X155760000Y-107757440D01*
X156660000Y-107757440D01*
X156895317Y-107713162D01*
X157111441Y-107574090D01*
X157256431Y-107361890D01*
X157307440Y-107110000D01*
X157307440Y-105910000D01*
X157263162Y-105674683D01*
X157124090Y-105458559D01*
X157055994Y-105412031D01*
X157058025Y-105410000D01*
X159606655Y-105410000D01*
X159720729Y-105983489D01*
X160045585Y-106469670D01*
X160360366Y-106680000D01*
X160045585Y-106890330D01*
X159720729Y-107376511D01*
X159606655Y-107950000D01*
X159720729Y-108523489D01*
X160045585Y-109009670D01*
X160360366Y-109220000D01*
X160045585Y-109430330D01*
X159720729Y-109916511D01*
X159606655Y-110490000D01*
X159720729Y-111063489D01*
X160045585Y-111549670D01*
X160360366Y-111760000D01*
X160045585Y-111970330D01*
X159720729Y-112456511D01*
X159606655Y-113030000D01*
X159720729Y-113603489D01*
X160045585Y-114089670D01*
X160360366Y-114300000D01*
X160045585Y-114510330D01*
X159720729Y-114996511D01*
X159606655Y-115570000D01*
X159720729Y-116143489D01*
X160045585Y-116629670D01*
X160531766Y-116954526D01*
X161105255Y-117068600D01*
X161474745Y-117068600D01*
X162048234Y-116954526D01*
X162534415Y-116629670D01*
X162859271Y-116143489D01*
X162973345Y-115570000D01*
X162859271Y-114996511D01*
X162534415Y-114510330D01*
X162219634Y-114300000D01*
X162534415Y-114089670D01*
X162859271Y-113603489D01*
X162973345Y-113030000D01*
X162859271Y-112456511D01*
X162534415Y-111970330D01*
X162219634Y-111760000D01*
X162534415Y-111549670D01*
X162859271Y-111063489D01*
X162973345Y-110490000D01*
X162859271Y-109916511D01*
X162534415Y-109430330D01*
X162219634Y-109220000D01*
X162534415Y-109009670D01*
X162859271Y-108523489D01*
X162973345Y-107950000D01*
X162859271Y-107376511D01*
X162534415Y-106890330D01*
X162219634Y-106680000D01*
X162534415Y-106469670D01*
X162859271Y-105983489D01*
X162973345Y-105410000D01*
X162859271Y-104836511D01*
X162534415Y-104350330D01*
X162520087Y-104340757D01*
X162541317Y-104336762D01*
X162757441Y-104197690D01*
X162902431Y-103985490D01*
X162953440Y-103733600D01*
X162953440Y-102006400D01*
X162909162Y-101771083D01*
X162770090Y-101554959D01*
X162557890Y-101409969D01*
X162306000Y-101358960D01*
X160274000Y-101358960D01*
X160038683Y-101403238D01*
X159822559Y-101542310D01*
X159677569Y-101754510D01*
X159626560Y-102006400D01*
X159626560Y-103733600D01*
X159670838Y-103968917D01*
X159809910Y-104185041D01*
X160022110Y-104330031D01*
X160063439Y-104338400D01*
X160045585Y-104350330D01*
X159720729Y-104836511D01*
X159606655Y-105410000D01*
X157058025Y-105410000D01*
X157198327Y-105269698D01*
X157295000Y-105036309D01*
X157295000Y-104595750D01*
X157136250Y-104437000D01*
X156337000Y-104437000D01*
X156337000Y-104457000D01*
X156083000Y-104457000D01*
X156083000Y-104437000D01*
X156063000Y-104437000D01*
X156063000Y-104183000D01*
X156083000Y-104183000D01*
X156083000Y-103233750D01*
X156337000Y-103233750D01*
X156337000Y-104183000D01*
X157136250Y-104183000D01*
X157295000Y-104024250D01*
X157295000Y-103583691D01*
X157198327Y-103350302D01*
X157019699Y-103171673D01*
X156786310Y-103075000D01*
X156495750Y-103075000D01*
X156337000Y-103233750D01*
X156083000Y-103233750D01*
X155924250Y-103075000D01*
X155633690Y-103075000D01*
X155400301Y-103171673D01*
X155223388Y-103348586D01*
X154047401Y-102172599D01*
X153800839Y-102007852D01*
X153510000Y-101950000D01*
X149655938Y-101950000D01*
X149603872Y-101872078D01*
X149361304Y-101710000D01*
X149603872Y-101547922D01*
X149860747Y-101163480D01*
X149875363Y-101090000D01*
X151414895Y-101090000D01*
X151505910Y-101231441D01*
X151718110Y-101376431D01*
X151970000Y-101427440D01*
X153170000Y-101427440D01*
X153405317Y-101383162D01*
X153621441Y-101244090D01*
X153669134Y-101174289D01*
X153705910Y-101231441D01*
X153918110Y-101376431D01*
X154170000Y-101427440D01*
X155370000Y-101427440D01*
X155605317Y-101383162D01*
X155821441Y-101244090D01*
X155966431Y-101031890D01*
X156017440Y-100780000D01*
X156017440Y-99880000D01*
X155973162Y-99644683D01*
X155834090Y-99428559D01*
X155621890Y-99283569D01*
X155370000Y-99232560D01*
X154747362Y-99232560D01*
X154589802Y-99075000D01*
X154734250Y-99075000D01*
X154893000Y-98916250D01*
X154893000Y-97917000D01*
X155147000Y-97917000D01*
X155147000Y-98916250D01*
X155305750Y-99075000D01*
X155896309Y-99075000D01*
X156129698Y-98978327D01*
X156308327Y-98799699D01*
X156405000Y-98566310D01*
X156405000Y-98075750D01*
X156246250Y-97917000D01*
X155147000Y-97917000D01*
X154893000Y-97917000D01*
X154873000Y-97917000D01*
X154873000Y-97663000D01*
X154893000Y-97663000D01*
X154893000Y-96663750D01*
X155147000Y-96663750D01*
X155147000Y-97663000D01*
X156246250Y-97663000D01*
X156405000Y-97504250D01*
X156405000Y-97013690D01*
X156308327Y-96780301D01*
X156129698Y-96601673D01*
X155896309Y-96505000D01*
X155305750Y-96505000D01*
X155147000Y-96663750D01*
X154893000Y-96663750D01*
X154734250Y-96505000D01*
X154143691Y-96505000D01*
X153910302Y-96601673D01*
X153731673Y-96780301D01*
X153675346Y-96916287D01*
X153673162Y-96904683D01*
X153534090Y-96688559D01*
X153321890Y-96543569D01*
X153070000Y-96492560D01*
X151570000Y-96492560D01*
X151334683Y-96536838D01*
X151118559Y-96675910D01*
X150973569Y-96888110D01*
X150922560Y-97140000D01*
X150922560Y-97777758D01*
X150620000Y-97475198D01*
X150620000Y-92629802D01*
X150832123Y-92417679D01*
X150918110Y-92476431D01*
X151170000Y-92527440D01*
X151610882Y-92527440D01*
X151232567Y-92780222D01*
X150874675Y-93315845D01*
X150749000Y-93947655D01*
X150749000Y-94012345D01*
X150874675Y-94644155D01*
X151232567Y-95179778D01*
X151768190Y-95537670D01*
X152400000Y-95663345D01*
X153031810Y-95537670D01*
X153371792Y-95310501D01*
X153459910Y-95447441D01*
X153672110Y-95592431D01*
X153924000Y-95643440D01*
X155956000Y-95643440D01*
X156191317Y-95599162D01*
X156407441Y-95460090D01*
X156552431Y-95247890D01*
X156603440Y-94996000D01*
X156603440Y-92964000D01*
X156584323Y-92862400D01*
X159524960Y-92862400D01*
X159524960Y-95097600D01*
X159569238Y-95332917D01*
X159708310Y-95549041D01*
X159920510Y-95694031D01*
X160172400Y-95745040D01*
X162407600Y-95745040D01*
X162642917Y-95700762D01*
X162859041Y-95561690D01*
X163004031Y-95349490D01*
X163055040Y-95097600D01*
X163055040Y-92862400D01*
X163010762Y-92627083D01*
X162871690Y-92410959D01*
X162659490Y-92265969D01*
X162407600Y-92214960D01*
X160172400Y-92214960D01*
X159937083Y-92259238D01*
X159720959Y-92398310D01*
X159575969Y-92610510D01*
X159524960Y-92862400D01*
X156584323Y-92862400D01*
X156559162Y-92728683D01*
X156420090Y-92512559D01*
X156383166Y-92487330D01*
X156405317Y-92483162D01*
X156621441Y-92344090D01*
X156766431Y-92131890D01*
X156817440Y-91880000D01*
X156817440Y-91640000D01*
X157344868Y-91640000D01*
X157947020Y-92242152D01*
X158106235Y-92401645D01*
X158523244Y-92574803D01*
X158974775Y-92575197D01*
X159184345Y-92488604D01*
X159184346Y-92488604D01*
X159184347Y-92488603D01*
X159392086Y-92402767D01*
X159711645Y-92083765D01*
X159884803Y-91666756D01*
X159885197Y-91215225D01*
X159712767Y-90797914D01*
X159393765Y-90478355D01*
X159393290Y-90478158D01*
X158617566Y-89702434D01*
X158249346Y-89456397D01*
X157815000Y-89370000D01*
X156817440Y-89370000D01*
X156817440Y-89130000D01*
X156773162Y-88894683D01*
X156634090Y-88678559D01*
X156421890Y-88533569D01*
X156170000Y-88482560D01*
X155170000Y-88482560D01*
X154934683Y-88526838D01*
X154718559Y-88665910D01*
X154573569Y-88878110D01*
X154522560Y-89130000D01*
X154522560Y-91880000D01*
X154566838Y-92115317D01*
X154696334Y-92316560D01*
X153924000Y-92316560D01*
X153688683Y-92360838D01*
X153472559Y-92499910D01*
X153370802Y-92648837D01*
X153160000Y-92507984D01*
X153160000Y-91235000D01*
X153102148Y-90944161D01*
X152937401Y-90697599D01*
X152817440Y-90577638D01*
X152817440Y-89130000D01*
X152773162Y-88894683D01*
X152634090Y-88678559D01*
X152421890Y-88533569D01*
X152170000Y-88482560D01*
X151170000Y-88482560D01*
X150934683Y-88526838D01*
X150718559Y-88665910D01*
X150573569Y-88878110D01*
X150522560Y-89130000D01*
X150522560Y-90577638D01*
X149987000Y-91113198D01*
X149987000Y-83235000D01*
X150551923Y-83235000D01*
X150522560Y-83380000D01*
X150522560Y-86130000D01*
X150566838Y-86365317D01*
X150705910Y-86581441D01*
X150918110Y-86726431D01*
X151170000Y-86777440D01*
X152170000Y-86777440D01*
X152405317Y-86733162D01*
X152621441Y-86594090D01*
X152766431Y-86381890D01*
X152817440Y-86130000D01*
X152817440Y-83380000D01*
X152790156Y-83235000D01*
X154551923Y-83235000D01*
X154522560Y-83380000D01*
X154522560Y-86130000D01*
X154566838Y-86365317D01*
X154705910Y-86581441D01*
X154918110Y-86726431D01*
X155170000Y-86777440D01*
X156170000Y-86777440D01*
X156404557Y-86733305D01*
X159404674Y-86733305D01*
X159691043Y-87426372D01*
X160220839Y-87957093D01*
X160913405Y-88244672D01*
X161663305Y-88245326D01*
X162356372Y-87958957D01*
X162887093Y-87429161D01*
X163174672Y-86736595D01*
X163175326Y-85986695D01*
X162888957Y-85293628D01*
X162359161Y-84762907D01*
X161666595Y-84475328D01*
X160916695Y-84474674D01*
X160223628Y-84761043D01*
X159692907Y-85290839D01*
X159405328Y-85983405D01*
X159404674Y-86733305D01*
X156404557Y-86733305D01*
X156405317Y-86733162D01*
X156621441Y-86594090D01*
X156766431Y-86381890D01*
X156817440Y-86130000D01*
X156817440Y-83380000D01*
X156790156Y-83235000D01*
X164415000Y-83235000D01*
X164415000Y-127585000D01*
X116255000Y-127585000D01*
X116255000Y-124833305D01*
X117494674Y-124833305D01*
X117781043Y-125526372D01*
X118310839Y-126057093D01*
X119003405Y-126344672D01*
X119753305Y-126345326D01*
X120446372Y-126058957D01*
X120977093Y-125529161D01*
X121264672Y-124836595D01*
X121265326Y-124086695D01*
X121012890Y-123475750D01*
X127946150Y-123475750D01*
X127946150Y-124066880D01*
X128042823Y-124300269D01*
X128221452Y-124478897D01*
X128454841Y-124575570D01*
X129795270Y-124575570D01*
X129954020Y-124416820D01*
X129954020Y-123317000D01*
X128104900Y-123317000D01*
X127946150Y-123475750D01*
X121012890Y-123475750D01*
X120978957Y-123393628D01*
X120449161Y-122862907D01*
X119756595Y-122575328D01*
X119006695Y-122574674D01*
X118313628Y-122861043D01*
X117782907Y-123390839D01*
X117495328Y-124083405D01*
X117494674Y-124833305D01*
X116255000Y-124833305D01*
X116255000Y-122313120D01*
X127946150Y-122313120D01*
X127946150Y-122904250D01*
X128104900Y-123063000D01*
X129954020Y-123063000D01*
X129954020Y-121963180D01*
X130208020Y-121963180D01*
X130208020Y-123063000D01*
X130228020Y-123063000D01*
X130228020Y-123317000D01*
X130208020Y-123317000D01*
X130208020Y-124416820D01*
X130366770Y-124575570D01*
X131707199Y-124575570D01*
X131940588Y-124478897D01*
X132080743Y-124338743D01*
X132115020Y-124392011D01*
X132327220Y-124537001D01*
X132579110Y-124588010D01*
X133357865Y-124588010D01*
X133644634Y-124779623D01*
X134078980Y-124866020D01*
X134513326Y-124779623D01*
X134800095Y-124588010D01*
X135578850Y-124588010D01*
X135814167Y-124543732D01*
X136030291Y-124404660D01*
X136084720Y-124325000D01*
X137549000Y-124325000D01*
X137549000Y-124714000D01*
X137635397Y-125148346D01*
X137733826Y-125295655D01*
X137881434Y-125516566D01*
X138897434Y-126532566D01*
X139265654Y-126778603D01*
X139700000Y-126865000D01*
X151130000Y-126865000D01*
X151564346Y-126778603D01*
X151932566Y-126532566D01*
X153202566Y-125262566D01*
X153426494Y-124927434D01*
X153448603Y-124894346D01*
X153460744Y-124833305D01*
X159404674Y-124833305D01*
X159691043Y-125526372D01*
X160220839Y-126057093D01*
X160913405Y-126344672D01*
X161663305Y-126345326D01*
X162356372Y-126058957D01*
X162887093Y-125529161D01*
X163174672Y-124836595D01*
X163175326Y-124086695D01*
X162888957Y-123393628D01*
X162359161Y-122862907D01*
X161666595Y-122575328D01*
X160916695Y-122574674D01*
X160223628Y-122861043D01*
X159692907Y-123390839D01*
X159405328Y-124083405D01*
X159404674Y-124833305D01*
X153460744Y-124833305D01*
X153535000Y-124460000D01*
X153535000Y-124321676D01*
X153666461Y-124124931D01*
X154037964Y-124540732D01*
X154565209Y-124794709D01*
X154580974Y-124797358D01*
X154813000Y-124676217D01*
X154813000Y-123317000D01*
X155067000Y-123317000D01*
X155067000Y-124676217D01*
X155299026Y-124797358D01*
X155314791Y-124794709D01*
X155842036Y-124540732D01*
X156231954Y-124104320D01*
X156425184Y-123551913D01*
X156280924Y-123317000D01*
X155067000Y-123317000D01*
X154813000Y-123317000D01*
X154793000Y-123317000D01*
X154793000Y-123063000D01*
X154813000Y-123063000D01*
X154813000Y-121703783D01*
X155067000Y-121703783D01*
X155067000Y-123063000D01*
X156280924Y-123063000D01*
X156425184Y-122828087D01*
X156231954Y-122275680D01*
X155842036Y-121839268D01*
X155314791Y-121585291D01*
X155299026Y-121582642D01*
X155067000Y-121703783D01*
X154813000Y-121703783D01*
X154580974Y-121582642D01*
X154565209Y-121585291D01*
X154037964Y-121839268D01*
X153666461Y-122255069D01*
X153535000Y-122058324D01*
X153535000Y-121849112D01*
X154606102Y-120778010D01*
X155898850Y-120778010D01*
X156134167Y-120733732D01*
X156350291Y-120594660D01*
X156495281Y-120382460D01*
X156546290Y-120130570D01*
X156546290Y-118629430D01*
X156502012Y-118394113D01*
X156362940Y-118177989D01*
X156150740Y-118032999D01*
X155898850Y-117981990D01*
X152899110Y-117981990D01*
X152663793Y-118026268D01*
X152447669Y-118165340D01*
X152400893Y-118233799D01*
X152364980Y-118177989D01*
X152152780Y-118032999D01*
X151900890Y-117981990D01*
X148901150Y-117981990D01*
X148665833Y-118026268D01*
X148449709Y-118165340D01*
X148304719Y-118377540D01*
X148253710Y-118629430D01*
X148253710Y-120130570D01*
X148297988Y-120365887D01*
X148437060Y-120582011D01*
X148649260Y-120727001D01*
X148725000Y-120742339D01*
X148725000Y-121594057D01*
X148544959Y-121709910D01*
X148399969Y-121922110D01*
X148373058Y-122055000D01*
X144411440Y-122055000D01*
X144411440Y-121666000D01*
X144367162Y-121430683D01*
X144228090Y-121214559D01*
X144015890Y-121069569D01*
X143764000Y-121018560D01*
X142748000Y-121018560D01*
X142512683Y-121062838D01*
X142296559Y-121201910D01*
X142151569Y-121414110D01*
X142113000Y-121604569D01*
X142113000Y-121539690D01*
X142016327Y-121306301D01*
X141837698Y-121127673D01*
X141604309Y-121031000D01*
X141255750Y-121031000D01*
X141097000Y-121189750D01*
X141097000Y-122555000D01*
X141117000Y-122555000D01*
X141117000Y-122809000D01*
X141097000Y-122809000D01*
X141097000Y-124174250D01*
X141255750Y-124333000D01*
X141604309Y-124333000D01*
X141837698Y-124236327D01*
X142016327Y-124057699D01*
X142113000Y-123824310D01*
X142113000Y-123764113D01*
X142144838Y-123933317D01*
X142283910Y-124149441D01*
X142496110Y-124294431D01*
X142748000Y-124345440D01*
X143764000Y-124345440D01*
X143872629Y-124325000D01*
X148371351Y-124325000D01*
X148393238Y-124441317D01*
X148492130Y-124595000D01*
X140170132Y-124595000D01*
X139819000Y-124243868D01*
X139819000Y-123798936D01*
X139827000Y-123759431D01*
X139827000Y-123824310D01*
X139923673Y-124057699D01*
X140102302Y-124236327D01*
X140335691Y-124333000D01*
X140684250Y-124333000D01*
X140843000Y-124174250D01*
X140843000Y-122809000D01*
X140823000Y-122809000D01*
X140823000Y-122555000D01*
X140843000Y-122555000D01*
X140843000Y-121189750D01*
X140684250Y-121031000D01*
X140335691Y-121031000D01*
X140102302Y-121127673D01*
X139923673Y-121306301D01*
X139827000Y-121539690D01*
X139827000Y-121599887D01*
X139795162Y-121430683D01*
X139656090Y-121214559D01*
X139443890Y-121069569D01*
X139192000Y-121018560D01*
X138176000Y-121018560D01*
X137940683Y-121062838D01*
X137724559Y-121201910D01*
X137579569Y-121414110D01*
X137528560Y-121666000D01*
X137528560Y-122055000D01*
X136086060Y-122055000D01*
X136042940Y-121987989D01*
X135830740Y-121842999D01*
X135578850Y-121791990D01*
X135213980Y-121791990D01*
X135213980Y-116363750D01*
X138506200Y-116363750D01*
X138506200Y-117220310D01*
X138602873Y-117453699D01*
X138781502Y-117632327D01*
X139014891Y-117729000D01*
X140684250Y-117729000D01*
X140843000Y-117570250D01*
X140843000Y-116205000D01*
X141097000Y-116205000D01*
X141097000Y-117570250D01*
X141255750Y-117729000D01*
X142925109Y-117729000D01*
X143158498Y-117632327D01*
X143337127Y-117453699D01*
X143433800Y-117220310D01*
X143433800Y-116363750D01*
X143275050Y-116205000D01*
X141097000Y-116205000D01*
X140843000Y-116205000D01*
X138664950Y-116205000D01*
X138506200Y-116363750D01*
X135213980Y-116363750D01*
X135213980Y-116338980D01*
X135127583Y-115904634D01*
X134881546Y-115536414D01*
X134549153Y-115204021D01*
X134438281Y-114935690D01*
X138506200Y-114935690D01*
X138506200Y-115792250D01*
X138664950Y-115951000D01*
X140843000Y-115951000D01*
X140843000Y-114585750D01*
X141097000Y-114585750D01*
X141097000Y-115951000D01*
X143275050Y-115951000D01*
X143433800Y-115792250D01*
X143433800Y-114935690D01*
X143337127Y-114702301D01*
X143158498Y-114523673D01*
X142925109Y-114427000D01*
X141255750Y-114427000D01*
X141097000Y-114585750D01*
X140843000Y-114585750D01*
X140684250Y-114427000D01*
X139014891Y-114427000D01*
X138781502Y-114523673D01*
X138602873Y-114702301D01*
X138506200Y-114935690D01*
X134438281Y-114935690D01*
X134400005Y-114843057D01*
X134038845Y-114481265D01*
X133566724Y-114285223D01*
X133055519Y-114284777D01*
X132583057Y-114479995D01*
X132221265Y-114841155D01*
X132095000Y-115145235D01*
X132095000Y-114793690D01*
X131998327Y-114560301D01*
X131819698Y-114381673D01*
X131586309Y-114285000D01*
X131095750Y-114285000D01*
X130937000Y-114443750D01*
X130937000Y-115443000D01*
X130957000Y-115443000D01*
X130957000Y-115697000D01*
X130937000Y-115697000D01*
X130937000Y-116696250D01*
X131095750Y-116855000D01*
X131586309Y-116855000D01*
X131819698Y-116758327D01*
X131998327Y-116579699D01*
X132095000Y-116346310D01*
X132095000Y-115994433D01*
X132219995Y-116296943D01*
X132581155Y-116658735D01*
X132943980Y-116809393D01*
X132943980Y-121791990D01*
X132579110Y-121791990D01*
X132343793Y-121836268D01*
X132127669Y-121975340D01*
X132081864Y-122042378D01*
X131940588Y-121901103D01*
X131707199Y-121804430D01*
X130366770Y-121804430D01*
X130208020Y-121963180D01*
X129954020Y-121963180D01*
X129795270Y-121804430D01*
X128454841Y-121804430D01*
X128221452Y-121901103D01*
X128042823Y-122079731D01*
X127946150Y-122313120D01*
X116255000Y-122313120D01*
X116255000Y-118395750D01*
X118999000Y-118395750D01*
X118999000Y-119099910D01*
X119095673Y-119333299D01*
X119274302Y-119511927D01*
X119507691Y-119608600D01*
X120364250Y-119608600D01*
X120523000Y-119449850D01*
X120523000Y-118237000D01*
X119157750Y-118237000D01*
X118999000Y-118395750D01*
X116255000Y-118395750D01*
X116255000Y-91664775D01*
X122054803Y-91664775D01*
X122227233Y-92082086D01*
X122546235Y-92401645D01*
X122963244Y-92574803D01*
X123414775Y-92575197D01*
X123832086Y-92402767D01*
X123984136Y-92250982D01*
X124035910Y-92331441D01*
X124248110Y-92476431D01*
X124500000Y-92527440D01*
X125500000Y-92527440D01*
X125735317Y-92483162D01*
X125951441Y-92344090D01*
X126096431Y-92131890D01*
X126147440Y-91880000D01*
X126147440Y-89130000D01*
X126103162Y-88894683D01*
X125964090Y-88678559D01*
X125751890Y-88533569D01*
X125500000Y-88482560D01*
X124500000Y-88482560D01*
X124264683Y-88526838D01*
X124048559Y-88665910D01*
X123903569Y-88878110D01*
X123852560Y-89130000D01*
X123852560Y-89424191D01*
X123690655Y-89456396D01*
X123322434Y-89702434D01*
X122387848Y-90637020D01*
X122228355Y-90796235D01*
X122055197Y-91213244D01*
X122054803Y-91664775D01*
X116255000Y-91664775D01*
X116255000Y-86733305D01*
X117494674Y-86733305D01*
X117781043Y-87426372D01*
X118310839Y-87957093D01*
X119003405Y-88244672D01*
X119753305Y-88245326D01*
X120446372Y-87958957D01*
X120977093Y-87429161D01*
X121264672Y-86736595D01*
X121265326Y-85986695D01*
X120978957Y-85293628D01*
X120449161Y-84762907D01*
X119756595Y-84475328D01*
X119006695Y-84474674D01*
X118313628Y-84761043D01*
X117782907Y-85290839D01*
X117495328Y-85983405D01*
X117494674Y-86733305D01*
X116255000Y-86733305D01*
X116255000Y-83235000D01*
X123881923Y-83235000D01*
X123852560Y-83380000D01*
G36*
X132207000Y-106583000D02*
X132227000Y-106583000D01*
X132227000Y-106837000D01*
X132207000Y-106837000D01*
X132207000Y-107895000D01*
X132330198Y-107895000D01*
X129225198Y-111000000D01*
X127269578Y-111000000D01*
X127334709Y-110864791D01*
X127337358Y-110849026D01*
X127216217Y-110617000D01*
X125857000Y-110617000D01*
X125857000Y-110637000D01*
X125603000Y-110637000D01*
X125603000Y-110617000D01*
X125583000Y-110617000D01*
X125583000Y-110363000D01*
X125603000Y-110363000D01*
X125603000Y-110343000D01*
X125857000Y-110343000D01*
X125857000Y-110363000D01*
X127216217Y-110363000D01*
X127337358Y-110130974D01*
X127334709Y-110115209D01*
X127269578Y-109980000D01*
X128270000Y-109980000D01*
X128560839Y-109922148D01*
X128807401Y-109757401D01*
X130077401Y-108487401D01*
X130242148Y-108240840D01*
X130300000Y-107950000D01*
X130300000Y-107071738D01*
X130502276Y-107458118D01*
X130859187Y-107756196D01*
X131303000Y-107895000D01*
X131953000Y-107895000D01*
X131953000Y-106837000D01*
X131933000Y-106837000D01*
X131933000Y-106583000D01*
X131953000Y-106583000D01*
X131953000Y-106563000D01*
X132207000Y-106563000D01*
X132207000Y-106583000D01*
X132207000Y-106583000D01*
G37*
X132207000Y-106583000D02*
X132227000Y-106583000D01*
X132227000Y-106837000D01*
X132207000Y-106837000D01*
X132207000Y-107895000D01*
X132330198Y-107895000D01*
X129225198Y-111000000D01*
X127269578Y-111000000D01*
X127334709Y-110864791D01*
X127337358Y-110849026D01*
X127216217Y-110617000D01*
X125857000Y-110617000D01*
X125857000Y-110637000D01*
X125603000Y-110637000D01*
X125603000Y-110617000D01*
X125583000Y-110617000D01*
X125583000Y-110363000D01*
X125603000Y-110363000D01*
X125603000Y-110343000D01*
X125857000Y-110343000D01*
X125857000Y-110363000D01*
X127216217Y-110363000D01*
X127337358Y-110130974D01*
X127334709Y-110115209D01*
X127269578Y-109980000D01*
X128270000Y-109980000D01*
X128560839Y-109922148D01*
X128807401Y-109757401D01*
X130077401Y-108487401D01*
X130242148Y-108240840D01*
X130300000Y-107950000D01*
X130300000Y-107071738D01*
X130502276Y-107458118D01*
X130859187Y-107756196D01*
X131303000Y-107895000D01*
X131953000Y-107895000D01*
X131953000Y-106837000D01*
X131933000Y-106837000D01*
X131933000Y-106583000D01*
X131953000Y-106583000D01*
X131953000Y-106563000D01*
X132207000Y-106563000D01*
X132207000Y-106583000D01*
G36*
X128780000Y-107635198D02*
X127955198Y-108460000D01*
X127269578Y-108460000D01*
X127334709Y-108324791D01*
X127337358Y-108309026D01*
X127216217Y-108077000D01*
X125857000Y-108077000D01*
X125857000Y-108097000D01*
X125603000Y-108097000D01*
X125603000Y-108077000D01*
X125583000Y-108077000D01*
X125583000Y-107823000D01*
X125603000Y-107823000D01*
X125603000Y-107803000D01*
X125857000Y-107803000D01*
X125857000Y-107823000D01*
X127216217Y-107823000D01*
X127337358Y-107590974D01*
X127334709Y-107575209D01*
X127246006Y-107391066D01*
X127290839Y-107382148D01*
X127537401Y-107217401D01*
X128780000Y-105974802D01*
X128780000Y-107635198D01*
X128780000Y-107635198D01*
G37*
X128780000Y-107635198D02*
X127955198Y-108460000D01*
X127269578Y-108460000D01*
X127334709Y-108324791D01*
X127337358Y-108309026D01*
X127216217Y-108077000D01*
X125857000Y-108077000D01*
X125857000Y-108097000D01*
X125603000Y-108097000D01*
X125603000Y-108077000D01*
X125583000Y-108077000D01*
X125583000Y-107823000D01*
X125603000Y-107823000D01*
X125603000Y-107803000D01*
X125857000Y-107803000D01*
X125857000Y-107823000D01*
X127216217Y-107823000D01*
X127337358Y-107590974D01*
X127334709Y-107575209D01*
X127246006Y-107391066D01*
X127290839Y-107382148D01*
X127537401Y-107217401D01*
X128780000Y-105974802D01*
X128780000Y-107635198D01*
G36*
X125857000Y-105283000D02*
X125877000Y-105283000D01*
X125877000Y-105537000D01*
X125857000Y-105537000D01*
X125857000Y-105557000D01*
X125603000Y-105557000D01*
X125603000Y-105537000D01*
X125583000Y-105537000D01*
X125583000Y-105283000D01*
X125603000Y-105283000D01*
X125603000Y-105263000D01*
X125857000Y-105263000D01*
X125857000Y-105283000D01*
X125857000Y-105283000D01*
G37*
X125857000Y-105283000D02*
X125877000Y-105283000D01*
X125877000Y-105537000D01*
X125857000Y-105537000D01*
X125857000Y-105557000D01*
X125603000Y-105557000D01*
X125603000Y-105537000D01*
X125583000Y-105537000D01*
X125583000Y-105283000D01*
X125603000Y-105283000D01*
X125603000Y-105263000D01*
X125857000Y-105263000D01*
X125857000Y-105283000D01*
M02*
