M48
INCH,TZ
T1C0.016
T2C0.031
T3C0.040
T4C0.126
%
G90
G05
T1
X63500Y-50000
X63500Y-55500
X66000Y-45000
X66500Y-41500
X67000Y-56500
X67500Y-41500
X67500Y-43500
X67500Y-45000
X68000Y-52500
X69000Y-47000
X69500Y-48000
X70000Y-40500
X72000Y-51000
T2
X71516Y-37500
X72500Y-37500
T3
X62000Y-37000
X62000Y-38000
X62000Y-39000
X63000Y-37000
X63000Y-38000
X63000Y-39000
X63000Y-58000
X64000Y-37000
X64000Y-38000
X64000Y-39000
X64000Y-58000
X65000Y-37000
X65000Y-38000
X65000Y-39000
X65000Y-58000
X66000Y-37000
X66000Y-38000
X66000Y-39000
X67000Y-37000
X67000Y-38000
X67000Y-39000
X67500Y-58000
X68000Y-37000
X68000Y-38000
X68000Y-39000
X68500Y-58000
X69000Y-37000
X69000Y-38000
X69000Y-39000
X69500Y-58000
X70500Y-58000
X71500Y-58000
X72500Y-58000
T4
X62000Y-41000
X62000Y-56000
X72500Y-41000
X72500Y-56000
T0
M30
