G04 #@! TF.FileFunction,Legend,Top*
%FSLAX46Y46*%
G04 Gerber Fmt 4.6, Leading zero omitted, Abs format (unit mm)*
G04 Created by KiCad (PCBNEW 4.0.1-stable) date Wednesday, 10 February 2016 'pmt' 16:49:47*
%MOMM*%
G01*
G04 APERTURE LIST*
%ADD10C,0.100000*%
%ADD11C,0.150000*%
%ADD12C,0.200000*%
G04 APERTURE END LIST*
D10*
D11*
X186618571Y-131230476D02*
X186618571Y-131563810D01*
X187142381Y-131563810D02*
X186142381Y-131563810D01*
X186142381Y-131087619D01*
X187142381Y-130230476D02*
X187142381Y-130706667D01*
X186142381Y-130706667D01*
X186856667Y-129944762D02*
X186856667Y-129468571D01*
X187142381Y-130040000D02*
X186142381Y-129706667D01*
X187142381Y-129373333D01*
X187094762Y-129087619D02*
X187142381Y-128944762D01*
X187142381Y-128706666D01*
X187094762Y-128611428D01*
X187047143Y-128563809D01*
X186951905Y-128516190D01*
X186856667Y-128516190D01*
X186761429Y-128563809D01*
X186713810Y-128611428D01*
X186666190Y-128706666D01*
X186618571Y-128897143D01*
X186570952Y-128992381D01*
X186523333Y-129040000D01*
X186428095Y-129087619D01*
X186332857Y-129087619D01*
X186237619Y-129040000D01*
X186190000Y-128992381D01*
X186142381Y-128897143D01*
X186142381Y-128659047D01*
X186190000Y-128516190D01*
X187142381Y-128087619D02*
X186142381Y-128087619D01*
X186618571Y-128087619D02*
X186618571Y-127516190D01*
X187142381Y-127516190D02*
X186142381Y-127516190D01*
X187142381Y-137342381D02*
X186666190Y-137675715D01*
X187142381Y-137913810D02*
X186142381Y-137913810D01*
X186142381Y-137532857D01*
X186190000Y-137437619D01*
X186237619Y-137390000D01*
X186332857Y-137342381D01*
X186475714Y-137342381D01*
X186570952Y-137390000D01*
X186618571Y-137437619D01*
X186666190Y-137532857D01*
X186666190Y-137913810D01*
X186618571Y-136913810D02*
X186618571Y-136580476D01*
X187142381Y-136437619D02*
X187142381Y-136913810D01*
X186142381Y-136913810D01*
X186142381Y-136437619D01*
X187094762Y-136056667D02*
X187142381Y-135913810D01*
X187142381Y-135675714D01*
X187094762Y-135580476D01*
X187047143Y-135532857D01*
X186951905Y-135485238D01*
X186856667Y-135485238D01*
X186761429Y-135532857D01*
X186713810Y-135580476D01*
X186666190Y-135675714D01*
X186618571Y-135866191D01*
X186570952Y-135961429D01*
X186523333Y-136009048D01*
X186428095Y-136056667D01*
X186332857Y-136056667D01*
X186237619Y-136009048D01*
X186190000Y-135961429D01*
X186142381Y-135866191D01*
X186142381Y-135628095D01*
X186190000Y-135485238D01*
X186618571Y-135056667D02*
X186618571Y-134723333D01*
X187142381Y-134580476D02*
X187142381Y-135056667D01*
X186142381Y-135056667D01*
X186142381Y-134580476D01*
X186142381Y-134294762D02*
X186142381Y-133723333D01*
X187142381Y-134009048D02*
X186142381Y-134009048D01*
D12*
X175426667Y-92106667D02*
X175426667Y-91630476D01*
X175712381Y-92201905D02*
X174712381Y-91868572D01*
X175712381Y-91535238D01*
X173172381Y-91312857D02*
X173172381Y-91884286D01*
X173172381Y-91598572D02*
X172172381Y-91598572D01*
X172315238Y-91693810D01*
X172410476Y-91789048D01*
X172458095Y-91884286D01*
X172172381Y-90979524D02*
X172172381Y-90360476D01*
X172553333Y-90693810D01*
X172553333Y-90550952D01*
X172600952Y-90455714D01*
X172648571Y-90408095D01*
X172743810Y-90360476D01*
X172981905Y-90360476D01*
X173077143Y-90408095D01*
X173124762Y-90455714D01*
X173172381Y-90550952D01*
X173172381Y-90836667D01*
X173124762Y-90931905D01*
X173077143Y-90979524D01*
X170632381Y-91312857D02*
X170632381Y-91884286D01*
X170632381Y-91598572D02*
X169632381Y-91598572D01*
X169775238Y-91693810D01*
X169870476Y-91789048D01*
X169918095Y-91884286D01*
X169632381Y-90455714D02*
X169632381Y-90646191D01*
X169680000Y-90741429D01*
X169727619Y-90789048D01*
X169870476Y-90884286D01*
X170060952Y-90931905D01*
X170441905Y-90931905D01*
X170537143Y-90884286D01*
X170584762Y-90836667D01*
X170632381Y-90741429D01*
X170632381Y-90550952D01*
X170584762Y-90455714D01*
X170537143Y-90408095D01*
X170441905Y-90360476D01*
X170203810Y-90360476D01*
X170108571Y-90408095D01*
X170060952Y-90455714D01*
X170013333Y-90550952D01*
X170013333Y-90741429D01*
X170060952Y-90836667D01*
X170108571Y-90884286D01*
X170203810Y-90931905D01*
X168092381Y-91312857D02*
X168092381Y-91884286D01*
X168092381Y-91598572D02*
X167092381Y-91598572D01*
X167235238Y-91693810D01*
X167330476Y-91789048D01*
X167378095Y-91884286D01*
X167425714Y-90455714D02*
X168092381Y-90455714D01*
X167044762Y-90693810D02*
X167759048Y-90931905D01*
X167759048Y-90312857D01*
X165552381Y-91312857D02*
X165552381Y-91884286D01*
X165552381Y-91598572D02*
X164552381Y-91598572D01*
X164695238Y-91693810D01*
X164790476Y-91789048D01*
X164838095Y-91884286D01*
X164647619Y-90931905D02*
X164600000Y-90884286D01*
X164552381Y-90789048D01*
X164552381Y-90550952D01*
X164600000Y-90455714D01*
X164647619Y-90408095D01*
X164742857Y-90360476D01*
X164838095Y-90360476D01*
X164980952Y-90408095D01*
X165552381Y-90979524D01*
X165552381Y-90360476D01*
X162012381Y-91646191D02*
X162012381Y-91550952D01*
X162060000Y-91455714D01*
X162107619Y-91408095D01*
X162202857Y-91360476D01*
X162393333Y-91312857D01*
X162631429Y-91312857D01*
X162821905Y-91360476D01*
X162917143Y-91408095D01*
X162964762Y-91455714D01*
X163012381Y-91550952D01*
X163012381Y-91646191D01*
X162964762Y-91741429D01*
X162917143Y-91789048D01*
X162821905Y-91836667D01*
X162631429Y-91884286D01*
X162393333Y-91884286D01*
X162202857Y-91836667D01*
X162107619Y-91789048D01*
X162060000Y-91741429D01*
X162012381Y-91646191D01*
X162107619Y-90931905D02*
X162060000Y-90884286D01*
X162012381Y-90789048D01*
X162012381Y-90550952D01*
X162060000Y-90455714D01*
X162107619Y-90408095D01*
X162202857Y-90360476D01*
X162298095Y-90360476D01*
X162440952Y-90408095D01*
X163012381Y-90979524D01*
X163012381Y-90360476D01*
X159520000Y-92217619D02*
X159472381Y-92312857D01*
X159472381Y-92455714D01*
X159520000Y-92598572D01*
X159615238Y-92693810D01*
X159710476Y-92741429D01*
X159900952Y-92789048D01*
X160043810Y-92789048D01*
X160234286Y-92741429D01*
X160329524Y-92693810D01*
X160424762Y-92598572D01*
X160472381Y-92455714D01*
X160472381Y-92360476D01*
X160424762Y-92217619D01*
X160377143Y-92170000D01*
X160043810Y-92170000D01*
X160043810Y-92360476D01*
X159805714Y-91741429D02*
X160472381Y-91741429D01*
X159900952Y-91741429D02*
X159853333Y-91693810D01*
X159805714Y-91598572D01*
X159805714Y-91455714D01*
X159853333Y-91360476D01*
X159948571Y-91312857D01*
X160472381Y-91312857D01*
X160472381Y-90408095D02*
X159472381Y-90408095D01*
X160424762Y-90408095D02*
X160472381Y-90503333D01*
X160472381Y-90693810D01*
X160424762Y-90789048D01*
X160377143Y-90836667D01*
X160281905Y-90884286D01*
X159996190Y-90884286D01*
X159900952Y-90836667D01*
X159853333Y-90789048D01*
X159805714Y-90693810D01*
X159805714Y-90503333D01*
X159853333Y-90408095D01*
X156932381Y-92408095D02*
X156932381Y-91789047D01*
X157313333Y-92122381D01*
X157313333Y-91979523D01*
X157360952Y-91884285D01*
X157408571Y-91836666D01*
X157503810Y-91789047D01*
X157741905Y-91789047D01*
X157837143Y-91836666D01*
X157884762Y-91884285D01*
X157932381Y-91979523D01*
X157932381Y-92265238D01*
X157884762Y-92360476D01*
X157837143Y-92408095D01*
X157837143Y-91360476D02*
X157884762Y-91312857D01*
X157932381Y-91360476D01*
X157884762Y-91408095D01*
X157837143Y-91360476D01*
X157932381Y-91360476D01*
X156932381Y-90979524D02*
X156932381Y-90360476D01*
X157313333Y-90693810D01*
X157313333Y-90550952D01*
X157360952Y-90455714D01*
X157408571Y-90408095D01*
X157503810Y-90360476D01*
X157741905Y-90360476D01*
X157837143Y-90408095D01*
X157884762Y-90455714D01*
X157932381Y-90550952D01*
X157932381Y-90836667D01*
X157884762Y-90931905D01*
X157837143Y-90979524D01*
D11*
X173918880Y-142300960D02*
X173918880Y-137099040D01*
X171521120Y-137099040D02*
X171521120Y-142300960D01*
X170421300Y-144299940D02*
X171521120Y-144299940D01*
X170921680Y-144899380D02*
X170921680Y-143700500D01*
X171521120Y-143695420D02*
X173918880Y-143695420D01*
X159948880Y-132140960D02*
X159948880Y-126939040D01*
X157551120Y-126939040D02*
X157551120Y-132140960D01*
X156451300Y-134139940D02*
X157551120Y-134139940D01*
X156951680Y-134739380D02*
X156951680Y-133540500D01*
X157551120Y-133535420D02*
X159948880Y-133535420D01*
X170575000Y-130140000D02*
X170575000Y-128940000D01*
X172325000Y-128940000D02*
X172325000Y-130140000D01*
X161290000Y-148590000D02*
X166370000Y-148590000D01*
X166370000Y-148590000D02*
X166370000Y-146050000D01*
X166370000Y-146050000D02*
X161290000Y-146050000D01*
X158470000Y-145770000D02*
X160020000Y-145770000D01*
X161290000Y-146050000D02*
X161290000Y-148590000D01*
X160020000Y-148870000D02*
X158470000Y-148870000D01*
X158470000Y-148870000D02*
X158470000Y-145770000D01*
X172720000Y-146050000D02*
X185420000Y-146050000D01*
X185420000Y-146050000D02*
X185420000Y-148590000D01*
X185420000Y-148590000D02*
X172720000Y-148590000D01*
X169900000Y-145770000D02*
X171450000Y-145770000D01*
X172720000Y-146050000D02*
X172720000Y-148590000D01*
X171450000Y-148870000D02*
X169900000Y-148870000D01*
X169900000Y-148870000D02*
X169900000Y-145770000D01*
X158750000Y-92710000D02*
X176530000Y-92710000D01*
X176530000Y-92710000D02*
X176530000Y-95250000D01*
X176530000Y-95250000D02*
X158750000Y-95250000D01*
X155930000Y-92430000D02*
X157480000Y-92430000D01*
X158750000Y-92710000D02*
X158750000Y-95250000D01*
X157480000Y-95530000D02*
X155930000Y-95530000D01*
X155930000Y-95530000D02*
X155930000Y-92430000D01*
X158750000Y-97790000D02*
X176530000Y-97790000D01*
X176530000Y-97790000D02*
X176530000Y-100330000D01*
X176530000Y-100330000D02*
X158750000Y-100330000D01*
X155930000Y-97510000D02*
X157480000Y-97510000D01*
X158750000Y-97790000D02*
X158750000Y-100330000D01*
X157480000Y-100610000D02*
X155930000Y-100610000D01*
X155930000Y-100610000D02*
X155930000Y-97510000D01*
X158750000Y-95250000D02*
X176530000Y-95250000D01*
X176530000Y-95250000D02*
X176530000Y-97790000D01*
X176530000Y-97790000D02*
X158750000Y-97790000D01*
X155930000Y-94970000D02*
X157480000Y-94970000D01*
X158750000Y-95250000D02*
X158750000Y-97790000D01*
X157480000Y-98070000D02*
X155930000Y-98070000D01*
X155930000Y-98070000D02*
X155930000Y-94970000D01*
X175760000Y-104815000D02*
X174760000Y-104815000D01*
X174760000Y-103465000D02*
X175760000Y-103465000D01*
X164330000Y-104815000D02*
X163330000Y-104815000D01*
X163330000Y-103465000D02*
X164330000Y-103465000D01*
X178300000Y-142915000D02*
X177300000Y-142915000D01*
X177300000Y-141565000D02*
X178300000Y-141565000D01*
X174665000Y-129040000D02*
X174665000Y-130040000D01*
X173315000Y-130040000D02*
X173315000Y-129040000D01*
X165600000Y-132755000D02*
X164600000Y-132755000D01*
X164600000Y-131405000D02*
X165600000Y-131405000D01*
X164600000Y-126325000D02*
X165600000Y-126325000D01*
X165600000Y-127675000D02*
X164600000Y-127675000D01*
X183340000Y-132890000D02*
X183340000Y-133090000D01*
X183340000Y-138890000D02*
X183340000Y-138690000D01*
X177340000Y-138890000D02*
X177340000Y-138690000D01*
X177340000Y-132890000D02*
X177340000Y-133090000D01*
X177340000Y-134690000D02*
X177340000Y-137090000D01*
X183340000Y-134690000D02*
X183340000Y-137090000D01*
X183340000Y-132890000D02*
X177340000Y-132890000D01*
X177340000Y-138890000D02*
X183340000Y-138890000D01*
X182040000Y-135890000D02*
G75*
G03X182040000Y-135890000I-1700000J0D01*
G01*
X177340000Y-132540000D02*
X177340000Y-132340000D01*
X177340000Y-126540000D02*
X177340000Y-126740000D01*
X183340000Y-126540000D02*
X183340000Y-126740000D01*
X183340000Y-132540000D02*
X183340000Y-132340000D01*
X183340000Y-130740000D02*
X183340000Y-128340000D01*
X177340000Y-130740000D02*
X177340000Y-128340000D01*
X177340000Y-132540000D02*
X183340000Y-132540000D01*
X183340000Y-126540000D02*
X177340000Y-126540000D01*
X182040000Y-129540000D02*
G75*
G03X182040000Y-129540000I-1700000J0D01*
G01*
X161544000Y-141224000D02*
X161544000Y-144272000D01*
X161544000Y-144272000D02*
X168656000Y-144272000D01*
X168656000Y-144272000D02*
X168656000Y-141224000D01*
X161544000Y-138176000D02*
X161544000Y-137414000D01*
X161544000Y-137414000D02*
X163068000Y-135128000D01*
X163068000Y-135128000D02*
X167132000Y-135128000D01*
X167132000Y-135128000D02*
X168656000Y-137414000D01*
X168656000Y-137414000D02*
X168656000Y-138176000D01*
X186436000Y-104140000D02*
G75*
G03X186436000Y-104140000I-2286000J0D01*
G01*
X159766000Y-104140000D02*
G75*
G03X159766000Y-104140000I-2286000J0D01*
G01*
X186436000Y-142240000D02*
G75*
G03X186436000Y-142240000I-2286000J0D01*
G01*
X159766000Y-142240000D02*
G75*
G03X159766000Y-142240000I-2286000J0D01*
G01*
X182825000Y-98999000D02*
X182825000Y-91501000D01*
X182685000Y-98994000D02*
X182685000Y-91506000D01*
X182545000Y-98983000D02*
X182545000Y-95696000D01*
X182545000Y-94804000D02*
X182545000Y-91517000D01*
X182405000Y-98967000D02*
X182405000Y-95906000D01*
X182405000Y-94594000D02*
X182405000Y-91533000D01*
X182265000Y-98946000D02*
X182265000Y-96039000D01*
X182265000Y-94461000D02*
X182265000Y-91554000D01*
X182125000Y-98919000D02*
X182125000Y-96130000D01*
X182125000Y-94370000D02*
X182125000Y-91581000D01*
X181985000Y-98887000D02*
X181985000Y-96192000D01*
X181985000Y-94308000D02*
X181985000Y-91613000D01*
X181845000Y-98849000D02*
X181845000Y-96231000D01*
X181845000Y-94269000D02*
X181845000Y-91651000D01*
X181705000Y-98805000D02*
X181705000Y-96248000D01*
X181705000Y-94252000D02*
X181705000Y-91695000D01*
X181565000Y-98754000D02*
X181565000Y-96246000D01*
X181565000Y-94254000D02*
X181565000Y-91746000D01*
X181425000Y-98698000D02*
X181425000Y-96224000D01*
X181425000Y-94276000D02*
X181425000Y-91802000D01*
X181285000Y-98634000D02*
X181285000Y-96181000D01*
X181285000Y-94319000D02*
X181285000Y-91866000D01*
X181145000Y-98564000D02*
X181145000Y-96113000D01*
X181145000Y-94387000D02*
X181145000Y-91936000D01*
X181005000Y-98486000D02*
X181005000Y-96014000D01*
X181005000Y-94486000D02*
X181005000Y-92014000D01*
X180865000Y-98400000D02*
X180865000Y-95869000D01*
X180865000Y-94631000D02*
X180865000Y-92100000D01*
X180725000Y-98305000D02*
X180725000Y-95630000D01*
X180725000Y-94870000D02*
X180725000Y-92195000D01*
X180585000Y-98200000D02*
X180585000Y-92300000D01*
X180445000Y-98085000D02*
X180445000Y-92415000D01*
X180305000Y-97957000D02*
X180305000Y-92543000D01*
X180165000Y-97816000D02*
X180165000Y-92684000D01*
X180025000Y-97658000D02*
X180025000Y-92842000D01*
X179885000Y-97480000D02*
X179885000Y-93020000D01*
X179745000Y-97277000D02*
X179745000Y-93223000D01*
X179605000Y-97040000D02*
X179605000Y-93460000D01*
X179465000Y-96754000D02*
X179465000Y-93746000D01*
X179325000Y-96382000D02*
X179325000Y-94118000D01*
X179185000Y-95761000D02*
X179185000Y-94739000D01*
X182650000Y-95250000D02*
G75*
G03X182650000Y-95250000I-1000000J0D01*
G01*
X186687500Y-95250000D02*
G75*
G03X186687500Y-95250000I-3787500J0D01*
G01*
X170537143Y-139866666D02*
X170584762Y-139914285D01*
X170632381Y-140057142D01*
X170632381Y-140152380D01*
X170584762Y-140295238D01*
X170489524Y-140390476D01*
X170394286Y-140438095D01*
X170203810Y-140485714D01*
X170060952Y-140485714D01*
X169870476Y-140438095D01*
X169775238Y-140390476D01*
X169680000Y-140295238D01*
X169632381Y-140152380D01*
X169632381Y-140057142D01*
X169680000Y-139914285D01*
X169727619Y-139866666D01*
X170632381Y-138914285D02*
X170632381Y-139485714D01*
X170632381Y-139200000D02*
X169632381Y-139200000D01*
X169775238Y-139295238D01*
X169870476Y-139390476D01*
X169918095Y-139485714D01*
X170990569Y-144680892D02*
X170990569Y-143918987D01*
X171371521Y-144299939D02*
X170609616Y-144299939D01*
X156567143Y-129706666D02*
X156614762Y-129754285D01*
X156662381Y-129897142D01*
X156662381Y-129992380D01*
X156614762Y-130135238D01*
X156519524Y-130230476D01*
X156424286Y-130278095D01*
X156233810Y-130325714D01*
X156090952Y-130325714D01*
X155900476Y-130278095D01*
X155805238Y-130230476D01*
X155710000Y-130135238D01*
X155662381Y-129992380D01*
X155662381Y-129897142D01*
X155710000Y-129754285D01*
X155757619Y-129706666D01*
X155757619Y-129325714D02*
X155710000Y-129278095D01*
X155662381Y-129182857D01*
X155662381Y-128944761D01*
X155710000Y-128849523D01*
X155757619Y-128801904D01*
X155852857Y-128754285D01*
X155948095Y-128754285D01*
X156090952Y-128801904D01*
X156662381Y-129373333D01*
X156662381Y-128754285D01*
X157020569Y-134520892D02*
X157020569Y-133758987D01*
X157401521Y-134139939D02*
X156639616Y-134139939D01*
X171902381Y-134088095D02*
X170902381Y-134088095D01*
X170902381Y-133850000D01*
X170950000Y-133707142D01*
X171045238Y-133611904D01*
X171140476Y-133564285D01*
X171330952Y-133516666D01*
X171473810Y-133516666D01*
X171664286Y-133564285D01*
X171759524Y-133611904D01*
X171854762Y-133707142D01*
X171902381Y-133850000D01*
X171902381Y-134088095D01*
X171902381Y-132564285D02*
X171902381Y-133135714D01*
X171902381Y-132850000D02*
X170902381Y-132850000D01*
X171045238Y-132945238D01*
X171140476Y-133040476D01*
X171188095Y-133135714D01*
X155372381Y-148058095D02*
X154372381Y-148058095D01*
X154372381Y-147677142D01*
X154420000Y-147581904D01*
X154467619Y-147534285D01*
X154562857Y-147486666D01*
X154705714Y-147486666D01*
X154800952Y-147534285D01*
X154848571Y-147581904D01*
X154896190Y-147677142D01*
X154896190Y-148058095D01*
X155372381Y-146534285D02*
X155372381Y-147105714D01*
X155372381Y-146820000D02*
X154372381Y-146820000D01*
X154515238Y-146915238D01*
X154610476Y-147010476D01*
X154658095Y-147105714D01*
X187142381Y-148058095D02*
X186142381Y-148058095D01*
X186142381Y-147677142D01*
X186190000Y-147581904D01*
X186237619Y-147534285D01*
X186332857Y-147486666D01*
X186475714Y-147486666D01*
X186570952Y-147534285D01*
X186618571Y-147581904D01*
X186666190Y-147677142D01*
X186666190Y-148058095D01*
X186237619Y-147105714D02*
X186190000Y-147058095D01*
X186142381Y-146962857D01*
X186142381Y-146724761D01*
X186190000Y-146629523D01*
X186237619Y-146581904D01*
X186332857Y-146534285D01*
X186428095Y-146534285D01*
X186570952Y-146581904D01*
X187142381Y-147153333D01*
X187142381Y-146534285D01*
X168802381Y-148915238D02*
X168326190Y-149248572D01*
X168802381Y-149486667D02*
X167802381Y-149486667D01*
X167802381Y-149105714D01*
X167850000Y-149010476D01*
X167897619Y-148962857D01*
X167992857Y-148915238D01*
X168135714Y-148915238D01*
X168230952Y-148962857D01*
X168278571Y-149010476D01*
X168326190Y-149105714D01*
X168326190Y-149486667D01*
X168754762Y-148534286D02*
X168802381Y-148391429D01*
X168802381Y-148153333D01*
X168754762Y-148058095D01*
X168707143Y-148010476D01*
X168611905Y-147962857D01*
X168516667Y-147962857D01*
X168421429Y-148010476D01*
X168373810Y-148058095D01*
X168326190Y-148153333D01*
X168278571Y-148343810D01*
X168230952Y-148439048D01*
X168183333Y-148486667D01*
X168088095Y-148534286D01*
X167992857Y-148534286D01*
X167897619Y-148486667D01*
X167850000Y-148439048D01*
X167802381Y-148343810D01*
X167802381Y-148105714D01*
X167850000Y-147962857D01*
X167897619Y-147581905D02*
X167850000Y-147534286D01*
X167802381Y-147439048D01*
X167802381Y-147200952D01*
X167850000Y-147105714D01*
X167897619Y-147058095D01*
X167992857Y-147010476D01*
X168088095Y-147010476D01*
X168230952Y-147058095D01*
X168802381Y-147629524D01*
X168802381Y-147010476D01*
X167802381Y-146677143D02*
X167802381Y-146058095D01*
X168183333Y-146391429D01*
X168183333Y-146248571D01*
X168230952Y-146153333D01*
X168278571Y-146105714D01*
X168373810Y-146058095D01*
X168611905Y-146058095D01*
X168707143Y-146105714D01*
X168754762Y-146153333D01*
X168802381Y-146248571D01*
X168802381Y-146534286D01*
X168754762Y-146629524D01*
X168707143Y-146677143D01*
X167897619Y-145677143D02*
X167850000Y-145629524D01*
X167802381Y-145534286D01*
X167802381Y-145296190D01*
X167850000Y-145200952D01*
X167897619Y-145153333D01*
X167992857Y-145105714D01*
X168088095Y-145105714D01*
X168230952Y-145153333D01*
X168802381Y-145724762D01*
X168802381Y-145105714D01*
X178252381Y-94718095D02*
X177252381Y-94718095D01*
X177252381Y-94337142D01*
X177300000Y-94241904D01*
X177347619Y-94194285D01*
X177442857Y-94146666D01*
X177585714Y-94146666D01*
X177680952Y-94194285D01*
X177728571Y-94241904D01*
X177776190Y-94337142D01*
X177776190Y-94718095D01*
X177252381Y-93813333D02*
X177252381Y-93194285D01*
X177633333Y-93527619D01*
X177633333Y-93384761D01*
X177680952Y-93289523D01*
X177728571Y-93241904D01*
X177823810Y-93194285D01*
X178061905Y-93194285D01*
X178157143Y-93241904D01*
X178204762Y-93289523D01*
X178252381Y-93384761D01*
X178252381Y-93670476D01*
X178204762Y-93765714D01*
X178157143Y-93813333D01*
X154440000Y-93709999D02*
X154392381Y-93805237D01*
X154392381Y-93948094D01*
X154440000Y-94090952D01*
X154535238Y-94186190D01*
X154630476Y-94233809D01*
X154820952Y-94281428D01*
X154963810Y-94281428D01*
X155154286Y-94233809D01*
X155249524Y-94186190D01*
X155344762Y-94090952D01*
X155392381Y-93948094D01*
X155392381Y-93852856D01*
X155344762Y-93709999D01*
X155297143Y-93662380D01*
X154963810Y-93662380D01*
X154963810Y-93852856D01*
X155392381Y-93233809D02*
X154392381Y-93233809D01*
X154392381Y-92852856D01*
X154440000Y-92757618D01*
X154487619Y-92709999D01*
X154582857Y-92662380D01*
X154725714Y-92662380D01*
X154820952Y-92709999D01*
X154868571Y-92757618D01*
X154916190Y-92852856D01*
X154916190Y-93233809D01*
X155392381Y-92233809D02*
X154392381Y-92233809D01*
X154392381Y-91567143D02*
X154392381Y-91376666D01*
X154440000Y-91281428D01*
X154535238Y-91186190D01*
X154725714Y-91138571D01*
X155059048Y-91138571D01*
X155249524Y-91186190D01*
X155344762Y-91281428D01*
X155392381Y-91376666D01*
X155392381Y-91567143D01*
X155344762Y-91662381D01*
X155249524Y-91757619D01*
X155059048Y-91805238D01*
X154725714Y-91805238D01*
X154535238Y-91757619D01*
X154440000Y-91662381D01*
X154392381Y-91567143D01*
X178252381Y-99798095D02*
X177252381Y-99798095D01*
X177252381Y-99417142D01*
X177300000Y-99321904D01*
X177347619Y-99274285D01*
X177442857Y-99226666D01*
X177585714Y-99226666D01*
X177680952Y-99274285D01*
X177728571Y-99321904D01*
X177776190Y-99417142D01*
X177776190Y-99798095D01*
X177585714Y-98369523D02*
X178252381Y-98369523D01*
X177204762Y-98607619D02*
X177919048Y-98845714D01*
X177919048Y-98226666D01*
X154392381Y-101806190D02*
X154392381Y-101187142D01*
X154773333Y-101520476D01*
X154773333Y-101377618D01*
X154820952Y-101282380D01*
X154868571Y-101234761D01*
X154963810Y-101187142D01*
X155201905Y-101187142D01*
X155297143Y-101234761D01*
X155344762Y-101282380D01*
X155392381Y-101377618D01*
X155392381Y-101663333D01*
X155344762Y-101758571D01*
X155297143Y-101806190D01*
X155297143Y-100758571D02*
X155344762Y-100710952D01*
X155392381Y-100758571D01*
X155344762Y-100806190D01*
X155297143Y-100758571D01*
X155392381Y-100758571D01*
X154392381Y-100377619D02*
X154392381Y-99758571D01*
X154773333Y-100091905D01*
X154773333Y-99949047D01*
X154820952Y-99853809D01*
X154868571Y-99806190D01*
X154963810Y-99758571D01*
X155201905Y-99758571D01*
X155297143Y-99806190D01*
X155344762Y-99853809D01*
X155392381Y-99949047D01*
X155392381Y-100234762D01*
X155344762Y-100330000D01*
X155297143Y-100377619D01*
X154392381Y-99472857D02*
X155392381Y-99139524D01*
X154392381Y-98806190D01*
X178252381Y-97258095D02*
X177252381Y-97258095D01*
X177252381Y-96877142D01*
X177300000Y-96781904D01*
X177347619Y-96734285D01*
X177442857Y-96686666D01*
X177585714Y-96686666D01*
X177680952Y-96734285D01*
X177728571Y-96781904D01*
X177776190Y-96877142D01*
X177776190Y-97258095D01*
X177252381Y-95781904D02*
X177252381Y-96258095D01*
X177728571Y-96305714D01*
X177680952Y-96258095D01*
X177633333Y-96162857D01*
X177633333Y-95924761D01*
X177680952Y-95829523D01*
X177728571Y-95781904D01*
X177823810Y-95734285D01*
X178061905Y-95734285D01*
X178157143Y-95781904D01*
X178204762Y-95829523D01*
X178252381Y-95924761D01*
X178252381Y-96162857D01*
X178204762Y-96258095D01*
X178157143Y-96305714D01*
X154440000Y-97162857D02*
X154392381Y-97258095D01*
X154392381Y-97400952D01*
X154440000Y-97543810D01*
X154535238Y-97639048D01*
X154630476Y-97686667D01*
X154820952Y-97734286D01*
X154963810Y-97734286D01*
X155154286Y-97686667D01*
X155249524Y-97639048D01*
X155344762Y-97543810D01*
X155392381Y-97400952D01*
X155392381Y-97305714D01*
X155344762Y-97162857D01*
X155297143Y-97115238D01*
X154963810Y-97115238D01*
X154963810Y-97305714D01*
X154725714Y-96686667D02*
X155392381Y-96686667D01*
X154820952Y-96686667D02*
X154773333Y-96639048D01*
X154725714Y-96543810D01*
X154725714Y-96400952D01*
X154773333Y-96305714D01*
X154868571Y-96258095D01*
X155392381Y-96258095D01*
X155392381Y-95353333D02*
X154392381Y-95353333D01*
X155344762Y-95353333D02*
X155392381Y-95448571D01*
X155392381Y-95639048D01*
X155344762Y-95734286D01*
X155297143Y-95781905D01*
X155201905Y-95829524D01*
X154916190Y-95829524D01*
X154820952Y-95781905D01*
X154773333Y-95734286D01*
X154725714Y-95639048D01*
X154725714Y-95448571D01*
X154773333Y-95353333D01*
X175093334Y-102692381D02*
X174760000Y-102216190D01*
X174521905Y-102692381D02*
X174521905Y-101692381D01*
X174902858Y-101692381D01*
X174998096Y-101740000D01*
X175045715Y-101787619D01*
X175093334Y-101882857D01*
X175093334Y-102025714D01*
X175045715Y-102120952D01*
X174998096Y-102168571D01*
X174902858Y-102216190D01*
X174521905Y-102216190D01*
X176045715Y-102692381D02*
X175474286Y-102692381D01*
X175760000Y-102692381D02*
X175760000Y-101692381D01*
X175664762Y-101835238D01*
X175569524Y-101930476D01*
X175474286Y-101978095D01*
X163663334Y-102692381D02*
X163330000Y-102216190D01*
X163091905Y-102692381D02*
X163091905Y-101692381D01*
X163472858Y-101692381D01*
X163568096Y-101740000D01*
X163615715Y-101787619D01*
X163663334Y-101882857D01*
X163663334Y-102025714D01*
X163615715Y-102120952D01*
X163568096Y-102168571D01*
X163472858Y-102216190D01*
X163091905Y-102216190D01*
X164044286Y-101787619D02*
X164091905Y-101740000D01*
X164187143Y-101692381D01*
X164425239Y-101692381D01*
X164520477Y-101740000D01*
X164568096Y-101787619D01*
X164615715Y-101882857D01*
X164615715Y-101978095D01*
X164568096Y-102120952D01*
X163996667Y-102692381D01*
X164615715Y-102692381D01*
X177633334Y-140792381D02*
X177300000Y-140316190D01*
X177061905Y-140792381D02*
X177061905Y-139792381D01*
X177442858Y-139792381D01*
X177538096Y-139840000D01*
X177585715Y-139887619D01*
X177633334Y-139982857D01*
X177633334Y-140125714D01*
X177585715Y-140220952D01*
X177538096Y-140268571D01*
X177442858Y-140316190D01*
X177061905Y-140316190D01*
X177966667Y-139792381D02*
X178585715Y-139792381D01*
X178252381Y-140173333D01*
X178395239Y-140173333D01*
X178490477Y-140220952D01*
X178538096Y-140268571D01*
X178585715Y-140363810D01*
X178585715Y-140601905D01*
X178538096Y-140697143D01*
X178490477Y-140744762D01*
X178395239Y-140792381D01*
X178109524Y-140792381D01*
X178014286Y-140744762D01*
X177966667Y-140697143D01*
X174442381Y-133516666D02*
X173966190Y-133850000D01*
X174442381Y-134088095D02*
X173442381Y-134088095D01*
X173442381Y-133707142D01*
X173490000Y-133611904D01*
X173537619Y-133564285D01*
X173632857Y-133516666D01*
X173775714Y-133516666D01*
X173870952Y-133564285D01*
X173918571Y-133611904D01*
X173966190Y-133707142D01*
X173966190Y-134088095D01*
X173775714Y-132659523D02*
X174442381Y-132659523D01*
X173394762Y-132897619D02*
X174109048Y-133135714D01*
X174109048Y-132516666D01*
X164933334Y-130632381D02*
X164600000Y-130156190D01*
X164361905Y-130632381D02*
X164361905Y-129632381D01*
X164742858Y-129632381D01*
X164838096Y-129680000D01*
X164885715Y-129727619D01*
X164933334Y-129822857D01*
X164933334Y-129965714D01*
X164885715Y-130060952D01*
X164838096Y-130108571D01*
X164742858Y-130156190D01*
X164361905Y-130156190D01*
X165838096Y-129632381D02*
X165361905Y-129632381D01*
X165314286Y-130108571D01*
X165361905Y-130060952D01*
X165457143Y-130013333D01*
X165695239Y-130013333D01*
X165790477Y-130060952D01*
X165838096Y-130108571D01*
X165885715Y-130203810D01*
X165885715Y-130441905D01*
X165838096Y-130537143D01*
X165790477Y-130584762D01*
X165695239Y-130632381D01*
X165457143Y-130632381D01*
X165361905Y-130584762D01*
X165314286Y-130537143D01*
X168743334Y-127452381D02*
X168410000Y-126976190D01*
X168171905Y-127452381D02*
X168171905Y-126452381D01*
X168552858Y-126452381D01*
X168648096Y-126500000D01*
X168695715Y-126547619D01*
X168743334Y-126642857D01*
X168743334Y-126785714D01*
X168695715Y-126880952D01*
X168648096Y-126928571D01*
X168552858Y-126976190D01*
X168171905Y-126976190D01*
X169600477Y-126452381D02*
X169410000Y-126452381D01*
X169314762Y-126500000D01*
X169267143Y-126547619D01*
X169171905Y-126690476D01*
X169124286Y-126880952D01*
X169124286Y-127261905D01*
X169171905Y-127357143D01*
X169219524Y-127404762D01*
X169314762Y-127452381D01*
X169505239Y-127452381D01*
X169600477Y-127404762D01*
X169648096Y-127357143D01*
X169695715Y-127261905D01*
X169695715Y-127023810D01*
X169648096Y-126928571D01*
X169600477Y-126880952D01*
X169505239Y-126833333D01*
X169314762Y-126833333D01*
X169219524Y-126880952D01*
X169171905Y-126928571D01*
X169124286Y-127023810D01*
X180744762Y-141033333D02*
X180792381Y-140890476D01*
X180792381Y-140652380D01*
X180744762Y-140557142D01*
X180697143Y-140509523D01*
X180601905Y-140461904D01*
X180506667Y-140461904D01*
X180411429Y-140509523D01*
X180363810Y-140557142D01*
X180316190Y-140652380D01*
X180268571Y-140842857D01*
X180220952Y-140938095D01*
X180173333Y-140985714D01*
X180078095Y-141033333D01*
X179982857Y-141033333D01*
X179887619Y-140985714D01*
X179840000Y-140938095D01*
X179792381Y-140842857D01*
X179792381Y-140604761D01*
X179840000Y-140461904D01*
X179792381Y-140128571D02*
X180792381Y-139890476D01*
X180078095Y-139699999D01*
X180792381Y-139509523D01*
X179792381Y-139271428D01*
X180792381Y-138366666D02*
X180792381Y-138938095D01*
X180792381Y-138652381D02*
X179792381Y-138652381D01*
X179935238Y-138747619D01*
X180030476Y-138842857D01*
X180078095Y-138938095D01*
X180744762Y-127063333D02*
X180792381Y-126920476D01*
X180792381Y-126682380D01*
X180744762Y-126587142D01*
X180697143Y-126539523D01*
X180601905Y-126491904D01*
X180506667Y-126491904D01*
X180411429Y-126539523D01*
X180363810Y-126587142D01*
X180316190Y-126682380D01*
X180268571Y-126872857D01*
X180220952Y-126968095D01*
X180173333Y-127015714D01*
X180078095Y-127063333D01*
X179982857Y-127063333D01*
X179887619Y-127015714D01*
X179840000Y-126968095D01*
X179792381Y-126872857D01*
X179792381Y-126634761D01*
X179840000Y-126491904D01*
X179792381Y-126158571D02*
X180792381Y-125920476D01*
X180078095Y-125729999D01*
X180792381Y-125539523D01*
X179792381Y-125301428D01*
X179887619Y-124968095D02*
X179840000Y-124920476D01*
X179792381Y-124825238D01*
X179792381Y-124587142D01*
X179840000Y-124491904D01*
X179887619Y-124444285D01*
X179982857Y-124396666D01*
X180078095Y-124396666D01*
X180220952Y-124444285D01*
X180792381Y-125015714D01*
X180792381Y-124396666D01*
X164338095Y-138390381D02*
X164338095Y-139199905D01*
X164385714Y-139295143D01*
X164433333Y-139342762D01*
X164528571Y-139390381D01*
X164719048Y-139390381D01*
X164814286Y-139342762D01*
X164861905Y-139295143D01*
X164909524Y-139199905D01*
X164909524Y-138390381D01*
X165909524Y-139390381D02*
X165338095Y-139390381D01*
X165623809Y-139390381D02*
X165623809Y-138390381D01*
X165528571Y-138533238D01*
X165433333Y-138628476D01*
X165338095Y-138676095D01*
X173442381Y-116331905D02*
X174251905Y-116331905D01*
X174347143Y-116284286D01*
X174394762Y-116236667D01*
X174442381Y-116141429D01*
X174442381Y-115950952D01*
X174394762Y-115855714D01*
X174347143Y-115808095D01*
X174251905Y-115760476D01*
X173442381Y-115760476D01*
X173537619Y-115331905D02*
X173490000Y-115284286D01*
X173442381Y-115189048D01*
X173442381Y-114950952D01*
X173490000Y-114855714D01*
X173537619Y-114808095D01*
X173632857Y-114760476D01*
X173728095Y-114760476D01*
X173870952Y-114808095D01*
X174442381Y-115379524D01*
X174442381Y-114760476D01*
X180173334Y-100687143D02*
X180125715Y-100734762D01*
X179982858Y-100782381D01*
X179887620Y-100782381D01*
X179744762Y-100734762D01*
X179649524Y-100639524D01*
X179601905Y-100544286D01*
X179554286Y-100353810D01*
X179554286Y-100210952D01*
X179601905Y-100020476D01*
X179649524Y-99925238D01*
X179744762Y-99830000D01*
X179887620Y-99782381D01*
X179982858Y-99782381D01*
X180125715Y-99830000D01*
X180173334Y-99877619D01*
X180506667Y-99782381D02*
X181125715Y-99782381D01*
X180792381Y-100163333D01*
X180935239Y-100163333D01*
X181030477Y-100210952D01*
X181078096Y-100258571D01*
X181125715Y-100353810D01*
X181125715Y-100591905D01*
X181078096Y-100687143D01*
X181030477Y-100734762D01*
X180935239Y-100782381D01*
X180649524Y-100782381D01*
X180554286Y-100734762D01*
X180506667Y-100687143D01*
M02*
