G04 #@! TF.FileFunction,Soldermask,Top*
%FSLAX46Y46*%
G04 Gerber Fmt 4.6, Leading zero omitted, Abs format (unit mm)*
G04 Created by KiCad (PCBNEW 4.0.1-stable) date Wednesday, 10 February 2016 'pmt' 16:49:47*
%MOMM*%
G01*
G04 APERTURE LIST*
%ADD10C,0.100000*%
%ADD11R,1.901140X3.399740*%
%ADD12R,1.700000X1.900000*%
%ADD13R,2.127200X2.432000*%
%ADD14O,2.127200X2.432000*%
%ADD15R,1.600000X1.300000*%
%ADD16R,1.300000X1.600000*%
%ADD17R,3.150000X1.400000*%
%ADD18R,4.057600X2.432000*%
%ADD19R,1.416000X2.432000*%
%ADD20O,2.800000X1.500000*%
%ADD21R,1.500000X2.800000*%
%ADD22O,1.500000X2.800000*%
%ADD23C,5.400000*%
%ADD24C,1.700000*%
%ADD25R,1.700000X1.700000*%
G04 APERTURE END LIST*
D10*
D11*
X172720000Y-137701020D03*
X172720000Y-141698980D03*
X158750000Y-127541020D03*
X158750000Y-131538980D03*
D12*
X171450000Y-128190000D03*
X171450000Y-130890000D03*
D13*
X160020000Y-147320000D03*
D14*
X162560000Y-147320000D03*
X165100000Y-147320000D03*
D13*
X171450000Y-147320000D03*
D14*
X173990000Y-147320000D03*
X176530000Y-147320000D03*
X179070000Y-147320000D03*
X181610000Y-147320000D03*
X184150000Y-147320000D03*
D13*
X157480000Y-93980000D03*
D14*
X160020000Y-93980000D03*
X162560000Y-93980000D03*
X165100000Y-93980000D03*
X167640000Y-93980000D03*
X170180000Y-93980000D03*
X172720000Y-93980000D03*
X175260000Y-93980000D03*
D13*
X157480000Y-99060000D03*
D14*
X160020000Y-99060000D03*
X162560000Y-99060000D03*
X165100000Y-99060000D03*
X167640000Y-99060000D03*
X170180000Y-99060000D03*
X172720000Y-99060000D03*
X175260000Y-99060000D03*
D13*
X157480000Y-96520000D03*
D14*
X160020000Y-96520000D03*
X162560000Y-96520000D03*
X165100000Y-96520000D03*
X167640000Y-96520000D03*
X170180000Y-96520000D03*
X172720000Y-96520000D03*
X175260000Y-96520000D03*
D15*
X174160000Y-104140000D03*
X176360000Y-104140000D03*
X162730000Y-104140000D03*
X164930000Y-104140000D03*
X176700000Y-142240000D03*
X178900000Y-142240000D03*
D16*
X173990000Y-130640000D03*
X173990000Y-128440000D03*
D15*
X164000000Y-132080000D03*
X166200000Y-132080000D03*
X166200000Y-127000000D03*
X164000000Y-127000000D03*
D17*
X183215000Y-133890000D03*
X177465000Y-133890000D03*
X177465000Y-137890000D03*
X183215000Y-137890000D03*
X177465000Y-131540000D03*
X183215000Y-131540000D03*
X183215000Y-127540000D03*
X177465000Y-127540000D03*
D18*
X165100000Y-136398000D03*
D19*
X165100000Y-143002000D03*
X167386000Y-143002000D03*
X162814000Y-143002000D03*
D20*
X162050000Y-110940000D03*
X162050000Y-112940000D03*
X162050000Y-114940000D03*
X162050000Y-116940000D03*
X162050000Y-118940000D03*
X162050000Y-120940000D03*
D21*
X177800000Y-107950000D03*
D22*
X175800000Y-107950000D03*
X173800000Y-107950000D03*
X171800000Y-107950000D03*
X169800000Y-107950000D03*
X167800000Y-107950000D03*
X165800000Y-107950000D03*
X163800000Y-107950000D03*
X163800000Y-123950000D03*
X165800000Y-123950000D03*
X167800000Y-123950000D03*
X169800000Y-123950000D03*
X171800000Y-123950000D03*
X173800000Y-123950000D03*
X175800000Y-123950000D03*
X177800000Y-123950000D03*
D23*
X184150000Y-104140000D03*
X157480000Y-104140000D03*
X184150000Y-142240000D03*
X157480000Y-142240000D03*
D24*
X181650000Y-95250000D03*
D25*
X184150000Y-95250000D03*
M02*
