G04 #@! TF.FileFunction,Legend,Top*
%FSLAX46Y46*%
G04 Gerber Fmt 4.6, Leading zero omitted, Abs format (unit mm)*
G04 Created by KiCad (PCBNEW 4.0.1-stable) date Wednesday, 17 February 2016 'pmt' 21:43:36*
%MOMM*%
G01*
G04 APERTURE LIST*
%ADD10C,0.100000*%
%ADD11C,0.300000*%
%ADD12C,0.150000*%
G04 APERTURE END LIST*
D10*
D11*
X122202858Y-125622857D02*
X122702858Y-125622857D01*
X122917144Y-126408571D02*
X122202858Y-126408571D01*
X122202858Y-124908571D01*
X122917144Y-124908571D01*
X123488572Y-126337143D02*
X123702858Y-126408571D01*
X124060001Y-126408571D01*
X124202858Y-126337143D01*
X124274287Y-126265714D01*
X124345715Y-126122857D01*
X124345715Y-125980000D01*
X124274287Y-125837143D01*
X124202858Y-125765714D01*
X124060001Y-125694286D01*
X123774287Y-125622857D01*
X123631429Y-125551429D01*
X123560001Y-125480000D01*
X123488572Y-125337143D01*
X123488572Y-125194286D01*
X123560001Y-125051429D01*
X123631429Y-124980000D01*
X123774287Y-124908571D01*
X124131429Y-124908571D01*
X124345715Y-124980000D01*
X124988572Y-126408571D02*
X124988572Y-124908571D01*
X125560000Y-124908571D01*
X125702858Y-124980000D01*
X125774286Y-125051429D01*
X125845715Y-125194286D01*
X125845715Y-125408571D01*
X125774286Y-125551429D01*
X125702858Y-125622857D01*
X125560000Y-125694286D01*
X124988572Y-125694286D01*
X128131429Y-125622857D02*
X128345715Y-125694286D01*
X128417143Y-125765714D01*
X128488572Y-125908571D01*
X128488572Y-126122857D01*
X128417143Y-126265714D01*
X128345715Y-126337143D01*
X128202857Y-126408571D01*
X127631429Y-126408571D01*
X127631429Y-124908571D01*
X128131429Y-124908571D01*
X128274286Y-124980000D01*
X128345715Y-125051429D01*
X128417143Y-125194286D01*
X128417143Y-125337143D01*
X128345715Y-125480000D01*
X128274286Y-125551429D01*
X128131429Y-125622857D01*
X127631429Y-125622857D01*
X129345715Y-126408571D02*
X129202857Y-126337143D01*
X129131429Y-126265714D01*
X129060000Y-126122857D01*
X129060000Y-125694286D01*
X129131429Y-125551429D01*
X129202857Y-125480000D01*
X129345715Y-125408571D01*
X129560000Y-125408571D01*
X129702857Y-125480000D01*
X129774286Y-125551429D01*
X129845715Y-125694286D01*
X129845715Y-126122857D01*
X129774286Y-126265714D01*
X129702857Y-126337143D01*
X129560000Y-126408571D01*
X129345715Y-126408571D01*
X131131429Y-126408571D02*
X131131429Y-125622857D01*
X131060000Y-125480000D01*
X130917143Y-125408571D01*
X130631429Y-125408571D01*
X130488572Y-125480000D01*
X131131429Y-126337143D02*
X130988572Y-126408571D01*
X130631429Y-126408571D01*
X130488572Y-126337143D01*
X130417143Y-126194286D01*
X130417143Y-126051429D01*
X130488572Y-125908571D01*
X130631429Y-125837143D01*
X130988572Y-125837143D01*
X131131429Y-125765714D01*
X131845715Y-126408571D02*
X131845715Y-125408571D01*
X131845715Y-125694286D02*
X131917143Y-125551429D01*
X131988572Y-125480000D01*
X132131429Y-125408571D01*
X132274286Y-125408571D01*
X133417143Y-126408571D02*
X133417143Y-124908571D01*
X133417143Y-126337143D02*
X133274286Y-126408571D01*
X132988572Y-126408571D01*
X132845714Y-126337143D01*
X132774286Y-126265714D01*
X132702857Y-126122857D01*
X132702857Y-125694286D01*
X132774286Y-125551429D01*
X132845714Y-125480000D01*
X132988572Y-125408571D01*
X133274286Y-125408571D01*
X133417143Y-125480000D01*
X135060000Y-124908571D02*
X135560000Y-126408571D01*
X136060000Y-124908571D01*
X137345714Y-126408571D02*
X136488571Y-126408571D01*
X136917143Y-126408571D02*
X136917143Y-124908571D01*
X136774286Y-125122857D01*
X136631428Y-125265714D01*
X136488571Y-125337143D01*
X137988571Y-126265714D02*
X138059999Y-126337143D01*
X137988571Y-126408571D01*
X137917142Y-126337143D01*
X137988571Y-126265714D01*
X137988571Y-126408571D01*
X138988571Y-124908571D02*
X139131428Y-124908571D01*
X139274285Y-124980000D01*
X139345714Y-125051429D01*
X139417143Y-125194286D01*
X139488571Y-125480000D01*
X139488571Y-125837143D01*
X139417143Y-126122857D01*
X139345714Y-126265714D01*
X139274285Y-126337143D01*
X139131428Y-126408571D01*
X138988571Y-126408571D01*
X138845714Y-126337143D01*
X138774285Y-126265714D01*
X138702857Y-126122857D01*
X138631428Y-125837143D01*
X138631428Y-125480000D01*
X138702857Y-125194286D01*
X138774285Y-125051429D01*
X138845714Y-124980000D01*
X138988571Y-124908571D01*
D12*
X131262381Y-89082381D02*
X130786190Y-89415715D01*
X131262381Y-89653810D02*
X130262381Y-89653810D01*
X130262381Y-89272857D01*
X130310000Y-89177619D01*
X130357619Y-89130000D01*
X130452857Y-89082381D01*
X130595714Y-89082381D01*
X130690952Y-89130000D01*
X130738571Y-89177619D01*
X130786190Y-89272857D01*
X130786190Y-89653810D01*
X130738571Y-88653810D02*
X130738571Y-88320476D01*
X131262381Y-88177619D02*
X131262381Y-88653810D01*
X130262381Y-88653810D01*
X130262381Y-88177619D01*
X131214762Y-87796667D02*
X131262381Y-87653810D01*
X131262381Y-87415714D01*
X131214762Y-87320476D01*
X131167143Y-87272857D01*
X131071905Y-87225238D01*
X130976667Y-87225238D01*
X130881429Y-87272857D01*
X130833810Y-87320476D01*
X130786190Y-87415714D01*
X130738571Y-87606191D01*
X130690952Y-87701429D01*
X130643333Y-87749048D01*
X130548095Y-87796667D01*
X130452857Y-87796667D01*
X130357619Y-87749048D01*
X130310000Y-87701429D01*
X130262381Y-87606191D01*
X130262381Y-87368095D01*
X130310000Y-87225238D01*
X130738571Y-86796667D02*
X130738571Y-86463333D01*
X131262381Y-86320476D02*
X131262381Y-86796667D01*
X130262381Y-86796667D01*
X130262381Y-86320476D01*
X130262381Y-86034762D02*
X130262381Y-85463333D01*
X131262381Y-85749048D02*
X130262381Y-85749048D01*
X149788571Y-89320476D02*
X149788571Y-89653810D01*
X150312381Y-89653810D02*
X149312381Y-89653810D01*
X149312381Y-89177619D01*
X150312381Y-88320476D02*
X150312381Y-88796667D01*
X149312381Y-88796667D01*
X150026667Y-88034762D02*
X150026667Y-87558571D01*
X150312381Y-88130000D02*
X149312381Y-87796667D01*
X150312381Y-87463333D01*
X150264762Y-87177619D02*
X150312381Y-87034762D01*
X150312381Y-86796666D01*
X150264762Y-86701428D01*
X150217143Y-86653809D01*
X150121905Y-86606190D01*
X150026667Y-86606190D01*
X149931429Y-86653809D01*
X149883810Y-86701428D01*
X149836190Y-86796666D01*
X149788571Y-86987143D01*
X149740952Y-87082381D01*
X149693333Y-87130000D01*
X149598095Y-87177619D01*
X149502857Y-87177619D01*
X149407619Y-87130000D01*
X149360000Y-87082381D01*
X149312381Y-86987143D01*
X149312381Y-86749047D01*
X149360000Y-86606190D01*
X150312381Y-86177619D02*
X149312381Y-86177619D01*
X149788571Y-86177619D02*
X149788571Y-85606190D01*
X150312381Y-85606190D02*
X149312381Y-85606190D01*
X161742381Y-90717619D02*
X161266190Y-91050953D01*
X161742381Y-91289048D02*
X160742381Y-91289048D01*
X160742381Y-90908095D01*
X160790000Y-90812857D01*
X160837619Y-90765238D01*
X160932857Y-90717619D01*
X161075714Y-90717619D01*
X161170952Y-90765238D01*
X161218571Y-90812857D01*
X161266190Y-90908095D01*
X161266190Y-91289048D01*
X161694762Y-90336667D02*
X161742381Y-90193810D01*
X161742381Y-89955714D01*
X161694762Y-89860476D01*
X161647143Y-89812857D01*
X161551905Y-89765238D01*
X161456667Y-89765238D01*
X161361429Y-89812857D01*
X161313810Y-89860476D01*
X161266190Y-89955714D01*
X161218571Y-90146191D01*
X161170952Y-90241429D01*
X161123333Y-90289048D01*
X161028095Y-90336667D01*
X160932857Y-90336667D01*
X160837619Y-90289048D01*
X160790000Y-90241429D01*
X160742381Y-90146191D01*
X160742381Y-89908095D01*
X160790000Y-89765238D01*
X160742381Y-89479524D02*
X160742381Y-88908095D01*
X161742381Y-89193810D02*
X160742381Y-89193810D01*
X160570000Y-91527143D02*
X160570000Y-88812857D01*
X159202381Y-115895238D02*
X158726190Y-116228572D01*
X159202381Y-116466667D02*
X158202381Y-116466667D01*
X158202381Y-116085714D01*
X158250000Y-115990476D01*
X158297619Y-115942857D01*
X158392857Y-115895238D01*
X158535714Y-115895238D01*
X158630952Y-115942857D01*
X158678571Y-115990476D01*
X158726190Y-116085714D01*
X158726190Y-116466667D01*
X159154762Y-115514286D02*
X159202381Y-115371429D01*
X159202381Y-115133333D01*
X159154762Y-115038095D01*
X159107143Y-114990476D01*
X159011905Y-114942857D01*
X158916667Y-114942857D01*
X158821429Y-114990476D01*
X158773810Y-115038095D01*
X158726190Y-115133333D01*
X158678571Y-115323810D01*
X158630952Y-115419048D01*
X158583333Y-115466667D01*
X158488095Y-115514286D01*
X158392857Y-115514286D01*
X158297619Y-115466667D01*
X158250000Y-115419048D01*
X158202381Y-115323810D01*
X158202381Y-115085714D01*
X158250000Y-114942857D01*
X158297619Y-114561905D02*
X158250000Y-114514286D01*
X158202381Y-114419048D01*
X158202381Y-114180952D01*
X158250000Y-114085714D01*
X158297619Y-114038095D01*
X158392857Y-113990476D01*
X158488095Y-113990476D01*
X158630952Y-114038095D01*
X159202381Y-114609524D01*
X159202381Y-113990476D01*
X158202381Y-113657143D02*
X158202381Y-113038095D01*
X158583333Y-113371429D01*
X158583333Y-113228571D01*
X158630952Y-113133333D01*
X158678571Y-113085714D01*
X158773810Y-113038095D01*
X159011905Y-113038095D01*
X159107143Y-113085714D01*
X159154762Y-113133333D01*
X159202381Y-113228571D01*
X159202381Y-113514286D01*
X159154762Y-113609524D01*
X159107143Y-113657143D01*
X158297619Y-112657143D02*
X158250000Y-112609524D01*
X158202381Y-112514286D01*
X158202381Y-112276190D01*
X158250000Y-112180952D01*
X158297619Y-112133333D01*
X158392857Y-112085714D01*
X158488095Y-112085714D01*
X158630952Y-112133333D01*
X159202381Y-112704762D01*
X159202381Y-112085714D01*
X116967143Y-103322381D02*
X116395714Y-103322381D01*
X116681428Y-103322381D02*
X116681428Y-102322381D01*
X116586190Y-102465238D01*
X116490952Y-102560476D01*
X116395714Y-102608095D01*
X117300476Y-102322381D02*
X117919524Y-102322381D01*
X117586190Y-102703333D01*
X117729048Y-102703333D01*
X117824286Y-102750952D01*
X117871905Y-102798571D01*
X117919524Y-102893810D01*
X117919524Y-103131905D01*
X117871905Y-103227143D01*
X117824286Y-103274762D01*
X117729048Y-103322381D01*
X117443333Y-103322381D01*
X117348095Y-103274762D01*
X117300476Y-103227143D01*
X116967143Y-105862381D02*
X116395714Y-105862381D01*
X116681428Y-105862381D02*
X116681428Y-104862381D01*
X116586190Y-105005238D01*
X116490952Y-105100476D01*
X116395714Y-105148095D01*
X117824286Y-104862381D02*
X117633809Y-104862381D01*
X117538571Y-104910000D01*
X117490952Y-104957619D01*
X117395714Y-105100476D01*
X117348095Y-105290952D01*
X117348095Y-105671905D01*
X117395714Y-105767143D01*
X117443333Y-105814762D01*
X117538571Y-105862381D01*
X117729048Y-105862381D01*
X117824286Y-105814762D01*
X117871905Y-105767143D01*
X117919524Y-105671905D01*
X117919524Y-105433810D01*
X117871905Y-105338571D01*
X117824286Y-105290952D01*
X117729048Y-105243333D01*
X117538571Y-105243333D01*
X117443333Y-105290952D01*
X117395714Y-105338571D01*
X117348095Y-105433810D01*
X116967143Y-108402381D02*
X116395714Y-108402381D01*
X116681428Y-108402381D02*
X116681428Y-107402381D01*
X116586190Y-107545238D01*
X116490952Y-107640476D01*
X116395714Y-107688095D01*
X117824286Y-107735714D02*
X117824286Y-108402381D01*
X117586190Y-107354762D02*
X117348095Y-108069048D01*
X117967143Y-108069048D01*
X116967143Y-110942381D02*
X116395714Y-110942381D01*
X116681428Y-110942381D02*
X116681428Y-109942381D01*
X116586190Y-110085238D01*
X116490952Y-110180476D01*
X116395714Y-110228095D01*
X117348095Y-110037619D02*
X117395714Y-109990000D01*
X117490952Y-109942381D01*
X117729048Y-109942381D01*
X117824286Y-109990000D01*
X117871905Y-110037619D01*
X117919524Y-110132857D01*
X117919524Y-110228095D01*
X117871905Y-110370952D01*
X117300476Y-110942381D01*
X117919524Y-110942381D01*
X116633809Y-112482381D02*
X116729048Y-112482381D01*
X116824286Y-112530000D01*
X116871905Y-112577619D01*
X116919524Y-112672857D01*
X116967143Y-112863333D01*
X116967143Y-113101429D01*
X116919524Y-113291905D01*
X116871905Y-113387143D01*
X116824286Y-113434762D01*
X116729048Y-113482381D01*
X116633809Y-113482381D01*
X116538571Y-113434762D01*
X116490952Y-113387143D01*
X116443333Y-113291905D01*
X116395714Y-113101429D01*
X116395714Y-112863333D01*
X116443333Y-112672857D01*
X116490952Y-112577619D01*
X116538571Y-112530000D01*
X116633809Y-112482381D01*
X117348095Y-112577619D02*
X117395714Y-112530000D01*
X117490952Y-112482381D01*
X117729048Y-112482381D01*
X117824286Y-112530000D01*
X117871905Y-112577619D01*
X117919524Y-112672857D01*
X117919524Y-112768095D01*
X117871905Y-112910952D01*
X117300476Y-113482381D01*
X117919524Y-113482381D01*
X116490952Y-100496667D02*
X116967143Y-100496667D01*
X116395714Y-100782381D02*
X116729047Y-99782381D01*
X117062381Y-100782381D01*
X117586190Y-99782381D02*
X117681429Y-99782381D01*
X117776667Y-99830000D01*
X117824286Y-99877619D01*
X117871905Y-99972857D01*
X117919524Y-100163333D01*
X117919524Y-100401429D01*
X117871905Y-100591905D01*
X117824286Y-100687143D01*
X117776667Y-100734762D01*
X117681429Y-100782381D01*
X117586190Y-100782381D01*
X117490952Y-100734762D01*
X117443333Y-100687143D01*
X117395714Y-100591905D01*
X117348095Y-100401429D01*
X117348095Y-100163333D01*
X117395714Y-99972857D01*
X117443333Y-99877619D01*
X117490952Y-99830000D01*
X117586190Y-99782381D01*
X116078096Y-115070000D02*
X115982858Y-115022381D01*
X115840001Y-115022381D01*
X115697143Y-115070000D01*
X115601905Y-115165238D01*
X115554286Y-115260476D01*
X115506667Y-115450952D01*
X115506667Y-115593810D01*
X115554286Y-115784286D01*
X115601905Y-115879524D01*
X115697143Y-115974762D01*
X115840001Y-116022381D01*
X115935239Y-116022381D01*
X116078096Y-115974762D01*
X116125715Y-115927143D01*
X116125715Y-115593810D01*
X115935239Y-115593810D01*
X116554286Y-116022381D02*
X116554286Y-115022381D01*
X117125715Y-116022381D01*
X117125715Y-115022381D01*
X117601905Y-116022381D02*
X117601905Y-115022381D01*
X117840000Y-115022381D01*
X117982858Y-115070000D01*
X118078096Y-115165238D01*
X118125715Y-115260476D01*
X118173334Y-115450952D01*
X118173334Y-115593810D01*
X118125715Y-115784286D01*
X118078096Y-115879524D01*
X117982858Y-115974762D01*
X117840000Y-116022381D01*
X117601905Y-116022381D01*
X115601905Y-117562381D02*
X116220953Y-117562381D01*
X115887619Y-117943333D01*
X116030477Y-117943333D01*
X116125715Y-117990952D01*
X116173334Y-118038571D01*
X116220953Y-118133810D01*
X116220953Y-118371905D01*
X116173334Y-118467143D01*
X116125715Y-118514762D01*
X116030477Y-118562381D01*
X115744762Y-118562381D01*
X115649524Y-118514762D01*
X115601905Y-118467143D01*
X116506667Y-117562381D02*
X116840000Y-118562381D01*
X117173334Y-117562381D01*
X117411429Y-117562381D02*
X118030477Y-117562381D01*
X117697143Y-117943333D01*
X117840001Y-117943333D01*
X117935239Y-117990952D01*
X117982858Y-118038571D01*
X118030477Y-118133810D01*
X118030477Y-118371905D01*
X117982858Y-118467143D01*
X117935239Y-118514762D01*
X117840001Y-118562381D01*
X117554286Y-118562381D01*
X117459048Y-118514762D01*
X117411429Y-118467143D01*
X125182381Y-123158095D02*
X125182381Y-122539047D01*
X125563333Y-122872381D01*
X125563333Y-122729523D01*
X125610952Y-122634285D01*
X125658571Y-122586666D01*
X125753810Y-122539047D01*
X125991905Y-122539047D01*
X126087143Y-122586666D01*
X126134762Y-122634285D01*
X126182381Y-122729523D01*
X126182381Y-123015238D01*
X126134762Y-123110476D01*
X126087143Y-123158095D01*
X125182381Y-122253333D02*
X126182381Y-121920000D01*
X125182381Y-121586666D01*
X125182381Y-121348571D02*
X125182381Y-120729523D01*
X125563333Y-121062857D01*
X125563333Y-120919999D01*
X125610952Y-120824761D01*
X125658571Y-120777142D01*
X125753810Y-120729523D01*
X125991905Y-120729523D01*
X126087143Y-120777142D01*
X126134762Y-120824761D01*
X126182381Y-120919999D01*
X126182381Y-121205714D01*
X126134762Y-121300952D01*
X126087143Y-121348571D01*
X122690000Y-122681904D02*
X122642381Y-122777142D01*
X122642381Y-122919999D01*
X122690000Y-123062857D01*
X122785238Y-123158095D01*
X122880476Y-123205714D01*
X123070952Y-123253333D01*
X123213810Y-123253333D01*
X123404286Y-123205714D01*
X123499524Y-123158095D01*
X123594762Y-123062857D01*
X123642381Y-122919999D01*
X123642381Y-122824761D01*
X123594762Y-122681904D01*
X123547143Y-122634285D01*
X123213810Y-122634285D01*
X123213810Y-122824761D01*
X123642381Y-122205714D02*
X122642381Y-122205714D01*
X123642381Y-121634285D01*
X122642381Y-121634285D01*
X123642381Y-121158095D02*
X122642381Y-121158095D01*
X122642381Y-120920000D01*
X122690000Y-120777142D01*
X122785238Y-120681904D01*
X122880476Y-120634285D01*
X123070952Y-120586666D01*
X123213810Y-120586666D01*
X123404286Y-120634285D01*
X123499524Y-120681904D01*
X123594762Y-120777142D01*
X123642381Y-120920000D01*
X123642381Y-121158095D01*
X154392381Y-128238095D02*
X154392381Y-127619047D01*
X154773333Y-127952381D01*
X154773333Y-127809523D01*
X154820952Y-127714285D01*
X154868571Y-127666666D01*
X154963810Y-127619047D01*
X155201905Y-127619047D01*
X155297143Y-127666666D01*
X155344762Y-127714285D01*
X155392381Y-127809523D01*
X155392381Y-128095238D01*
X155344762Y-128190476D01*
X155297143Y-128238095D01*
X154392381Y-127333333D02*
X155392381Y-127000000D01*
X154392381Y-126666666D01*
X154392381Y-126428571D02*
X154392381Y-125809523D01*
X154773333Y-126142857D01*
X154773333Y-125999999D01*
X154820952Y-125904761D01*
X154868571Y-125857142D01*
X154963810Y-125809523D01*
X155201905Y-125809523D01*
X155297143Y-125857142D01*
X155344762Y-125904761D01*
X155392381Y-125999999D01*
X155392381Y-126285714D01*
X155344762Y-126380952D01*
X155297143Y-126428571D01*
X149312381Y-127190476D02*
X149312381Y-127666667D01*
X149788571Y-127714286D01*
X149740952Y-127666667D01*
X149693333Y-127571429D01*
X149693333Y-127333333D01*
X149740952Y-127238095D01*
X149788571Y-127190476D01*
X149883810Y-127142857D01*
X150121905Y-127142857D01*
X150217143Y-127190476D01*
X150264762Y-127238095D01*
X150312381Y-127333333D01*
X150312381Y-127571429D01*
X150264762Y-127666667D01*
X150217143Y-127714286D01*
X149312381Y-126857143D02*
X150312381Y-126523810D01*
X149312381Y-126190476D01*
X151900000Y-127761904D02*
X151852381Y-127857142D01*
X151852381Y-127999999D01*
X151900000Y-128142857D01*
X151995238Y-128238095D01*
X152090476Y-128285714D01*
X152280952Y-128333333D01*
X152423810Y-128333333D01*
X152614286Y-128285714D01*
X152709524Y-128238095D01*
X152804762Y-128142857D01*
X152852381Y-127999999D01*
X152852381Y-127904761D01*
X152804762Y-127761904D01*
X152757143Y-127714285D01*
X152423810Y-127714285D01*
X152423810Y-127904761D01*
X152852381Y-127285714D02*
X151852381Y-127285714D01*
X152852381Y-126714285D01*
X151852381Y-126714285D01*
X152852381Y-126238095D02*
X151852381Y-126238095D01*
X151852381Y-126000000D01*
X151900000Y-125857142D01*
X151995238Y-125761904D01*
X152090476Y-125714285D01*
X152280952Y-125666666D01*
X152423810Y-125666666D01*
X152614286Y-125714285D01*
X152709524Y-125761904D01*
X152804762Y-125857142D01*
X152852381Y-126000000D01*
X152852381Y-126238095D01*
X149799040Y-120578880D02*
X155000960Y-120578880D01*
X155000960Y-118181120D02*
X149799040Y-118181120D01*
X147800060Y-117081300D02*
X147800060Y-118181120D01*
X147200620Y-117581680D02*
X148399500Y-117581680D01*
X148404580Y-118181120D02*
X148404580Y-120578880D01*
X129479040Y-124388880D02*
X134680960Y-124388880D01*
X134680960Y-121991120D02*
X129479040Y-121991120D01*
X127480060Y-120891300D02*
X127480060Y-121991120D01*
X126880620Y-121391680D02*
X128079500Y-121391680D01*
X128084580Y-121991120D02*
X128084580Y-124388880D01*
X132135000Y-111821000D02*
X132135000Y-119319000D01*
X132275000Y-111826000D02*
X132275000Y-119314000D01*
X132415000Y-111837000D02*
X132415000Y-115124000D01*
X132415000Y-116016000D02*
X132415000Y-119303000D01*
X132555000Y-111853000D02*
X132555000Y-114914000D01*
X132555000Y-116226000D02*
X132555000Y-119287000D01*
X132695000Y-111874000D02*
X132695000Y-114781000D01*
X132695000Y-116359000D02*
X132695000Y-119266000D01*
X132835000Y-111901000D02*
X132835000Y-114690000D01*
X132835000Y-116450000D02*
X132835000Y-119239000D01*
X132975000Y-111933000D02*
X132975000Y-114628000D01*
X132975000Y-116512000D02*
X132975000Y-119207000D01*
X133115000Y-111971000D02*
X133115000Y-114589000D01*
X133115000Y-116551000D02*
X133115000Y-119169000D01*
X133255000Y-112015000D02*
X133255000Y-114572000D01*
X133255000Y-116568000D02*
X133255000Y-119125000D01*
X133395000Y-112066000D02*
X133395000Y-114574000D01*
X133395000Y-116566000D02*
X133395000Y-119074000D01*
X133535000Y-112122000D02*
X133535000Y-114596000D01*
X133535000Y-116544000D02*
X133535000Y-119018000D01*
X133675000Y-112186000D02*
X133675000Y-114639000D01*
X133675000Y-116501000D02*
X133675000Y-118954000D01*
X133815000Y-112256000D02*
X133815000Y-114707000D01*
X133815000Y-116433000D02*
X133815000Y-118884000D01*
X133955000Y-112334000D02*
X133955000Y-114806000D01*
X133955000Y-116334000D02*
X133955000Y-118806000D01*
X134095000Y-112420000D02*
X134095000Y-114951000D01*
X134095000Y-116189000D02*
X134095000Y-118720000D01*
X134235000Y-112515000D02*
X134235000Y-115190000D01*
X134235000Y-115950000D02*
X134235000Y-118625000D01*
X134375000Y-112620000D02*
X134375000Y-118520000D01*
X134515000Y-112735000D02*
X134515000Y-118405000D01*
X134655000Y-112863000D02*
X134655000Y-118277000D01*
X134795000Y-113004000D02*
X134795000Y-118136000D01*
X134935000Y-113162000D02*
X134935000Y-117978000D01*
X135075000Y-113340000D02*
X135075000Y-117800000D01*
X135215000Y-113543000D02*
X135215000Y-117597000D01*
X135355000Y-113780000D02*
X135355000Y-117360000D01*
X135495000Y-114066000D02*
X135495000Y-117074000D01*
X135635000Y-114438000D02*
X135635000Y-116702000D01*
X135775000Y-115059000D02*
X135775000Y-116081000D01*
X134310000Y-115570000D02*
G75*
G03X134310000Y-115570000I-1000000J0D01*
G01*
X135847500Y-115570000D02*
G75*
G03X135847500Y-115570000I-3787500J0D01*
G01*
X154270000Y-98665000D02*
X153070000Y-98665000D01*
X153070000Y-96915000D02*
X154270000Y-96915000D01*
X151130000Y-124460000D02*
X156210000Y-124460000D01*
X156210000Y-124460000D02*
X156210000Y-121920000D01*
X156210000Y-121920000D02*
X151130000Y-121920000D01*
X148310000Y-121640000D02*
X149860000Y-121640000D01*
X151130000Y-121920000D02*
X151130000Y-124460000D01*
X149860000Y-124740000D02*
X148310000Y-124740000D01*
X148310000Y-124740000D02*
X148310000Y-121640000D01*
X162560000Y-104140000D02*
X162560000Y-116840000D01*
X162560000Y-116840000D02*
X160020000Y-116840000D01*
X160020000Y-116840000D02*
X160020000Y-104140000D01*
X162840000Y-101320000D02*
X162840000Y-102870000D01*
X162560000Y-104140000D02*
X160020000Y-104140000D01*
X159740000Y-102870000D02*
X159740000Y-101320000D01*
X159740000Y-101320000D02*
X162840000Y-101320000D01*
X124460000Y-116840000D02*
X124460000Y-99060000D01*
X124460000Y-99060000D02*
X127000000Y-99060000D01*
X127000000Y-99060000D02*
X127000000Y-116840000D01*
X124180000Y-119660000D02*
X124180000Y-118110000D01*
X124460000Y-116840000D02*
X127000000Y-116840000D01*
X127280000Y-118110000D02*
X127280000Y-119660000D01*
X127280000Y-119660000D02*
X124180000Y-119660000D01*
X121920000Y-116840000D02*
X121920000Y-99060000D01*
X121920000Y-99060000D02*
X124460000Y-99060000D01*
X124460000Y-99060000D02*
X124460000Y-116840000D01*
X121640000Y-119660000D02*
X121640000Y-118110000D01*
X121920000Y-116840000D02*
X124460000Y-116840000D01*
X124740000Y-118110000D02*
X124740000Y-119660000D01*
X124740000Y-119660000D02*
X121640000Y-119660000D01*
X119380000Y-116840000D02*
X119380000Y-99060000D01*
X119380000Y-99060000D02*
X121920000Y-99060000D01*
X121920000Y-99060000D02*
X121920000Y-116840000D01*
X119100000Y-119660000D02*
X119100000Y-118110000D01*
X119380000Y-116840000D02*
X121920000Y-116840000D01*
X122200000Y-118110000D02*
X122200000Y-119660000D01*
X122200000Y-119660000D02*
X119100000Y-119660000D01*
X121420000Y-93305000D02*
X122420000Y-93305000D01*
X122420000Y-94655000D02*
X121420000Y-94655000D01*
X127500000Y-97195000D02*
X126500000Y-97195000D01*
X126500000Y-95845000D02*
X127500000Y-95845000D01*
X127500000Y-94655000D02*
X126500000Y-94655000D01*
X126500000Y-93305000D02*
X127500000Y-93305000D01*
X153170000Y-99655000D02*
X154170000Y-99655000D01*
X154170000Y-101005000D02*
X153170000Y-101005000D01*
X155535000Y-105910000D02*
X155535000Y-104910000D01*
X156885000Y-104910000D02*
X156885000Y-105910000D01*
X151725000Y-105910000D02*
X151725000Y-104910000D01*
X153075000Y-104910000D02*
X153075000Y-105910000D01*
X124000000Y-84630000D02*
X124200000Y-84630000D01*
X130000000Y-84630000D02*
X129800000Y-84630000D01*
X130000000Y-90630000D02*
X129800000Y-90630000D01*
X124000000Y-90630000D02*
X124200000Y-90630000D01*
X125800000Y-90630000D02*
X128200000Y-90630000D01*
X125800000Y-84630000D02*
X128200000Y-84630000D01*
X124000000Y-84630000D02*
X124000000Y-90630000D01*
X130000000Y-90630000D02*
X130000000Y-84630000D01*
X128700000Y-87630000D02*
G75*
G03X128700000Y-87630000I-1700000J0D01*
G01*
X156670000Y-90630000D02*
X156470000Y-90630000D01*
X150670000Y-90630000D02*
X150870000Y-90630000D01*
X150670000Y-84630000D02*
X150870000Y-84630000D01*
X156670000Y-84630000D02*
X156470000Y-84630000D01*
X154870000Y-84630000D02*
X152470000Y-84630000D01*
X154870000Y-90630000D02*
X152470000Y-90630000D01*
X156670000Y-90630000D02*
X156670000Y-84630000D01*
X150670000Y-84630000D02*
X150670000Y-90630000D01*
X155370000Y-87630000D02*
G75*
G03X155370000Y-87630000I-1700000J0D01*
G01*
X137414000Y-120904000D02*
X137414000Y-123952000D01*
X137414000Y-123952000D02*
X144526000Y-123952000D01*
X144526000Y-123952000D02*
X144526000Y-120904000D01*
X137414000Y-117856000D02*
X137414000Y-117094000D01*
X137414000Y-117094000D02*
X138938000Y-114808000D01*
X138938000Y-114808000D02*
X143002000Y-114808000D01*
X143002000Y-114808000D02*
X144526000Y-117094000D01*
X144526000Y-117094000D02*
X144526000Y-117856000D01*
X153670000Y-95250000D02*
X151130000Y-95250000D01*
X156490000Y-95530000D02*
X154940000Y-95530000D01*
X153670000Y-95250000D02*
X153670000Y-92710000D01*
X154940000Y-92430000D02*
X156490000Y-92430000D01*
X156490000Y-92430000D02*
X156490000Y-95530000D01*
X153670000Y-92710000D02*
X151130000Y-92710000D01*
X151130000Y-92710000D02*
X151130000Y-95250000D01*
X162840000Y-92430000D02*
X162840000Y-93980000D01*
X159740000Y-93980000D02*
X159740000Y-92430000D01*
X159740000Y-92430000D02*
X162840000Y-92430000D01*
X160020000Y-95250000D02*
X162560000Y-95250000D01*
X152233334Y-117197143D02*
X152185715Y-117244762D01*
X152042858Y-117292381D01*
X151947620Y-117292381D01*
X151804762Y-117244762D01*
X151709524Y-117149524D01*
X151661905Y-117054286D01*
X151614286Y-116863810D01*
X151614286Y-116720952D01*
X151661905Y-116530476D01*
X151709524Y-116435238D01*
X151804762Y-116340000D01*
X151947620Y-116292381D01*
X152042858Y-116292381D01*
X152185715Y-116340000D01*
X152233334Y-116387619D01*
X153185715Y-117292381D02*
X152614286Y-117292381D01*
X152900000Y-117292381D02*
X152900000Y-116292381D01*
X152804762Y-116435238D01*
X152709524Y-116530476D01*
X152614286Y-116578095D01*
X147419108Y-117650569D02*
X148181013Y-117650569D01*
X147800061Y-118031521D02*
X147800061Y-117269616D01*
X131913334Y-121007143D02*
X131865715Y-121054762D01*
X131722858Y-121102381D01*
X131627620Y-121102381D01*
X131484762Y-121054762D01*
X131389524Y-120959524D01*
X131341905Y-120864286D01*
X131294286Y-120673810D01*
X131294286Y-120530952D01*
X131341905Y-120340476D01*
X131389524Y-120245238D01*
X131484762Y-120150000D01*
X131627620Y-120102381D01*
X131722858Y-120102381D01*
X131865715Y-120150000D01*
X131913334Y-120197619D01*
X132294286Y-120197619D02*
X132341905Y-120150000D01*
X132437143Y-120102381D01*
X132675239Y-120102381D01*
X132770477Y-120150000D01*
X132818096Y-120197619D01*
X132865715Y-120292857D01*
X132865715Y-120388095D01*
X132818096Y-120530952D01*
X132246667Y-121102381D01*
X132865715Y-121102381D01*
X127099108Y-121460569D02*
X127861013Y-121460569D01*
X127480061Y-121841521D02*
X127480061Y-121079616D01*
X128103334Y-119737143D02*
X128055715Y-119784762D01*
X127912858Y-119832381D01*
X127817620Y-119832381D01*
X127674762Y-119784762D01*
X127579524Y-119689524D01*
X127531905Y-119594286D01*
X127484286Y-119403810D01*
X127484286Y-119260952D01*
X127531905Y-119070476D01*
X127579524Y-118975238D01*
X127674762Y-118880000D01*
X127817620Y-118832381D01*
X127912858Y-118832381D01*
X128055715Y-118880000D01*
X128103334Y-118927619D01*
X128436667Y-118832381D02*
X129055715Y-118832381D01*
X128722381Y-119213333D01*
X128865239Y-119213333D01*
X128960477Y-119260952D01*
X129008096Y-119308571D01*
X129055715Y-119403810D01*
X129055715Y-119641905D01*
X129008096Y-119737143D01*
X128960477Y-119784762D01*
X128865239Y-119832381D01*
X128579524Y-119832381D01*
X128484286Y-119784762D01*
X128436667Y-119737143D01*
X156741905Y-98242381D02*
X156741905Y-97242381D01*
X156980000Y-97242381D01*
X157122858Y-97290000D01*
X157218096Y-97385238D01*
X157265715Y-97480476D01*
X157313334Y-97670952D01*
X157313334Y-97813810D01*
X157265715Y-98004286D01*
X157218096Y-98099524D01*
X157122858Y-98194762D01*
X156980000Y-98242381D01*
X156741905Y-98242381D01*
X158265715Y-98242381D02*
X157694286Y-98242381D01*
X157980000Y-98242381D02*
X157980000Y-97242381D01*
X157884762Y-97385238D01*
X157789524Y-97480476D01*
X157694286Y-97528095D01*
X147772381Y-123928095D02*
X146772381Y-123928095D01*
X146772381Y-123547142D01*
X146820000Y-123451904D01*
X146867619Y-123404285D01*
X146962857Y-123356666D01*
X147105714Y-123356666D01*
X147200952Y-123404285D01*
X147248571Y-123451904D01*
X147296190Y-123547142D01*
X147296190Y-123928095D01*
X147772381Y-122404285D02*
X147772381Y-122975714D01*
X147772381Y-122690000D02*
X146772381Y-122690000D01*
X146915238Y-122785238D01*
X147010476Y-122880476D01*
X147058095Y-122975714D01*
X160551905Y-100782381D02*
X160551905Y-99782381D01*
X160932858Y-99782381D01*
X161028096Y-99830000D01*
X161075715Y-99877619D01*
X161123334Y-99972857D01*
X161123334Y-100115714D01*
X161075715Y-100210952D01*
X161028096Y-100258571D01*
X160932858Y-100306190D01*
X160551905Y-100306190D01*
X161456667Y-99782381D02*
X162075715Y-99782381D01*
X161742381Y-100163333D01*
X161885239Y-100163333D01*
X161980477Y-100210952D01*
X162028096Y-100258571D01*
X162075715Y-100353810D01*
X162075715Y-100591905D01*
X162028096Y-100687143D01*
X161980477Y-100734762D01*
X161885239Y-100782381D01*
X161599524Y-100782381D01*
X161504286Y-100734762D01*
X161456667Y-100687143D01*
X127531905Y-100782381D02*
X127531905Y-99782381D01*
X127912858Y-99782381D01*
X128008096Y-99830000D01*
X128055715Y-99877619D01*
X128103334Y-99972857D01*
X128103334Y-100115714D01*
X128055715Y-100210952D01*
X128008096Y-100258571D01*
X127912858Y-100306190D01*
X127531905Y-100306190D01*
X128960477Y-100115714D02*
X128960477Y-100782381D01*
X128722381Y-99734762D02*
X128484286Y-100449048D01*
X129103334Y-100449048D01*
X122451905Y-98242381D02*
X122451905Y-97242381D01*
X122832858Y-97242381D01*
X122928096Y-97290000D01*
X122975715Y-97337619D01*
X123023334Y-97432857D01*
X123023334Y-97575714D01*
X122975715Y-97670952D01*
X122928096Y-97718571D01*
X122832858Y-97766190D01*
X122451905Y-97766190D01*
X123928096Y-97242381D02*
X123451905Y-97242381D01*
X123404286Y-97718571D01*
X123451905Y-97670952D01*
X123547143Y-97623333D01*
X123785239Y-97623333D01*
X123880477Y-97670952D01*
X123928096Y-97718571D01*
X123975715Y-97813810D01*
X123975715Y-98051905D01*
X123928096Y-98147143D01*
X123880477Y-98194762D01*
X123785239Y-98242381D01*
X123547143Y-98242381D01*
X123451905Y-98194762D01*
X123404286Y-98147143D01*
X119911905Y-98242381D02*
X119911905Y-97242381D01*
X120292858Y-97242381D01*
X120388096Y-97290000D01*
X120435715Y-97337619D01*
X120483334Y-97432857D01*
X120483334Y-97575714D01*
X120435715Y-97670952D01*
X120388096Y-97718571D01*
X120292858Y-97766190D01*
X119911905Y-97766190D01*
X121340477Y-97242381D02*
X121150000Y-97242381D01*
X121054762Y-97290000D01*
X121007143Y-97337619D01*
X120911905Y-97480476D01*
X120864286Y-97670952D01*
X120864286Y-98051905D01*
X120911905Y-98147143D01*
X120959524Y-98194762D01*
X121054762Y-98242381D01*
X121245239Y-98242381D01*
X121340477Y-98194762D01*
X121388096Y-98147143D01*
X121435715Y-98051905D01*
X121435715Y-97813810D01*
X121388096Y-97718571D01*
X121340477Y-97670952D01*
X121245239Y-97623333D01*
X121054762Y-97623333D01*
X120959524Y-97670952D01*
X120911905Y-97718571D01*
X120864286Y-97813810D01*
X117943334Y-94432381D02*
X117610000Y-93956190D01*
X117371905Y-94432381D02*
X117371905Y-93432381D01*
X117752858Y-93432381D01*
X117848096Y-93480000D01*
X117895715Y-93527619D01*
X117943334Y-93622857D01*
X117943334Y-93765714D01*
X117895715Y-93860952D01*
X117848096Y-93908571D01*
X117752858Y-93956190D01*
X117371905Y-93956190D01*
X118895715Y-94432381D02*
X118324286Y-94432381D01*
X118610000Y-94432381D02*
X118610000Y-93432381D01*
X118514762Y-93575238D01*
X118419524Y-93670476D01*
X118324286Y-93718095D01*
X123023334Y-96972381D02*
X122690000Y-96496190D01*
X122451905Y-96972381D02*
X122451905Y-95972381D01*
X122832858Y-95972381D01*
X122928096Y-96020000D01*
X122975715Y-96067619D01*
X123023334Y-96162857D01*
X123023334Y-96305714D01*
X122975715Y-96400952D01*
X122928096Y-96448571D01*
X122832858Y-96496190D01*
X122451905Y-96496190D01*
X123404286Y-96067619D02*
X123451905Y-96020000D01*
X123547143Y-95972381D01*
X123785239Y-95972381D01*
X123880477Y-96020000D01*
X123928096Y-96067619D01*
X123975715Y-96162857D01*
X123975715Y-96258095D01*
X123928096Y-96400952D01*
X123356667Y-96972381D01*
X123975715Y-96972381D01*
X126833334Y-92532381D02*
X126500000Y-92056190D01*
X126261905Y-92532381D02*
X126261905Y-91532381D01*
X126642858Y-91532381D01*
X126738096Y-91580000D01*
X126785715Y-91627619D01*
X126833334Y-91722857D01*
X126833334Y-91865714D01*
X126785715Y-91960952D01*
X126738096Y-92008571D01*
X126642858Y-92056190D01*
X126261905Y-92056190D01*
X127166667Y-91532381D02*
X127785715Y-91532381D01*
X127452381Y-91913333D01*
X127595239Y-91913333D01*
X127690477Y-91960952D01*
X127738096Y-92008571D01*
X127785715Y-92103810D01*
X127785715Y-92341905D01*
X127738096Y-92437143D01*
X127690477Y-92484762D01*
X127595239Y-92532381D01*
X127309524Y-92532381D01*
X127214286Y-92484762D01*
X127166667Y-92437143D01*
X157313334Y-100782381D02*
X156980000Y-100306190D01*
X156741905Y-100782381D02*
X156741905Y-99782381D01*
X157122858Y-99782381D01*
X157218096Y-99830000D01*
X157265715Y-99877619D01*
X157313334Y-99972857D01*
X157313334Y-100115714D01*
X157265715Y-100210952D01*
X157218096Y-100258571D01*
X157122858Y-100306190D01*
X156741905Y-100306190D01*
X158170477Y-100115714D02*
X158170477Y-100782381D01*
X157932381Y-99734762D02*
X157694286Y-100449048D01*
X158313334Y-100449048D01*
X156662381Y-109386666D02*
X156186190Y-109720000D01*
X156662381Y-109958095D02*
X155662381Y-109958095D01*
X155662381Y-109577142D01*
X155710000Y-109481904D01*
X155757619Y-109434285D01*
X155852857Y-109386666D01*
X155995714Y-109386666D01*
X156090952Y-109434285D01*
X156138571Y-109481904D01*
X156186190Y-109577142D01*
X156186190Y-109958095D01*
X155662381Y-108481904D02*
X155662381Y-108958095D01*
X156138571Y-109005714D01*
X156090952Y-108958095D01*
X156043333Y-108862857D01*
X156043333Y-108624761D01*
X156090952Y-108529523D01*
X156138571Y-108481904D01*
X156233810Y-108434285D01*
X156471905Y-108434285D01*
X156567143Y-108481904D01*
X156614762Y-108529523D01*
X156662381Y-108624761D01*
X156662381Y-108862857D01*
X156614762Y-108958095D01*
X156567143Y-109005714D01*
X152852381Y-109386666D02*
X152376190Y-109720000D01*
X152852381Y-109958095D02*
X151852381Y-109958095D01*
X151852381Y-109577142D01*
X151900000Y-109481904D01*
X151947619Y-109434285D01*
X152042857Y-109386666D01*
X152185714Y-109386666D01*
X152280952Y-109434285D01*
X152328571Y-109481904D01*
X152376190Y-109577142D01*
X152376190Y-109958095D01*
X151852381Y-108529523D02*
X151852381Y-108720000D01*
X151900000Y-108815238D01*
X151947619Y-108862857D01*
X152090476Y-108958095D01*
X152280952Y-109005714D01*
X152661905Y-109005714D01*
X152757143Y-108958095D01*
X152804762Y-108910476D01*
X152852381Y-108815238D01*
X152852381Y-108624761D01*
X152804762Y-108529523D01*
X152757143Y-108481904D01*
X152661905Y-108434285D01*
X152423810Y-108434285D01*
X152328571Y-108481904D01*
X152280952Y-108529523D01*
X152233333Y-108624761D01*
X152233333Y-108815238D01*
X152280952Y-108910476D01*
X152328571Y-108958095D01*
X152423810Y-109005714D01*
X123594762Y-88963333D02*
X123642381Y-88820476D01*
X123642381Y-88582380D01*
X123594762Y-88487142D01*
X123547143Y-88439523D01*
X123451905Y-88391904D01*
X123356667Y-88391904D01*
X123261429Y-88439523D01*
X123213810Y-88487142D01*
X123166190Y-88582380D01*
X123118571Y-88772857D01*
X123070952Y-88868095D01*
X123023333Y-88915714D01*
X122928095Y-88963333D01*
X122832857Y-88963333D01*
X122737619Y-88915714D01*
X122690000Y-88868095D01*
X122642381Y-88772857D01*
X122642381Y-88534761D01*
X122690000Y-88391904D01*
X122642381Y-88058571D02*
X123642381Y-87820476D01*
X122928095Y-87629999D01*
X123642381Y-87439523D01*
X122642381Y-87201428D01*
X123642381Y-86296666D02*
X123642381Y-86868095D01*
X123642381Y-86582381D02*
X122642381Y-86582381D01*
X122785238Y-86677619D01*
X122880476Y-86772857D01*
X122928095Y-86868095D01*
X157884762Y-88963333D02*
X157932381Y-88820476D01*
X157932381Y-88582380D01*
X157884762Y-88487142D01*
X157837143Y-88439523D01*
X157741905Y-88391904D01*
X157646667Y-88391904D01*
X157551429Y-88439523D01*
X157503810Y-88487142D01*
X157456190Y-88582380D01*
X157408571Y-88772857D01*
X157360952Y-88868095D01*
X157313333Y-88915714D01*
X157218095Y-88963333D01*
X157122857Y-88963333D01*
X157027619Y-88915714D01*
X156980000Y-88868095D01*
X156932381Y-88772857D01*
X156932381Y-88534761D01*
X156980000Y-88391904D01*
X156932381Y-88058571D02*
X157932381Y-87820476D01*
X157218095Y-87629999D01*
X157932381Y-87439523D01*
X156932381Y-87201428D01*
X157027619Y-86868095D02*
X156980000Y-86820476D01*
X156932381Y-86725238D01*
X156932381Y-86487142D01*
X156980000Y-86391904D01*
X157027619Y-86344285D01*
X157122857Y-86296666D01*
X157218095Y-86296666D01*
X157360952Y-86344285D01*
X157932381Y-86915714D01*
X157932381Y-86296666D01*
X140208095Y-112482381D02*
X140208095Y-113291905D01*
X140255714Y-113387143D01*
X140303333Y-113434762D01*
X140398571Y-113482381D01*
X140589048Y-113482381D01*
X140684286Y-113434762D01*
X140731905Y-113387143D01*
X140779524Y-113291905D01*
X140779524Y-112482381D01*
X141779524Y-113482381D02*
X141208095Y-113482381D01*
X141493809Y-113482381D02*
X141493809Y-112482381D01*
X141398571Y-112625238D01*
X141303333Y-112720476D01*
X141208095Y-112768095D01*
X140208095Y-109942381D02*
X140208095Y-110751905D01*
X140255714Y-110847143D01*
X140303333Y-110894762D01*
X140398571Y-110942381D01*
X140589048Y-110942381D01*
X140684286Y-110894762D01*
X140731905Y-110847143D01*
X140779524Y-110751905D01*
X140779524Y-109942381D01*
X141208095Y-110037619D02*
X141255714Y-109990000D01*
X141350952Y-109942381D01*
X141589048Y-109942381D01*
X141684286Y-109990000D01*
X141731905Y-110037619D01*
X141779524Y-110132857D01*
X141779524Y-110228095D01*
X141731905Y-110370952D01*
X141160476Y-110942381D01*
X141779524Y-110942381D01*
X156932381Y-94813333D02*
X157646667Y-94813333D01*
X157789524Y-94860953D01*
X157884762Y-94956191D01*
X157932381Y-95099048D01*
X157932381Y-95194286D01*
X157932381Y-94337143D02*
X156932381Y-94337143D01*
X156932381Y-93956190D01*
X156980000Y-93860952D01*
X157027619Y-93813333D01*
X157122857Y-93765714D01*
X157265714Y-93765714D01*
X157360952Y-93813333D01*
X157408571Y-93860952D01*
X157456190Y-93956190D01*
X157456190Y-94337143D01*
X157932381Y-92813333D02*
X157932381Y-93384762D01*
X157932381Y-93099048D02*
X156932381Y-93099048D01*
X157075238Y-93194286D01*
X157170476Y-93289524D01*
X157218095Y-93384762D01*
X160551905Y-96972381D02*
X160551905Y-95972381D01*
X160932858Y-95972381D01*
X161028096Y-96020000D01*
X161075715Y-96067619D01*
X161123334Y-96162857D01*
X161123334Y-96305714D01*
X161075715Y-96400952D01*
X161028096Y-96448571D01*
X160932858Y-96496190D01*
X160551905Y-96496190D01*
X161504286Y-96067619D02*
X161551905Y-96020000D01*
X161647143Y-95972381D01*
X161885239Y-95972381D01*
X161980477Y-96020000D01*
X162028096Y-96067619D01*
X162075715Y-96162857D01*
X162075715Y-96258095D01*
X162028096Y-96400952D01*
X161456667Y-96972381D01*
X162075715Y-96972381D01*
M02*
