G04 #@! TF.FileFunction,Copper,L2,Bot,Signal*
%FSLAX46Y46*%
G04 Gerber Fmt 4.6, Leading zero omitted, Abs format (unit mm)*
G04 Created by KiCad (PCBNEW 4.0.1-stable) date Wednesday, 10 February 2016 'pmt' 16:49:47*
%MOMM*%
G01*
G04 APERTURE LIST*
%ADD10C,0.100000*%
%ADD11R,1.727200X2.032000*%
%ADD12O,1.727200X2.032000*%
%ADD13C,5.000000*%
%ADD14C,1.300000*%
%ADD15R,1.300000X1.300000*%
%ADD16C,0.600000*%
%ADD17C,1.000000*%
%ADD18C,0.250000*%
%ADD19C,1.000000*%
%ADD20C,0.254000*%
G04 APERTURE END LIST*
D10*
D11*
X160020000Y-147320000D03*
D12*
X162560000Y-147320000D03*
X165100000Y-147320000D03*
D11*
X171450000Y-147320000D03*
D12*
X173990000Y-147320000D03*
X176530000Y-147320000D03*
X179070000Y-147320000D03*
X181610000Y-147320000D03*
X184150000Y-147320000D03*
D11*
X157480000Y-93980000D03*
D12*
X160020000Y-93980000D03*
X162560000Y-93980000D03*
X165100000Y-93980000D03*
X167640000Y-93980000D03*
X170180000Y-93980000D03*
X172720000Y-93980000D03*
X175260000Y-93980000D03*
D11*
X157480000Y-99060000D03*
D12*
X160020000Y-99060000D03*
X162560000Y-99060000D03*
X165100000Y-99060000D03*
X167640000Y-99060000D03*
X170180000Y-99060000D03*
X172720000Y-99060000D03*
X175260000Y-99060000D03*
D11*
X157480000Y-96520000D03*
D12*
X160020000Y-96520000D03*
X162560000Y-96520000D03*
X165100000Y-96520000D03*
X167640000Y-96520000D03*
X170180000Y-96520000D03*
X172720000Y-96520000D03*
X175260000Y-96520000D03*
D13*
X184150000Y-104140000D03*
X157480000Y-104140000D03*
X184150000Y-142240000D03*
X157480000Y-142240000D03*
D14*
X181650000Y-95250000D03*
D15*
X184150000Y-95250000D03*
D16*
X182880000Y-129540000D03*
D17*
X172720000Y-133350000D03*
X161290000Y-127000000D03*
X161290000Y-140970000D03*
X170180000Y-143510000D03*
D16*
X175260000Y-119380000D03*
X176530000Y-121920000D03*
X167640000Y-114300000D03*
X168910000Y-105410000D03*
X171450000Y-105410000D03*
X171450000Y-110490000D03*
X171450000Y-114300000D03*
X177800000Y-102870000D03*
D18*
X179070000Y-109220000D02*
X179070000Y-124460000D01*
X182880000Y-128270000D02*
X182880000Y-129540000D01*
X179070000Y-124460000D02*
X182880000Y-128270000D01*
D19*
X161290000Y-140970000D02*
X165100000Y-140970000D01*
X165100000Y-140970000D02*
X172720000Y-133350000D01*
X161290000Y-140970000D02*
X161290000Y-127000000D01*
X168910000Y-144780000D02*
X170180000Y-143510000D01*
X161290000Y-146050000D02*
X162560000Y-144780000D01*
X162560000Y-144780000D02*
X168910000Y-144780000D01*
X160020000Y-147320000D02*
X161290000Y-146050000D01*
D18*
X173990000Y-147320000D02*
X173990000Y-120650000D01*
X173990000Y-120650000D02*
X175260000Y-119380000D01*
X176530000Y-147320000D02*
X176530000Y-121920000D01*
X167640000Y-114300000D02*
X167640000Y-106680000D01*
X163830000Y-95250000D02*
X162560000Y-93980000D01*
X163830000Y-102870000D02*
X163830000Y-95250000D01*
X167640000Y-106680000D02*
X163830000Y-102870000D01*
X168910000Y-105410000D02*
X166370000Y-102870000D01*
X166370000Y-95250000D02*
X165100000Y-93980000D01*
X166370000Y-102870000D02*
X166370000Y-95250000D01*
X171450000Y-105410000D02*
X168910000Y-102870000D01*
X168910000Y-95250000D02*
X167640000Y-93980000D01*
X168910000Y-102870000D02*
X168910000Y-95250000D01*
X171450000Y-110490000D02*
X172720000Y-109220000D01*
X171450000Y-95250000D02*
X170180000Y-93980000D01*
X171450000Y-104140000D02*
X171450000Y-95250000D01*
X172720000Y-105410000D02*
X171450000Y-104140000D01*
X172720000Y-109220000D02*
X172720000Y-105410000D01*
X171450000Y-114300000D02*
X173990000Y-111760000D01*
X173990000Y-95250000D02*
X172720000Y-93980000D01*
X173990000Y-111760000D02*
X173990000Y-95250000D01*
X177800000Y-96520000D02*
X175260000Y-93980000D01*
X177800000Y-102870000D02*
X177800000Y-96520000D01*
D20*
G36*
X187250000Y-103433125D02*
X186809273Y-102366485D01*
X185928153Y-101483826D01*
X184776326Y-101005546D01*
X183529146Y-101004457D01*
X182376485Y-101480727D01*
X181493826Y-102361847D01*
X181015546Y-103513674D01*
X181014457Y-104760854D01*
X181490727Y-105913515D01*
X182129097Y-106553000D01*
X180340000Y-106553000D01*
X180290590Y-106563006D01*
X180248965Y-106591447D01*
X180221685Y-106633841D01*
X180213000Y-106680000D01*
X180213000Y-125730000D01*
X180223006Y-125779410D01*
X180251447Y-125821035D01*
X180293841Y-125848315D01*
X180340000Y-125857000D01*
X187250000Y-125857000D01*
X187250000Y-141533125D01*
X186809273Y-140466485D01*
X185928153Y-139583826D01*
X184776326Y-139105546D01*
X183529146Y-139104457D01*
X182376485Y-139580727D01*
X181493826Y-140461847D01*
X181015546Y-141613674D01*
X181014457Y-142860854D01*
X181490727Y-144013515D01*
X182371847Y-144896174D01*
X183523674Y-145374454D01*
X184770854Y-145375543D01*
X185923515Y-144899273D01*
X186806174Y-144018153D01*
X187250000Y-142949301D01*
X187250000Y-149150000D01*
X154380000Y-149150000D01*
X154380000Y-146304000D01*
X158508960Y-146304000D01*
X158508960Y-148336000D01*
X158553238Y-148571317D01*
X158692310Y-148787441D01*
X158904510Y-148932431D01*
X159156400Y-148983440D01*
X160883600Y-148983440D01*
X161118917Y-148939162D01*
X161335041Y-148800090D01*
X161480031Y-148587890D01*
X161499232Y-148493073D01*
X161657964Y-148670732D01*
X162185209Y-148924709D01*
X162200974Y-148927358D01*
X162433000Y-148806217D01*
X162433000Y-147447000D01*
X162413000Y-147447000D01*
X162413000Y-147193000D01*
X162433000Y-147193000D01*
X162433000Y-147173000D01*
X162687000Y-147173000D01*
X162687000Y-147193000D01*
X162707000Y-147193000D01*
X162707000Y-147447000D01*
X162687000Y-147447000D01*
X162687000Y-148806217D01*
X162919026Y-148927358D01*
X162934791Y-148924709D01*
X163462036Y-148670732D01*
X163833539Y-148254931D01*
X164040330Y-148564415D01*
X164526511Y-148889271D01*
X165100000Y-149003345D01*
X165673489Y-148889271D01*
X166159670Y-148564415D01*
X166484526Y-148078234D01*
X166598600Y-147504745D01*
X166598600Y-147135255D01*
X166484526Y-146561766D01*
X166312293Y-146304000D01*
X169938960Y-146304000D01*
X169938960Y-148336000D01*
X169983238Y-148571317D01*
X170122310Y-148787441D01*
X170334510Y-148932431D01*
X170586400Y-148983440D01*
X172313600Y-148983440D01*
X172548917Y-148939162D01*
X172765041Y-148800090D01*
X172910031Y-148587890D01*
X172918400Y-148546561D01*
X172930330Y-148564415D01*
X173416511Y-148889271D01*
X173990000Y-149003345D01*
X174563489Y-148889271D01*
X175049670Y-148564415D01*
X175260000Y-148249634D01*
X175470330Y-148564415D01*
X175956511Y-148889271D01*
X176530000Y-149003345D01*
X177103489Y-148889271D01*
X177589670Y-148564415D01*
X177800000Y-148249634D01*
X178010330Y-148564415D01*
X178496511Y-148889271D01*
X179070000Y-149003345D01*
X179643489Y-148889271D01*
X180129670Y-148564415D01*
X180340000Y-148249634D01*
X180550330Y-148564415D01*
X181036511Y-148889271D01*
X181610000Y-149003345D01*
X182183489Y-148889271D01*
X182669670Y-148564415D01*
X182876461Y-148254931D01*
X183247964Y-148670732D01*
X183775209Y-148924709D01*
X183790974Y-148927358D01*
X184023000Y-148806217D01*
X184023000Y-147447000D01*
X184277000Y-147447000D01*
X184277000Y-148806217D01*
X184509026Y-148927358D01*
X184524791Y-148924709D01*
X185052036Y-148670732D01*
X185441954Y-148234320D01*
X185635184Y-147681913D01*
X185490924Y-147447000D01*
X184277000Y-147447000D01*
X184023000Y-147447000D01*
X184003000Y-147447000D01*
X184003000Y-147193000D01*
X184023000Y-147193000D01*
X184023000Y-145833783D01*
X184277000Y-145833783D01*
X184277000Y-147193000D01*
X185490924Y-147193000D01*
X185635184Y-146958087D01*
X185441954Y-146405680D01*
X185052036Y-145969268D01*
X184524791Y-145715291D01*
X184509026Y-145712642D01*
X184277000Y-145833783D01*
X184023000Y-145833783D01*
X183790974Y-145712642D01*
X183775209Y-145715291D01*
X183247964Y-145969268D01*
X182876461Y-146385069D01*
X182669670Y-146075585D01*
X182183489Y-145750729D01*
X181610000Y-145636655D01*
X181036511Y-145750729D01*
X180550330Y-146075585D01*
X180340000Y-146390366D01*
X180129670Y-146075585D01*
X179643489Y-145750729D01*
X179070000Y-145636655D01*
X178496511Y-145750729D01*
X178010330Y-146075585D01*
X177800000Y-146390366D01*
X177589670Y-146075585D01*
X177290000Y-145875352D01*
X177290000Y-122482463D01*
X177322192Y-122450327D01*
X177464838Y-122106799D01*
X177465162Y-121734833D01*
X177323117Y-121391057D01*
X177060327Y-121127808D01*
X176716799Y-120985162D01*
X176344833Y-120984838D01*
X176001057Y-121126883D01*
X175737808Y-121389673D01*
X175595162Y-121733201D01*
X175594838Y-122105167D01*
X175736883Y-122448943D01*
X175770000Y-122482118D01*
X175770000Y-145875352D01*
X175470330Y-146075585D01*
X175260000Y-146390366D01*
X175049670Y-146075585D01*
X174750000Y-145875352D01*
X174750000Y-120964802D01*
X175399680Y-120315122D01*
X175445167Y-120315162D01*
X175788943Y-120173117D01*
X176052192Y-119910327D01*
X176194838Y-119566799D01*
X176195162Y-119194833D01*
X176053117Y-118851057D01*
X175790327Y-118587808D01*
X175446799Y-118445162D01*
X175074833Y-118444838D01*
X174731057Y-118586883D01*
X174467808Y-118849673D01*
X174325162Y-119193201D01*
X174325121Y-119240077D01*
X173452599Y-120112599D01*
X173287852Y-120359161D01*
X173230000Y-120650000D01*
X173230000Y-145875352D01*
X172930330Y-146075585D01*
X172920757Y-146089913D01*
X172916762Y-146068683D01*
X172777690Y-145852559D01*
X172565490Y-145707569D01*
X172313600Y-145656560D01*
X170586400Y-145656560D01*
X170351083Y-145700838D01*
X170134959Y-145839910D01*
X169989969Y-146052110D01*
X169938960Y-146304000D01*
X166312293Y-146304000D01*
X166159670Y-146075585D01*
X165919338Y-145915000D01*
X168910000Y-145915000D01*
X169344346Y-145828603D01*
X169712566Y-145582566D01*
X170982152Y-144312980D01*
X171141645Y-144153765D01*
X171314803Y-143736756D01*
X171315197Y-143285225D01*
X171142767Y-142867914D01*
X170823765Y-142548355D01*
X170406756Y-142375197D01*
X169955225Y-142374803D01*
X169537914Y-142547233D01*
X169218355Y-142866235D01*
X169218158Y-142866710D01*
X168439868Y-143645000D01*
X162560000Y-143645000D01*
X162125654Y-143731397D01*
X161806955Y-143944345D01*
X161757434Y-143977434D01*
X160078308Y-145656560D01*
X159156400Y-145656560D01*
X158921083Y-145700838D01*
X158704959Y-145839910D01*
X158559969Y-146052110D01*
X158508960Y-146304000D01*
X154380000Y-146304000D01*
X154380000Y-142946875D01*
X154820727Y-144013515D01*
X155701847Y-144896174D01*
X156853674Y-145374454D01*
X158100854Y-145375543D01*
X159253515Y-144899273D01*
X160136174Y-144018153D01*
X160614454Y-142866326D01*
X160615543Y-141619146D01*
X160139273Y-140466485D01*
X159258153Y-139583826D01*
X158106326Y-139105546D01*
X156859146Y-139104457D01*
X155706485Y-139580727D01*
X154823826Y-140461847D01*
X154380000Y-141530699D01*
X154380000Y-104846875D01*
X154820727Y-105913515D01*
X155701847Y-106796174D01*
X156853674Y-107274454D01*
X158100854Y-107275543D01*
X159253515Y-106799273D01*
X160136174Y-105918153D01*
X160614454Y-104766326D01*
X160615543Y-103519146D01*
X160139273Y-102366485D01*
X159258153Y-101483826D01*
X158106326Y-101005546D01*
X156859146Y-101004457D01*
X155706485Y-101480727D01*
X154823826Y-102361847D01*
X154380000Y-103430699D01*
X154380000Y-98044000D01*
X155968960Y-98044000D01*
X155968960Y-100076000D01*
X156013238Y-100311317D01*
X156152310Y-100527441D01*
X156364510Y-100672431D01*
X156616400Y-100723440D01*
X158343600Y-100723440D01*
X158578917Y-100679162D01*
X158795041Y-100540090D01*
X158940031Y-100327890D01*
X158948400Y-100286561D01*
X158960330Y-100304415D01*
X159446511Y-100629271D01*
X160020000Y-100743345D01*
X160593489Y-100629271D01*
X161079670Y-100304415D01*
X161290000Y-99989634D01*
X161500330Y-100304415D01*
X161986511Y-100629271D01*
X162560000Y-100743345D01*
X163070000Y-100641900D01*
X163070000Y-102870000D01*
X163127852Y-103160839D01*
X163292599Y-103407401D01*
X166880000Y-106994802D01*
X166880000Y-113737537D01*
X166847808Y-113769673D01*
X166705162Y-114113201D01*
X166704838Y-114485167D01*
X166846883Y-114828943D01*
X167109673Y-115092192D01*
X167453201Y-115234838D01*
X167825167Y-115235162D01*
X168168943Y-115093117D01*
X168432192Y-114830327D01*
X168574838Y-114486799D01*
X168575162Y-114114833D01*
X168433117Y-113771057D01*
X168400000Y-113737882D01*
X168400000Y-106680000D01*
X168342148Y-106389161D01*
X168177401Y-106142599D01*
X164590000Y-102555198D01*
X164590000Y-100641900D01*
X165100000Y-100743345D01*
X165610000Y-100641900D01*
X165610000Y-102870000D01*
X165667852Y-103160839D01*
X165832599Y-103407401D01*
X167974878Y-105549680D01*
X167974838Y-105595167D01*
X168116883Y-105938943D01*
X168379673Y-106202192D01*
X168723201Y-106344838D01*
X169095167Y-106345162D01*
X169438943Y-106203117D01*
X169702192Y-105940327D01*
X169844838Y-105596799D01*
X169845162Y-105224833D01*
X169703117Y-104881057D01*
X169440327Y-104617808D01*
X169096799Y-104475162D01*
X169049923Y-104475121D01*
X167130000Y-102555198D01*
X167130000Y-100641900D01*
X167640000Y-100743345D01*
X168150000Y-100641900D01*
X168150000Y-102870000D01*
X168207852Y-103160839D01*
X168372599Y-103407401D01*
X170514878Y-105549680D01*
X170514838Y-105595167D01*
X170656883Y-105938943D01*
X170919673Y-106202192D01*
X171263201Y-106344838D01*
X171635167Y-106345162D01*
X171960000Y-106210944D01*
X171960000Y-108905198D01*
X171310320Y-109554878D01*
X171264833Y-109554838D01*
X170921057Y-109696883D01*
X170657808Y-109959673D01*
X170515162Y-110303201D01*
X170514838Y-110675167D01*
X170656883Y-111018943D01*
X170919673Y-111282192D01*
X171263201Y-111424838D01*
X171635167Y-111425162D01*
X171978943Y-111283117D01*
X172242192Y-111020327D01*
X172384838Y-110676799D01*
X172384879Y-110629923D01*
X173230000Y-109784802D01*
X173230000Y-111445198D01*
X171310320Y-113364878D01*
X171264833Y-113364838D01*
X170921057Y-113506883D01*
X170657808Y-113769673D01*
X170515162Y-114113201D01*
X170514838Y-114485167D01*
X170656883Y-114828943D01*
X170919673Y-115092192D01*
X171263201Y-115234838D01*
X171635167Y-115235162D01*
X171978943Y-115093117D01*
X172242192Y-114830327D01*
X172384838Y-114486799D01*
X172384879Y-114439923D01*
X174527401Y-112297401D01*
X174692148Y-112050840D01*
X174701746Y-112002586D01*
X174750000Y-111760000D01*
X174750000Y-100641900D01*
X175260000Y-100743345D01*
X175833489Y-100629271D01*
X176319670Y-100304415D01*
X176644526Y-99818234D01*
X176758600Y-99244745D01*
X176758600Y-98875255D01*
X176644526Y-98301766D01*
X176319670Y-97815585D01*
X176251816Y-97770246D01*
X176551954Y-97434320D01*
X176745184Y-96881913D01*
X176600925Y-96647002D01*
X176758600Y-96647002D01*
X176758600Y-96553402D01*
X177040000Y-96834802D01*
X177040000Y-102307537D01*
X177007808Y-102339673D01*
X176865162Y-102683201D01*
X176864838Y-103055167D01*
X177006883Y-103398943D01*
X177269673Y-103662192D01*
X177613201Y-103804838D01*
X177985167Y-103805162D01*
X178328943Y-103663117D01*
X178592192Y-103400327D01*
X178734838Y-103056799D01*
X178735162Y-102684833D01*
X178593117Y-102341057D01*
X178560000Y-102307882D01*
X178560000Y-96520000D01*
X178502148Y-96229161D01*
X178502148Y-96229160D01*
X178448598Y-96149016D01*
X180930590Y-96149016D01*
X180986271Y-96379611D01*
X181469078Y-96547622D01*
X181979428Y-96518083D01*
X182313729Y-96379611D01*
X182369410Y-96149016D01*
X181650000Y-95429605D01*
X180930590Y-96149016D01*
X178448598Y-96149016D01*
X178337401Y-95982599D01*
X177423880Y-95069078D01*
X180352378Y-95069078D01*
X180381917Y-95579428D01*
X180520389Y-95913729D01*
X180750984Y-95969410D01*
X181470395Y-95250000D01*
X181829605Y-95250000D01*
X182549016Y-95969410D01*
X182779611Y-95913729D01*
X182852560Y-95704098D01*
X182852560Y-95900000D01*
X182896838Y-96135317D01*
X183035910Y-96351441D01*
X183248110Y-96496431D01*
X183500000Y-96547440D01*
X184800000Y-96547440D01*
X185035317Y-96503162D01*
X185251441Y-96364090D01*
X185396431Y-96151890D01*
X185447440Y-95900000D01*
X185447440Y-94600000D01*
X185403162Y-94364683D01*
X185264090Y-94148559D01*
X185051890Y-94003569D01*
X184800000Y-93952560D01*
X183500000Y-93952560D01*
X183264683Y-93996838D01*
X183048559Y-94135910D01*
X182903569Y-94348110D01*
X182852560Y-94600000D01*
X182852560Y-94762385D01*
X182779611Y-94586271D01*
X182549016Y-94530590D01*
X181829605Y-95250000D01*
X181470395Y-95250000D01*
X180750984Y-94530590D01*
X180520389Y-94586271D01*
X180352378Y-95069078D01*
X177423880Y-95069078D01*
X176718939Y-94364137D01*
X176721555Y-94350984D01*
X180930590Y-94350984D01*
X181650000Y-95070395D01*
X182369410Y-94350984D01*
X182313729Y-94120389D01*
X181830922Y-93952378D01*
X181320572Y-93981917D01*
X180986271Y-94120389D01*
X180930590Y-94350984D01*
X176721555Y-94350984D01*
X176758600Y-94164745D01*
X176758600Y-93795255D01*
X176644526Y-93221766D01*
X176319670Y-92735585D01*
X175833489Y-92410729D01*
X175260000Y-92296655D01*
X174686511Y-92410729D01*
X174200330Y-92735585D01*
X173990000Y-93050366D01*
X173779670Y-92735585D01*
X173293489Y-92410729D01*
X172720000Y-92296655D01*
X172146511Y-92410729D01*
X171660330Y-92735585D01*
X171450000Y-93050366D01*
X171239670Y-92735585D01*
X170753489Y-92410729D01*
X170180000Y-92296655D01*
X169606511Y-92410729D01*
X169120330Y-92735585D01*
X168910000Y-93050366D01*
X168699670Y-92735585D01*
X168213489Y-92410729D01*
X167640000Y-92296655D01*
X167066511Y-92410729D01*
X166580330Y-92735585D01*
X166370000Y-93050366D01*
X166159670Y-92735585D01*
X165673489Y-92410729D01*
X165100000Y-92296655D01*
X164526511Y-92410729D01*
X164040330Y-92735585D01*
X163830000Y-93050366D01*
X163619670Y-92735585D01*
X163133489Y-92410729D01*
X162560000Y-92296655D01*
X161986511Y-92410729D01*
X161500330Y-92735585D01*
X161293539Y-93045069D01*
X160922036Y-92629268D01*
X160394791Y-92375291D01*
X160379026Y-92372642D01*
X160147000Y-92493783D01*
X160147000Y-93853000D01*
X160167000Y-93853000D01*
X160167000Y-94107000D01*
X160147000Y-94107000D01*
X160147000Y-96393000D01*
X162433000Y-96393000D01*
X162433000Y-96373000D01*
X162687000Y-96373000D01*
X162687000Y-96393000D01*
X162707000Y-96393000D01*
X162707000Y-96647000D01*
X162687000Y-96647000D01*
X162687000Y-96667000D01*
X162433000Y-96667000D01*
X162433000Y-96647000D01*
X160147000Y-96647000D01*
X160147000Y-96667000D01*
X159893000Y-96667000D01*
X159893000Y-96647000D01*
X157607000Y-96647000D01*
X157607000Y-96667000D01*
X157353000Y-96667000D01*
X157353000Y-96647000D01*
X156140150Y-96647000D01*
X155981400Y-96805750D01*
X155981400Y-97662309D01*
X156029430Y-97778263D01*
X156019969Y-97792110D01*
X155968960Y-98044000D01*
X154380000Y-98044000D01*
X154380000Y-92964000D01*
X155968960Y-92964000D01*
X155968960Y-94996000D01*
X156013238Y-95231317D01*
X156030755Y-95258539D01*
X155981400Y-95377691D01*
X155981400Y-96234250D01*
X156140150Y-96393000D01*
X157353000Y-96393000D01*
X157353000Y-96373000D01*
X157607000Y-96373000D01*
X157607000Y-96393000D01*
X159893000Y-96393000D01*
X159893000Y-94107000D01*
X159873000Y-94107000D01*
X159873000Y-93853000D01*
X159893000Y-93853000D01*
X159893000Y-92493783D01*
X159660974Y-92372642D01*
X159645209Y-92375291D01*
X159117964Y-92629268D01*
X158961093Y-92804845D01*
X158946762Y-92728683D01*
X158807690Y-92512559D01*
X158595490Y-92367569D01*
X158343600Y-92316560D01*
X156616400Y-92316560D01*
X156381083Y-92360838D01*
X156164959Y-92499910D01*
X156019969Y-92712110D01*
X155968960Y-92964000D01*
X154380000Y-92964000D01*
X154380000Y-90880000D01*
X187250000Y-90880000D01*
X187250000Y-103433125D01*
X187250000Y-103433125D01*
G37*
X187250000Y-103433125D02*
X186809273Y-102366485D01*
X185928153Y-101483826D01*
X184776326Y-101005546D01*
X183529146Y-101004457D01*
X182376485Y-101480727D01*
X181493826Y-102361847D01*
X181015546Y-103513674D01*
X181014457Y-104760854D01*
X181490727Y-105913515D01*
X182129097Y-106553000D01*
X180340000Y-106553000D01*
X180290590Y-106563006D01*
X180248965Y-106591447D01*
X180221685Y-106633841D01*
X180213000Y-106680000D01*
X180213000Y-125730000D01*
X180223006Y-125779410D01*
X180251447Y-125821035D01*
X180293841Y-125848315D01*
X180340000Y-125857000D01*
X187250000Y-125857000D01*
X187250000Y-141533125D01*
X186809273Y-140466485D01*
X185928153Y-139583826D01*
X184776326Y-139105546D01*
X183529146Y-139104457D01*
X182376485Y-139580727D01*
X181493826Y-140461847D01*
X181015546Y-141613674D01*
X181014457Y-142860854D01*
X181490727Y-144013515D01*
X182371847Y-144896174D01*
X183523674Y-145374454D01*
X184770854Y-145375543D01*
X185923515Y-144899273D01*
X186806174Y-144018153D01*
X187250000Y-142949301D01*
X187250000Y-149150000D01*
X154380000Y-149150000D01*
X154380000Y-146304000D01*
X158508960Y-146304000D01*
X158508960Y-148336000D01*
X158553238Y-148571317D01*
X158692310Y-148787441D01*
X158904510Y-148932431D01*
X159156400Y-148983440D01*
X160883600Y-148983440D01*
X161118917Y-148939162D01*
X161335041Y-148800090D01*
X161480031Y-148587890D01*
X161499232Y-148493073D01*
X161657964Y-148670732D01*
X162185209Y-148924709D01*
X162200974Y-148927358D01*
X162433000Y-148806217D01*
X162433000Y-147447000D01*
X162413000Y-147447000D01*
X162413000Y-147193000D01*
X162433000Y-147193000D01*
X162433000Y-147173000D01*
X162687000Y-147173000D01*
X162687000Y-147193000D01*
X162707000Y-147193000D01*
X162707000Y-147447000D01*
X162687000Y-147447000D01*
X162687000Y-148806217D01*
X162919026Y-148927358D01*
X162934791Y-148924709D01*
X163462036Y-148670732D01*
X163833539Y-148254931D01*
X164040330Y-148564415D01*
X164526511Y-148889271D01*
X165100000Y-149003345D01*
X165673489Y-148889271D01*
X166159670Y-148564415D01*
X166484526Y-148078234D01*
X166598600Y-147504745D01*
X166598600Y-147135255D01*
X166484526Y-146561766D01*
X166312293Y-146304000D01*
X169938960Y-146304000D01*
X169938960Y-148336000D01*
X169983238Y-148571317D01*
X170122310Y-148787441D01*
X170334510Y-148932431D01*
X170586400Y-148983440D01*
X172313600Y-148983440D01*
X172548917Y-148939162D01*
X172765041Y-148800090D01*
X172910031Y-148587890D01*
X172918400Y-148546561D01*
X172930330Y-148564415D01*
X173416511Y-148889271D01*
X173990000Y-149003345D01*
X174563489Y-148889271D01*
X175049670Y-148564415D01*
X175260000Y-148249634D01*
X175470330Y-148564415D01*
X175956511Y-148889271D01*
X176530000Y-149003345D01*
X177103489Y-148889271D01*
X177589670Y-148564415D01*
X177800000Y-148249634D01*
X178010330Y-148564415D01*
X178496511Y-148889271D01*
X179070000Y-149003345D01*
X179643489Y-148889271D01*
X180129670Y-148564415D01*
X180340000Y-148249634D01*
X180550330Y-148564415D01*
X181036511Y-148889271D01*
X181610000Y-149003345D01*
X182183489Y-148889271D01*
X182669670Y-148564415D01*
X182876461Y-148254931D01*
X183247964Y-148670732D01*
X183775209Y-148924709D01*
X183790974Y-148927358D01*
X184023000Y-148806217D01*
X184023000Y-147447000D01*
X184277000Y-147447000D01*
X184277000Y-148806217D01*
X184509026Y-148927358D01*
X184524791Y-148924709D01*
X185052036Y-148670732D01*
X185441954Y-148234320D01*
X185635184Y-147681913D01*
X185490924Y-147447000D01*
X184277000Y-147447000D01*
X184023000Y-147447000D01*
X184003000Y-147447000D01*
X184003000Y-147193000D01*
X184023000Y-147193000D01*
X184023000Y-145833783D01*
X184277000Y-145833783D01*
X184277000Y-147193000D01*
X185490924Y-147193000D01*
X185635184Y-146958087D01*
X185441954Y-146405680D01*
X185052036Y-145969268D01*
X184524791Y-145715291D01*
X184509026Y-145712642D01*
X184277000Y-145833783D01*
X184023000Y-145833783D01*
X183790974Y-145712642D01*
X183775209Y-145715291D01*
X183247964Y-145969268D01*
X182876461Y-146385069D01*
X182669670Y-146075585D01*
X182183489Y-145750729D01*
X181610000Y-145636655D01*
X181036511Y-145750729D01*
X180550330Y-146075585D01*
X180340000Y-146390366D01*
X180129670Y-146075585D01*
X179643489Y-145750729D01*
X179070000Y-145636655D01*
X178496511Y-145750729D01*
X178010330Y-146075585D01*
X177800000Y-146390366D01*
X177589670Y-146075585D01*
X177290000Y-145875352D01*
X177290000Y-122482463D01*
X177322192Y-122450327D01*
X177464838Y-122106799D01*
X177465162Y-121734833D01*
X177323117Y-121391057D01*
X177060327Y-121127808D01*
X176716799Y-120985162D01*
X176344833Y-120984838D01*
X176001057Y-121126883D01*
X175737808Y-121389673D01*
X175595162Y-121733201D01*
X175594838Y-122105167D01*
X175736883Y-122448943D01*
X175770000Y-122482118D01*
X175770000Y-145875352D01*
X175470330Y-146075585D01*
X175260000Y-146390366D01*
X175049670Y-146075585D01*
X174750000Y-145875352D01*
X174750000Y-120964802D01*
X175399680Y-120315122D01*
X175445167Y-120315162D01*
X175788943Y-120173117D01*
X176052192Y-119910327D01*
X176194838Y-119566799D01*
X176195162Y-119194833D01*
X176053117Y-118851057D01*
X175790327Y-118587808D01*
X175446799Y-118445162D01*
X175074833Y-118444838D01*
X174731057Y-118586883D01*
X174467808Y-118849673D01*
X174325162Y-119193201D01*
X174325121Y-119240077D01*
X173452599Y-120112599D01*
X173287852Y-120359161D01*
X173230000Y-120650000D01*
X173230000Y-145875352D01*
X172930330Y-146075585D01*
X172920757Y-146089913D01*
X172916762Y-146068683D01*
X172777690Y-145852559D01*
X172565490Y-145707569D01*
X172313600Y-145656560D01*
X170586400Y-145656560D01*
X170351083Y-145700838D01*
X170134959Y-145839910D01*
X169989969Y-146052110D01*
X169938960Y-146304000D01*
X166312293Y-146304000D01*
X166159670Y-146075585D01*
X165919338Y-145915000D01*
X168910000Y-145915000D01*
X169344346Y-145828603D01*
X169712566Y-145582566D01*
X170982152Y-144312980D01*
X171141645Y-144153765D01*
X171314803Y-143736756D01*
X171315197Y-143285225D01*
X171142767Y-142867914D01*
X170823765Y-142548355D01*
X170406756Y-142375197D01*
X169955225Y-142374803D01*
X169537914Y-142547233D01*
X169218355Y-142866235D01*
X169218158Y-142866710D01*
X168439868Y-143645000D01*
X162560000Y-143645000D01*
X162125654Y-143731397D01*
X161806955Y-143944345D01*
X161757434Y-143977434D01*
X160078308Y-145656560D01*
X159156400Y-145656560D01*
X158921083Y-145700838D01*
X158704959Y-145839910D01*
X158559969Y-146052110D01*
X158508960Y-146304000D01*
X154380000Y-146304000D01*
X154380000Y-142946875D01*
X154820727Y-144013515D01*
X155701847Y-144896174D01*
X156853674Y-145374454D01*
X158100854Y-145375543D01*
X159253515Y-144899273D01*
X160136174Y-144018153D01*
X160614454Y-142866326D01*
X160615543Y-141619146D01*
X160139273Y-140466485D01*
X159258153Y-139583826D01*
X158106326Y-139105546D01*
X156859146Y-139104457D01*
X155706485Y-139580727D01*
X154823826Y-140461847D01*
X154380000Y-141530699D01*
X154380000Y-104846875D01*
X154820727Y-105913515D01*
X155701847Y-106796174D01*
X156853674Y-107274454D01*
X158100854Y-107275543D01*
X159253515Y-106799273D01*
X160136174Y-105918153D01*
X160614454Y-104766326D01*
X160615543Y-103519146D01*
X160139273Y-102366485D01*
X159258153Y-101483826D01*
X158106326Y-101005546D01*
X156859146Y-101004457D01*
X155706485Y-101480727D01*
X154823826Y-102361847D01*
X154380000Y-103430699D01*
X154380000Y-98044000D01*
X155968960Y-98044000D01*
X155968960Y-100076000D01*
X156013238Y-100311317D01*
X156152310Y-100527441D01*
X156364510Y-100672431D01*
X156616400Y-100723440D01*
X158343600Y-100723440D01*
X158578917Y-100679162D01*
X158795041Y-100540090D01*
X158940031Y-100327890D01*
X158948400Y-100286561D01*
X158960330Y-100304415D01*
X159446511Y-100629271D01*
X160020000Y-100743345D01*
X160593489Y-100629271D01*
X161079670Y-100304415D01*
X161290000Y-99989634D01*
X161500330Y-100304415D01*
X161986511Y-100629271D01*
X162560000Y-100743345D01*
X163070000Y-100641900D01*
X163070000Y-102870000D01*
X163127852Y-103160839D01*
X163292599Y-103407401D01*
X166880000Y-106994802D01*
X166880000Y-113737537D01*
X166847808Y-113769673D01*
X166705162Y-114113201D01*
X166704838Y-114485167D01*
X166846883Y-114828943D01*
X167109673Y-115092192D01*
X167453201Y-115234838D01*
X167825167Y-115235162D01*
X168168943Y-115093117D01*
X168432192Y-114830327D01*
X168574838Y-114486799D01*
X168575162Y-114114833D01*
X168433117Y-113771057D01*
X168400000Y-113737882D01*
X168400000Y-106680000D01*
X168342148Y-106389161D01*
X168177401Y-106142599D01*
X164590000Y-102555198D01*
X164590000Y-100641900D01*
X165100000Y-100743345D01*
X165610000Y-100641900D01*
X165610000Y-102870000D01*
X165667852Y-103160839D01*
X165832599Y-103407401D01*
X167974878Y-105549680D01*
X167974838Y-105595167D01*
X168116883Y-105938943D01*
X168379673Y-106202192D01*
X168723201Y-106344838D01*
X169095167Y-106345162D01*
X169438943Y-106203117D01*
X169702192Y-105940327D01*
X169844838Y-105596799D01*
X169845162Y-105224833D01*
X169703117Y-104881057D01*
X169440327Y-104617808D01*
X169096799Y-104475162D01*
X169049923Y-104475121D01*
X167130000Y-102555198D01*
X167130000Y-100641900D01*
X167640000Y-100743345D01*
X168150000Y-100641900D01*
X168150000Y-102870000D01*
X168207852Y-103160839D01*
X168372599Y-103407401D01*
X170514878Y-105549680D01*
X170514838Y-105595167D01*
X170656883Y-105938943D01*
X170919673Y-106202192D01*
X171263201Y-106344838D01*
X171635167Y-106345162D01*
X171960000Y-106210944D01*
X171960000Y-108905198D01*
X171310320Y-109554878D01*
X171264833Y-109554838D01*
X170921057Y-109696883D01*
X170657808Y-109959673D01*
X170515162Y-110303201D01*
X170514838Y-110675167D01*
X170656883Y-111018943D01*
X170919673Y-111282192D01*
X171263201Y-111424838D01*
X171635167Y-111425162D01*
X171978943Y-111283117D01*
X172242192Y-111020327D01*
X172384838Y-110676799D01*
X172384879Y-110629923D01*
X173230000Y-109784802D01*
X173230000Y-111445198D01*
X171310320Y-113364878D01*
X171264833Y-113364838D01*
X170921057Y-113506883D01*
X170657808Y-113769673D01*
X170515162Y-114113201D01*
X170514838Y-114485167D01*
X170656883Y-114828943D01*
X170919673Y-115092192D01*
X171263201Y-115234838D01*
X171635167Y-115235162D01*
X171978943Y-115093117D01*
X172242192Y-114830327D01*
X172384838Y-114486799D01*
X172384879Y-114439923D01*
X174527401Y-112297401D01*
X174692148Y-112050840D01*
X174701746Y-112002586D01*
X174750000Y-111760000D01*
X174750000Y-100641900D01*
X175260000Y-100743345D01*
X175833489Y-100629271D01*
X176319670Y-100304415D01*
X176644526Y-99818234D01*
X176758600Y-99244745D01*
X176758600Y-98875255D01*
X176644526Y-98301766D01*
X176319670Y-97815585D01*
X176251816Y-97770246D01*
X176551954Y-97434320D01*
X176745184Y-96881913D01*
X176600925Y-96647002D01*
X176758600Y-96647002D01*
X176758600Y-96553402D01*
X177040000Y-96834802D01*
X177040000Y-102307537D01*
X177007808Y-102339673D01*
X176865162Y-102683201D01*
X176864838Y-103055167D01*
X177006883Y-103398943D01*
X177269673Y-103662192D01*
X177613201Y-103804838D01*
X177985167Y-103805162D01*
X178328943Y-103663117D01*
X178592192Y-103400327D01*
X178734838Y-103056799D01*
X178735162Y-102684833D01*
X178593117Y-102341057D01*
X178560000Y-102307882D01*
X178560000Y-96520000D01*
X178502148Y-96229161D01*
X178502148Y-96229160D01*
X178448598Y-96149016D01*
X180930590Y-96149016D01*
X180986271Y-96379611D01*
X181469078Y-96547622D01*
X181979428Y-96518083D01*
X182313729Y-96379611D01*
X182369410Y-96149016D01*
X181650000Y-95429605D01*
X180930590Y-96149016D01*
X178448598Y-96149016D01*
X178337401Y-95982599D01*
X177423880Y-95069078D01*
X180352378Y-95069078D01*
X180381917Y-95579428D01*
X180520389Y-95913729D01*
X180750984Y-95969410D01*
X181470395Y-95250000D01*
X181829605Y-95250000D01*
X182549016Y-95969410D01*
X182779611Y-95913729D01*
X182852560Y-95704098D01*
X182852560Y-95900000D01*
X182896838Y-96135317D01*
X183035910Y-96351441D01*
X183248110Y-96496431D01*
X183500000Y-96547440D01*
X184800000Y-96547440D01*
X185035317Y-96503162D01*
X185251441Y-96364090D01*
X185396431Y-96151890D01*
X185447440Y-95900000D01*
X185447440Y-94600000D01*
X185403162Y-94364683D01*
X185264090Y-94148559D01*
X185051890Y-94003569D01*
X184800000Y-93952560D01*
X183500000Y-93952560D01*
X183264683Y-93996838D01*
X183048559Y-94135910D01*
X182903569Y-94348110D01*
X182852560Y-94600000D01*
X182852560Y-94762385D01*
X182779611Y-94586271D01*
X182549016Y-94530590D01*
X181829605Y-95250000D01*
X181470395Y-95250000D01*
X180750984Y-94530590D01*
X180520389Y-94586271D01*
X180352378Y-95069078D01*
X177423880Y-95069078D01*
X176718939Y-94364137D01*
X176721555Y-94350984D01*
X180930590Y-94350984D01*
X181650000Y-95070395D01*
X182369410Y-94350984D01*
X182313729Y-94120389D01*
X181830922Y-93952378D01*
X181320572Y-93981917D01*
X180986271Y-94120389D01*
X180930590Y-94350984D01*
X176721555Y-94350984D01*
X176758600Y-94164745D01*
X176758600Y-93795255D01*
X176644526Y-93221766D01*
X176319670Y-92735585D01*
X175833489Y-92410729D01*
X175260000Y-92296655D01*
X174686511Y-92410729D01*
X174200330Y-92735585D01*
X173990000Y-93050366D01*
X173779670Y-92735585D01*
X173293489Y-92410729D01*
X172720000Y-92296655D01*
X172146511Y-92410729D01*
X171660330Y-92735585D01*
X171450000Y-93050366D01*
X171239670Y-92735585D01*
X170753489Y-92410729D01*
X170180000Y-92296655D01*
X169606511Y-92410729D01*
X169120330Y-92735585D01*
X168910000Y-93050366D01*
X168699670Y-92735585D01*
X168213489Y-92410729D01*
X167640000Y-92296655D01*
X167066511Y-92410729D01*
X166580330Y-92735585D01*
X166370000Y-93050366D01*
X166159670Y-92735585D01*
X165673489Y-92410729D01*
X165100000Y-92296655D01*
X164526511Y-92410729D01*
X164040330Y-92735585D01*
X163830000Y-93050366D01*
X163619670Y-92735585D01*
X163133489Y-92410729D01*
X162560000Y-92296655D01*
X161986511Y-92410729D01*
X161500330Y-92735585D01*
X161293539Y-93045069D01*
X160922036Y-92629268D01*
X160394791Y-92375291D01*
X160379026Y-92372642D01*
X160147000Y-92493783D01*
X160147000Y-93853000D01*
X160167000Y-93853000D01*
X160167000Y-94107000D01*
X160147000Y-94107000D01*
X160147000Y-96393000D01*
X162433000Y-96393000D01*
X162433000Y-96373000D01*
X162687000Y-96373000D01*
X162687000Y-96393000D01*
X162707000Y-96393000D01*
X162707000Y-96647000D01*
X162687000Y-96647000D01*
X162687000Y-96667000D01*
X162433000Y-96667000D01*
X162433000Y-96647000D01*
X160147000Y-96647000D01*
X160147000Y-96667000D01*
X159893000Y-96667000D01*
X159893000Y-96647000D01*
X157607000Y-96647000D01*
X157607000Y-96667000D01*
X157353000Y-96667000D01*
X157353000Y-96647000D01*
X156140150Y-96647000D01*
X155981400Y-96805750D01*
X155981400Y-97662309D01*
X156029430Y-97778263D01*
X156019969Y-97792110D01*
X155968960Y-98044000D01*
X154380000Y-98044000D01*
X154380000Y-92964000D01*
X155968960Y-92964000D01*
X155968960Y-94996000D01*
X156013238Y-95231317D01*
X156030755Y-95258539D01*
X155981400Y-95377691D01*
X155981400Y-96234250D01*
X156140150Y-96393000D01*
X157353000Y-96393000D01*
X157353000Y-96373000D01*
X157607000Y-96373000D01*
X157607000Y-96393000D01*
X159893000Y-96393000D01*
X159893000Y-94107000D01*
X159873000Y-94107000D01*
X159873000Y-93853000D01*
X159893000Y-93853000D01*
X159893000Y-92493783D01*
X159660974Y-92372642D01*
X159645209Y-92375291D01*
X159117964Y-92629268D01*
X158961093Y-92804845D01*
X158946762Y-92728683D01*
X158807690Y-92512559D01*
X158595490Y-92367569D01*
X158343600Y-92316560D01*
X156616400Y-92316560D01*
X156381083Y-92360838D01*
X156164959Y-92499910D01*
X156019969Y-92712110D01*
X155968960Y-92964000D01*
X154380000Y-92964000D01*
X154380000Y-90880000D01*
X187250000Y-90880000D01*
X187250000Y-103433125D01*
G36*
X175387000Y-96393000D02*
X175407000Y-96393000D01*
X175407000Y-96647000D01*
X175387000Y-96647000D01*
X175387000Y-96667000D01*
X175133000Y-96667000D01*
X175133000Y-96647000D01*
X175113000Y-96647000D01*
X175113000Y-96393000D01*
X175133000Y-96393000D01*
X175133000Y-96373000D01*
X175387000Y-96373000D01*
X175387000Y-96393000D01*
X175387000Y-96393000D01*
G37*
X175387000Y-96393000D02*
X175407000Y-96393000D01*
X175407000Y-96647000D01*
X175387000Y-96647000D01*
X175387000Y-96667000D01*
X175133000Y-96667000D01*
X175133000Y-96647000D01*
X175113000Y-96647000D01*
X175113000Y-96393000D01*
X175133000Y-96393000D01*
X175133000Y-96373000D01*
X175387000Y-96373000D01*
X175387000Y-96393000D01*
G36*
X172847000Y-96393000D02*
X172867000Y-96393000D01*
X172867000Y-96647000D01*
X172847000Y-96647000D01*
X172847000Y-96667000D01*
X172593000Y-96667000D01*
X172593000Y-96647000D01*
X172573000Y-96647000D01*
X172573000Y-96393000D01*
X172593000Y-96393000D01*
X172593000Y-96373000D01*
X172847000Y-96373000D01*
X172847000Y-96393000D01*
X172847000Y-96393000D01*
G37*
X172847000Y-96393000D02*
X172867000Y-96393000D01*
X172867000Y-96647000D01*
X172847000Y-96647000D01*
X172847000Y-96667000D01*
X172593000Y-96667000D01*
X172593000Y-96647000D01*
X172573000Y-96647000D01*
X172573000Y-96393000D01*
X172593000Y-96393000D01*
X172593000Y-96373000D01*
X172847000Y-96373000D01*
X172847000Y-96393000D01*
G36*
X170307000Y-96393000D02*
X170327000Y-96393000D01*
X170327000Y-96647000D01*
X170307000Y-96647000D01*
X170307000Y-96667000D01*
X170053000Y-96667000D01*
X170053000Y-96647000D01*
X170033000Y-96647000D01*
X170033000Y-96393000D01*
X170053000Y-96393000D01*
X170053000Y-96373000D01*
X170307000Y-96373000D01*
X170307000Y-96393000D01*
X170307000Y-96393000D01*
G37*
X170307000Y-96393000D02*
X170327000Y-96393000D01*
X170327000Y-96647000D01*
X170307000Y-96647000D01*
X170307000Y-96667000D01*
X170053000Y-96667000D01*
X170053000Y-96647000D01*
X170033000Y-96647000D01*
X170033000Y-96393000D01*
X170053000Y-96393000D01*
X170053000Y-96373000D01*
X170307000Y-96373000D01*
X170307000Y-96393000D01*
G36*
X167767000Y-96393000D02*
X167787000Y-96393000D01*
X167787000Y-96647000D01*
X167767000Y-96647000D01*
X167767000Y-96667000D01*
X167513000Y-96667000D01*
X167513000Y-96647000D01*
X167493000Y-96647000D01*
X167493000Y-96393000D01*
X167513000Y-96393000D01*
X167513000Y-96373000D01*
X167767000Y-96373000D01*
X167767000Y-96393000D01*
X167767000Y-96393000D01*
G37*
X167767000Y-96393000D02*
X167787000Y-96393000D01*
X167787000Y-96647000D01*
X167767000Y-96647000D01*
X167767000Y-96667000D01*
X167513000Y-96667000D01*
X167513000Y-96647000D01*
X167493000Y-96647000D01*
X167493000Y-96393000D01*
X167513000Y-96393000D01*
X167513000Y-96373000D01*
X167767000Y-96373000D01*
X167767000Y-96393000D01*
G36*
X165227000Y-96393000D02*
X165247000Y-96393000D01*
X165247000Y-96647000D01*
X165227000Y-96647000D01*
X165227000Y-96667000D01*
X164973000Y-96667000D01*
X164973000Y-96647000D01*
X164953000Y-96647000D01*
X164953000Y-96393000D01*
X164973000Y-96393000D01*
X164973000Y-96373000D01*
X165227000Y-96373000D01*
X165227000Y-96393000D01*
X165227000Y-96393000D01*
G37*
X165227000Y-96393000D02*
X165247000Y-96393000D01*
X165247000Y-96647000D01*
X165227000Y-96647000D01*
X165227000Y-96667000D01*
X164973000Y-96667000D01*
X164973000Y-96647000D01*
X164953000Y-96647000D01*
X164953000Y-96393000D01*
X164973000Y-96393000D01*
X164973000Y-96373000D01*
X165227000Y-96373000D01*
X165227000Y-96393000D01*
M02*
