G04 #@! TF.FileFunction,Copper,L1,Top,Signal*
%FSLAX46Y46*%
G04 Gerber Fmt 4.6, Leading zero omitted, Abs format (unit mm)*
G04 Created by KiCad (PCBNEW 4.0.1-stable) date Wednesday, 10 February 2016 'pmt' 16:49:47*
%MOMM*%
G01*
G04 APERTURE LIST*
%ADD10C,0.100000*%
%ADD11R,1.501140X2.999740*%
%ADD12R,1.300000X1.500000*%
%ADD13R,1.727200X2.032000*%
%ADD14O,1.727200X2.032000*%
%ADD15R,1.200000X0.900000*%
%ADD16R,0.900000X1.200000*%
%ADD17R,2.750000X1.000000*%
%ADD18R,3.657600X2.032000*%
%ADD19R,1.016000X2.032000*%
%ADD20O,2.400000X1.100000*%
%ADD21R,1.100000X2.400000*%
%ADD22O,1.100000X2.400000*%
%ADD23C,5.000000*%
%ADD24C,1.300000*%
%ADD25R,1.300000X1.300000*%
%ADD26C,0.600000*%
%ADD27C,1.000000*%
%ADD28C,1.000000*%
%ADD29C,0.250000*%
%ADD30C,0.254000*%
G04 APERTURE END LIST*
D10*
D11*
X172720000Y-137701020D03*
X172720000Y-141698980D03*
X158750000Y-127541020D03*
X158750000Y-131538980D03*
D12*
X171450000Y-128190000D03*
X171450000Y-130890000D03*
D13*
X160020000Y-147320000D03*
D14*
X162560000Y-147320000D03*
X165100000Y-147320000D03*
D13*
X171450000Y-147320000D03*
D14*
X173990000Y-147320000D03*
X176530000Y-147320000D03*
X179070000Y-147320000D03*
X181610000Y-147320000D03*
X184150000Y-147320000D03*
D13*
X157480000Y-93980000D03*
D14*
X160020000Y-93980000D03*
X162560000Y-93980000D03*
X165100000Y-93980000D03*
X167640000Y-93980000D03*
X170180000Y-93980000D03*
X172720000Y-93980000D03*
X175260000Y-93980000D03*
D13*
X157480000Y-99060000D03*
D14*
X160020000Y-99060000D03*
X162560000Y-99060000D03*
X165100000Y-99060000D03*
X167640000Y-99060000D03*
X170180000Y-99060000D03*
X172720000Y-99060000D03*
X175260000Y-99060000D03*
D13*
X157480000Y-96520000D03*
D14*
X160020000Y-96520000D03*
X162560000Y-96520000D03*
X165100000Y-96520000D03*
X167640000Y-96520000D03*
X170180000Y-96520000D03*
X172720000Y-96520000D03*
X175260000Y-96520000D03*
D15*
X174160000Y-104140000D03*
X176360000Y-104140000D03*
X162730000Y-104140000D03*
X164930000Y-104140000D03*
X176700000Y-142240000D03*
X178900000Y-142240000D03*
D16*
X173990000Y-130640000D03*
X173990000Y-128440000D03*
D15*
X164000000Y-132080000D03*
X166200000Y-132080000D03*
X166200000Y-127000000D03*
X164000000Y-127000000D03*
D17*
X183215000Y-133890000D03*
X177465000Y-133890000D03*
X177465000Y-137890000D03*
X183215000Y-137890000D03*
X177465000Y-131540000D03*
X183215000Y-131540000D03*
X183215000Y-127540000D03*
X177465000Y-127540000D03*
D18*
X165100000Y-136398000D03*
D19*
X165100000Y-143002000D03*
X167386000Y-143002000D03*
X162814000Y-143002000D03*
D20*
X162050000Y-110940000D03*
X162050000Y-112940000D03*
X162050000Y-114940000D03*
X162050000Y-116940000D03*
X162050000Y-118940000D03*
X162050000Y-120940000D03*
D21*
X177800000Y-107950000D03*
D22*
X175800000Y-107950000D03*
X173800000Y-107950000D03*
X171800000Y-107950000D03*
X169800000Y-107950000D03*
X167800000Y-107950000D03*
X165800000Y-107950000D03*
X163800000Y-107950000D03*
X163800000Y-123950000D03*
X165800000Y-123950000D03*
X167800000Y-123950000D03*
X169800000Y-123950000D03*
X171800000Y-123950000D03*
X173800000Y-123950000D03*
X175800000Y-123950000D03*
X177800000Y-123950000D03*
D23*
X184150000Y-104140000D03*
X157480000Y-104140000D03*
X184150000Y-142240000D03*
X157480000Y-142240000D03*
D24*
X181650000Y-95250000D03*
D25*
X184150000Y-95250000D03*
D26*
X182880000Y-129540000D03*
D27*
X172720000Y-133350000D03*
X161290000Y-127000000D03*
X161290000Y-140970000D03*
X170180000Y-143510000D03*
D26*
X175260000Y-119380000D03*
X176530000Y-121920000D03*
X167640000Y-114300000D03*
X168910000Y-105410000D03*
X171450000Y-105410000D03*
X171450000Y-110490000D03*
X171450000Y-114300000D03*
X177800000Y-102870000D03*
D28*
X162560000Y-147320000D02*
X162560000Y-143256000D01*
X162560000Y-143256000D02*
X162814000Y-143002000D01*
D29*
X183215000Y-133890000D02*
X183215000Y-134285000D01*
X183215000Y-134285000D02*
X180340000Y-137160000D01*
X180340000Y-143510000D02*
X184150000Y-147320000D01*
X180340000Y-137160000D02*
X180340000Y-143510000D01*
X162560000Y-143256000D02*
X162814000Y-143002000D01*
X183215000Y-131540000D02*
X183215000Y-133890000D01*
X183215000Y-129875000D02*
X183215000Y-131540000D01*
X182880000Y-129540000D02*
X183215000Y-129875000D01*
D28*
X172720000Y-133350000D02*
X176925000Y-133350000D01*
X177465000Y-132810000D02*
X177465000Y-131540000D01*
X176925000Y-133350000D02*
X177465000Y-132810000D01*
X172720000Y-133350000D02*
X172720000Y-137701020D01*
X161290000Y-127000000D02*
X164000000Y-127000000D01*
X164000000Y-127000000D02*
X163800000Y-126800000D01*
X163800000Y-126800000D02*
X163800000Y-123950000D01*
X162814000Y-143002000D02*
X162814000Y-142494000D01*
X162814000Y-142494000D02*
X161290000Y-140970000D01*
X160748980Y-127541020D02*
X158750000Y-127541020D01*
X161290000Y-127000000D02*
X160748980Y-127541020D01*
X160020000Y-96520000D02*
X160020000Y-93980000D01*
X157480000Y-96520000D02*
X160020000Y-96520000D01*
X160020000Y-96520000D02*
X162560000Y-96520000D01*
X162560000Y-96520000D02*
X165100000Y-96520000D01*
X165100000Y-96520000D02*
X167640000Y-96520000D01*
X167640000Y-96520000D02*
X170180000Y-96520000D01*
X170180000Y-96520000D02*
X172720000Y-96520000D01*
X172720000Y-96520000D02*
X175260000Y-96520000D01*
D29*
X160020000Y-96520000D02*
X162560000Y-96520000D01*
X162560000Y-96520000D02*
X165100000Y-96520000D01*
X165100000Y-96520000D02*
X167640000Y-96520000D01*
X167640000Y-96520000D02*
X170180000Y-96520000D01*
X170180000Y-96520000D02*
X172720000Y-96520000D01*
X172720000Y-96520000D02*
X175260000Y-96520000D01*
D28*
X170180000Y-143510000D02*
X170908980Y-143510000D01*
X170908980Y-143510000D02*
X172720000Y-141698980D01*
X169672000Y-143002000D02*
X167386000Y-143002000D01*
X170180000Y-143510000D02*
X169672000Y-143002000D01*
X165100000Y-143002000D02*
X165100000Y-136398000D01*
X165100000Y-147320000D02*
X165100000Y-146050000D01*
X165100000Y-146050000D02*
X166370000Y-144780000D01*
X173990000Y-144780000D02*
X176530000Y-142240000D01*
X166370000Y-144780000D02*
X173990000Y-144780000D01*
X176530000Y-142240000D02*
X176700000Y-142240000D01*
X164000000Y-132080000D02*
X164000000Y-132250000D01*
X164000000Y-132250000D02*
X165100000Y-133350000D01*
X168990000Y-133350000D02*
X171450000Y-130890000D01*
X165100000Y-133350000D02*
X168990000Y-133350000D01*
X165100000Y-143002000D02*
X165100000Y-146050000D01*
X158750000Y-131538980D02*
X158750000Y-137160000D01*
X158750000Y-137160000D02*
X160020000Y-138430000D01*
X164000000Y-132080000D02*
X163830000Y-132080000D01*
X165100000Y-140970000D02*
X165100000Y-143002000D01*
X160020000Y-138430000D02*
X162560000Y-138430000D01*
X162560000Y-138430000D02*
X165100000Y-140970000D01*
X158750000Y-131538980D02*
X163458980Y-131538980D01*
X163458980Y-131538980D02*
X164000000Y-132080000D01*
X157480000Y-99060000D02*
X160020000Y-99060000D01*
X160020000Y-99060000D02*
X162560000Y-99060000D01*
X162560000Y-99060000D02*
X165100000Y-99060000D01*
X165100000Y-99060000D02*
X167640000Y-99060000D01*
X167640000Y-99060000D02*
X170180000Y-99060000D01*
X170180000Y-99060000D02*
X172720000Y-99060000D01*
X172720000Y-99060000D02*
X175260000Y-99060000D01*
X163800000Y-107950000D02*
X163800000Y-105210000D01*
X163800000Y-105210000D02*
X162560000Y-103970000D01*
X163800000Y-107950000D02*
X161290000Y-107950000D01*
X161290000Y-107950000D02*
X158750000Y-110490000D01*
X158750000Y-110490000D02*
X158750000Y-123190000D01*
X158750000Y-123190000D02*
X156210000Y-125730000D01*
X156210000Y-125730000D02*
X156210000Y-129540000D01*
X156210000Y-129540000D02*
X158208980Y-131538980D01*
X158208980Y-131538980D02*
X158750000Y-131538980D01*
D29*
X162560000Y-103970000D02*
X163800000Y-105210000D01*
X156210000Y-128998980D02*
X158750000Y-131538980D01*
X156210000Y-125730000D02*
X156210000Y-128998980D01*
X158750000Y-123190000D02*
X156210000Y-125730000D01*
X158750000Y-110490000D02*
X158750000Y-123190000D01*
X161290000Y-107950000D02*
X158750000Y-110490000D01*
X160020000Y-99060000D02*
X162560000Y-99060000D01*
X160020000Y-99060000D02*
X165100000Y-99060000D01*
X165100000Y-99060000D02*
X167640000Y-99060000D01*
X167640000Y-99060000D02*
X170180000Y-99060000D01*
X170180000Y-99060000D02*
X172720000Y-99060000D01*
X172720000Y-99060000D02*
X175260000Y-99060000D01*
X174160000Y-104140000D02*
X174160000Y-100160000D01*
X174160000Y-100160000D02*
X170180000Y-99060000D01*
X171450000Y-128190000D02*
X171540000Y-128190000D01*
X171540000Y-128190000D02*
X173990000Y-130640000D01*
X177800000Y-120650000D02*
X177800000Y-123950000D01*
X176530000Y-119380000D02*
X177800000Y-120650000D01*
X175260000Y-119380000D02*
X176530000Y-119380000D01*
X176530000Y-121920000D02*
X175800000Y-122650000D01*
X175800000Y-122650000D02*
X175800000Y-123950000D01*
X166200000Y-132080000D02*
X166370000Y-132080000D01*
X166370000Y-132080000D02*
X167800000Y-130650000D01*
X167800000Y-130650000D02*
X167800000Y-114460000D01*
X167800000Y-114460000D02*
X167640000Y-114300000D01*
X167800000Y-114460000D02*
X167640000Y-114300000D01*
X167800000Y-123950000D02*
X167800000Y-114460000D01*
X168910000Y-105410000D02*
X167640000Y-106680000D01*
X167640000Y-106680000D02*
X167640000Y-107790000D01*
X167640000Y-107790000D02*
X167800000Y-107950000D01*
X169070000Y-105570000D02*
X168910000Y-105410000D01*
X169800000Y-107950000D02*
X169800000Y-107060000D01*
X169800000Y-107060000D02*
X171450000Y-105410000D01*
X169800000Y-107060000D02*
X171450000Y-105410000D01*
X171800000Y-110140000D02*
X171450000Y-110490000D01*
X171800000Y-107950000D02*
X171800000Y-110140000D01*
X165800000Y-108650000D02*
X171450000Y-114300000D01*
X165800000Y-108650000D02*
X165800000Y-107950000D01*
X176360000Y-104140000D02*
X176530000Y-104140000D01*
X176530000Y-104140000D02*
X177800000Y-102870000D01*
X176360000Y-104140000D02*
X175800000Y-104700000D01*
X175800000Y-104700000D02*
X175800000Y-107950000D01*
X173800000Y-107950000D02*
X173800000Y-106490000D01*
X171450000Y-104140000D02*
X164930000Y-104140000D01*
X173800000Y-106490000D02*
X171450000Y-104140000D01*
X177465000Y-137890000D02*
X178340000Y-137890000D01*
X178340000Y-137890000D02*
X180340000Y-135890000D01*
X177800000Y-109220000D02*
X177800000Y-107950000D01*
X179070000Y-110490000D02*
X177800000Y-109220000D01*
X179070000Y-124460000D02*
X179070000Y-110490000D01*
X180340000Y-125730000D02*
X179070000Y-124460000D01*
X180340000Y-135890000D02*
X180340000Y-125730000D01*
X178900000Y-142240000D02*
X178900000Y-139325000D01*
X178900000Y-139325000D02*
X177465000Y-137890000D01*
X177465000Y-127540000D02*
X174890000Y-127540000D01*
X174890000Y-127540000D02*
X173990000Y-128440000D01*
X173990000Y-128440000D02*
X173990000Y-128140000D01*
X173990000Y-128140000D02*
X169800000Y-123950000D01*
X166200000Y-127000000D02*
X166200000Y-124350000D01*
X166200000Y-124350000D02*
X165800000Y-123950000D01*
D30*
G36*
X187250000Y-103433125D02*
X186809273Y-102366485D01*
X185928153Y-101483826D01*
X184776326Y-101005546D01*
X183529146Y-101004457D01*
X182376485Y-101480727D01*
X181493826Y-102361847D01*
X181015546Y-103513674D01*
X181014457Y-104760854D01*
X181490727Y-105913515D01*
X182129097Y-106553000D01*
X180340000Y-106553000D01*
X180290590Y-106563006D01*
X180248965Y-106591447D01*
X180221685Y-106633841D01*
X180213000Y-106680000D01*
X180213000Y-124528198D01*
X179830000Y-124145198D01*
X179830000Y-110490000D01*
X179772148Y-110199161D01*
X179772148Y-110199160D01*
X179607401Y-109952599D01*
X178964999Y-109310197D01*
X178997440Y-109150000D01*
X178997440Y-106750000D01*
X178953162Y-106514683D01*
X178814090Y-106298559D01*
X178601890Y-106153569D01*
X178350000Y-106102560D01*
X177250000Y-106102560D01*
X177014683Y-106146838D01*
X176798559Y-106285910D01*
X176669975Y-106474099D01*
X176637922Y-106426128D01*
X176560000Y-106374062D01*
X176560000Y-105237440D01*
X176960000Y-105237440D01*
X177195317Y-105193162D01*
X177411441Y-105054090D01*
X177556431Y-104841890D01*
X177607440Y-104590000D01*
X177607440Y-104137362D01*
X177939680Y-103805122D01*
X177985167Y-103805162D01*
X178328943Y-103663117D01*
X178592192Y-103400327D01*
X178734838Y-103056799D01*
X178735162Y-102684833D01*
X178593117Y-102341057D01*
X178330327Y-102077808D01*
X177986799Y-101935162D01*
X177614833Y-101934838D01*
X177271057Y-102076883D01*
X177007808Y-102339673D01*
X176865162Y-102683201D01*
X176865121Y-102730077D01*
X176552638Y-103042560D01*
X175760000Y-103042560D01*
X175524683Y-103086838D01*
X175308559Y-103225910D01*
X175262031Y-103294006D01*
X175119698Y-103151673D01*
X174886309Y-103055000D01*
X174445750Y-103055000D01*
X174287000Y-103213750D01*
X174287000Y-104013000D01*
X174307000Y-104013000D01*
X174307000Y-104267000D01*
X174287000Y-104267000D01*
X174287000Y-105066250D01*
X174445750Y-105225000D01*
X174886309Y-105225000D01*
X175040000Y-105161339D01*
X175040000Y-106374062D01*
X174962078Y-106426128D01*
X174800000Y-106668696D01*
X174637922Y-106426128D01*
X174533403Y-106356291D01*
X174502148Y-106199161D01*
X174337401Y-105952599D01*
X173609802Y-105225000D01*
X173874250Y-105225000D01*
X174033000Y-105066250D01*
X174033000Y-104267000D01*
X173083750Y-104267000D01*
X172925000Y-104425750D01*
X172925000Y-104540198D01*
X171987401Y-103602599D01*
X171929170Y-103563690D01*
X172925000Y-103563690D01*
X172925000Y-103854250D01*
X173083750Y-104013000D01*
X174033000Y-104013000D01*
X174033000Y-103213750D01*
X173874250Y-103055000D01*
X173433691Y-103055000D01*
X173200302Y-103151673D01*
X173021673Y-103330301D01*
X172925000Y-103563690D01*
X171929170Y-103563690D01*
X171740839Y-103437852D01*
X171450000Y-103380000D01*
X166085105Y-103380000D01*
X165994090Y-103238559D01*
X165781890Y-103093569D01*
X165530000Y-103042560D01*
X164330000Y-103042560D01*
X164094683Y-103086838D01*
X163878559Y-103225910D01*
X163832031Y-103294006D01*
X163689698Y-103151673D01*
X163456309Y-103055000D01*
X163015750Y-103055000D01*
X162857000Y-103213750D01*
X162857000Y-104013000D01*
X162877000Y-104013000D01*
X162877000Y-104267000D01*
X162857000Y-104267000D01*
X162857000Y-105066250D01*
X163015750Y-105225000D01*
X163456309Y-105225000D01*
X163689698Y-105128327D01*
X163830936Y-104987090D01*
X163865910Y-105041441D01*
X164078110Y-105186431D01*
X164330000Y-105237440D01*
X165530000Y-105237440D01*
X165765317Y-105193162D01*
X165981441Y-105054090D01*
X166086726Y-104900000D01*
X168109367Y-104900000D01*
X167975162Y-105223201D01*
X167975121Y-105270077D01*
X167102599Y-106142599D01*
X166937852Y-106389161D01*
X166917113Y-106493424D01*
X166800000Y-106668696D01*
X166637922Y-106426128D01*
X166253480Y-106169253D01*
X165800000Y-106079050D01*
X165346520Y-106169253D01*
X164962078Y-106426128D01*
X164798078Y-106671572D01*
X164548118Y-106372276D01*
X164136146Y-106156602D01*
X164109744Y-106156197D01*
X163927000Y-106281639D01*
X163927000Y-107823000D01*
X163947000Y-107823000D01*
X163947000Y-108077000D01*
X163927000Y-108077000D01*
X163927000Y-109618361D01*
X164109744Y-109743803D01*
X164136146Y-109743398D01*
X164548118Y-109527724D01*
X164798078Y-109228428D01*
X164962078Y-109473872D01*
X165346520Y-109730747D01*
X165800000Y-109820950D01*
X165880196Y-109804998D01*
X170514878Y-114439680D01*
X170514838Y-114485167D01*
X170656883Y-114828943D01*
X170919673Y-115092192D01*
X171263201Y-115234838D01*
X171635167Y-115235162D01*
X171978943Y-115093117D01*
X172242192Y-114830327D01*
X172384838Y-114486799D01*
X172385162Y-114114833D01*
X172243117Y-113771057D01*
X171980327Y-113507808D01*
X171636799Y-113365162D01*
X171589923Y-113365121D01*
X168004979Y-109780177D01*
X168253480Y-109730747D01*
X168637922Y-109473872D01*
X168800000Y-109231304D01*
X168962078Y-109473872D01*
X169346520Y-109730747D01*
X169800000Y-109820950D01*
X170253480Y-109730747D01*
X170637922Y-109473872D01*
X170800000Y-109231304D01*
X170962078Y-109473872D01*
X171040000Y-109525938D01*
X171040000Y-109647737D01*
X170921057Y-109696883D01*
X170657808Y-109959673D01*
X170515162Y-110303201D01*
X170514838Y-110675167D01*
X170656883Y-111018943D01*
X170919673Y-111282192D01*
X171263201Y-111424838D01*
X171635167Y-111425162D01*
X171978943Y-111283117D01*
X172242192Y-111020327D01*
X172384838Y-110676799D01*
X172384899Y-110606314D01*
X172502148Y-110430839D01*
X172560000Y-110140000D01*
X172560000Y-109525938D01*
X172637922Y-109473872D01*
X172800000Y-109231304D01*
X172962078Y-109473872D01*
X173346520Y-109730747D01*
X173800000Y-109820950D01*
X174253480Y-109730747D01*
X174637922Y-109473872D01*
X174800000Y-109231304D01*
X174962078Y-109473872D01*
X175346520Y-109730747D01*
X175800000Y-109820950D01*
X176253480Y-109730747D01*
X176637922Y-109473872D01*
X176671492Y-109423631D01*
X176785910Y-109601441D01*
X176998110Y-109746431D01*
X177250000Y-109797440D01*
X177302638Y-109797440D01*
X178310000Y-110804802D01*
X178310000Y-120085198D01*
X177067401Y-118842599D01*
X176820839Y-118677852D01*
X176530000Y-118620000D01*
X175822463Y-118620000D01*
X175790327Y-118587808D01*
X175446799Y-118445162D01*
X175074833Y-118444838D01*
X174731057Y-118586883D01*
X174467808Y-118849673D01*
X174325162Y-119193201D01*
X174324838Y-119565167D01*
X174466883Y-119908943D01*
X174729673Y-120172192D01*
X175073201Y-120314838D01*
X175445167Y-120315162D01*
X175788943Y-120173117D01*
X175822118Y-120140000D01*
X176215198Y-120140000D01*
X177040000Y-120964802D01*
X177040000Y-121119367D01*
X176716799Y-120985162D01*
X176344833Y-120984838D01*
X176001057Y-121126883D01*
X175737808Y-121389673D01*
X175595162Y-121733201D01*
X175595121Y-121780077D01*
X175262599Y-122112599D01*
X175126525Y-122316248D01*
X174962078Y-122426128D01*
X174800000Y-122668696D01*
X174637922Y-122426128D01*
X174253480Y-122169253D01*
X173800000Y-122079050D01*
X173346520Y-122169253D01*
X172962078Y-122426128D01*
X172800000Y-122668696D01*
X172637922Y-122426128D01*
X172253480Y-122169253D01*
X171800000Y-122079050D01*
X171346520Y-122169253D01*
X170962078Y-122426128D01*
X170800000Y-122668696D01*
X170637922Y-122426128D01*
X170253480Y-122169253D01*
X169800000Y-122079050D01*
X169346520Y-122169253D01*
X168962078Y-122426128D01*
X168800000Y-122668696D01*
X168637922Y-122426128D01*
X168560000Y-122374062D01*
X168560000Y-114522533D01*
X168574838Y-114486799D01*
X168575162Y-114114833D01*
X168433117Y-113771057D01*
X168170327Y-113507808D01*
X167826799Y-113365162D01*
X167454833Y-113364838D01*
X167111057Y-113506883D01*
X166847808Y-113769673D01*
X166705162Y-114113201D01*
X166704838Y-114485167D01*
X166846883Y-114828943D01*
X167040000Y-115022397D01*
X167040000Y-122374062D01*
X166962078Y-122426128D01*
X166800000Y-122668696D01*
X166637922Y-122426128D01*
X166253480Y-122169253D01*
X165800000Y-122079050D01*
X165346520Y-122169253D01*
X164962078Y-122426128D01*
X164800000Y-122668696D01*
X164637922Y-122426128D01*
X164253480Y-122169253D01*
X163800000Y-122079050D01*
X163346520Y-122169253D01*
X162962078Y-122426128D01*
X162705203Y-122810570D01*
X162615000Y-123264050D01*
X162615000Y-124635950D01*
X162665000Y-124887316D01*
X162665000Y-125865000D01*
X161290990Y-125865000D01*
X161065225Y-125864803D01*
X160647914Y-126037233D01*
X160328355Y-126356235D01*
X160328158Y-126356710D01*
X160278848Y-126406020D01*
X160148010Y-126406020D01*
X160148010Y-126041150D01*
X160103732Y-125805833D01*
X159964660Y-125589709D01*
X159752460Y-125444719D01*
X159500570Y-125393710D01*
X157999430Y-125393710D01*
X157764113Y-125437988D01*
X157547989Y-125577060D01*
X157402999Y-125789260D01*
X157351990Y-126041150D01*
X157351990Y-129040890D01*
X157396268Y-129276207D01*
X157535340Y-129492331D01*
X157602378Y-129538136D01*
X157461103Y-129679412D01*
X157364430Y-129912801D01*
X157364430Y-131253230D01*
X157523180Y-131411980D01*
X158623000Y-131411980D01*
X158623000Y-131391980D01*
X158877000Y-131391980D01*
X158877000Y-131411980D01*
X159976820Y-131411980D01*
X160135570Y-131253230D01*
X160135570Y-129912801D01*
X160038897Y-129679412D01*
X159898743Y-129539257D01*
X159952011Y-129504980D01*
X160097001Y-129292780D01*
X160148010Y-129040890D01*
X160148010Y-128676020D01*
X160748980Y-128676020D01*
X161183326Y-128589623D01*
X161551546Y-128343586D01*
X161760132Y-128135000D01*
X164000000Y-128135000D01*
X164188826Y-128097440D01*
X164600000Y-128097440D01*
X164835317Y-128053162D01*
X165051441Y-127914090D01*
X165099134Y-127844289D01*
X165135910Y-127901441D01*
X165348110Y-128046431D01*
X165600000Y-128097440D01*
X166800000Y-128097440D01*
X167035317Y-128053162D01*
X167040000Y-128050149D01*
X167040000Y-130335198D01*
X166392638Y-130982560D01*
X165600000Y-130982560D01*
X165364683Y-131026838D01*
X165148559Y-131165910D01*
X165102031Y-131234006D01*
X164959698Y-131091673D01*
X164726309Y-130995000D01*
X164285750Y-130995000D01*
X164127000Y-131153750D01*
X164127000Y-131953000D01*
X164147000Y-131953000D01*
X164147000Y-132207000D01*
X164127000Y-132207000D01*
X164127000Y-133006250D01*
X164285750Y-133165000D01*
X164726309Y-133165000D01*
X164959698Y-133068327D01*
X165100936Y-132927090D01*
X165135910Y-132981441D01*
X165348110Y-133126431D01*
X165600000Y-133177440D01*
X166800000Y-133177440D01*
X167035317Y-133133162D01*
X167251441Y-132994090D01*
X167396431Y-132781890D01*
X167447440Y-132530000D01*
X167447440Y-132077362D01*
X168337401Y-131187401D01*
X168345185Y-131175750D01*
X170165000Y-131175750D01*
X170165000Y-131766309D01*
X170261673Y-131999698D01*
X170440301Y-132178327D01*
X170673690Y-132275000D01*
X171164250Y-132275000D01*
X171323000Y-132116250D01*
X171323000Y-131017000D01*
X171577000Y-131017000D01*
X171577000Y-132116250D01*
X171735750Y-132275000D01*
X172226310Y-132275000D01*
X172459699Y-132178327D01*
X172638327Y-131999698D01*
X172735000Y-131766309D01*
X172735000Y-131175750D01*
X172576250Y-131017000D01*
X171577000Y-131017000D01*
X171323000Y-131017000D01*
X170323750Y-131017000D01*
X170165000Y-131175750D01*
X168345185Y-131175750D01*
X168502148Y-130940840D01*
X168560000Y-130650000D01*
X168560000Y-125525938D01*
X168637922Y-125473872D01*
X168800000Y-125231304D01*
X168962078Y-125473872D01*
X169346520Y-125730747D01*
X169800000Y-125820950D01*
X170253480Y-125730747D01*
X170404822Y-125629624D01*
X171567758Y-126792560D01*
X170800000Y-126792560D01*
X170564683Y-126836838D01*
X170348559Y-126975910D01*
X170203569Y-127188110D01*
X170152560Y-127440000D01*
X170152560Y-128940000D01*
X170196838Y-129175317D01*
X170335910Y-129391441D01*
X170548110Y-129536431D01*
X170581490Y-129543191D01*
X170440301Y-129601673D01*
X170261673Y-129780302D01*
X170165000Y-130013691D01*
X170165000Y-130604250D01*
X170323750Y-130763000D01*
X171323000Y-130763000D01*
X171323000Y-130743000D01*
X171577000Y-130743000D01*
X171577000Y-130763000D01*
X172576250Y-130763000D01*
X172735000Y-130604250D01*
X172735000Y-130459802D01*
X172892560Y-130617362D01*
X172892560Y-131240000D01*
X172936838Y-131475317D01*
X173075910Y-131691441D01*
X173288110Y-131836431D01*
X173540000Y-131887440D01*
X174440000Y-131887440D01*
X174675317Y-131843162D01*
X174891441Y-131704090D01*
X175036431Y-131491890D01*
X175087440Y-131240000D01*
X175087440Y-130040000D01*
X175043162Y-129804683D01*
X174904090Y-129588559D01*
X174834289Y-129540866D01*
X174891441Y-129504090D01*
X175036431Y-129291890D01*
X175087440Y-129040000D01*
X175087440Y-128417362D01*
X175204802Y-128300000D01*
X175502721Y-128300000D01*
X175625910Y-128491441D01*
X175838110Y-128636431D01*
X176090000Y-128687440D01*
X178840000Y-128687440D01*
X179075317Y-128643162D01*
X179291441Y-128504090D01*
X179436431Y-128291890D01*
X179487440Y-128040000D01*
X179487440Y-127040000D01*
X179443162Y-126804683D01*
X179304090Y-126588559D01*
X179091890Y-126443569D01*
X178840000Y-126392560D01*
X176090000Y-126392560D01*
X175854683Y-126436838D01*
X175638559Y-126575910D01*
X175499110Y-126780000D01*
X174890000Y-126780000D01*
X174599160Y-126837852D01*
X174352599Y-127002599D01*
X174162638Y-127192560D01*
X174117362Y-127192560D01*
X172494503Y-125569701D01*
X172637922Y-125473872D01*
X172800000Y-125231304D01*
X172962078Y-125473872D01*
X173346520Y-125730747D01*
X173800000Y-125820950D01*
X174253480Y-125730747D01*
X174637922Y-125473872D01*
X174800000Y-125231304D01*
X174962078Y-125473872D01*
X175346520Y-125730747D01*
X175800000Y-125820950D01*
X176253480Y-125730747D01*
X176637922Y-125473872D01*
X176800000Y-125231304D01*
X176962078Y-125473872D01*
X177346520Y-125730747D01*
X177800000Y-125820950D01*
X178253480Y-125730747D01*
X178637922Y-125473872D01*
X178786583Y-125251385D01*
X179580000Y-126044802D01*
X179580000Y-135575198D01*
X178412638Y-136742560D01*
X176090000Y-136742560D01*
X175854683Y-136786838D01*
X175638559Y-136925910D01*
X175493569Y-137138110D01*
X175442560Y-137390000D01*
X175442560Y-138390000D01*
X175486838Y-138625317D01*
X175625910Y-138841441D01*
X175838110Y-138986431D01*
X176090000Y-139037440D01*
X177537638Y-139037440D01*
X178140000Y-139639802D01*
X178140000Y-141172666D01*
X178064683Y-141186838D01*
X177848559Y-141325910D01*
X177802031Y-141394006D01*
X177659698Y-141251673D01*
X177426309Y-141155000D01*
X176985750Y-141155000D01*
X176827000Y-141313750D01*
X176827000Y-142113000D01*
X176847000Y-142113000D01*
X176847000Y-142367000D01*
X176827000Y-142367000D01*
X176827000Y-143166250D01*
X176985750Y-143325000D01*
X177426309Y-143325000D01*
X177659698Y-143228327D01*
X177800936Y-143087090D01*
X177835910Y-143141441D01*
X178048110Y-143286431D01*
X178300000Y-143337440D01*
X179500000Y-143337440D01*
X179580000Y-143322387D01*
X179580000Y-143510000D01*
X179637852Y-143800839D01*
X179802599Y-144047401D01*
X181428046Y-145672848D01*
X181036511Y-145750729D01*
X180550330Y-146075585D01*
X180340000Y-146390366D01*
X180129670Y-146075585D01*
X179643489Y-145750729D01*
X179070000Y-145636655D01*
X178496511Y-145750729D01*
X178010330Y-146075585D01*
X177800000Y-146390366D01*
X177589670Y-146075585D01*
X177103489Y-145750729D01*
X176530000Y-145636655D01*
X175956511Y-145750729D01*
X175470330Y-146075585D01*
X175260000Y-146390366D01*
X175049670Y-146075585D01*
X174563489Y-145750729D01*
X173990000Y-145636655D01*
X173416511Y-145750729D01*
X172930330Y-146075585D01*
X172920757Y-146089913D01*
X172916762Y-146068683D01*
X172777690Y-145852559D01*
X172565490Y-145707569D01*
X172313600Y-145656560D01*
X170586400Y-145656560D01*
X170351083Y-145700838D01*
X170134959Y-145839910D01*
X169989969Y-146052110D01*
X169938960Y-146304000D01*
X169938960Y-148336000D01*
X169983238Y-148571317D01*
X170122310Y-148787441D01*
X170334510Y-148932431D01*
X170586400Y-148983440D01*
X172313600Y-148983440D01*
X172548917Y-148939162D01*
X172765041Y-148800090D01*
X172910031Y-148587890D01*
X172918400Y-148546561D01*
X172930330Y-148564415D01*
X173416511Y-148889271D01*
X173990000Y-149003345D01*
X174563489Y-148889271D01*
X175049670Y-148564415D01*
X175260000Y-148249634D01*
X175470330Y-148564415D01*
X175956511Y-148889271D01*
X176530000Y-149003345D01*
X177103489Y-148889271D01*
X177589670Y-148564415D01*
X177800000Y-148249634D01*
X178010330Y-148564415D01*
X178496511Y-148889271D01*
X179070000Y-149003345D01*
X179643489Y-148889271D01*
X180129670Y-148564415D01*
X180340000Y-148249634D01*
X180550330Y-148564415D01*
X181036511Y-148889271D01*
X181610000Y-149003345D01*
X182183489Y-148889271D01*
X182669670Y-148564415D01*
X182880000Y-148249634D01*
X183090330Y-148564415D01*
X183576511Y-148889271D01*
X184150000Y-149003345D01*
X184723489Y-148889271D01*
X185209670Y-148564415D01*
X185534526Y-148078234D01*
X185648600Y-147504745D01*
X185648600Y-147135255D01*
X185534526Y-146561766D01*
X185209670Y-146075585D01*
X184723489Y-145750729D01*
X184150000Y-145636655D01*
X183642421Y-145737619D01*
X183105697Y-145200895D01*
X183523674Y-145374454D01*
X184770854Y-145375543D01*
X185923515Y-144899273D01*
X186806174Y-144018153D01*
X187250000Y-142949301D01*
X187250000Y-149150000D01*
X154380000Y-149150000D01*
X154380000Y-142946875D01*
X154820727Y-144013515D01*
X155701847Y-144896174D01*
X156853674Y-145374454D01*
X158100854Y-145375543D01*
X159253515Y-144899273D01*
X160136174Y-144018153D01*
X160614454Y-142866326D01*
X160615297Y-141900653D01*
X160646235Y-141931645D01*
X160646710Y-141931842D01*
X161521460Y-142806593D01*
X161511397Y-142821654D01*
X161425000Y-143256000D01*
X161425000Y-145972702D01*
X161347690Y-145852559D01*
X161135490Y-145707569D01*
X160883600Y-145656560D01*
X159156400Y-145656560D01*
X158921083Y-145700838D01*
X158704959Y-145839910D01*
X158559969Y-146052110D01*
X158508960Y-146304000D01*
X158508960Y-148336000D01*
X158553238Y-148571317D01*
X158692310Y-148787441D01*
X158904510Y-148932431D01*
X159156400Y-148983440D01*
X160883600Y-148983440D01*
X161118917Y-148939162D01*
X161335041Y-148800090D01*
X161480031Y-148587890D01*
X161488400Y-148546561D01*
X161500330Y-148564415D01*
X161986511Y-148889271D01*
X162560000Y-149003345D01*
X163133489Y-148889271D01*
X163619670Y-148564415D01*
X163826461Y-148254931D01*
X164197964Y-148670732D01*
X164725209Y-148924709D01*
X164740974Y-148927358D01*
X164973000Y-148806217D01*
X164973000Y-147447000D01*
X165227000Y-147447000D01*
X165227000Y-148806217D01*
X165459026Y-148927358D01*
X165474791Y-148924709D01*
X166002036Y-148670732D01*
X166391954Y-148234320D01*
X166585184Y-147681913D01*
X166440924Y-147447000D01*
X165227000Y-147447000D01*
X164973000Y-147447000D01*
X164953000Y-147447000D01*
X164953000Y-147193000D01*
X164973000Y-147193000D01*
X164973000Y-145833783D01*
X165227000Y-145833783D01*
X165227000Y-147193000D01*
X166440924Y-147193000D01*
X166585184Y-146958087D01*
X166391954Y-146405680D01*
X166002036Y-145969268D01*
X165474791Y-145715291D01*
X165459026Y-145712642D01*
X165227000Y-145833783D01*
X164973000Y-145833783D01*
X164740974Y-145712642D01*
X164725209Y-145715291D01*
X164197964Y-145969268D01*
X163826461Y-146385069D01*
X163695000Y-146188324D01*
X163695000Y-144532565D01*
X163773441Y-144482090D01*
X163918431Y-144269890D01*
X163957000Y-144079431D01*
X163957000Y-144144310D01*
X164053673Y-144377699D01*
X164232302Y-144556327D01*
X164465691Y-144653000D01*
X164814250Y-144653000D01*
X164973000Y-144494250D01*
X164973000Y-143129000D01*
X164953000Y-143129000D01*
X164953000Y-142875000D01*
X164973000Y-142875000D01*
X164973000Y-141509750D01*
X165227000Y-141509750D01*
X165227000Y-142875000D01*
X165247000Y-142875000D01*
X165247000Y-143129000D01*
X165227000Y-143129000D01*
X165227000Y-144494250D01*
X165385750Y-144653000D01*
X165734309Y-144653000D01*
X165967698Y-144556327D01*
X166146327Y-144377699D01*
X166243000Y-144144310D01*
X166243000Y-144084113D01*
X166274838Y-144253317D01*
X166413910Y-144469441D01*
X166626110Y-144614431D01*
X166878000Y-144665440D01*
X167894000Y-144665440D01*
X168129317Y-144621162D01*
X168345441Y-144482090D01*
X168490431Y-144269890D01*
X168517342Y-144137000D01*
X169201867Y-144137000D01*
X169377433Y-144312566D01*
X169536235Y-144471645D01*
X169953244Y-144644803D01*
X170404775Y-144645197D01*
X170405252Y-144645000D01*
X170908980Y-144645000D01*
X171343326Y-144558603D01*
X171711546Y-144312566D01*
X172177822Y-143846290D01*
X173470570Y-143846290D01*
X173705887Y-143802012D01*
X173922011Y-143662940D01*
X174067001Y-143450740D01*
X174118010Y-143198850D01*
X174118010Y-142525750D01*
X175465000Y-142525750D01*
X175465000Y-142816310D01*
X175561673Y-143049699D01*
X175740302Y-143228327D01*
X175973691Y-143325000D01*
X176414250Y-143325000D01*
X176573000Y-143166250D01*
X176573000Y-142367000D01*
X175623750Y-142367000D01*
X175465000Y-142525750D01*
X174118010Y-142525750D01*
X174118010Y-141663690D01*
X175465000Y-141663690D01*
X175465000Y-141954250D01*
X175623750Y-142113000D01*
X176573000Y-142113000D01*
X176573000Y-141313750D01*
X176414250Y-141155000D01*
X175973691Y-141155000D01*
X175740302Y-141251673D01*
X175561673Y-141430301D01*
X175465000Y-141663690D01*
X174118010Y-141663690D01*
X174118010Y-140199110D01*
X174073732Y-139963793D01*
X173934660Y-139747669D01*
X173866201Y-139700893D01*
X173922011Y-139664980D01*
X174067001Y-139452780D01*
X174118010Y-139200890D01*
X174118010Y-136201150D01*
X174073732Y-135965833D01*
X173934660Y-135749709D01*
X173855000Y-135695280D01*
X173855000Y-134485000D01*
X175460436Y-134485000D01*
X175486838Y-134625317D01*
X175625910Y-134841441D01*
X175838110Y-134986431D01*
X176090000Y-135037440D01*
X178840000Y-135037440D01*
X179075317Y-134993162D01*
X179291441Y-134854090D01*
X179436431Y-134641890D01*
X179487440Y-134390000D01*
X179487440Y-133390000D01*
X179443162Y-133154683D01*
X179304090Y-132938559D01*
X179091890Y-132793569D01*
X178840000Y-132742560D01*
X178600000Y-132742560D01*
X178600000Y-132687440D01*
X178840000Y-132687440D01*
X179075317Y-132643162D01*
X179291441Y-132504090D01*
X179436431Y-132291890D01*
X179487440Y-132040000D01*
X179487440Y-131040000D01*
X179443162Y-130804683D01*
X179304090Y-130588559D01*
X179091890Y-130443569D01*
X178840000Y-130392560D01*
X176090000Y-130392560D01*
X175854683Y-130436838D01*
X175638559Y-130575910D01*
X175493569Y-130788110D01*
X175442560Y-131040000D01*
X175442560Y-132040000D01*
X175475489Y-132215000D01*
X172720990Y-132215000D01*
X172495225Y-132214803D01*
X172077914Y-132387233D01*
X171758355Y-132706235D01*
X171585197Y-133123244D01*
X171584803Y-133574775D01*
X171585000Y-133575252D01*
X171585000Y-135693940D01*
X171517989Y-135737060D01*
X171372999Y-135949260D01*
X171321990Y-136201150D01*
X171321990Y-139200890D01*
X171366268Y-139436207D01*
X171505340Y-139652331D01*
X171573799Y-139699107D01*
X171517989Y-139735020D01*
X171372999Y-139947220D01*
X171321990Y-140199110D01*
X171321990Y-141491858D01*
X170544490Y-142269358D01*
X170474566Y-142199434D01*
X170357181Y-142121000D01*
X170106346Y-141953397D01*
X169672000Y-141867000D01*
X168519049Y-141867000D01*
X168497162Y-141750683D01*
X168358090Y-141534559D01*
X168145890Y-141389569D01*
X167894000Y-141338560D01*
X166878000Y-141338560D01*
X166642683Y-141382838D01*
X166426559Y-141521910D01*
X166281569Y-141734110D01*
X166243000Y-141924569D01*
X166243000Y-141859690D01*
X166146327Y-141626301D01*
X165967698Y-141447673D01*
X165734309Y-141351000D01*
X165385750Y-141351000D01*
X165227000Y-141509750D01*
X164973000Y-141509750D01*
X164814250Y-141351000D01*
X164465691Y-141351000D01*
X164232302Y-141447673D01*
X164053673Y-141626301D01*
X163957000Y-141859690D01*
X163957000Y-141919887D01*
X163925162Y-141750683D01*
X163786090Y-141534559D01*
X163573890Y-141389569D01*
X163322000Y-141338560D01*
X163263693Y-141338560D01*
X162092979Y-140167847D01*
X161933765Y-140008355D01*
X161516756Y-139835197D01*
X161065225Y-139834803D01*
X160647914Y-140007233D01*
X160328355Y-140326235D01*
X160204534Y-140624428D01*
X160139273Y-140466485D01*
X159258153Y-139583826D01*
X158106326Y-139105546D01*
X156859146Y-139104457D01*
X155706485Y-139580727D01*
X154823826Y-140461847D01*
X154380000Y-141530699D01*
X154380000Y-136683750D01*
X162636200Y-136683750D01*
X162636200Y-137540310D01*
X162732873Y-137773699D01*
X162911502Y-137952327D01*
X163144891Y-138049000D01*
X164814250Y-138049000D01*
X164973000Y-137890250D01*
X164973000Y-136525000D01*
X165227000Y-136525000D01*
X165227000Y-137890250D01*
X165385750Y-138049000D01*
X167055109Y-138049000D01*
X167288498Y-137952327D01*
X167467127Y-137773699D01*
X167563800Y-137540310D01*
X167563800Y-136683750D01*
X167405050Y-136525000D01*
X165227000Y-136525000D01*
X164973000Y-136525000D01*
X162794950Y-136525000D01*
X162636200Y-136683750D01*
X154380000Y-136683750D01*
X154380000Y-135255690D01*
X162636200Y-135255690D01*
X162636200Y-136112250D01*
X162794950Y-136271000D01*
X164973000Y-136271000D01*
X164973000Y-134905750D01*
X165227000Y-134905750D01*
X165227000Y-136271000D01*
X167405050Y-136271000D01*
X167563800Y-136112250D01*
X167563800Y-135255690D01*
X167467127Y-135022301D01*
X167288498Y-134843673D01*
X167055109Y-134747000D01*
X165385750Y-134747000D01*
X165227000Y-134905750D01*
X164973000Y-134905750D01*
X164814250Y-134747000D01*
X163144891Y-134747000D01*
X162911502Y-134843673D01*
X162732873Y-135022301D01*
X162636200Y-135255690D01*
X154380000Y-135255690D01*
X154380000Y-131824730D01*
X157364430Y-131824730D01*
X157364430Y-133165159D01*
X157461103Y-133398548D01*
X157639731Y-133577177D01*
X157873120Y-133673850D01*
X158464250Y-133673850D01*
X158623000Y-133515100D01*
X158623000Y-131665980D01*
X158877000Y-131665980D01*
X158877000Y-133515100D01*
X159035750Y-133673850D01*
X159626880Y-133673850D01*
X159860269Y-133577177D01*
X160038897Y-133398548D01*
X160135570Y-133165159D01*
X160135570Y-132365750D01*
X162765000Y-132365750D01*
X162765000Y-132656310D01*
X162861673Y-132889699D01*
X163040302Y-133068327D01*
X163273691Y-133165000D01*
X163714250Y-133165000D01*
X163873000Y-133006250D01*
X163873000Y-132207000D01*
X162923750Y-132207000D01*
X162765000Y-132365750D01*
X160135570Y-132365750D01*
X160135570Y-131824730D01*
X159976820Y-131665980D01*
X158877000Y-131665980D01*
X158623000Y-131665980D01*
X157523180Y-131665980D01*
X157364430Y-131824730D01*
X154380000Y-131824730D01*
X154380000Y-131503690D01*
X162765000Y-131503690D01*
X162765000Y-131794250D01*
X162923750Y-131953000D01*
X163873000Y-131953000D01*
X163873000Y-131153750D01*
X163714250Y-130995000D01*
X163273691Y-130995000D01*
X163040302Y-131091673D01*
X162861673Y-131270301D01*
X162765000Y-131503690D01*
X154380000Y-131503690D01*
X154380000Y-110940000D01*
X160179050Y-110940000D01*
X160269253Y-111393480D01*
X160526128Y-111777922D01*
X160768696Y-111940000D01*
X160526128Y-112102078D01*
X160269253Y-112486520D01*
X160179050Y-112940000D01*
X160269253Y-113393480D01*
X160526128Y-113777922D01*
X160768696Y-113940000D01*
X160526128Y-114102078D01*
X160269253Y-114486520D01*
X160179050Y-114940000D01*
X160269253Y-115393480D01*
X160526128Y-115777922D01*
X160768696Y-115940000D01*
X160526128Y-116102078D01*
X160269253Y-116486520D01*
X160179050Y-116940000D01*
X160269253Y-117393480D01*
X160526128Y-117777922D01*
X160768696Y-117940000D01*
X160526128Y-118102078D01*
X160269253Y-118486520D01*
X160179050Y-118940000D01*
X160269253Y-119393480D01*
X160526128Y-119777922D01*
X160768696Y-119940000D01*
X160526128Y-120102078D01*
X160269253Y-120486520D01*
X160179050Y-120940000D01*
X160269253Y-121393480D01*
X160526128Y-121777922D01*
X160910570Y-122034797D01*
X161364050Y-122125000D01*
X162735950Y-122125000D01*
X163189430Y-122034797D01*
X163573872Y-121777922D01*
X163830747Y-121393480D01*
X163920950Y-120940000D01*
X163830747Y-120486520D01*
X163573872Y-120102078D01*
X163331304Y-119940000D01*
X163573872Y-119777922D01*
X163830747Y-119393480D01*
X163920950Y-118940000D01*
X163830747Y-118486520D01*
X163573872Y-118102078D01*
X163331304Y-117940000D01*
X163573872Y-117777922D01*
X163830747Y-117393480D01*
X163920950Y-116940000D01*
X163830747Y-116486520D01*
X163573872Y-116102078D01*
X163331304Y-115940000D01*
X163573872Y-115777922D01*
X163830747Y-115393480D01*
X163920950Y-114940000D01*
X163830747Y-114486520D01*
X163573872Y-114102078D01*
X163331304Y-113940000D01*
X163573872Y-113777922D01*
X163830747Y-113393480D01*
X163920950Y-112940000D01*
X163830747Y-112486520D01*
X163573872Y-112102078D01*
X163331304Y-111940000D01*
X163573872Y-111777922D01*
X163830747Y-111393480D01*
X163920950Y-110940000D01*
X163830747Y-110486520D01*
X163573872Y-110102078D01*
X163189430Y-109845203D01*
X162735950Y-109755000D01*
X161364050Y-109755000D01*
X160910570Y-109845203D01*
X160526128Y-110102078D01*
X160269253Y-110486520D01*
X160179050Y-110940000D01*
X154380000Y-110940000D01*
X154380000Y-108077000D01*
X162615000Y-108077000D01*
X162615000Y-108727000D01*
X162753804Y-109170813D01*
X163051882Y-109527724D01*
X163463854Y-109743398D01*
X163490256Y-109743803D01*
X163673000Y-109618361D01*
X163673000Y-108077000D01*
X162615000Y-108077000D01*
X154380000Y-108077000D01*
X154380000Y-104846875D01*
X154820727Y-105913515D01*
X155701847Y-106796174D01*
X156853674Y-107274454D01*
X158100854Y-107275543D01*
X158349026Y-107173000D01*
X162615000Y-107173000D01*
X162615000Y-107823000D01*
X163673000Y-107823000D01*
X163673000Y-106281639D01*
X163490256Y-106156197D01*
X163463854Y-106156602D01*
X163051882Y-106372276D01*
X162753804Y-106729187D01*
X162615000Y-107173000D01*
X158349026Y-107173000D01*
X159253515Y-106799273D01*
X160136174Y-105918153D01*
X160614454Y-104766326D01*
X160614751Y-104425750D01*
X161495000Y-104425750D01*
X161495000Y-104716310D01*
X161591673Y-104949699D01*
X161770302Y-105128327D01*
X162003691Y-105225000D01*
X162444250Y-105225000D01*
X162603000Y-105066250D01*
X162603000Y-104267000D01*
X161653750Y-104267000D01*
X161495000Y-104425750D01*
X160614751Y-104425750D01*
X160615504Y-103563690D01*
X161495000Y-103563690D01*
X161495000Y-103854250D01*
X161653750Y-104013000D01*
X162603000Y-104013000D01*
X162603000Y-103213750D01*
X162444250Y-103055000D01*
X162003691Y-103055000D01*
X161770302Y-103151673D01*
X161591673Y-103330301D01*
X161495000Y-103563690D01*
X160615504Y-103563690D01*
X160615543Y-103519146D01*
X160139273Y-102366485D01*
X159258153Y-101483826D01*
X158106326Y-101005546D01*
X156859146Y-101004457D01*
X155706485Y-101480727D01*
X154823826Y-102361847D01*
X154380000Y-103430699D01*
X154380000Y-99345750D01*
X155981400Y-99345750D01*
X155981400Y-100202309D01*
X156078073Y-100435698D01*
X156256701Y-100614327D01*
X156490090Y-100711000D01*
X157194250Y-100711000D01*
X157353000Y-100552250D01*
X157353000Y-99187000D01*
X157607000Y-99187000D01*
X157607000Y-100552250D01*
X157765750Y-100711000D01*
X158469910Y-100711000D01*
X158703299Y-100614327D01*
X158881927Y-100435698D01*
X158963759Y-100238139D01*
X159117964Y-100410732D01*
X159645209Y-100664709D01*
X159660974Y-100667358D01*
X159893000Y-100546217D01*
X159893000Y-99187000D01*
X160147000Y-99187000D01*
X160147000Y-100546217D01*
X160379026Y-100667358D01*
X160394791Y-100664709D01*
X160922036Y-100410732D01*
X161290000Y-99998892D01*
X161657964Y-100410732D01*
X162185209Y-100664709D01*
X162200974Y-100667358D01*
X162433000Y-100546217D01*
X162433000Y-99187000D01*
X162687000Y-99187000D01*
X162687000Y-100546217D01*
X162919026Y-100667358D01*
X162934791Y-100664709D01*
X163462036Y-100410732D01*
X163830000Y-99998892D01*
X164197964Y-100410732D01*
X164725209Y-100664709D01*
X164740974Y-100667358D01*
X164973000Y-100546217D01*
X164973000Y-99187000D01*
X165227000Y-99187000D01*
X165227000Y-100546217D01*
X165459026Y-100667358D01*
X165474791Y-100664709D01*
X166002036Y-100410732D01*
X166370000Y-99998892D01*
X166737964Y-100410732D01*
X167265209Y-100664709D01*
X167280974Y-100667358D01*
X167513000Y-100546217D01*
X167513000Y-99187000D01*
X167767000Y-99187000D01*
X167767000Y-100546217D01*
X167999026Y-100667358D01*
X168014791Y-100664709D01*
X168542036Y-100410732D01*
X168910000Y-99998892D01*
X169277964Y-100410732D01*
X169805209Y-100664709D01*
X169820974Y-100667358D01*
X170053000Y-100546217D01*
X170053000Y-99187000D01*
X170307000Y-99187000D01*
X170307000Y-100546217D01*
X170539026Y-100667358D01*
X170554791Y-100664709D01*
X171082036Y-100410732D01*
X171450000Y-99998892D01*
X171817964Y-100410732D01*
X172345209Y-100664709D01*
X172360974Y-100667358D01*
X172593000Y-100546217D01*
X172593000Y-99187000D01*
X172847000Y-99187000D01*
X172847000Y-100546217D01*
X173079026Y-100667358D01*
X173094791Y-100664709D01*
X173622036Y-100410732D01*
X173990000Y-99998892D01*
X174357964Y-100410732D01*
X174885209Y-100664709D01*
X174900974Y-100667358D01*
X175133000Y-100546217D01*
X175133000Y-99187000D01*
X175387000Y-99187000D01*
X175387000Y-100546217D01*
X175619026Y-100667358D01*
X175634791Y-100664709D01*
X176162036Y-100410732D01*
X176551954Y-99974320D01*
X176745184Y-99421913D01*
X176600924Y-99187000D01*
X175387000Y-99187000D01*
X175133000Y-99187000D01*
X172847000Y-99187000D01*
X172593000Y-99187000D01*
X170307000Y-99187000D01*
X170053000Y-99187000D01*
X167767000Y-99187000D01*
X167513000Y-99187000D01*
X165227000Y-99187000D01*
X164973000Y-99187000D01*
X162687000Y-99187000D01*
X162433000Y-99187000D01*
X160147000Y-99187000D01*
X159893000Y-99187000D01*
X157607000Y-99187000D01*
X157353000Y-99187000D01*
X156140150Y-99187000D01*
X155981400Y-99345750D01*
X154380000Y-99345750D01*
X154380000Y-95504000D01*
X155968960Y-95504000D01*
X155968960Y-97536000D01*
X156013238Y-97771317D01*
X156030755Y-97798539D01*
X155981400Y-97917691D01*
X155981400Y-98774250D01*
X156140150Y-98933000D01*
X157353000Y-98933000D01*
X157353000Y-98913000D01*
X157607000Y-98913000D01*
X157607000Y-98933000D01*
X159893000Y-98933000D01*
X159893000Y-98913000D01*
X160147000Y-98913000D01*
X160147000Y-98933000D01*
X162433000Y-98933000D01*
X162433000Y-98913000D01*
X162687000Y-98913000D01*
X162687000Y-98933000D01*
X164973000Y-98933000D01*
X164973000Y-98913000D01*
X165227000Y-98913000D01*
X165227000Y-98933000D01*
X167513000Y-98933000D01*
X167513000Y-98913000D01*
X167767000Y-98913000D01*
X167767000Y-98933000D01*
X170053000Y-98933000D01*
X170053000Y-98913000D01*
X170307000Y-98913000D01*
X170307000Y-98933000D01*
X172593000Y-98933000D01*
X172593000Y-98913000D01*
X172847000Y-98913000D01*
X172847000Y-98933000D01*
X175133000Y-98933000D01*
X175133000Y-98913000D01*
X175387000Y-98913000D01*
X175387000Y-98933000D01*
X176600924Y-98933000D01*
X176745184Y-98698087D01*
X176551954Y-98145680D01*
X176251816Y-97809754D01*
X176319670Y-97764415D01*
X176644526Y-97278234D01*
X176758600Y-96704745D01*
X176758600Y-96335255D01*
X176644526Y-95761766D01*
X176472614Y-95504481D01*
X180364777Y-95504481D01*
X180559995Y-95976943D01*
X180921155Y-96338735D01*
X181393276Y-96534777D01*
X181904481Y-96535223D01*
X182376943Y-96340005D01*
X182738735Y-95978845D01*
X182865000Y-95674765D01*
X182865000Y-96026310D01*
X182961673Y-96259699D01*
X183140302Y-96438327D01*
X183373691Y-96535000D01*
X183864250Y-96535000D01*
X184023000Y-96376250D01*
X184023000Y-95377000D01*
X184277000Y-95377000D01*
X184277000Y-96376250D01*
X184435750Y-96535000D01*
X184926309Y-96535000D01*
X185159698Y-96438327D01*
X185338327Y-96259699D01*
X185435000Y-96026310D01*
X185435000Y-95535750D01*
X185276250Y-95377000D01*
X184277000Y-95377000D01*
X184023000Y-95377000D01*
X184003000Y-95377000D01*
X184003000Y-95123000D01*
X184023000Y-95123000D01*
X184023000Y-94123750D01*
X184277000Y-94123750D01*
X184277000Y-95123000D01*
X185276250Y-95123000D01*
X185435000Y-94964250D01*
X185435000Y-94473690D01*
X185338327Y-94240301D01*
X185159698Y-94061673D01*
X184926309Y-93965000D01*
X184435750Y-93965000D01*
X184277000Y-94123750D01*
X184023000Y-94123750D01*
X183864250Y-93965000D01*
X183373691Y-93965000D01*
X183140302Y-94061673D01*
X182961673Y-94240301D01*
X182865000Y-94473690D01*
X182865000Y-94825567D01*
X182740005Y-94523057D01*
X182378845Y-94161265D01*
X181906724Y-93965223D01*
X181395519Y-93964777D01*
X180923057Y-94159995D01*
X180561265Y-94521155D01*
X180365223Y-94993276D01*
X180364777Y-95504481D01*
X176472614Y-95504481D01*
X176319670Y-95275585D01*
X176281379Y-95250000D01*
X176319670Y-95224415D01*
X176644526Y-94738234D01*
X176758600Y-94164745D01*
X176758600Y-93795255D01*
X176644526Y-93221766D01*
X176319670Y-92735585D01*
X175833489Y-92410729D01*
X175260000Y-92296655D01*
X174686511Y-92410729D01*
X174200330Y-92735585D01*
X173990000Y-93050366D01*
X173779670Y-92735585D01*
X173293489Y-92410729D01*
X172720000Y-92296655D01*
X172146511Y-92410729D01*
X171660330Y-92735585D01*
X171450000Y-93050366D01*
X171239670Y-92735585D01*
X170753489Y-92410729D01*
X170180000Y-92296655D01*
X169606511Y-92410729D01*
X169120330Y-92735585D01*
X168910000Y-93050366D01*
X168699670Y-92735585D01*
X168213489Y-92410729D01*
X167640000Y-92296655D01*
X167066511Y-92410729D01*
X166580330Y-92735585D01*
X166370000Y-93050366D01*
X166159670Y-92735585D01*
X165673489Y-92410729D01*
X165100000Y-92296655D01*
X164526511Y-92410729D01*
X164040330Y-92735585D01*
X163830000Y-93050366D01*
X163619670Y-92735585D01*
X163133489Y-92410729D01*
X162560000Y-92296655D01*
X161986511Y-92410729D01*
X161500330Y-92735585D01*
X161290000Y-93050366D01*
X161079670Y-92735585D01*
X160593489Y-92410729D01*
X160020000Y-92296655D01*
X159446511Y-92410729D01*
X158960330Y-92735585D01*
X158945500Y-92757780D01*
X158881927Y-92604302D01*
X158703299Y-92425673D01*
X158469910Y-92329000D01*
X157765750Y-92329000D01*
X157607000Y-92487750D01*
X157607000Y-93853000D01*
X157627000Y-93853000D01*
X157627000Y-94107000D01*
X157607000Y-94107000D01*
X157607000Y-94127000D01*
X157353000Y-94127000D01*
X157353000Y-94107000D01*
X156140150Y-94107000D01*
X155981400Y-94265750D01*
X155981400Y-95122309D01*
X156029430Y-95238263D01*
X156019969Y-95252110D01*
X155968960Y-95504000D01*
X154380000Y-95504000D01*
X154380000Y-92837691D01*
X155981400Y-92837691D01*
X155981400Y-93694250D01*
X156140150Y-93853000D01*
X157353000Y-93853000D01*
X157353000Y-92487750D01*
X157194250Y-92329000D01*
X156490090Y-92329000D01*
X156256701Y-92425673D01*
X156078073Y-92604302D01*
X155981400Y-92837691D01*
X154380000Y-92837691D01*
X154380000Y-90880000D01*
X187250000Y-90880000D01*
X187250000Y-103433125D01*
X187250000Y-103433125D01*
G37*
X187250000Y-103433125D02*
X186809273Y-102366485D01*
X185928153Y-101483826D01*
X184776326Y-101005546D01*
X183529146Y-101004457D01*
X182376485Y-101480727D01*
X181493826Y-102361847D01*
X181015546Y-103513674D01*
X181014457Y-104760854D01*
X181490727Y-105913515D01*
X182129097Y-106553000D01*
X180340000Y-106553000D01*
X180290590Y-106563006D01*
X180248965Y-106591447D01*
X180221685Y-106633841D01*
X180213000Y-106680000D01*
X180213000Y-124528198D01*
X179830000Y-124145198D01*
X179830000Y-110490000D01*
X179772148Y-110199161D01*
X179772148Y-110199160D01*
X179607401Y-109952599D01*
X178964999Y-109310197D01*
X178997440Y-109150000D01*
X178997440Y-106750000D01*
X178953162Y-106514683D01*
X178814090Y-106298559D01*
X178601890Y-106153569D01*
X178350000Y-106102560D01*
X177250000Y-106102560D01*
X177014683Y-106146838D01*
X176798559Y-106285910D01*
X176669975Y-106474099D01*
X176637922Y-106426128D01*
X176560000Y-106374062D01*
X176560000Y-105237440D01*
X176960000Y-105237440D01*
X177195317Y-105193162D01*
X177411441Y-105054090D01*
X177556431Y-104841890D01*
X177607440Y-104590000D01*
X177607440Y-104137362D01*
X177939680Y-103805122D01*
X177985167Y-103805162D01*
X178328943Y-103663117D01*
X178592192Y-103400327D01*
X178734838Y-103056799D01*
X178735162Y-102684833D01*
X178593117Y-102341057D01*
X178330327Y-102077808D01*
X177986799Y-101935162D01*
X177614833Y-101934838D01*
X177271057Y-102076883D01*
X177007808Y-102339673D01*
X176865162Y-102683201D01*
X176865121Y-102730077D01*
X176552638Y-103042560D01*
X175760000Y-103042560D01*
X175524683Y-103086838D01*
X175308559Y-103225910D01*
X175262031Y-103294006D01*
X175119698Y-103151673D01*
X174886309Y-103055000D01*
X174445750Y-103055000D01*
X174287000Y-103213750D01*
X174287000Y-104013000D01*
X174307000Y-104013000D01*
X174307000Y-104267000D01*
X174287000Y-104267000D01*
X174287000Y-105066250D01*
X174445750Y-105225000D01*
X174886309Y-105225000D01*
X175040000Y-105161339D01*
X175040000Y-106374062D01*
X174962078Y-106426128D01*
X174800000Y-106668696D01*
X174637922Y-106426128D01*
X174533403Y-106356291D01*
X174502148Y-106199161D01*
X174337401Y-105952599D01*
X173609802Y-105225000D01*
X173874250Y-105225000D01*
X174033000Y-105066250D01*
X174033000Y-104267000D01*
X173083750Y-104267000D01*
X172925000Y-104425750D01*
X172925000Y-104540198D01*
X171987401Y-103602599D01*
X171929170Y-103563690D01*
X172925000Y-103563690D01*
X172925000Y-103854250D01*
X173083750Y-104013000D01*
X174033000Y-104013000D01*
X174033000Y-103213750D01*
X173874250Y-103055000D01*
X173433691Y-103055000D01*
X173200302Y-103151673D01*
X173021673Y-103330301D01*
X172925000Y-103563690D01*
X171929170Y-103563690D01*
X171740839Y-103437852D01*
X171450000Y-103380000D01*
X166085105Y-103380000D01*
X165994090Y-103238559D01*
X165781890Y-103093569D01*
X165530000Y-103042560D01*
X164330000Y-103042560D01*
X164094683Y-103086838D01*
X163878559Y-103225910D01*
X163832031Y-103294006D01*
X163689698Y-103151673D01*
X163456309Y-103055000D01*
X163015750Y-103055000D01*
X162857000Y-103213750D01*
X162857000Y-104013000D01*
X162877000Y-104013000D01*
X162877000Y-104267000D01*
X162857000Y-104267000D01*
X162857000Y-105066250D01*
X163015750Y-105225000D01*
X163456309Y-105225000D01*
X163689698Y-105128327D01*
X163830936Y-104987090D01*
X163865910Y-105041441D01*
X164078110Y-105186431D01*
X164330000Y-105237440D01*
X165530000Y-105237440D01*
X165765317Y-105193162D01*
X165981441Y-105054090D01*
X166086726Y-104900000D01*
X168109367Y-104900000D01*
X167975162Y-105223201D01*
X167975121Y-105270077D01*
X167102599Y-106142599D01*
X166937852Y-106389161D01*
X166917113Y-106493424D01*
X166800000Y-106668696D01*
X166637922Y-106426128D01*
X166253480Y-106169253D01*
X165800000Y-106079050D01*
X165346520Y-106169253D01*
X164962078Y-106426128D01*
X164798078Y-106671572D01*
X164548118Y-106372276D01*
X164136146Y-106156602D01*
X164109744Y-106156197D01*
X163927000Y-106281639D01*
X163927000Y-107823000D01*
X163947000Y-107823000D01*
X163947000Y-108077000D01*
X163927000Y-108077000D01*
X163927000Y-109618361D01*
X164109744Y-109743803D01*
X164136146Y-109743398D01*
X164548118Y-109527724D01*
X164798078Y-109228428D01*
X164962078Y-109473872D01*
X165346520Y-109730747D01*
X165800000Y-109820950D01*
X165880196Y-109804998D01*
X170514878Y-114439680D01*
X170514838Y-114485167D01*
X170656883Y-114828943D01*
X170919673Y-115092192D01*
X171263201Y-115234838D01*
X171635167Y-115235162D01*
X171978943Y-115093117D01*
X172242192Y-114830327D01*
X172384838Y-114486799D01*
X172385162Y-114114833D01*
X172243117Y-113771057D01*
X171980327Y-113507808D01*
X171636799Y-113365162D01*
X171589923Y-113365121D01*
X168004979Y-109780177D01*
X168253480Y-109730747D01*
X168637922Y-109473872D01*
X168800000Y-109231304D01*
X168962078Y-109473872D01*
X169346520Y-109730747D01*
X169800000Y-109820950D01*
X170253480Y-109730747D01*
X170637922Y-109473872D01*
X170800000Y-109231304D01*
X170962078Y-109473872D01*
X171040000Y-109525938D01*
X171040000Y-109647737D01*
X170921057Y-109696883D01*
X170657808Y-109959673D01*
X170515162Y-110303201D01*
X170514838Y-110675167D01*
X170656883Y-111018943D01*
X170919673Y-111282192D01*
X171263201Y-111424838D01*
X171635167Y-111425162D01*
X171978943Y-111283117D01*
X172242192Y-111020327D01*
X172384838Y-110676799D01*
X172384899Y-110606314D01*
X172502148Y-110430839D01*
X172560000Y-110140000D01*
X172560000Y-109525938D01*
X172637922Y-109473872D01*
X172800000Y-109231304D01*
X172962078Y-109473872D01*
X173346520Y-109730747D01*
X173800000Y-109820950D01*
X174253480Y-109730747D01*
X174637922Y-109473872D01*
X174800000Y-109231304D01*
X174962078Y-109473872D01*
X175346520Y-109730747D01*
X175800000Y-109820950D01*
X176253480Y-109730747D01*
X176637922Y-109473872D01*
X176671492Y-109423631D01*
X176785910Y-109601441D01*
X176998110Y-109746431D01*
X177250000Y-109797440D01*
X177302638Y-109797440D01*
X178310000Y-110804802D01*
X178310000Y-120085198D01*
X177067401Y-118842599D01*
X176820839Y-118677852D01*
X176530000Y-118620000D01*
X175822463Y-118620000D01*
X175790327Y-118587808D01*
X175446799Y-118445162D01*
X175074833Y-118444838D01*
X174731057Y-118586883D01*
X174467808Y-118849673D01*
X174325162Y-119193201D01*
X174324838Y-119565167D01*
X174466883Y-119908943D01*
X174729673Y-120172192D01*
X175073201Y-120314838D01*
X175445167Y-120315162D01*
X175788943Y-120173117D01*
X175822118Y-120140000D01*
X176215198Y-120140000D01*
X177040000Y-120964802D01*
X177040000Y-121119367D01*
X176716799Y-120985162D01*
X176344833Y-120984838D01*
X176001057Y-121126883D01*
X175737808Y-121389673D01*
X175595162Y-121733201D01*
X175595121Y-121780077D01*
X175262599Y-122112599D01*
X175126525Y-122316248D01*
X174962078Y-122426128D01*
X174800000Y-122668696D01*
X174637922Y-122426128D01*
X174253480Y-122169253D01*
X173800000Y-122079050D01*
X173346520Y-122169253D01*
X172962078Y-122426128D01*
X172800000Y-122668696D01*
X172637922Y-122426128D01*
X172253480Y-122169253D01*
X171800000Y-122079050D01*
X171346520Y-122169253D01*
X170962078Y-122426128D01*
X170800000Y-122668696D01*
X170637922Y-122426128D01*
X170253480Y-122169253D01*
X169800000Y-122079050D01*
X169346520Y-122169253D01*
X168962078Y-122426128D01*
X168800000Y-122668696D01*
X168637922Y-122426128D01*
X168560000Y-122374062D01*
X168560000Y-114522533D01*
X168574838Y-114486799D01*
X168575162Y-114114833D01*
X168433117Y-113771057D01*
X168170327Y-113507808D01*
X167826799Y-113365162D01*
X167454833Y-113364838D01*
X167111057Y-113506883D01*
X166847808Y-113769673D01*
X166705162Y-114113201D01*
X166704838Y-114485167D01*
X166846883Y-114828943D01*
X167040000Y-115022397D01*
X167040000Y-122374062D01*
X166962078Y-122426128D01*
X166800000Y-122668696D01*
X166637922Y-122426128D01*
X166253480Y-122169253D01*
X165800000Y-122079050D01*
X165346520Y-122169253D01*
X164962078Y-122426128D01*
X164800000Y-122668696D01*
X164637922Y-122426128D01*
X164253480Y-122169253D01*
X163800000Y-122079050D01*
X163346520Y-122169253D01*
X162962078Y-122426128D01*
X162705203Y-122810570D01*
X162615000Y-123264050D01*
X162615000Y-124635950D01*
X162665000Y-124887316D01*
X162665000Y-125865000D01*
X161290990Y-125865000D01*
X161065225Y-125864803D01*
X160647914Y-126037233D01*
X160328355Y-126356235D01*
X160328158Y-126356710D01*
X160278848Y-126406020D01*
X160148010Y-126406020D01*
X160148010Y-126041150D01*
X160103732Y-125805833D01*
X159964660Y-125589709D01*
X159752460Y-125444719D01*
X159500570Y-125393710D01*
X157999430Y-125393710D01*
X157764113Y-125437988D01*
X157547989Y-125577060D01*
X157402999Y-125789260D01*
X157351990Y-126041150D01*
X157351990Y-129040890D01*
X157396268Y-129276207D01*
X157535340Y-129492331D01*
X157602378Y-129538136D01*
X157461103Y-129679412D01*
X157364430Y-129912801D01*
X157364430Y-131253230D01*
X157523180Y-131411980D01*
X158623000Y-131411980D01*
X158623000Y-131391980D01*
X158877000Y-131391980D01*
X158877000Y-131411980D01*
X159976820Y-131411980D01*
X160135570Y-131253230D01*
X160135570Y-129912801D01*
X160038897Y-129679412D01*
X159898743Y-129539257D01*
X159952011Y-129504980D01*
X160097001Y-129292780D01*
X160148010Y-129040890D01*
X160148010Y-128676020D01*
X160748980Y-128676020D01*
X161183326Y-128589623D01*
X161551546Y-128343586D01*
X161760132Y-128135000D01*
X164000000Y-128135000D01*
X164188826Y-128097440D01*
X164600000Y-128097440D01*
X164835317Y-128053162D01*
X165051441Y-127914090D01*
X165099134Y-127844289D01*
X165135910Y-127901441D01*
X165348110Y-128046431D01*
X165600000Y-128097440D01*
X166800000Y-128097440D01*
X167035317Y-128053162D01*
X167040000Y-128050149D01*
X167040000Y-130335198D01*
X166392638Y-130982560D01*
X165600000Y-130982560D01*
X165364683Y-131026838D01*
X165148559Y-131165910D01*
X165102031Y-131234006D01*
X164959698Y-131091673D01*
X164726309Y-130995000D01*
X164285750Y-130995000D01*
X164127000Y-131153750D01*
X164127000Y-131953000D01*
X164147000Y-131953000D01*
X164147000Y-132207000D01*
X164127000Y-132207000D01*
X164127000Y-133006250D01*
X164285750Y-133165000D01*
X164726309Y-133165000D01*
X164959698Y-133068327D01*
X165100936Y-132927090D01*
X165135910Y-132981441D01*
X165348110Y-133126431D01*
X165600000Y-133177440D01*
X166800000Y-133177440D01*
X167035317Y-133133162D01*
X167251441Y-132994090D01*
X167396431Y-132781890D01*
X167447440Y-132530000D01*
X167447440Y-132077362D01*
X168337401Y-131187401D01*
X168345185Y-131175750D01*
X170165000Y-131175750D01*
X170165000Y-131766309D01*
X170261673Y-131999698D01*
X170440301Y-132178327D01*
X170673690Y-132275000D01*
X171164250Y-132275000D01*
X171323000Y-132116250D01*
X171323000Y-131017000D01*
X171577000Y-131017000D01*
X171577000Y-132116250D01*
X171735750Y-132275000D01*
X172226310Y-132275000D01*
X172459699Y-132178327D01*
X172638327Y-131999698D01*
X172735000Y-131766309D01*
X172735000Y-131175750D01*
X172576250Y-131017000D01*
X171577000Y-131017000D01*
X171323000Y-131017000D01*
X170323750Y-131017000D01*
X170165000Y-131175750D01*
X168345185Y-131175750D01*
X168502148Y-130940840D01*
X168560000Y-130650000D01*
X168560000Y-125525938D01*
X168637922Y-125473872D01*
X168800000Y-125231304D01*
X168962078Y-125473872D01*
X169346520Y-125730747D01*
X169800000Y-125820950D01*
X170253480Y-125730747D01*
X170404822Y-125629624D01*
X171567758Y-126792560D01*
X170800000Y-126792560D01*
X170564683Y-126836838D01*
X170348559Y-126975910D01*
X170203569Y-127188110D01*
X170152560Y-127440000D01*
X170152560Y-128940000D01*
X170196838Y-129175317D01*
X170335910Y-129391441D01*
X170548110Y-129536431D01*
X170581490Y-129543191D01*
X170440301Y-129601673D01*
X170261673Y-129780302D01*
X170165000Y-130013691D01*
X170165000Y-130604250D01*
X170323750Y-130763000D01*
X171323000Y-130763000D01*
X171323000Y-130743000D01*
X171577000Y-130743000D01*
X171577000Y-130763000D01*
X172576250Y-130763000D01*
X172735000Y-130604250D01*
X172735000Y-130459802D01*
X172892560Y-130617362D01*
X172892560Y-131240000D01*
X172936838Y-131475317D01*
X173075910Y-131691441D01*
X173288110Y-131836431D01*
X173540000Y-131887440D01*
X174440000Y-131887440D01*
X174675317Y-131843162D01*
X174891441Y-131704090D01*
X175036431Y-131491890D01*
X175087440Y-131240000D01*
X175087440Y-130040000D01*
X175043162Y-129804683D01*
X174904090Y-129588559D01*
X174834289Y-129540866D01*
X174891441Y-129504090D01*
X175036431Y-129291890D01*
X175087440Y-129040000D01*
X175087440Y-128417362D01*
X175204802Y-128300000D01*
X175502721Y-128300000D01*
X175625910Y-128491441D01*
X175838110Y-128636431D01*
X176090000Y-128687440D01*
X178840000Y-128687440D01*
X179075317Y-128643162D01*
X179291441Y-128504090D01*
X179436431Y-128291890D01*
X179487440Y-128040000D01*
X179487440Y-127040000D01*
X179443162Y-126804683D01*
X179304090Y-126588559D01*
X179091890Y-126443569D01*
X178840000Y-126392560D01*
X176090000Y-126392560D01*
X175854683Y-126436838D01*
X175638559Y-126575910D01*
X175499110Y-126780000D01*
X174890000Y-126780000D01*
X174599160Y-126837852D01*
X174352599Y-127002599D01*
X174162638Y-127192560D01*
X174117362Y-127192560D01*
X172494503Y-125569701D01*
X172637922Y-125473872D01*
X172800000Y-125231304D01*
X172962078Y-125473872D01*
X173346520Y-125730747D01*
X173800000Y-125820950D01*
X174253480Y-125730747D01*
X174637922Y-125473872D01*
X174800000Y-125231304D01*
X174962078Y-125473872D01*
X175346520Y-125730747D01*
X175800000Y-125820950D01*
X176253480Y-125730747D01*
X176637922Y-125473872D01*
X176800000Y-125231304D01*
X176962078Y-125473872D01*
X177346520Y-125730747D01*
X177800000Y-125820950D01*
X178253480Y-125730747D01*
X178637922Y-125473872D01*
X178786583Y-125251385D01*
X179580000Y-126044802D01*
X179580000Y-135575198D01*
X178412638Y-136742560D01*
X176090000Y-136742560D01*
X175854683Y-136786838D01*
X175638559Y-136925910D01*
X175493569Y-137138110D01*
X175442560Y-137390000D01*
X175442560Y-138390000D01*
X175486838Y-138625317D01*
X175625910Y-138841441D01*
X175838110Y-138986431D01*
X176090000Y-139037440D01*
X177537638Y-139037440D01*
X178140000Y-139639802D01*
X178140000Y-141172666D01*
X178064683Y-141186838D01*
X177848559Y-141325910D01*
X177802031Y-141394006D01*
X177659698Y-141251673D01*
X177426309Y-141155000D01*
X176985750Y-141155000D01*
X176827000Y-141313750D01*
X176827000Y-142113000D01*
X176847000Y-142113000D01*
X176847000Y-142367000D01*
X176827000Y-142367000D01*
X176827000Y-143166250D01*
X176985750Y-143325000D01*
X177426309Y-143325000D01*
X177659698Y-143228327D01*
X177800936Y-143087090D01*
X177835910Y-143141441D01*
X178048110Y-143286431D01*
X178300000Y-143337440D01*
X179500000Y-143337440D01*
X179580000Y-143322387D01*
X179580000Y-143510000D01*
X179637852Y-143800839D01*
X179802599Y-144047401D01*
X181428046Y-145672848D01*
X181036511Y-145750729D01*
X180550330Y-146075585D01*
X180340000Y-146390366D01*
X180129670Y-146075585D01*
X179643489Y-145750729D01*
X179070000Y-145636655D01*
X178496511Y-145750729D01*
X178010330Y-146075585D01*
X177800000Y-146390366D01*
X177589670Y-146075585D01*
X177103489Y-145750729D01*
X176530000Y-145636655D01*
X175956511Y-145750729D01*
X175470330Y-146075585D01*
X175260000Y-146390366D01*
X175049670Y-146075585D01*
X174563489Y-145750729D01*
X173990000Y-145636655D01*
X173416511Y-145750729D01*
X172930330Y-146075585D01*
X172920757Y-146089913D01*
X172916762Y-146068683D01*
X172777690Y-145852559D01*
X172565490Y-145707569D01*
X172313600Y-145656560D01*
X170586400Y-145656560D01*
X170351083Y-145700838D01*
X170134959Y-145839910D01*
X169989969Y-146052110D01*
X169938960Y-146304000D01*
X169938960Y-148336000D01*
X169983238Y-148571317D01*
X170122310Y-148787441D01*
X170334510Y-148932431D01*
X170586400Y-148983440D01*
X172313600Y-148983440D01*
X172548917Y-148939162D01*
X172765041Y-148800090D01*
X172910031Y-148587890D01*
X172918400Y-148546561D01*
X172930330Y-148564415D01*
X173416511Y-148889271D01*
X173990000Y-149003345D01*
X174563489Y-148889271D01*
X175049670Y-148564415D01*
X175260000Y-148249634D01*
X175470330Y-148564415D01*
X175956511Y-148889271D01*
X176530000Y-149003345D01*
X177103489Y-148889271D01*
X177589670Y-148564415D01*
X177800000Y-148249634D01*
X178010330Y-148564415D01*
X178496511Y-148889271D01*
X179070000Y-149003345D01*
X179643489Y-148889271D01*
X180129670Y-148564415D01*
X180340000Y-148249634D01*
X180550330Y-148564415D01*
X181036511Y-148889271D01*
X181610000Y-149003345D01*
X182183489Y-148889271D01*
X182669670Y-148564415D01*
X182880000Y-148249634D01*
X183090330Y-148564415D01*
X183576511Y-148889271D01*
X184150000Y-149003345D01*
X184723489Y-148889271D01*
X185209670Y-148564415D01*
X185534526Y-148078234D01*
X185648600Y-147504745D01*
X185648600Y-147135255D01*
X185534526Y-146561766D01*
X185209670Y-146075585D01*
X184723489Y-145750729D01*
X184150000Y-145636655D01*
X183642421Y-145737619D01*
X183105697Y-145200895D01*
X183523674Y-145374454D01*
X184770854Y-145375543D01*
X185923515Y-144899273D01*
X186806174Y-144018153D01*
X187250000Y-142949301D01*
X187250000Y-149150000D01*
X154380000Y-149150000D01*
X154380000Y-142946875D01*
X154820727Y-144013515D01*
X155701847Y-144896174D01*
X156853674Y-145374454D01*
X158100854Y-145375543D01*
X159253515Y-144899273D01*
X160136174Y-144018153D01*
X160614454Y-142866326D01*
X160615297Y-141900653D01*
X160646235Y-141931645D01*
X160646710Y-141931842D01*
X161521460Y-142806593D01*
X161511397Y-142821654D01*
X161425000Y-143256000D01*
X161425000Y-145972702D01*
X161347690Y-145852559D01*
X161135490Y-145707569D01*
X160883600Y-145656560D01*
X159156400Y-145656560D01*
X158921083Y-145700838D01*
X158704959Y-145839910D01*
X158559969Y-146052110D01*
X158508960Y-146304000D01*
X158508960Y-148336000D01*
X158553238Y-148571317D01*
X158692310Y-148787441D01*
X158904510Y-148932431D01*
X159156400Y-148983440D01*
X160883600Y-148983440D01*
X161118917Y-148939162D01*
X161335041Y-148800090D01*
X161480031Y-148587890D01*
X161488400Y-148546561D01*
X161500330Y-148564415D01*
X161986511Y-148889271D01*
X162560000Y-149003345D01*
X163133489Y-148889271D01*
X163619670Y-148564415D01*
X163826461Y-148254931D01*
X164197964Y-148670732D01*
X164725209Y-148924709D01*
X164740974Y-148927358D01*
X164973000Y-148806217D01*
X164973000Y-147447000D01*
X165227000Y-147447000D01*
X165227000Y-148806217D01*
X165459026Y-148927358D01*
X165474791Y-148924709D01*
X166002036Y-148670732D01*
X166391954Y-148234320D01*
X166585184Y-147681913D01*
X166440924Y-147447000D01*
X165227000Y-147447000D01*
X164973000Y-147447000D01*
X164953000Y-147447000D01*
X164953000Y-147193000D01*
X164973000Y-147193000D01*
X164973000Y-145833783D01*
X165227000Y-145833783D01*
X165227000Y-147193000D01*
X166440924Y-147193000D01*
X166585184Y-146958087D01*
X166391954Y-146405680D01*
X166002036Y-145969268D01*
X165474791Y-145715291D01*
X165459026Y-145712642D01*
X165227000Y-145833783D01*
X164973000Y-145833783D01*
X164740974Y-145712642D01*
X164725209Y-145715291D01*
X164197964Y-145969268D01*
X163826461Y-146385069D01*
X163695000Y-146188324D01*
X163695000Y-144532565D01*
X163773441Y-144482090D01*
X163918431Y-144269890D01*
X163957000Y-144079431D01*
X163957000Y-144144310D01*
X164053673Y-144377699D01*
X164232302Y-144556327D01*
X164465691Y-144653000D01*
X164814250Y-144653000D01*
X164973000Y-144494250D01*
X164973000Y-143129000D01*
X164953000Y-143129000D01*
X164953000Y-142875000D01*
X164973000Y-142875000D01*
X164973000Y-141509750D01*
X165227000Y-141509750D01*
X165227000Y-142875000D01*
X165247000Y-142875000D01*
X165247000Y-143129000D01*
X165227000Y-143129000D01*
X165227000Y-144494250D01*
X165385750Y-144653000D01*
X165734309Y-144653000D01*
X165967698Y-144556327D01*
X166146327Y-144377699D01*
X166243000Y-144144310D01*
X166243000Y-144084113D01*
X166274838Y-144253317D01*
X166413910Y-144469441D01*
X166626110Y-144614431D01*
X166878000Y-144665440D01*
X167894000Y-144665440D01*
X168129317Y-144621162D01*
X168345441Y-144482090D01*
X168490431Y-144269890D01*
X168517342Y-144137000D01*
X169201867Y-144137000D01*
X169377433Y-144312566D01*
X169536235Y-144471645D01*
X169953244Y-144644803D01*
X170404775Y-144645197D01*
X170405252Y-144645000D01*
X170908980Y-144645000D01*
X171343326Y-144558603D01*
X171711546Y-144312566D01*
X172177822Y-143846290D01*
X173470570Y-143846290D01*
X173705887Y-143802012D01*
X173922011Y-143662940D01*
X174067001Y-143450740D01*
X174118010Y-143198850D01*
X174118010Y-142525750D01*
X175465000Y-142525750D01*
X175465000Y-142816310D01*
X175561673Y-143049699D01*
X175740302Y-143228327D01*
X175973691Y-143325000D01*
X176414250Y-143325000D01*
X176573000Y-143166250D01*
X176573000Y-142367000D01*
X175623750Y-142367000D01*
X175465000Y-142525750D01*
X174118010Y-142525750D01*
X174118010Y-141663690D01*
X175465000Y-141663690D01*
X175465000Y-141954250D01*
X175623750Y-142113000D01*
X176573000Y-142113000D01*
X176573000Y-141313750D01*
X176414250Y-141155000D01*
X175973691Y-141155000D01*
X175740302Y-141251673D01*
X175561673Y-141430301D01*
X175465000Y-141663690D01*
X174118010Y-141663690D01*
X174118010Y-140199110D01*
X174073732Y-139963793D01*
X173934660Y-139747669D01*
X173866201Y-139700893D01*
X173922011Y-139664980D01*
X174067001Y-139452780D01*
X174118010Y-139200890D01*
X174118010Y-136201150D01*
X174073732Y-135965833D01*
X173934660Y-135749709D01*
X173855000Y-135695280D01*
X173855000Y-134485000D01*
X175460436Y-134485000D01*
X175486838Y-134625317D01*
X175625910Y-134841441D01*
X175838110Y-134986431D01*
X176090000Y-135037440D01*
X178840000Y-135037440D01*
X179075317Y-134993162D01*
X179291441Y-134854090D01*
X179436431Y-134641890D01*
X179487440Y-134390000D01*
X179487440Y-133390000D01*
X179443162Y-133154683D01*
X179304090Y-132938559D01*
X179091890Y-132793569D01*
X178840000Y-132742560D01*
X178600000Y-132742560D01*
X178600000Y-132687440D01*
X178840000Y-132687440D01*
X179075317Y-132643162D01*
X179291441Y-132504090D01*
X179436431Y-132291890D01*
X179487440Y-132040000D01*
X179487440Y-131040000D01*
X179443162Y-130804683D01*
X179304090Y-130588559D01*
X179091890Y-130443569D01*
X178840000Y-130392560D01*
X176090000Y-130392560D01*
X175854683Y-130436838D01*
X175638559Y-130575910D01*
X175493569Y-130788110D01*
X175442560Y-131040000D01*
X175442560Y-132040000D01*
X175475489Y-132215000D01*
X172720990Y-132215000D01*
X172495225Y-132214803D01*
X172077914Y-132387233D01*
X171758355Y-132706235D01*
X171585197Y-133123244D01*
X171584803Y-133574775D01*
X171585000Y-133575252D01*
X171585000Y-135693940D01*
X171517989Y-135737060D01*
X171372999Y-135949260D01*
X171321990Y-136201150D01*
X171321990Y-139200890D01*
X171366268Y-139436207D01*
X171505340Y-139652331D01*
X171573799Y-139699107D01*
X171517989Y-139735020D01*
X171372999Y-139947220D01*
X171321990Y-140199110D01*
X171321990Y-141491858D01*
X170544490Y-142269358D01*
X170474566Y-142199434D01*
X170357181Y-142121000D01*
X170106346Y-141953397D01*
X169672000Y-141867000D01*
X168519049Y-141867000D01*
X168497162Y-141750683D01*
X168358090Y-141534559D01*
X168145890Y-141389569D01*
X167894000Y-141338560D01*
X166878000Y-141338560D01*
X166642683Y-141382838D01*
X166426559Y-141521910D01*
X166281569Y-141734110D01*
X166243000Y-141924569D01*
X166243000Y-141859690D01*
X166146327Y-141626301D01*
X165967698Y-141447673D01*
X165734309Y-141351000D01*
X165385750Y-141351000D01*
X165227000Y-141509750D01*
X164973000Y-141509750D01*
X164814250Y-141351000D01*
X164465691Y-141351000D01*
X164232302Y-141447673D01*
X164053673Y-141626301D01*
X163957000Y-141859690D01*
X163957000Y-141919887D01*
X163925162Y-141750683D01*
X163786090Y-141534559D01*
X163573890Y-141389569D01*
X163322000Y-141338560D01*
X163263693Y-141338560D01*
X162092979Y-140167847D01*
X161933765Y-140008355D01*
X161516756Y-139835197D01*
X161065225Y-139834803D01*
X160647914Y-140007233D01*
X160328355Y-140326235D01*
X160204534Y-140624428D01*
X160139273Y-140466485D01*
X159258153Y-139583826D01*
X158106326Y-139105546D01*
X156859146Y-139104457D01*
X155706485Y-139580727D01*
X154823826Y-140461847D01*
X154380000Y-141530699D01*
X154380000Y-136683750D01*
X162636200Y-136683750D01*
X162636200Y-137540310D01*
X162732873Y-137773699D01*
X162911502Y-137952327D01*
X163144891Y-138049000D01*
X164814250Y-138049000D01*
X164973000Y-137890250D01*
X164973000Y-136525000D01*
X165227000Y-136525000D01*
X165227000Y-137890250D01*
X165385750Y-138049000D01*
X167055109Y-138049000D01*
X167288498Y-137952327D01*
X167467127Y-137773699D01*
X167563800Y-137540310D01*
X167563800Y-136683750D01*
X167405050Y-136525000D01*
X165227000Y-136525000D01*
X164973000Y-136525000D01*
X162794950Y-136525000D01*
X162636200Y-136683750D01*
X154380000Y-136683750D01*
X154380000Y-135255690D01*
X162636200Y-135255690D01*
X162636200Y-136112250D01*
X162794950Y-136271000D01*
X164973000Y-136271000D01*
X164973000Y-134905750D01*
X165227000Y-134905750D01*
X165227000Y-136271000D01*
X167405050Y-136271000D01*
X167563800Y-136112250D01*
X167563800Y-135255690D01*
X167467127Y-135022301D01*
X167288498Y-134843673D01*
X167055109Y-134747000D01*
X165385750Y-134747000D01*
X165227000Y-134905750D01*
X164973000Y-134905750D01*
X164814250Y-134747000D01*
X163144891Y-134747000D01*
X162911502Y-134843673D01*
X162732873Y-135022301D01*
X162636200Y-135255690D01*
X154380000Y-135255690D01*
X154380000Y-131824730D01*
X157364430Y-131824730D01*
X157364430Y-133165159D01*
X157461103Y-133398548D01*
X157639731Y-133577177D01*
X157873120Y-133673850D01*
X158464250Y-133673850D01*
X158623000Y-133515100D01*
X158623000Y-131665980D01*
X158877000Y-131665980D01*
X158877000Y-133515100D01*
X159035750Y-133673850D01*
X159626880Y-133673850D01*
X159860269Y-133577177D01*
X160038897Y-133398548D01*
X160135570Y-133165159D01*
X160135570Y-132365750D01*
X162765000Y-132365750D01*
X162765000Y-132656310D01*
X162861673Y-132889699D01*
X163040302Y-133068327D01*
X163273691Y-133165000D01*
X163714250Y-133165000D01*
X163873000Y-133006250D01*
X163873000Y-132207000D01*
X162923750Y-132207000D01*
X162765000Y-132365750D01*
X160135570Y-132365750D01*
X160135570Y-131824730D01*
X159976820Y-131665980D01*
X158877000Y-131665980D01*
X158623000Y-131665980D01*
X157523180Y-131665980D01*
X157364430Y-131824730D01*
X154380000Y-131824730D01*
X154380000Y-131503690D01*
X162765000Y-131503690D01*
X162765000Y-131794250D01*
X162923750Y-131953000D01*
X163873000Y-131953000D01*
X163873000Y-131153750D01*
X163714250Y-130995000D01*
X163273691Y-130995000D01*
X163040302Y-131091673D01*
X162861673Y-131270301D01*
X162765000Y-131503690D01*
X154380000Y-131503690D01*
X154380000Y-110940000D01*
X160179050Y-110940000D01*
X160269253Y-111393480D01*
X160526128Y-111777922D01*
X160768696Y-111940000D01*
X160526128Y-112102078D01*
X160269253Y-112486520D01*
X160179050Y-112940000D01*
X160269253Y-113393480D01*
X160526128Y-113777922D01*
X160768696Y-113940000D01*
X160526128Y-114102078D01*
X160269253Y-114486520D01*
X160179050Y-114940000D01*
X160269253Y-115393480D01*
X160526128Y-115777922D01*
X160768696Y-115940000D01*
X160526128Y-116102078D01*
X160269253Y-116486520D01*
X160179050Y-116940000D01*
X160269253Y-117393480D01*
X160526128Y-117777922D01*
X160768696Y-117940000D01*
X160526128Y-118102078D01*
X160269253Y-118486520D01*
X160179050Y-118940000D01*
X160269253Y-119393480D01*
X160526128Y-119777922D01*
X160768696Y-119940000D01*
X160526128Y-120102078D01*
X160269253Y-120486520D01*
X160179050Y-120940000D01*
X160269253Y-121393480D01*
X160526128Y-121777922D01*
X160910570Y-122034797D01*
X161364050Y-122125000D01*
X162735950Y-122125000D01*
X163189430Y-122034797D01*
X163573872Y-121777922D01*
X163830747Y-121393480D01*
X163920950Y-120940000D01*
X163830747Y-120486520D01*
X163573872Y-120102078D01*
X163331304Y-119940000D01*
X163573872Y-119777922D01*
X163830747Y-119393480D01*
X163920950Y-118940000D01*
X163830747Y-118486520D01*
X163573872Y-118102078D01*
X163331304Y-117940000D01*
X163573872Y-117777922D01*
X163830747Y-117393480D01*
X163920950Y-116940000D01*
X163830747Y-116486520D01*
X163573872Y-116102078D01*
X163331304Y-115940000D01*
X163573872Y-115777922D01*
X163830747Y-115393480D01*
X163920950Y-114940000D01*
X163830747Y-114486520D01*
X163573872Y-114102078D01*
X163331304Y-113940000D01*
X163573872Y-113777922D01*
X163830747Y-113393480D01*
X163920950Y-112940000D01*
X163830747Y-112486520D01*
X163573872Y-112102078D01*
X163331304Y-111940000D01*
X163573872Y-111777922D01*
X163830747Y-111393480D01*
X163920950Y-110940000D01*
X163830747Y-110486520D01*
X163573872Y-110102078D01*
X163189430Y-109845203D01*
X162735950Y-109755000D01*
X161364050Y-109755000D01*
X160910570Y-109845203D01*
X160526128Y-110102078D01*
X160269253Y-110486520D01*
X160179050Y-110940000D01*
X154380000Y-110940000D01*
X154380000Y-108077000D01*
X162615000Y-108077000D01*
X162615000Y-108727000D01*
X162753804Y-109170813D01*
X163051882Y-109527724D01*
X163463854Y-109743398D01*
X163490256Y-109743803D01*
X163673000Y-109618361D01*
X163673000Y-108077000D01*
X162615000Y-108077000D01*
X154380000Y-108077000D01*
X154380000Y-104846875D01*
X154820727Y-105913515D01*
X155701847Y-106796174D01*
X156853674Y-107274454D01*
X158100854Y-107275543D01*
X158349026Y-107173000D01*
X162615000Y-107173000D01*
X162615000Y-107823000D01*
X163673000Y-107823000D01*
X163673000Y-106281639D01*
X163490256Y-106156197D01*
X163463854Y-106156602D01*
X163051882Y-106372276D01*
X162753804Y-106729187D01*
X162615000Y-107173000D01*
X158349026Y-107173000D01*
X159253515Y-106799273D01*
X160136174Y-105918153D01*
X160614454Y-104766326D01*
X160614751Y-104425750D01*
X161495000Y-104425750D01*
X161495000Y-104716310D01*
X161591673Y-104949699D01*
X161770302Y-105128327D01*
X162003691Y-105225000D01*
X162444250Y-105225000D01*
X162603000Y-105066250D01*
X162603000Y-104267000D01*
X161653750Y-104267000D01*
X161495000Y-104425750D01*
X160614751Y-104425750D01*
X160615504Y-103563690D01*
X161495000Y-103563690D01*
X161495000Y-103854250D01*
X161653750Y-104013000D01*
X162603000Y-104013000D01*
X162603000Y-103213750D01*
X162444250Y-103055000D01*
X162003691Y-103055000D01*
X161770302Y-103151673D01*
X161591673Y-103330301D01*
X161495000Y-103563690D01*
X160615504Y-103563690D01*
X160615543Y-103519146D01*
X160139273Y-102366485D01*
X159258153Y-101483826D01*
X158106326Y-101005546D01*
X156859146Y-101004457D01*
X155706485Y-101480727D01*
X154823826Y-102361847D01*
X154380000Y-103430699D01*
X154380000Y-99345750D01*
X155981400Y-99345750D01*
X155981400Y-100202309D01*
X156078073Y-100435698D01*
X156256701Y-100614327D01*
X156490090Y-100711000D01*
X157194250Y-100711000D01*
X157353000Y-100552250D01*
X157353000Y-99187000D01*
X157607000Y-99187000D01*
X157607000Y-100552250D01*
X157765750Y-100711000D01*
X158469910Y-100711000D01*
X158703299Y-100614327D01*
X158881927Y-100435698D01*
X158963759Y-100238139D01*
X159117964Y-100410732D01*
X159645209Y-100664709D01*
X159660974Y-100667358D01*
X159893000Y-100546217D01*
X159893000Y-99187000D01*
X160147000Y-99187000D01*
X160147000Y-100546217D01*
X160379026Y-100667358D01*
X160394791Y-100664709D01*
X160922036Y-100410732D01*
X161290000Y-99998892D01*
X161657964Y-100410732D01*
X162185209Y-100664709D01*
X162200974Y-100667358D01*
X162433000Y-100546217D01*
X162433000Y-99187000D01*
X162687000Y-99187000D01*
X162687000Y-100546217D01*
X162919026Y-100667358D01*
X162934791Y-100664709D01*
X163462036Y-100410732D01*
X163830000Y-99998892D01*
X164197964Y-100410732D01*
X164725209Y-100664709D01*
X164740974Y-100667358D01*
X164973000Y-100546217D01*
X164973000Y-99187000D01*
X165227000Y-99187000D01*
X165227000Y-100546217D01*
X165459026Y-100667358D01*
X165474791Y-100664709D01*
X166002036Y-100410732D01*
X166370000Y-99998892D01*
X166737964Y-100410732D01*
X167265209Y-100664709D01*
X167280974Y-100667358D01*
X167513000Y-100546217D01*
X167513000Y-99187000D01*
X167767000Y-99187000D01*
X167767000Y-100546217D01*
X167999026Y-100667358D01*
X168014791Y-100664709D01*
X168542036Y-100410732D01*
X168910000Y-99998892D01*
X169277964Y-100410732D01*
X169805209Y-100664709D01*
X169820974Y-100667358D01*
X170053000Y-100546217D01*
X170053000Y-99187000D01*
X170307000Y-99187000D01*
X170307000Y-100546217D01*
X170539026Y-100667358D01*
X170554791Y-100664709D01*
X171082036Y-100410732D01*
X171450000Y-99998892D01*
X171817964Y-100410732D01*
X172345209Y-100664709D01*
X172360974Y-100667358D01*
X172593000Y-100546217D01*
X172593000Y-99187000D01*
X172847000Y-99187000D01*
X172847000Y-100546217D01*
X173079026Y-100667358D01*
X173094791Y-100664709D01*
X173622036Y-100410732D01*
X173990000Y-99998892D01*
X174357964Y-100410732D01*
X174885209Y-100664709D01*
X174900974Y-100667358D01*
X175133000Y-100546217D01*
X175133000Y-99187000D01*
X175387000Y-99187000D01*
X175387000Y-100546217D01*
X175619026Y-100667358D01*
X175634791Y-100664709D01*
X176162036Y-100410732D01*
X176551954Y-99974320D01*
X176745184Y-99421913D01*
X176600924Y-99187000D01*
X175387000Y-99187000D01*
X175133000Y-99187000D01*
X172847000Y-99187000D01*
X172593000Y-99187000D01*
X170307000Y-99187000D01*
X170053000Y-99187000D01*
X167767000Y-99187000D01*
X167513000Y-99187000D01*
X165227000Y-99187000D01*
X164973000Y-99187000D01*
X162687000Y-99187000D01*
X162433000Y-99187000D01*
X160147000Y-99187000D01*
X159893000Y-99187000D01*
X157607000Y-99187000D01*
X157353000Y-99187000D01*
X156140150Y-99187000D01*
X155981400Y-99345750D01*
X154380000Y-99345750D01*
X154380000Y-95504000D01*
X155968960Y-95504000D01*
X155968960Y-97536000D01*
X156013238Y-97771317D01*
X156030755Y-97798539D01*
X155981400Y-97917691D01*
X155981400Y-98774250D01*
X156140150Y-98933000D01*
X157353000Y-98933000D01*
X157353000Y-98913000D01*
X157607000Y-98913000D01*
X157607000Y-98933000D01*
X159893000Y-98933000D01*
X159893000Y-98913000D01*
X160147000Y-98913000D01*
X160147000Y-98933000D01*
X162433000Y-98933000D01*
X162433000Y-98913000D01*
X162687000Y-98913000D01*
X162687000Y-98933000D01*
X164973000Y-98933000D01*
X164973000Y-98913000D01*
X165227000Y-98913000D01*
X165227000Y-98933000D01*
X167513000Y-98933000D01*
X167513000Y-98913000D01*
X167767000Y-98913000D01*
X167767000Y-98933000D01*
X170053000Y-98933000D01*
X170053000Y-98913000D01*
X170307000Y-98913000D01*
X170307000Y-98933000D01*
X172593000Y-98933000D01*
X172593000Y-98913000D01*
X172847000Y-98913000D01*
X172847000Y-98933000D01*
X175133000Y-98933000D01*
X175133000Y-98913000D01*
X175387000Y-98913000D01*
X175387000Y-98933000D01*
X176600924Y-98933000D01*
X176745184Y-98698087D01*
X176551954Y-98145680D01*
X176251816Y-97809754D01*
X176319670Y-97764415D01*
X176644526Y-97278234D01*
X176758600Y-96704745D01*
X176758600Y-96335255D01*
X176644526Y-95761766D01*
X176472614Y-95504481D01*
X180364777Y-95504481D01*
X180559995Y-95976943D01*
X180921155Y-96338735D01*
X181393276Y-96534777D01*
X181904481Y-96535223D01*
X182376943Y-96340005D01*
X182738735Y-95978845D01*
X182865000Y-95674765D01*
X182865000Y-96026310D01*
X182961673Y-96259699D01*
X183140302Y-96438327D01*
X183373691Y-96535000D01*
X183864250Y-96535000D01*
X184023000Y-96376250D01*
X184023000Y-95377000D01*
X184277000Y-95377000D01*
X184277000Y-96376250D01*
X184435750Y-96535000D01*
X184926309Y-96535000D01*
X185159698Y-96438327D01*
X185338327Y-96259699D01*
X185435000Y-96026310D01*
X185435000Y-95535750D01*
X185276250Y-95377000D01*
X184277000Y-95377000D01*
X184023000Y-95377000D01*
X184003000Y-95377000D01*
X184003000Y-95123000D01*
X184023000Y-95123000D01*
X184023000Y-94123750D01*
X184277000Y-94123750D01*
X184277000Y-95123000D01*
X185276250Y-95123000D01*
X185435000Y-94964250D01*
X185435000Y-94473690D01*
X185338327Y-94240301D01*
X185159698Y-94061673D01*
X184926309Y-93965000D01*
X184435750Y-93965000D01*
X184277000Y-94123750D01*
X184023000Y-94123750D01*
X183864250Y-93965000D01*
X183373691Y-93965000D01*
X183140302Y-94061673D01*
X182961673Y-94240301D01*
X182865000Y-94473690D01*
X182865000Y-94825567D01*
X182740005Y-94523057D01*
X182378845Y-94161265D01*
X181906724Y-93965223D01*
X181395519Y-93964777D01*
X180923057Y-94159995D01*
X180561265Y-94521155D01*
X180365223Y-94993276D01*
X180364777Y-95504481D01*
X176472614Y-95504481D01*
X176319670Y-95275585D01*
X176281379Y-95250000D01*
X176319670Y-95224415D01*
X176644526Y-94738234D01*
X176758600Y-94164745D01*
X176758600Y-93795255D01*
X176644526Y-93221766D01*
X176319670Y-92735585D01*
X175833489Y-92410729D01*
X175260000Y-92296655D01*
X174686511Y-92410729D01*
X174200330Y-92735585D01*
X173990000Y-93050366D01*
X173779670Y-92735585D01*
X173293489Y-92410729D01*
X172720000Y-92296655D01*
X172146511Y-92410729D01*
X171660330Y-92735585D01*
X171450000Y-93050366D01*
X171239670Y-92735585D01*
X170753489Y-92410729D01*
X170180000Y-92296655D01*
X169606511Y-92410729D01*
X169120330Y-92735585D01*
X168910000Y-93050366D01*
X168699670Y-92735585D01*
X168213489Y-92410729D01*
X167640000Y-92296655D01*
X167066511Y-92410729D01*
X166580330Y-92735585D01*
X166370000Y-93050366D01*
X166159670Y-92735585D01*
X165673489Y-92410729D01*
X165100000Y-92296655D01*
X164526511Y-92410729D01*
X164040330Y-92735585D01*
X163830000Y-93050366D01*
X163619670Y-92735585D01*
X163133489Y-92410729D01*
X162560000Y-92296655D01*
X161986511Y-92410729D01*
X161500330Y-92735585D01*
X161290000Y-93050366D01*
X161079670Y-92735585D01*
X160593489Y-92410729D01*
X160020000Y-92296655D01*
X159446511Y-92410729D01*
X158960330Y-92735585D01*
X158945500Y-92757780D01*
X158881927Y-92604302D01*
X158703299Y-92425673D01*
X158469910Y-92329000D01*
X157765750Y-92329000D01*
X157607000Y-92487750D01*
X157607000Y-93853000D01*
X157627000Y-93853000D01*
X157627000Y-94107000D01*
X157607000Y-94107000D01*
X157607000Y-94127000D01*
X157353000Y-94127000D01*
X157353000Y-94107000D01*
X156140150Y-94107000D01*
X155981400Y-94265750D01*
X155981400Y-95122309D01*
X156029430Y-95238263D01*
X156019969Y-95252110D01*
X155968960Y-95504000D01*
X154380000Y-95504000D01*
X154380000Y-92837691D01*
X155981400Y-92837691D01*
X155981400Y-93694250D01*
X156140150Y-93853000D01*
X157353000Y-93853000D01*
X157353000Y-92487750D01*
X157194250Y-92329000D01*
X156490090Y-92329000D01*
X156256701Y-92425673D01*
X156078073Y-92604302D01*
X155981400Y-92837691D01*
X154380000Y-92837691D01*
X154380000Y-90880000D01*
X187250000Y-90880000D01*
X187250000Y-103433125D01*
M02*
