999
dxflib 3.12.2.0
  0
SECTION
  2
HEADER
  9
$ACADVER
  1
AC1015
  9
$HANDSEED
  5
FFFF
  9
$ANGBASE
 50
0.0
  9
$ANGDIR
 70
0
  9
$ATTMODE
 70
0
  9
$AUNITS
 70
0
  9
$AUPREC
 70
2
  9
$CECOLOR
 62
256
  9
$CELTSCALE
 40
1.0
  9
$CHAMFERA
 40
0.0
  9
$CHAMFERB
 40
0.0
  9
$CHAMFERC
 40
0.0
  9
$CHAMFERD
 40
0.0
  9
$CMLJUST
 70
0
  9
$CMLSCALE
 40
20.0
  9
$DIMADEC
 70
2
  9
$DIMALT
 70
0
  9
$DIMALTD
 70
3
  9
$DIMALTF
 40
0.03937
  9
$DIMALTRND
 40
0.0
  9
$DIMALTTD
 70
3
  9
$DIMALTTZ
 70
0
  9
$DIMALTU
 70
2
  9
$DIMALTZ
 70
0
  9
$DIMAPOST
  1

  9
$DIMASZ
 40
2.5
  9
$DIMATFIT
 70
3
  9
$DIMAUNIT
 70
0
  9
$DIMAZIN
 70
0
  9
$DIMBLK
  1

  9
$DIMBLK1
  1

  9
$DIMBLK2
  1

  9
$DIMCEN
 40
2.5
  9
$DIMCLRD
 70
0
  9
$DIMCLRE
 70
0
  9
$DIMCLRT
 70
0
  9
$DIMDEC
 70
4
  9
$DIMDLE
 40
0.0
  9
$DIMDLI
 40
3.75
  9
$DIMDSEP
 70
0
  9
$DIMEXE
 40
1.25
  9
$DIMEXO
 40
0.625
  9
$DIMFRAC
 70
0
  9
$DIMGAP
 40
0.625
  9
$DIMJUST
 70
0
  9
$DIMLDRBLK
  1
STANDARD
  9
$DIMLFAC
 40
1.0
  9
$DIMLIM
 70
0
  9
$DIMLUNIT
 70
2
  9
$DIMLWD
 70
-2
  9
$DIMLWE
 70
-2
  9
$DIMPOST
  1

  9
$DIMRND
 40
0.0
  9
$DIMSAH
 70
0
  9
$DIMSCALE
 40
1.0
  9
$DIMSD1
 70
0
  9
$DIMSD2
 70
0
  9
$DIMSE1
 70
0
  9
$DIMSE2
 70
0
  9
$DIMSOXD
 70
0
  9
$DIMTAD
 70
1
  9
$DIMTDEC
 70
2
  9
$DIMTFAC
 40
1.0
  9
$DIMTIH
 70
0
  9
$DIMTIX
 70
0
  9
$DIMTM
 40
0.0
  9
$DIMTOFL
 70
1
  9
$DIMTOH
 70
0
  9
$DIMTOL
 70
0
  9
$DIMTOLJ
 70
0
  9
$DIMTP
 40
0.0
  9
$DIMTSZ
 40
0.0
  9
$DIMTVP
 40
0.0
  9
$DIMTXSTY
  7
standard
  9
$DIMTXT
 40
2.5
  9
$DIMTZIN
 70
8
  9
$DIMUPT
 70
0
  9
$DIMZIN
 70
8
  9
$DISPSILH
 70
0
  9
$DWGCODEPAGE
  3
ANSI_1252
  9
$ELEVATION
 40
0.0
  9
$EXTMAX
 10
307.1006711409395962
 20
316.354026845637577
 30
0.0
  9
$EXTMIN
 10
248.1006711409395962
 20
257.354026845637577
 30
0.0
  9
$FILLETRAD
 40
0.0
  9
$FILLMODE
 70
1
  9
$INSBASE
 10
0.0
 20
0.0
 30
0.0
  9
$INSUNITS
 70
4
  9
$LIMCHECK
 70
0
  9
$LIMMAX
 10
420.0
 20
297.0
  9
$LIMMIN
 10
0.0
 20
0.0
  9
$LTSCALE
 40
1.0
  9
$LUNITS
 70
2
  9
$LUPREC
 70
2
  9
$MAXACTVP
 70
64
  9
$MEASUREMENT
 70
1
  9
$MIRRTEXT
 70
0
  9
$ORTHOMODE
 70
0
  9
$PDMODE
 70
34
  9
$PDSIZE
 40
0
  9
$PELEVATION
 40
0.0
  9
$PEXTMAX
 10
0.0
 20
0.0
 30
0.0
  9
$PEXTMIN
 10
0.0
 20
0.0
 30
0.0
  9
$PINSBASE
 10
-151.7806208053690966
 20
-116.8399748322148071
 30
0.0
  9
$PLIMCHECK
 70
0
  9
$PLIMMAX
 10
210.0
 20
297.0
  9
$PLIMMIN
 10
0.0
 20
0.0
  9
$PLINEGEN
 70
0
  9
$PLINEWID
 40
0.0
  9
$PROXYGRAPHICS
 70
1
  9
$PSLTSCALE
 70
1
  9
$PUCSNAME
  2

  9
$PUCSORG
 10
0.0
 20
0.0
 30
0.0
  9
$PUCSXDIR
 10
1.0
 20
0.0
 30
0.0
  9
$PUCSYDIR
 10
0.0
 20
1.0
 30
0.0
  9
$QTEXTMODE
 70
0
  9
$REGENMODE
 70
1
  9
$SHADEDGE
 70
3
  9
$SHADEDIF
 70
70
  9
$SKETCHINC
 40
1.0
  9
$SKPOLY
 70
0
  9
$SPLFRAME
 70
0
  9
$SPLINESEGS
 70
8
  9
$SPLINETYPE
 70
2
  9
$SURFTAB1
 70
6
  9
$SURFTAB2
 70
6
  9
$SURFTYPE
 70
6
  9
$SURFU
 70
6
  9
$SURFV
 70
6
  9
$TEXTSIZE
 40
2.5
  9
$TEXTSTYLE
  7
STANDARD
  9
$THICKNESS
 40
0.0
  9
$TILEMODE
 70
1
  9
$TRACEWID
 40
15.6799999999999997
  9
$TREEDEPTH
 70
3020
  9
$UCSNAME
  2

  9
$UCSORG
 10
0.0
 20
0.0
 30
0.0
  9
$UCSXDIR
 10
1.0
 20
0.0
 30
0.0
  9
$UCSYDIR
 10
0.0
 20
1.0
 30
0.0
  9
$UNITMODE
 70
0
  9
$USERI1
 70
0
  9
$USERI2
 70
0
  9
$USERI3
 70
0
  9
$USERI4
 70
0
  9
$USERI5
 70
0
  9
$USERR1
 40
0.0
  9
$USERR2
 40
0.0
  9
$USERR3
 40
0.0
  9
$USERR4
 40
0.0
  9
$USERR5
 40
0.0
  9
$USRTIMER
 70
1
  9
$VISRETAIN
 70
1
  0
ENDSEC
  0
SECTION
  2
TABLES
  0
TABLE
  2
VPORT
  5
8
100
AcDbSymbolTable
 70
1
  0
VPORT
  5
30
100
AcDbSymbolTableRecord
100
AcDbViewportTableRecord
  2
*Active
 70
0
 10
0.0
 20
0.0
 11
1.0
 21
1.0
 12
286.3055555555554861
 22
148.5
 13
0.0
 23
0.0
 14
10.0
 24
10.0
 15
10.0
 25
10.0
 16
0.0
 26
0.0
 36
1.0
 17
0.0
 27
0.0
 37
0.0
 40
297.0
 41
1.92798353909465
 42
50.0
 43
0.0
 44
0.0
 50
0.0
 51
0.0
 71
0
 72
100
 73
1
 74
3
 75
1
 76
1
 77
0
 78
0
281
0
 65
1
110
0.0
120
0.0
130
0.0
111
1.0
121
0.0
131
0.0
112
0.0
122
1.0
132
0.0
 79
0
146
0.0
  0
ENDTAB
  0
TABLE
  2
LTYPE
  5
5
100
AcDbSymbolTable
 70
47
  0
LTYPE
  5
16
100
AcDbSymbolTableRecord
100
AcDbLinetypeTableRecord
  2
Continuous
 70
0
  3
Solid line
 72
65
 73
0
 40
0.0
  0
LTYPE
  5
31
100
AcDbSymbolTableRecord
100
AcDbLinetypeTableRecord
  2
DIVIDEX2
 70
0
  3
Divide (2x) ________  .  .  ________  .  .  _
 72
65
 73
6
 40
63.5
 49
25.3999999999999986
 74
0
 49
-12.6499999999999986
 74
0
 49
0.1
 74
0
 49
-12.5999999999999979
 74
0
 49
0.1
 74
0
 49
-12.6499999999999986
 74
0
  0
LTYPE
  5
32
100
AcDbSymbolTableRecord
100
AcDbLinetypeTableRecord
  2
DASHDOTX2
 70
0
  3
Dash dot (2x) ____  .  ____  .  ____  .  ___
 72
65
 73
4
 40
50.7999999999999972
 49
25.3999999999999986
 74
0
 49
-12.6499999999999986
 74
0
 49
0.1
 74
0
 49
-12.6499999999999986
 74
0
  0
LTYPE
  5
33
100
AcDbSymbolTableRecord
100
AcDbLinetypeTableRecord
  2
PHANTOM
 70
0
  3
Phantom ______  __  __  ______  __  __  ______ 
 72
65
 73
6
 40
63.5000000000000071
 49
31.75
 74
0
 49
-6.3499999999999996
 74
0
 49
6.3499999999999996
 74
0
 49
-6.3499999999999996
 74
0
 49
6.3499999999999996
 74
0
 49
-6.3499999999999996
 74
0
  0
LTYPE
  5
34
100
AcDbSymbolTableRecord
100
AcDbLinetypeTableRecord
  2
HIDDEN
 70
0
  3
Hidden __ __ __ __ __ __ __ __ __ __ __ __ __ __
 72
65
 73
2
 40
9.5249999999999986
 49
6.3499999999999996
 74
0
 49
-3.1749999999999998
 74
0
  0
LTYPE
  5
35
100
AcDbSymbolTableRecord
100
AcDbLinetypeTableRecord
  2
DASHDOT2
 70
0
  3
Dash dot (.5x) _._._._._._._._._._._._._._._.
 72
65
 73
4
 40
12.6999999999999993
 49
6.3499999999999996
 74
0
 49
-3.125
 74
0
 49
0.1
 74
0
 49
-3.125
 74
0
  0
LTYPE
  5
36
100
AcDbSymbolTableRecord
100
AcDbLinetypeTableRecord
  2
BORDER2
 70
0
  3
Border (.5x) __.__.__.__.__.__.__.__.__.__.__.
 72
65
 73
6
 40
22.2250000000000014
 49
6.3499999999999996
 74
0
 49
-3.1749999999999998
 74
0
 49
6.3499999999999996
 74
0
 49
-3.125
 74
0
 49
0.1
 74
0
 49
-3.125
 74
0
  0
LTYPE
  5
37
100
AcDbSymbolTableRecord
100
AcDbLinetypeTableRecord
  2
DASHDOTTINY
 70
0
  3
Dash dot (.15x) _._._._._._._._._._._._._._._.
 72
65
 73
4
 40
3.8100000000000001
 49
1.905
 74
0
 49
-0.9025
 74
0
 49
0.1
 74
0
 49
-0.9025
 74
0
  0
LTYPE
  5
38
100
AcDbSymbolTableRecord
100
AcDbLinetypeTableRecord
  2
DIVIDE2
 70
0
  3
Divide (.5x) __..__..__..__..__..__..__..__.._
 72
65
 73
6
 40
15.8749999999999982
 49
6.3499999999999996
 74
0
 49
-3.125
 74
0
 49
0.1
 74
0
 49
-3.0750000000000002
 74
0
 49
0.1
 74
0
 49
-3.125
 74
0
  0
LTYPE
  5
39
100
AcDbSymbolTableRecord
100
AcDbLinetypeTableRecord
  2
PHANTOMX2
 70
0
  3
Phantom (2x) ____________    ____    ____   _
 72
65
 73
6
 40
127.0000000000000142
 49
63.5
 74
0
 49
-12.6999999999999993
 74
0
 49
12.6999999999999993
 74
0
 49
-12.6999999999999993
 74
0
 49
12.6999999999999993
 74
0
 49
-12.6999999999999993
 74
0
  0
LTYPE
  5
3A
100
AcDbSymbolTableRecord
100
AcDbLinetypeTableRecord
  2
ACAD_ISO09W100
 70
0
  3
ISO long-dash double-short-dash ____ __ __ ____
 72
65
 73
6
 40
45.0
 49
24.0
 74
0
 49
-3.0
 74
0
 49
6.0
 74
0
 49
-3.0
 74
0
 49
6.0
 74
0
 49
-3.0
 74
0
  0
LTYPE
  5
3B
100
AcDbSymbolTableRecord
100
AcDbLinetypeTableRecord
  2
CENTERTINY
 70
0
  3
Center (.15x) ___ _ ___ _ ___ _ ___ _ ___ _ ___
 72
65
 73
4
 40
7.6199999999999992
 49
4.7625000000000002
 74
0
 49
-0.9525
 74
0
 49
0.9525
 74
0
 49
-0.9525
 74
0
  0
LTYPE
  5
3C
100
AcDbSymbolTableRecord
100
AcDbLinetypeTableRecord
  2
HIDDEN2
 70
0
  3
Hidden (.5x) _ _ _ _ _ _ _ _ _ _ _ _ _ _ _ _ _ 
 72
65
 73
2
 40
4.7624999999999993
 49
3.1749999999999998
 74
0
 49
-1.5874999999999999
 74
0
  0
LTYPE
  5
3D
100
AcDbSymbolTableRecord
100
AcDbLinetypeTableRecord
  2
ACAD_ISO08W100
 70
0
  3
ISO long-dash short-dash ____ __ ____ __ ____ _
 72
65
 73
4
 40
36.0
 49
24.0
 74
0
 49
-3.0
 74
0
 49
6.0
 74
0
 49
-3.0
 74
0
  0
LTYPE
  5
3E
100
AcDbSymbolTableRecord
100
AcDbLinetypeTableRecord
  2
ACAD_ISO15W100
 70
0
  3
ISO double-dash triple-dot __ __ . . . __ __ . .
 72
65
 73
10
 40
39.0000000000000071
 49
12.0
 74
0
 49
-3.0
 74
0
 49
12.0
 74
0
 49
-2.9500000000000002
 74
0
 49
0.1
 74
0
 49
-2.9000000000000004
 74
0
 49
0.1
 74
0
 49
-2.9000000000000004
 74
0
 49
0.1
 74
0
 49
-2.9500000000000002
 74
0
  0
LTYPE
  5
3F
100
AcDbSymbolTableRecord
100
AcDbLinetypeTableRecord
  2
BORDERTINY
 70
0
  3
Border (.15x) __.__.__.__.__.__.__.__.__.__.__.
 72
65
 73
6
 40
6.6674999999999995
 49
1.905
 74
0
 49
-0.9525
 74
0
 49
1.905
 74
0
 49
-0.9025
 74
0
 49
0.1
 74
0
 49
-0.9025
 74
0
  0
LTYPE
  5
40
100
AcDbSymbolTableRecord
100
AcDbLinetypeTableRecord
  2
CENTERX2
 70
0
  3
Center (2x) ________  __  ________  __  _____
 72
65
 73
4
 40
101.6000000000000085
 49
63.5
 74
0
 49
-12.6999999999999993
 74
0
 49
12.6999999999999993
 74
0
 49
-12.6999999999999993
 74
0
  0
LTYPE
  5
41
100
AcDbSymbolTableRecord
100
AcDbLinetypeTableRecord
  2
DOT2
 70
0
  3
Dot (.5x) .....................................
 72
65
 73
2
 40
3.1749999999999998
 49
0.1
 74
0
 49
-3.0749999999999997
 74
0
  0
LTYPE
  5
42
100
AcDbSymbolTableRecord
100
AcDbLinetypeTableRecord
  2
ACAD_ISO07W100
 70
0
  3
ISO dot . . . . . . . . . . . . . . . . . . . . 
 72
65
 73
2
 40
3.0
 49
0.1
 74
0
 49
-2.8999999999999999
 74
0
  0
LTYPE
  5
43
100
AcDbSymbolTableRecord
100
AcDbLinetypeTableRecord
  2
ACAD_ISO14W100
 70
0
  3
ISO dash triple-dot __ . . . __ . . . __ . . . _
 72
65
 73
8
 40
24.0000000000000036
 49
12.0
 74
0
 49
-2.9500000000000002
 74
0
 49
0.1
 74
0
 49
-2.9000000000000004
 74
0
 49
0.1
 74
0
 49
-2.9000000000000004
 74
0
 49
0.1
 74
0
 49
-2.9500000000000002
 74
0
  0
LTYPE
  5
44
100
AcDbSymbolTableRecord
100
AcDbLinetypeTableRecord
  2
DOTTINY
 70
0
  3
Dot (.15x) .....................................
 72
65
 73
2
 40
0.9525
 49
0.1
 74
0
 49
-0.8525
 74
0
  0
LTYPE
  5
45
100
AcDbSymbolTableRecord
100
AcDbLinetypeTableRecord
  2
ACAD_ISO06W100
 70
0
  3
ISO long-dash triple-dot ____ ... ____ ... ____
 72
65
 73
8
 40
36.0000000000000071
 49
24.0
 74
0
 49
-2.9500000000000002
 74
0
 49
0.1
 74
0
 49
-2.9000000000000004
 74
0
 49
0.1
 74
0
 49
-2.9000000000000004
 74
0
 49
0.1
 74
0
 49
-2.9500000000000002
 74
0
  0
LTYPE
  5
46
100
AcDbSymbolTableRecord
100
AcDbLinetypeTableRecord
  2
DOT
 70
0
  3
Dot . . . . . . . . . . . . . . . . . . . . . .
 72
65
 73
2
 40
6.3499999999999996
 49
0.1
 74
0
 49
-6.25
 74
0
  0
LTYPE
  5
47
100
AcDbSymbolTableRecord
100
AcDbLinetypeTableRecord
  2
DASHEDTINY
 70
0
  3
Dashed (.15x) _ _ _ _ _ _ _ _ _ _ _ _ _ _ _ _ _
 72
65
 73
2
 40
2.8574999999999999
 49
1.905
 74
0
 49
-0.9525
 74
0
  0
LTYPE
  5
48
100
AcDbSymbolTableRecord
100
AcDbLinetypeTableRecord
  2
BORDERX2
 70
0
  3
Border (2x) ____  ____  .  ____  ____  .  ___
 72
65
 73
6
 40
88.8999999999999773
 49
25.3999999999999986
 74
0
 49
-12.6999999999999993
 74
0
 49
25.3999999999999986
 74
0
 49
-12.6499999999999986
 74
0
 49
0.1
 74
0
 49
-12.6499999999999986
 74
0
  0
LTYPE
  5
14
100
AcDbSymbolTableRecord
100
AcDbLinetypeTableRecord
  2
ByBlock
 70
0
  3

 72
65
 73
0
 40
0.0
  0
LTYPE
  5
49
100
AcDbSymbolTableRecord
100
AcDbLinetypeTableRecord
  2
ACAD_ISO13W100
 70
0
  3
ISO double-dash double-dot __ __ . . __ __ . . _
 72
65
 73
8
 40
36.0000000000000071
 49
12.0
 74
0
 49
-3.0
 74
0
 49
12.0
 74
0
 49
-2.9500000000000002
 74
0
 49
0.1
 74
0
 49
-2.9000000000000004
 74
0
 49
0.1
 74
0
 49
-2.9500000000000002
 74
0
  0
LTYPE
  5
4A
100
AcDbSymbolTableRecord
100
AcDbLinetypeTableRecord
  2
ACAD_ISO05W100
 70
0
  3
ISO long-dash double-dot ____ .. ____ .. ____ . 
 72
65
 73
6
 40
33.0000000000000071
 49
24.0
 74
0
 49
-2.9500000000000002
 74
0
 49
0.1
 74
0
 49
-2.9000000000000004
 74
0
 49
0.1
 74
0
 49
-2.9500000000000002
 74
0
  0
LTYPE
  5
4B
100
AcDbSymbolTableRecord
100
AcDbLinetypeTableRecord
  2
CENTER
 70
0
  3
Center ____ _ ____ _ ____ _ ____ _ ____ _ ____
 72
65
 73
4
 40
50.8000000000000043
 49
31.75
 74
0
 49
-6.3499999999999996
 74
0
 49
6.3499999999999996
 74
0
 49
-6.3499999999999996
 74
0
  0
LTYPE
  5
4C
100
AcDbSymbolTableRecord
100
AcDbLinetypeTableRecord
  2
DIVIDETINY
 70
0
  3
Divide (.15x) __..__..__..__..__..__..__..__.._
 72
65
 73
6
 40
4.7625000000000002
 49
1.905
 74
0
 49
-0.9025
 74
0
 49
0.1
 74
0
 49
-0.8524999999999999
 74
0
 49
0.1
 74
0
 49
-0.9025
 74
0
  0
LTYPE
  5
4D
100
AcDbSymbolTableRecord
100
AcDbLinetypeTableRecord
  2
DASHED2
 70
0
  3
Dashed (.5x) _ _ _ _ _ _ _ _ _ _ _ _ _ _ _ _ _
 72
65
 73
2
 40
9.5249999999999986
 49
6.3499999999999996
 74
0
 49
-3.1749999999999998
 74
0
  0
LTYPE
  5
4E
100
AcDbSymbolTableRecord
100
AcDbLinetypeTableRecord
  2
PHANTOM2
 70
0
  3
Phantom (.5x) ___ _ _ ___ _ _ ___ _ _ ___ _ _
 72
65
 73
6
 40
31.7500000000000036
 49
15.875
 74
0
 49
-3.1749999999999998
 74
0
 49
3.1749999999999998
 74
0
 49
-3.1749999999999998
 74
0
 49
3.1749999999999998
 74
0
 49
-3.1749999999999998
 74
0
  0
LTYPE
  5
4F
100
AcDbSymbolTableRecord
100
AcDbLinetypeTableRecord
  2
DIVIDE
 70
0
  3
Divide ____ . . ____ . . ____ . . ____ . . ____
 72
65
 73
6
 40
31.7500000000000036
 49
12.6999999999999993
 74
0
 49
-6.2999999999999998
 74
0
 49
0.1
 74
0
 49
-6.25
 74
0
 49
0.1
 74
0
 49
-6.2999999999999998
 74
0
  0
LTYPE
  5
50
100
AcDbSymbolTableRecord
100
AcDbLinetypeTableRecord
  2
DASHED
 70
0
  3
Dashed _ _ _ _ _ _ _ _ _ _ _ _ _ _ _ _ _
 72
65
 73
2
 40
19.0499999999999972
 49
12.6999999999999993
 74
0
 49
-6.3499999999999996
 74
0
  0
LTYPE
  5
51
100
AcDbSymbolTableRecord
100
AcDbLinetypeTableRecord
  2
ACAD_ISO12W100
 70
0
  3
ISO dash double-dot __ . . __ . . __ . . __ . . 
 72
65
 73
6
 40
21.0
 49
12.0
 74
0
 49
-2.9500000000000002
 74
0
 49
0.1
 74
0
 49
-2.9000000000000004
 74
0
 49
0.1
 74
0
 49
-2.9500000000000002
 74
0
  0
LTYPE
  5
52
100
AcDbSymbolTableRecord
100
AcDbLinetypeTableRecord
  2
ACAD_ISO04W100
 70
0
  3
ISO long-dash dot ____ . ____ . ____ . ____ . _
 72
65
 73
4
 40
30.0
 49
24.0
 74
0
 49
-2.9500000000000002
 74
0
 49
0.1
 74
0
 49
-2.9500000000000002
 74
0
  0
LTYPE
  5
53
100
AcDbSymbolTableRecord
100
AcDbLinetypeTableRecord
  2
HIDDENX2
 70
0
  3
Hidden (2x) ____ ____ ____ ____ ____ ____ ____ 
 72
65
 73
2
 40
19.0499999999999972
 49
12.6999999999999993
 74
0
 49
-6.3499999999999996
 74
0
  0
LTYPE
  5
54
100
AcDbSymbolTableRecord
100
AcDbLinetypeTableRecord
  2
DOTX2
 70
0
  3
Dot (2x) .  .  .  .  .  .  .  .  .  .  .  .  .
 72
65
 73
2
 40
12.6999999999999993
 49
0.1
 74
0
 49
-12.5999999999999996
 74
0
  0
LTYPE
  5
55
100
AcDbSymbolTableRecord
100
AcDbLinetypeTableRecord
  2
CENTER2
 70
0
  3
Center (.5x) ___ _ ___ _ ___ _ ___ _ ___ _ ___
 72
65
 73
4
 40
28.5750000000000028
 49
19.0500000000000007
 74
0
 49
-3.1749999999999998
 74
0
 49
3.1749999999999998
 74
0
 49
-3.1749999999999998
 74
0
  0
LTYPE
  5
56
100
AcDbSymbolTableRecord
100
AcDbLinetypeTableRecord
  2
ACAD_ISO11W100
 70
0
  3
ISO double-dash dot __ __ . __ __ . __ __ . __ _
 72
65
 73
6
 40
33.0
 49
12.0
 74
0
 49
-3.0
 74
0
 49
12.0
 74
0
 49
-2.9500000000000002
 74
0
 49
0.1
 74
0
 49
-2.9500000000000002
 74
0
  0
LTYPE
  5
57
100
AcDbSymbolTableRecord
100
AcDbLinetypeTableRecord
  2
ACAD_ISO03W100
 70
0
  3
ISO dash space __    __    __    __    __    __
 72
65
 73
2
 40
30.0
 49
12.0
 74
0
 49
-18.0
 74
0
  0
LTYPE
  5
58
100
AcDbSymbolTableRecord
100
AcDbLinetypeTableRecord
  2
DASHEDX2
 70
0
  3
Dashed (2x) ____  ____  ____  ____  ____  ___
 72
65
 73
2
 40
38.0999999999999943
 49
25.3999999999999986
 74
0
 49
-12.6999999999999993
 74
0
  0
LTYPE
  5
59
100
AcDbSymbolTableRecord
100
AcDbLinetypeTableRecord
  2
BORDER
 70
0
  3
Border __ __ . __ __ . __ __ . __ __ . __ __ .
 72
65
 73
6
 40
44.4499999999999957
 49
12.6999999999999993
 74
0
 49
-6.3499999999999996
 74
0
 49
12.6999999999999993
 74
0
 49
-6.2999999999999998
 74
0
 49
0.1
 74
0
 49
-6.2999999999999998
 74
0
  0
LTYPE
  5
5A
100
AcDbSymbolTableRecord
100
AcDbLinetypeTableRecord
  2
DASHDOT
 70
0
  3
Dash dot __ . __ . __ . __ . __ . __ . __ . __
 72
65
 73
4
 40
25.4000000000000021
 49
12.6999999999999993
 74
0
 49
-6.2999999999999998
 74
0
 49
0.1
 74
0
 49
-6.2999999999999998
 74
0
  0
LTYPE
  5
5B
100
AcDbSymbolTableRecord
100
AcDbLinetypeTableRecord
  2
ACAD_ISO10W100
 70
0
  3
ISO dash dot __ . __ . __ . __ . __ . __ . __ . 
 72
65
 73
4
 40
18.0
 49
12.0
 74
0
 49
-2.9500000000000002
 74
0
 49
0.1
 74
0
 49
-2.9500000000000002
 74
0
  0
LTYPE
  5
5C
100
AcDbSymbolTableRecord
100
AcDbLinetypeTableRecord
  2
ACAD_ISO02W100
 70
0
  3
ISO dash __ __ __ __ __ __ __ __ __ __ __ __ __
 72
65
 73
2
 40
15.0
 49
12.0
 74
0
 49
-3.0
 74
0
  0
LTYPE
  5
15
100
AcDbSymbolTableRecord
100
AcDbLinetypeTableRecord
  2
ByLayer
 70
0
  3

 72
65
 73
0
 40
0.0
  0
ENDTAB
  0
TABLE
  2
LAYER
  5
2
100
AcDbSymbolTable
 70
13
  0
LAYER
  5
5D
100
AcDbSymbolTableRecord
100
AcDbLayerTableRecord
  2
Front
 70
0
 62
4
420
65535
  6
Continuous
370
0
390
F
  0
LAYER
  5
5E
100
AcDbSymbolTableRecord
100
AcDbLayerTableRecord
  2
Working
 70
1
 62
-3
420
65280
  6
Continuous
370
0
390
F
  0
LAYER
  5
5F
100
AcDbSymbolTableRecord
100
AcDbLayerTableRecord
  2
Hidden
 70
1
 62
-1
420
16711680
  6
DASHEDX2
370
0
390
F
  0
LAYER
  5
60
100
AcDbSymbolTableRecord
100
AcDbLayerTableRecord
  2
Main Ring
 70
0
 62
2
420
16776960
  6
Continuous
370
0
390
F
  0
LAYER
  5
61
100
AcDbSymbolTableRecord
100
AcDbLayerTableRecord
  2
LED Ring
 70
1
 62
-2
420
16776960
  6
Continuous
370
0
390
F
  0
LAYER
  5
62
100
AcDbSymbolTableRecord
100
AcDbLayerTableRecord
  2
Centre
 70
1
 62
-1
420
16711680
  6
CENTER
370
0
390
F
  0
LAYER
  5
63
100
AcDbSymbolTableRecord
100
AcDbLayerTableRecord
  2
Base Top
 70
0
 62
4
420
65535
  6
Continuous
370
0
390
F
  0
LAYER
  5
64
100
AcDbSymbolTableRecord
100
AcDbLayerTableRecord
  2
Base Floor
 70
0
 62
4
420
65535
  6
Continuous
370
0
390
F
  0
LAYER
  5
65
100
AcDbSymbolTableRecord
100
AcDbLayerTableRecord
  2
Back
 70
0
 62
134
420
32896
  6
Continuous
370
0
390
F
  0
LAYER
  5
66
100
AcDbSymbolTableRecord
100
AcDbLayerTableRecord
  2
Segment
 70
0
 62
7
420
16777215
  6
Continuous
370
0
390
F
  0
LAYER
  5
67
100
AcDbSymbolTableRecord
100
AcDbLayerTableRecord
  2
Base Main
 70
0
 62
2
420
16776960
  6
Continuous
370
0
390
F
  0
LAYER
  5
68
100
AcDbSymbolTableRecord
100
AcDbLayerTableRecord
  2
Middle
 70
0
 62
7
420
16777215
  6
Continuous
370
0
390
F
  0
LAYER
  5
10
100
AcDbSymbolTableRecord
100
AcDbLayerTableRecord
  2
0
 70
1
 62
-7
420
16777215
  6
Continuous
370
0
390
F
  0
ENDTAB
  0
TABLE
  2
STYLE
  5
3
100
AcDbSymbolTable
 70
1
  0
STYLE
  5
69
100
AcDbSymbolTableRecord
100
AcDbTextStyleTableRecord
  2
Standard
 70
0
 40
0.0
 41
1.0
 50
0.0
 71
0
 42
2.5
  3

  4

1001
ACAD
1000
txt
1071
0
  0
ENDTAB
  0
TABLE
  2
VIEW
  5
6
100
AcDbSymbolTable
 70
0
  0
ENDTAB
  0
TABLE
  2
UCS
  5
7
100
AcDbSymbolTable
 70
0
  0
ENDTAB
  0
TABLE
  2
APPID
  5
9
100
AcDbSymbolTable
 70
1
  0
APPID
  5
12
100
AcDbSymbolTableRecord
100
AcDbRegAppTableRecord
  2
ACAD
 70
0
  0
APPID
  5
6A
100
AcDbSymbolTableRecord
100
AcDbRegAppTableRecord
  2
QCAD
 70
0
  0
ENDTAB
  0
TABLE
  2
DIMSTYLE
  5
A
100
AcDbSymbolTable
 70
1
100
AcDbDimStyleTable
 71
0
  0
DIMSTYLE
105
27
100
AcDbSymbolTableRecord
100
AcDbDimStyleTableRecord
  2
Standard
 41
2.5
 42
0.625
 43
3.75
 44
1.25
 70
0
 73
0
 74
0
 77
1
 78
8
140
2.5
141
2.5
143
0.03937007874016
147
0.625
171
3
172
1
271
2
272
2
274
3
278
44
283
0
284
8
340
69
  0
ENDTAB
  0
TABLE
  2
BLOCK_RECORD
  5
1
100
AcDbSymbolTable
 70
1
  0
BLOCK_RECORD
  5
1F
100
AcDbSymbolTableRecord
100
AcDbBlockTableRecord
  2
*Model_Space
340
22
  0
BLOCK_RECORD
  5
1B
100
AcDbSymbolTableRecord
100
AcDbBlockTableRecord
  2
*Paper_Space
340
1E
  0
BLOCK_RECORD
  5
23
100
AcDbSymbolTableRecord
100
AcDbBlockTableRecord
  2
*Paper_Space0
340
26
  0
BLOCK_RECORD
  5
6B
100
AcDbSymbolTableRecord
100
AcDbBlockTableRecord
  2
Segment
340
0
  0
BLOCK_RECORD
  5
6C
100
AcDbSymbolTableRecord
100
AcDbBlockTableRecord
  2
Smooth Segment
340
0
  0
BLOCK_RECORD
  5
6D
100
AcDbSymbolTableRecord
100
AcDbBlockTableRecord
  2
Segment2
340
0
  0
BLOCK_RECORD
  5
6E
100
AcDbSymbolTableRecord
100
AcDbBlockTableRecord
  2
Face Cutout
340
0
  0
ENDTAB
  0
ENDSEC
  0
SECTION
  2
BLOCKS
  0
BLOCK
  5
20
100
AcDbEntity
  8
0
100
AcDbBlockBegin
  2
*Model_Space
 70
0
 10
0.0
 20
0.0
 30
0.0
  3
*Model_Space
  1

  0
ENDBLK
  5
21
100
AcDbEntity
  8
0
100
AcDbBlockEnd
  0
BLOCK
  5
1C
100
AcDbEntity
 67
1
  8
0
100
AcDbBlockBegin
  2
*Paper_Space
 70
0
 10
0.0
 20
0.0
 30
0.0
  3
*Paper_Space
  1

  0
ENDBLK
  5
1D
100
AcDbEntity
 67
1
  8
0
100
AcDbBlockEnd
  0
BLOCK
  5
24
100
AcDbEntity
  8
0
100
AcDbBlockBegin
  2
*Paper_Space0
 70
0
 10
0.0
 20
0.0
 30
0.0
  3
*Paper_Space0
  1

  0
ENDBLK
  5
25
100
AcDbEntity
  8
0
100
AcDbBlockEnd
  0
BLOCK
  5
6F
100
AcDbEntity
  8
0
100
AcDbBlockBegin
  2
Segment
 70
0
 10
0.0
 20
0.0
 30
0.0
  3
Segment
  1

  0
LINE
  5
70
100
AcDbEntity
100
AcDbLine
  8
LED Ring
 62
256
370
-1
 48
1.0
  6
ByLayer
 10
7.7645713530756097
 20
-28.9777747886720896
 30
0.0
 11
8.2304456342600929
 21
-30.7164412759923913
 31
0.0
  0
LINE
  5
71
100
AcDbEntity
100
AcDbLine
  8
LED Ring
 62
256
370
-1
 48
1.0
  6
ByLayer
 10
10.2606042997700193
 20
-28.1907786235772697
 30
0.0
 11
10.8762405577563204
 21
-29.8822253409918517
 31
0.0
  0
LINE
  5
72
100
AcDbEntity
100
AcDbLine
  8
Working
 62
256
370
-1
 48
1.0
  6
ByLayer
 10
1.0000000000001139
 20
-32.4846117415598883
 30
0.0
 11
0.9952685277108912
 21
-32.3309117012824174
 31
0.0
  0
LINE
  5
73
100
AcDbEntity
100
AcDbLine
  8
Segment
 62
256
370
-1
 48
1.0
  6
ByLayer
 10
1.0000000000001139
 20
-94.4947088465803802
 30
0.0
 11
1.0000000000001139
 21
-32.4846117415598883
 31
0.0
  0
LINE
  5
74
100
AcDbEntity
100
AcDbLine
  8
Segment
 62
256
370
-1
 48
1.0
  6
ByLayer
 10
46.3813290195059267
 20
-82.3348183843530705
 30
0.0
 11
15.3762804669967199
 21
-28.6324990002673907
 31
0.0
  0
ARC
  5
75
100
AcDbEntity
  8
Segment
 62
256
370
-1
 48
1.0
  6
ByLayer
100
AcDbCircle
 10
0.0
 20
0.0
 30
0.0
 40
94.5000000000003268
100
AcDbArc
 50
270.606315861239807
 51
299.393684138760193
  0
ARC
  5
76
100
AcDbEntity
  8
Segment
 62
256
370
-1
 48
1.0
  6
ByLayer
100
AcDbCircle
 10
0.0
 20
0.0
 30
0.0
 40
32.4999999999983515
100
AcDbArc
 50
292.0562466825749652
 51
298.2367746424275765
  0
ARC
  5
77
100
AcDbEntity
  8
Segment
 62
256
370
-1
 48
1.0
  6
ByLayer
100
AcDbCircle
 10
0.0
 20
0.0
 30
0.0
 40
32.3462271506024734
100
AcDbArc
 50
271.7632253575724235
 51
277.932214460384273
  0
ARC
  5
78
100
AcDbEntity
  8
Segment
 62
256
370
-1
 48
1.0
  6
ByLayer
100
AcDbCircle
 10
0.0
 20
0.0
 30
0.0
 40
34.0
100
AcDbArc
 50
278.6053280286985796
 51
291.3946719713077869
  0
LINE
  5
79
100
AcDbEntity
100
AcDbLine
  8
Segment
 62
256
370
-1
 48
1.0
  6
ByLayer
 10
4.4638258168105844
 20
-32.0367393777136371
 30
0.0
 11
5.0873278218470546
 21
-33.6172440219756865
 31
0.0
  0
LINE
  5
7A
100
AcDbEntity
100
AcDbLine
  8
Segment
 62
256
370
-1
 48
1.0
  6
ByLayer
 10
12.4028668798924908
 20
-31.6570512391736507
 30
0.0
 11
12.2042901402317607
 21
-30.1215089624164385
 31
0.0
  0
ENDBLK
  5
7B
100
AcDbEntity
  8
0
100
AcDbBlockEnd
  0
BLOCK
  5
7C
100
AcDbEntity
  8
0
100
AcDbBlockBegin
  2
Smooth Segment
 70
0
 10
0.0
 20
0.0
 30
0.0
  3
Smooth Segment
  1

  0
ARC
  5
7D
100
AcDbEntity
  8
Segment
 62
256
370
-1
 48
1.0
  6
ByLayer
100
AcDbCircle
 10
-20.9197466959996099
 20
-85.800964161253745
 30
0.0
 40
1.0
100
AcDbArc
 50
164.9999999999993179
 51
238.3984504009752925
  0
ARC
  5
7E
100
AcDbEntity
  8
Segment
 62
256
370
-1
 48
1.0
  6
ByLayer
100
AcDbCircle
 10
-24.5878092847393894
 20
-91.7629534974616661
 30
0.0
 40
5.9999999999984803
100
AcDbArc
 50
359.4441454294955065
 51
58.3984504009767562
  0
ARC
  5
7F
100
AcDbEntity
  8
Segment
 62
256
370
-1
 48
1.0
  6
ByLayer
100
AcDbCircle
 10
-17.5881386984994492
 20
-91.8308628791128854
 30
0.0
 40
1.0
100
AcDbArc
 50
179.4441454294957907
 51
259.157584818019302
  0
ARC
  5
80
100
AcDbEntity
  8
Segment
 62
256
370
-1
 48
1.0
  6
ByLayer
100
AcDbCircle
 10
0.0
 20
0.0
 30
0.0
 40
94.5000000000003268
100
AcDbArc
 50
259.1575848180215758
 51
280.8424151819774011
  0
ARC
  5
81
100
AcDbEntity
  8
Segment
 62
256
370
-1
 48
1.0
  6
ByLayer
100
AcDbCircle
 10
17.5881386984977404
 20
-91.8308628791131412
 30
0.0
 40
1.0
100
AcDbArc
 50
280.8424151819768895
 51
0.5558545705067379
  0
ARC
  5
82
100
AcDbEntity
  8
Segment
 62
256
370
-1
 48
1.0
  6
ByLayer
100
AcDbCircle
 10
24.5878092847395884
 20
-91.7629534974616661
 30
0.0
 40
6.0000000000020286
100
AcDbArc
 50
121.6015495990154136
 51
180.5558545705063125
  0
ARC
  5
83
100
AcDbEntity
  8
Segment
 62
256
370
-1
 48
1.0
  6
ByLayer
100
AcDbCircle
 10
20.919746695997901
 20
-85.8009641612487997
 30
0.0
 40
1.0
100
AcDbArc
 50
301.6015495990163799
 51
15.0000000000007478
  0
LINE
  5
84
100
AcDbEntity
100
AcDbLine
  8
Segment
 62
256
370
-1
 48
1.0
  6
ByLayer
 10
21.885672522286999
 20
-85.5421451161462585
 30
0.0
 11
7.6890465080986701
 21
-32.5596155351412904
 31
0.0
  0
ARC
  5
85
100
AcDbEntity
  8
Segment
 62
256
370
-1
 48
1.0
  6
ByLayer
100
AcDbCircle
 10
6.7231206818095757
 20
-32.8184345802438315
 30
0.0
 40
1.0
100
AcDbArc
 50
15.0000000000007478
 51
101.5773211656792938
  0
ARC
  5
86
100
AcDbEntity
  8
Segment
 62
256
370
-1
 48
1.0
  6
ByLayer
100
AcDbCircle
 10
4.882312598729186
 20
-33.1423147002170992
 30
0.0
 40
1.0
100
AcDbArc
 50
98.3801723586692134
 51
172.3686103094686928
  0
LINE
  5
87
100
AcDbEntity
100
AcDbLine
  8
Segment
 62
256
370
-1
 48
1.0
  6
ByLayer
 10
3.8917648251484711
 20
-33.0050733308608812
 30
0.0
 11
3.8911696643471601
 21
-33.0095152889807082
 31
0.0
  0
ARC
  5
88
100
AcDbEntity
  8
Segment
 62
256
370
-1
 48
1.0
  6
ByLayer
100
AcDbCircle
 10
2.900621890766502
 20
-32.8722739196244902
 30
0.0
 40
1.0
100
AcDbArc
 50
275.0426709480240106
 51
352.3686103094682949
  0
ARC
  5
89
100
AcDbEntity
  8
Segment
 62
256
370
-1
 48
1.0
  6
ByLayer
100
AcDbCircle
 10
0.0
 20
0.0
 30
0.0
 40
34.0
100
AcDbArc
 50
264.9846051048587583
 51
275.0426709480241811
  0
ARC
  5
8A
100
AcDbEntity
  8
Segment
 62
256
370
-1
 48
1.0
  6
ByLayer
100
AcDbCircle
 10
-2.884972488876997
 20
-32.8736510557990584
 30
0.0
 40
1.0
100
AcDbArc
 50
183.247692675567464
 51
264.9846051048568256
  0
ARC
  5
8B
100
AcDbEntity
  8
Segment
 62
256
370
-1
 48
1.0
  6
ByLayer
100
AcDbCircle
 10
-4.8817603944554548
 20
-32.9869562195534911
 30
0.0
 40
1.0
100
AcDbArc
 50
3.2476926755661339
 51
81.581862542040966
  0
ARC
  5
8C
100
AcDbEntity
  8
Segment
 62
256
370
-1
 48
1.0
  6
ByLayer
100
AcDbCircle
 10
0.0
 20
0.0
 30
0.0
 40
32.3462271506024734
100
AcDbArc
 50
258.4384811131196784
 51
261.5818625420391754
  0
LINE
  5
8D
100
AcDbEntity
100
AcDbLine
  8
Segment
 62
256
370
-1
 48
1.0
  6
ByLayer
 10
-21.8856725222887007
 20
-85.5421451161512039
 30
0.0
 11
-7.6491757192831642
 21
-32.4108157255433014
 31
0.0
  0
ARC
  5
8E
100
AcDbEntity
  8
Segment
 62
256
370
-1
 48
1.0
  6
ByLayer
100
AcDbCircle
 10
-6.6832498929941266
 20
-32.669634770645807
 30
0.0
 40
1.0
100
AcDbArc
 50
78.4384811131190673
 51
165.0
  0
LINE
  5
8F
100
AcDbEntity
100
AcDbLine
  8
Segment
 62
256
370
-1
 48
1.0
  6
ByLayer
 10
4.7365719241402644
 20
-32.1529918733449165
 30
0.0
 11
6.5224305122033002
 21
-31.8387798166544407
 31
0.0
  0
ENDBLK
  5
90
100
AcDbEntity
  8
0
100
AcDbBlockEnd
  0
BLOCK
  5
91
100
AcDbEntity
  8
0
100
AcDbBlockBegin
  2
Segment2
 70
0
 10
0.0
 20
0.0
 30
0.0
  3
Segment2
  1

  0
LINE
  5
92
100
AcDbEntity
100
AcDbLine
  8
Segment
 62
256
370
-1
 48
1.0
  6
ByLayer
 10
1.0000000000001139
 20
-94.4947088465803802
 30
0.0
 11
1.0000000000001139
 21
-32.4846117415598883
 31
0.0
  0
LINE
  5
93
100
AcDbEntity
100
AcDbLine
  8
Segment
 62
256
370
-1
 48
1.0
  6
ByLayer
 10
46.3813290195059267
 20
-82.3348183843530705
 30
0.0
 11
15.3762804669967199
 21
-28.6324990002673907
 31
0.0
  0
ARC
  5
94
100
AcDbEntity
  8
Segment
 62
256
370
-1
 48
1.0
  6
ByLayer
100
AcDbCircle
 10
0.0
 20
0.0
 30
0.0
 40
94.5000000000003268
100
AcDbArc
 50
270.606315861239807
 51
299.393684138760193
  0
ARC
  5
95
100
AcDbEntity
  8
Segment
 62
256
370
-1
 48
1.0
  6
ByLayer
100
AcDbCircle
 10
0.0
 20
0.0
 30
0.0
 40
32.4999999999983515
100
AcDbArc
 50
292.0562466825749652
 51
298.2367746424275765
  0
ARC
  5
96
100
AcDbEntity
  8
Segment
 62
256
370
-1
 48
1.0
  6
ByLayer
100
AcDbCircle
 10
0.0
 20
0.0
 30
0.0
 40
32.3462271506024734
100
AcDbArc
 50
271.7632253575724235
 51
277.932214460384273
  0
ARC
  5
97
100
AcDbEntity
  8
Segment
 62
256
370
-1
 48
1.0
  6
ByLayer
100
AcDbCircle
 10
0.0
 20
0.0
 30
0.0
 40
34.0
100
AcDbArc
 50
278.6053280286985796
 51
291.3946719713077869
  0
LINE
  5
98
100
AcDbEntity
100
AcDbLine
  8
Segment
 62
256
370
-1
 48
1.0
  6
ByLayer
 10
4.4638258168105844
 20
-32.0367393777136371
 30
0.0
 11
5.0873278218470546
 21
-33.6172440219756865
 31
0.0
  0
LINE
  5
99
100
AcDbEntity
100
AcDbLine
  8
Segment
 62
256
370
-1
 48
1.0
  6
ByLayer
 10
12.4028668798924908
 20
-31.6570512391736507
 30
0.0
 11
12.2042901402317607
 21
-30.1215089624164385
 31
0.0
  0
ENDBLK
  5
9A
100
AcDbEntity
  8
0
100
AcDbBlockEnd
  0
BLOCK
  5
9B
100
AcDbEntity
  8
0
100
AcDbBlockBegin
  2
Face Cutout
 70
0
 10
0.0
 20
0.0
 30
0.0
  3
Face Cutout
  1

  0
ARC
  5
9C
100
AcDbEntity
  8
Front
 62
256
370
-1
 48
1.0
  6
ByLayer
100
AcDbCircle
 10
4.0000000000001714
 20
37.7888872553823489
 30
0.0
 40
1.0
100
AcDbArc
 50
180.0
 51
263.9576715809471921
  0
ARC
  5
9D
100
AcDbEntity
  8
Front
 62
256
370
-1
 48
1.0
  6
ByLayer
100
AcDbCircle
 10
0.0
 20
0.0
 30
0.0
 40
36.9999999999991971
100
AcDbArc
 50
66.0423284190541295
 51
83.9576715809456005
  0
ARC
  5
9E
100
AcDbEntity
  8
Front
 62
256
370
-1
 48
1.0
  6
ByLayer
100
AcDbCircle
 10
15.4303420125530106
 20
34.7261363439062123
 30
0.0
 40
1.0
100
AcDbArc
 50
246.0423284190538027
 51
329.9999999999993747
  0
LINE
  5
9F
100
AcDbEntity
100
AcDbLine
  8
Front
 62
256
370
-1
 48
1.0
  6
ByLayer
 10
40.8559224539022168
 20
76.7645334802525667
 30
0.0
 11
16.2963674163374286
 21
34.2261363439062123
 31
0.0
  0
ARC
  5
A0
100
AcDbEntity
  8
Front
 62
256
370
-1
 48
1.0
  6
ByLayer
100
AcDbCircle
 10
39.9898970501177971
 20
77.2645334802525667
 30
0.0
 40
1.0
100
AcDbArc
 50
329.9999999999993747
 51
62.6352176946988592
  0
ARC
  5
A1
100
AcDbEntity
  8
Front
 62
256
370
-1
 48
1.0
  6
ByLayer
100
AcDbCircle
 10
0.0
 20
0.0
 30
0.0
 40
88.0000000000003695
100
AcDbArc
 50
62.635217694698909
 51
87.3647823053008921
  0
ARC
  5
A2
100
AcDbEntity
  8
Front
 62
256
370
-1
 48
1.0
  6
ByLayer
100
AcDbCircle
 10
4.0000000000001714
 20
86.9079973305110229
 30
0.0
 40
1.0
100
AcDbArc
 50
87.3647823053007642
 51
180.0
  0
LINE
  5
A3
100
AcDbEntity
100
AcDbLine
  8
Front
 62
256
370
-1
 48
1.0
  6
ByLayer
 10
3.000000000000171
 20
86.9079973305110229
 30
0.0
 11
3.000000000000171
 21
37.7888872553823489
 31
0.0
  0
ENDBLK
  5
A4
100
AcDbEntity
  8
0
100
AcDbBlockEnd
  0
ENDSEC
  0
SECTION
  2
ENTITIES
  0
LINE
  5
A5
100
AcDbEntity
100
AcDbLine
  8
Centre
 62
256
370
-1
 48
1.0
  6
ByLayer
 10
133.2483221476510096
 20
286.854026845637577
 30
0.0
 11
433.2483221476509812
 21
286.854026845637577
 31
0.0
  0
LINE
  5
A6
100
AcDbEntity
100
AcDbLine
  8
Centre
 62
256
370
-1
 48
1.0
  6
ByLayer
 10
277.6006711409395962
 20
142.5016778523489904
 30
0.0
 11
277.6006711409395962
 21
442.5016778523490188
 31
0.0
  0
LINE
  5
A7
100
AcDbEntity
100
AcDbLine
  8
Centre
 62
256
370
-1
 48
1.0
  6
ByLayer
 10
349.77684563758379
 20
161.8412255214925892
 30
0.0
 11
199.7768456375839037
 21
421.6488466568242757
 31
0.0
  0
LINE
  5
A8
100
AcDbEntity
100
AcDbLine
  8
Centre
 62
256
370
-1
 48
1.0
  6
ByLayer
 10
314.9618082656883757
 20
147.420364867527411
 30
0.0
 11
237.3160947349321077
 21
437.1981127542479157
 31
0.0
  0
CIRCLE
  5
A9
100
AcDbEntity
100
AcDbCircle
  8
Front
 62
256
370
-1
 48
1.0
  6
ByLayer
 10
-50.0
 20
-125.0
 30
0.0
 40
25.0
  0
INSERT
  5
AA
100
AcDbEntity
100
AcDbBlockReference
  8
Front
 62
256
370
-1
 48
1.0
  6
ByLayer
  2
Face Cutout
 10
-50.0
 20
-125.0
 30
0.0
 50
15.0000000000000124
  0
INSERT
  5
AB
100
AcDbEntity
100
AcDbBlockReference
  8
Front
 62
256
370
-1
 48
1.0
  6
ByLayer
  2
Face Cutout
 10
-50.0
 20
-125.0
 30
0.0
 50
45.0
  0
INSERT
  5
AC
100
AcDbEntity
100
AcDbBlockReference
  8
Front
 62
256
370
-1
 48
1.0
  6
ByLayer
  2
Face Cutout
 10
-50.0
 20
-125.0
 30
0.0
 50
74.9999999999999858
  0
INSERT
  5
AD
100
AcDbEntity
100
AcDbBlockReference
  8
Front
 62
256
370
-1
 48
1.0
  6
ByLayer
  2
Face Cutout
 10
-50.0
 20
-125.0
 30
0.0
 50
105.0
  0
INSERT
  5
AE
100
AcDbEntity
100
AcDbBlockReference
  8
Front
 62
256
370
-1
 48
1.0
  6
ByLayer
  2
Face Cutout
 10
-50.0
 20
-125.0
 30
0.0
 50
135.0
  0
INSERT
  5
AF
100
AcDbEntity
100
AcDbBlockReference
  8
Front
 62
256
370
-1
 48
1.0
  6
ByLayer
  2
Face Cutout
 10
-50.0
 20
-125.0
 30
0.0
 50
165.0
  0
INSERT
  5
B0
100
AcDbEntity
100
AcDbBlockReference
  8
Front
 62
256
370
-1
 48
1.0
  6
ByLayer
  2
Face Cutout
 10
-50.0
 20
-125.0
 30
0.0
 50
195.0
  0
INSERT
  5
B1
100
AcDbEntity
100
AcDbBlockReference
  8
Front
 62
256
370
-1
 48
1.0
  6
ByLayer
  2
Face Cutout
 10
-50.0
 20
-125.0
 30
0.0
 50
225.0
  0
INSERT
  5
B2
100
AcDbEntity
100
AcDbBlockReference
  8
Front
 62
256
370
-1
 48
1.0
  6
ByLayer
  2
Face Cutout
 10
-50.0
 20
-125.0
 30
0.0
 50
255.0
  0
INSERT
  5
B3
100
AcDbEntity
100
AcDbBlockReference
  8
Front
 62
256
370
-1
 48
1.0
  6
ByLayer
  2
Face Cutout
 10
-50.0
 20
-125.0
 30
0.0
 50
285.0
  0
INSERT
  5
B4
100
AcDbEntity
100
AcDbBlockReference
  8
Front
 62
256
370
-1
 48
1.0
  6
ByLayer
  2
Face Cutout
 10
-50.0
 20
-125.0
 30
0.0
 50
314.9999999999998863
  0
INSERT
  5
B5
100
AcDbEntity
100
AcDbBlockReference
  8
Front
 62
256
370
-1
 48
1.0
  6
ByLayer
  2
Face Cutout
 10
-50.0
 20
-125.0
 30
0.0
 50
344.9999999999999432
  0
INSERT
  5
B6
100
AcDbEntity
100
AcDbBlockReference
  8
Front
 62
256
370
-1
 48
1.0
  6
ByLayer
  2
Face Cutout
 10
-50.0
 20
-125.0
 30
0.0
 50
14.999999999999984
  0
ARC
  5
B7
100
AcDbEntity
  8
Front
 62
256
370
-1
 48
1.0
  6
ByLayer
100
AcDbCircle
 10
-76.8819045102501093
 20
-222.3568857857613636
 30
0.0
 40
1.0
100
AcDbArc
 50
0.0
 51
74.5642587795068721
  0
LINE
  5
B8
100
AcDbEntity
100
AcDbLine
  8
Front
 62
256
370
-1
 48
1.0
  6
ByLayer
 10
-75.8819045102501093
 20
-222.3568857857613636
 30
0.0
 11
-75.8819045102501093
 21
-230.5925826289068823
 31
0.0
  0
ARC
  5
B9
100
AcDbEntity
  8
Front
 62
256
370
-1
 48
1.0
  6
ByLayer
100
AcDbCircle
 10
-74.8819045102501093
 20
-230.5925826289068823
 30
0.0
 40
1.0
100
AcDbArc
 50
180.0
 51
270.0
  0
LINE
  5
BA
100
AcDbEntity
100
AcDbLine
  8
Front
 62
256
370
-1
 48
1.0
  6
ByLayer
 10
-74.8819045102501093
 20
-231.5925826289069676
 30
0.0
 11
-25.1180954897478159
 21
-231.5925826289069676
 31
0.0
  0
ARC
  5
BB
100
AcDbEntity
  8
Front
 62
256
370
-1
 48
1.0
  6
ByLayer
100
AcDbCircle
 10
-25.1180954897478159
 20
-230.5925826289069676
 30
0.0
 40
1.0
100
AcDbArc
 50
270.0
 51
0.0
  0
LINE
  5
BC
100
AcDbEntity
100
AcDbLine
  8
Front
 62
256
370
-1
 48
1.0
  6
ByLayer
 10
-24.1180954897478159
 20
-222.3568857857613636
 30
0.0
 11
-24.1180954897478159
 21
-230.5925826289069676
 31
0.0
  0
ARC
  5
BD
100
AcDbEntity
  8
Front
 62
256
370
-1
 48
1.0
  6
ByLayer
100
AcDbCircle
 10
-23.1180954897478159
 20
-222.3568857857613636
 30
0.0
 40
1.0
100
AcDbArc
 50
105.435741220493199
 51
180.0
  0
ARC
  5
BE
100
AcDbEntity
  8
Front
 62
256
370
-1
 48
1.0
  6
ByLayer
100
AcDbCircle
 10
-50.0
 20
-125.0
 30
0.0
 40
99.9999999999999147
100
AcDbArc
 50
285.4357412204943216
 51
254.5642587795069005
  0
ARC
  5
BF
100
AcDbEntity
  8
Main Ring
 62
256
370
-1
 48
1.0
  6
ByLayer
100
AcDbCircle
 10
337.9343641076560516
 20
97.1470082817550065
 30
0.0
 40
1.0
100
AcDbArc
 50
0.0
 51
74.5642587795068721
  0
LINE
  5
C0
100
AcDbEntity
100
AcDbLine
  8
Main Ring
 62
256
370
-1
 48
1.0
  6
ByLayer
 10
338.9343641076560516
 20
97.1470082817550065
 30
0.0
 11
338.9343641076560516
 21
88.9113114386094878
 31
0.0
  0
ARC
  5
C1
100
AcDbEntity
  8
Main Ring
 62
256
370
-1
 48
1.0
  6
ByLayer
100
AcDbCircle
 10
339.9343641076560516
 20
88.9113114386094878
 30
0.0
 40
1.0
100
AcDbArc
 50
180.0
 51
270.0
  0
LINE
  5
C2
100
AcDbEntity
100
AcDbLine
  8
Main Ring
 62
256
370
-1
 48
1.0
  6
ByLayer
 10
339.9343641076560516
 20
87.9113114386094026
 30
0.0
 11
389.6981731281583734
 21
87.9113114386094026
 31
0.0
  0
ARC
  5
C3
100
AcDbEntity
  8
Main Ring
 62
256
370
-1
 48
1.0
  6
ByLayer
100
AcDbCircle
 10
389.6981731281583734
 20
88.9113114386094026
 30
0.0
 40
1.0
100
AcDbArc
 50
270.0
 51
0.0
  0
LINE
  5
C4
100
AcDbEntity
100
AcDbLine
  8
Main Ring
 62
256
370
-1
 48
1.0
  6
ByLayer
 10
390.6981731281583734
 20
97.1470082817550065
 30
0.0
 11
390.6981731281583734
 21
88.9113114386094026
 31
0.0
  0
ARC
  5
C5
100
AcDbEntity
  8
Main Ring
 62
256
370
-1
 48
1.0
  6
ByLayer
100
AcDbCircle
 10
391.6981731281583734
 20
97.1470082817550065
 30
0.0
 40
1.0
100
AcDbArc
 50
105.435741220493199
 51
180.0
  0
ARC
  5
C6
100
AcDbEntity
  8
Main Ring
 62
256
370
-1
 48
1.0
  6
ByLayer
100
AcDbCircle
 10
364.8162686179061893
 20
194.5038940675163701
 30
0.0
 40
99.9999999999999147
100
AcDbArc
 50
285.4357412204943216
 51
254.5642587795069005
  0
LINE
  5
C7
100
AcDbEntity
100
AcDbLine
  8
Segment
 62
256
370
-1
 48
1.0
  6
ByLayer
 10
-45.6465691616226081
 20
71.384795603171483
 30
0.0
 11
-45.6451920188791291
 21
71.4783398905162812
 31
0.0
  0
LINE
  5
C8
100
AcDbEntity
100
AcDbLine
  8
Segment
 62
256
370
-1
 48
1.0
  6
ByLayer
 10
-38.4630537264741292
 20
73.4227287751489825
 30
0.0
 11
-38.402738586166322
 21
73.322395837816714
 31
0.0
  0
INSERT
  5
C9
100
AcDbEntity
100
AcDbBlockReference
  8
Segment
 62
256
370
-1
 48
1.0
  6
ByLayer
  2
Smooth Segment
 10
-49.3697056966258288
 20
99.769111131126067
 30
0.0
  0
INSERT
  5
CA
100
AcDbEntity
100
AcDbBlockReference
  8
Segment
 62
256
370
-1
 48
1.0
  6
ByLayer
  2
Smooth Segment
 10
-49.3697056966258288
 20
99.769111131126067
 30
0.0
 50
29.9999999999999929
  0
INSERT
  5
CB
100
AcDbEntity
100
AcDbBlockReference
  8
Segment
 62
256
370
-1
 48
1.0
  6
ByLayer
  2
Smooth Segment
 10
-49.3697056966258288
 20
99.769111131126067
 30
0.0
 50
60.0
  0
INSERT
  5
CC
100
AcDbEntity
100
AcDbBlockReference
  8
Segment
 62
256
370
-1
 48
1.0
  6
ByLayer
  2
Smooth Segment
 10
-49.3697056966258288
 20
99.769111131126067
 30
0.0
 50
90.0
  0
INSERT
  5
CD
100
AcDbEntity
100
AcDbBlockReference
  8
Segment
 62
256
370
-1
 48
1.0
  6
ByLayer
  2
Smooth Segment
 10
-49.3697056966258288
 20
99.769111131126067
 30
0.0
 50
120.0
  0
INSERT
  5
CE
100
AcDbEntity
100
AcDbBlockReference
  8
Segment
 62
256
370
-1
 48
1.0
  6
ByLayer
  2
Smooth Segment
 10
-49.3697056966258288
 20
99.769111131126067
 30
0.0
 50
150.0
  0
INSERT
  5
CF
100
AcDbEntity
100
AcDbBlockReference
  8
Segment
 62
256
370
-1
 48
1.0
  6
ByLayer
  2
Smooth Segment
 10
-49.3697056966258288
 20
99.769111131126067
 30
0.0
 50
180.0
  0
INSERT
  5
D0
100
AcDbEntity
100
AcDbBlockReference
  8
Segment
 62
256
370
-1
 48
1.0
  6
ByLayer
  2
Smooth Segment
 10
-49.3697056966258288
 20
99.769111131126067
 30
0.0
 50
210.0
  0
INSERT
  5
D1
100
AcDbEntity
100
AcDbBlockReference
  8
Segment
 62
256
370
-1
 48
1.0
  6
ByLayer
  2
Smooth Segment
 10
-49.3697056966258288
 20
99.769111131126067
 30
0.0
 50
240.0
  0
INSERT
  5
D2
100
AcDbEntity
100
AcDbBlockReference
  8
Segment
 62
256
370
-1
 48
1.0
  6
ByLayer
  2
Smooth Segment
 10
-49.3697056966258288
 20
99.769111131126067
 30
0.0
 50
270.0
  0
INSERT
  5
D3
100
AcDbEntity
100
AcDbBlockReference
  8
Segment
 62
256
370
-1
 48
1.0
  6
ByLayer
  2
Smooth Segment
 10
-49.3697056966258288
 20
99.769111131126067
 30
0.0
 50
299.9999999999999432
  0
INSERT
  5
D4
100
AcDbEntity
100
AcDbBlockReference
  8
Segment
 62
256
370
-1
 48
1.0
  6
ByLayer
  2
Smooth Segment
 10
-49.3697056966258288
 20
99.769111131126067
 30
0.0
 50
330.0
  0
INSERT
  5
D5
100
AcDbEntity
100
AcDbBlockReference
  8
Segment
 62
256
370
-1
 48
1.0
  6
ByLayer
  2
Smooth Segment
 10
-49.3697056966258288
 20
99.769111131126067
 30
0.0
 50
360.0
  0
ARC
  5
D6
100
AcDbEntity
  8
Main Ring
 62
256
370
-1
 48
1.0
  6
ByLayer
100
AcDbCircle
 10
334.8534027336530698
 20
105.4071675956516856
 30
0.0
 40
1.0
100
AcDbArc
 50
251.4124176886308817
 51
333.6168865175649785
  0
ARC
  5
D7
100
AcDbEntity
  8
Main Ring
 62
256
370
-1
 48
1.0
  6
ByLayer
100
AcDbCircle
 10
340.2284593331668248
 20
102.740940570054704
 30
0.0
 40
5.0
100
AcDbArc
 50
356.3831134824361584
 51
153.6168865175640121
  0
ARC
  5
D8
100
AcDbEntity
  8
Main Ring
 62
256
370
-1
 48
1.0
  6
ByLayer
100
AcDbCircle
 10
346.2165084079222197
 20
102.3624326067215975
 30
0.0
 40
1.0
100
AcDbArc
 50
176.3831134824361015
 51
258.5875823113677825
  0
ARC
  5
D9
100
AcDbEntity
  8
Main Ring
 62
256
370
-1
 48
1.0
  6
ByLayer
100
AcDbCircle
 10
394.7791345021593088
 20
105.4071675956516003
 30
0.0
 40
1.0
100
AcDbArc
 50
206.38311348243559
 51
288.5875823113674983
  0
ARC
  5
DA
100
AcDbEntity
  8
Main Ring
 62
256
370
-1
 48
1.0
  6
ByLayer
100
AcDbCircle
 10
364.8162686179061893
 20
194.5038940675163701
 30
0.0
 40
95.0000000000000711
100
AcDbArc
 50
288.5875823113698857
 51
311.4124176886305122
  0
ARC
  5
DB
100
AcDbEntity
  8
Main Ring
 62
256
370
-1
 48
1.0
  6
ByLayer
100
AcDbCircle
 10
426.9948641944486667
 20
124.0069278056352857
 30
0.0
 40
1.0
100
AcDbArc
 50
311.41241768862659
 51
33.6168865175635716
  0
ARC
  5
DC
100
AcDbEntity
  8
Main Ring
 62
256
370
-1
 48
1.0
  6
ByLayer
100
AcDbCircle
 10
431.9914128306282919
 20
127.3287498547941823
 30
0.0
 40
5.0
100
AcDbArc
 50
56.3831134824407698
 51
213.6168865175623921
  0
ARC
  5
DD
100
AcDbEntity
  8
Main Ring
 62
256
370
-1
 48
1.0
  6
ByLayer
100
AcDbCircle
 10
435.3132348797857958
 20
132.3252984909725001
 30
0.0
 40
1.0
100
AcDbArc
 50
236.3831134824415017
 51
318.5875823113706815
  0
ARC
  5
DE
100
AcDbEntity
  8
Main Ring
 62
256
370
-1
 48
1.0
  6
ByLayer
100
AcDbCircle
 10
364.8162686179061893
 20
194.5038940675163701
 30
0.0
 40
95.0000000000000142
100
AcDbArc
 50
318.5875823113682941
 51
341.4124176886306827
  0
ARC
  5
DF
100
AcDbEntity
  8
Main Ring
 62
256
370
-1
 48
1.0
  6
ByLayer
100
AcDbCircle
 10
453.9129950897713002
 20
164.5410281832646149
 30
0.0
 40
1.0
100
AcDbArc
 50
341.4124176886272721
 51
63.6168865175617029
  0
ARC
  5
E0
100
AcDbEntity
  8
Main Ring
 62
256
370
-1
 48
1.0
  6
ByLayer
100
AcDbCircle
 10
456.5792221153677701
 20
169.9160847827767213
 30
0.0
 40
5.0
100
AcDbArc
 50
86.3831134824388585
 51
243.6168865175619658
  0
ARC
  5
E1
100
AcDbEntity
  8
Main Ring
 62
256
370
-1
 48
1.0
  6
ByLayer
100
AcDbCircle
 10
456.9577300787007061
 20
175.9041338575324005
 30
0.0
 40
1.0
100
AcDbArc
 50
266.383113482438489
 51
348.587582311369772
  0
ARC
  5
E2
100
AcDbEntity
  8
Main Ring
 62
256
370
-1
 48
1.0
  6
ByLayer
100
AcDbCircle
 10
364.8162686179061893
 20
194.5038940675163701
 30
0.0
 40
94.9999999999999005
100
AcDbArc
 50
348.5875823113694878
 51
11.4124176886286808
  0
ARC
  5
E3
100
AcDbEntity
  8
Main Ring
 62
256
370
-1
 48
1.0
  6
ByLayer
100
AcDbCircle
 10
456.9577300787012746
 20
213.1036542774973839
 30
0.0
 40
1.0
100
AcDbArc
 50
11.4124176886276896
 51
93.6168865175649785
  0
ARC
  5
E4
100
AcDbEntity
  8
Main Ring
 62
256
370
-1
 48
1.0
  6
ByLayer
100
AcDbCircle
 10
456.5792221153677701
 20
219.091703352255621
 30
0.0
 40
5.0
100
AcDbArc
 50
116.3831134824344815
 51
273.6168865175662859
  0
ARC
  5
E5
100
AcDbEntity
  8
Main Ring
 62
256
370
-1
 48
1.0
  6
ByLayer
100
AcDbCircle
 10
453.9129950897705044
 20
224.4667599517702854
 30
0.0
 40
1.0
100
AcDbArc
 50
296.3831134824358742
 51
18.5875823113706211
  0
ARC
  5
E6
100
AcDbEntity
  8
Main Ring
 62
256
370
-1
 48
1.0
  6
ByLayer
100
AcDbCircle
 10
364.8162686179061893
 20
194.5038940675163701
 30
0.0
 40
94.9999999999997868
100
AcDbArc
 50
18.5875823113706211
 51
41.4124176886278832
  0
ARC
  5
E7
100
AcDbEntity
  8
Main Ring
 62
256
370
-1
 48
1.0
  6
ByLayer
100
AcDbCircle
 10
435.3132348797900022
 20
256.6824896440556358
 30
0.0
 40
1.0
100
AcDbArc
 50
41.4124176886292972
 51
123.6168865175678917
  0
ARC
  5
E8
100
AcDbEntity
  8
Main Ring
 62
256
370
-1
 48
1.0
  6
ByLayer
100
AcDbCircle
 10
431.9914128306284056
 20
261.6790382802380464
 30
0.0
 40
5.0
100
AcDbArc
 50
146.3831134824351921
 51
303.6168865175695259
  0
ARC
  5
E9
100
AcDbEntity
  8
Main Ring
 62
256
370
-1
 48
1.0
  6
ByLayer
100
AcDbCircle
 10
426.9948641944471888
 20
265.0008603293982787
 30
0.0
 40
1.0
100
AcDbArc
 50
326.3831134824349078
 51
48.5875823113679601
  0
ARC
  5
EA
100
AcDbEntity
  8
Main Ring
 62
256
370
-1
 48
1.0
  6
ByLayer
100
AcDbCircle
 10
364.8162686179061893
 20
194.5038940675163701
 30
0.0
 40
94.9999999999996589
100
AcDbArc
 50
48.5875823113704897
 51
71.4124176886281532
  0
ARC
  5
EB
100
AcDbEntity
  8
Main Ring
 62
256
370
-1
 48
1.0
  6
ByLayer
100
AcDbCircle
 10
394.7791345021619804
 20
283.6006205393800883
 30
0.0
 40
1.0
100
AcDbArc
 50
71.4124176886283237
 51
153.6168865175712313
  0
ARC
  5
EC
100
AcDbEntity
  8
Main Ring
 62
256
370
-1
 48
1.0
  6
ByLayer
100
AcDbCircle
 10
389.4040779026457813
 20
286.2668475649776383
 30
0.0
 40
5.0
100
AcDbArc
 50
176.3831134824447133
 51
333.6168865175699239
  0
ARC
  5
ED
100
AcDbEntity
  8
Main Ring
 62
256
370
-1
 48
1.0
  6
ByLayer
100
AcDbCircle
 10
383.4160288278943085
 20
286.6453555283095511
 30
0.0
 40
1.0
100
AcDbArc
 50
356.3831134824429228
 51
78.5875823113672283
  0
ARC
  5
EE
100
AcDbEntity
  8
Main Ring
 62
256
370
-1
 48
1.0
  6
ByLayer
100
AcDbCircle
 10
364.8162686179061893
 20
194.5038940675163701
 30
0.0
 40
94.9999999999996021
100
AcDbArc
 50
78.587582311366873
 51
101.4124176886322033
  0
ARC
  5
EF
100
AcDbEntity
  8
Main Ring
 62
256
370
-1
 48
1.0
  6
ByLayer
100
AcDbCircle
 10
346.2165084079196049
 20
286.6453555283100059
 30
0.0
 40
1.0
100
AcDbArc
 50
101.412417688633397
 51
183.6168865175588962
  0
ARC
  5
F0
100
AcDbEntity
  8
Main Ring
 62
256
370
-1
 48
1.0
  6
ByLayer
100
AcDbCircle
 10
340.2284593331668248
 20
286.2668475649776383
 30
0.0
 40
5.0
100
AcDbArc
 50
206.3831134824345099
 51
3.6168865175578788
  0
ARC
  5
F1
100
AcDbEntity
  8
Main Ring
 62
256
370
-1
 48
1.0
  6
ByLayer
100
AcDbCircle
 10
334.8534027336521604
 20
283.6006205393804294
 30
0.0
 40
1.0
100
AcDbArc
 50
26.3831134824343785
 51
108.5875823113722021
  0
ARC
  5
F2
100
AcDbEntity
  8
Main Ring
 62
256
370
-1
 48
1.0
  6
ByLayer
100
AcDbCircle
 10
364.8162686179061893
 20
194.5038940675163701
 30
0.0
 40
94.9999999999995595
100
AcDbArc
 50
108.587582311370781
 51
131.4124176886300006
  0
ARC
  5
F3
100
AcDbEntity
  8
Main Ring
 62
256
370
-1
 48
1.0
  6
ByLayer
100
AcDbCircle
 10
302.6376730413646783
 20
265.0008603293975966
 30
0.0
 40
1.0
100
AcDbArc
 50
131.4124176886301996
 51
213.616886517564069
  0
ARC
  5
F4
100
AcDbEntity
  8
Main Ring
 62
256
370
-1
 48
1.0
  6
ByLayer
100
AcDbCircle
 10
297.6411244051843141
 20
261.6790382802380464
 30
0.0
 40
5.0
100
AcDbArc
 50
236.3831134824363289
 51
33.6168865175633869
  0
ARC
  5
F5
100
AcDbEntity
  8
Main Ring
 62
256
370
-1
 48
1.0
  6
ByLayer
100
AcDbCircle
 10
294.3193023560255028
 20
256.6824896440587054
 30
0.0
 40
1.0
100
AcDbArc
 50
56.3831134824364284
 51
138.5875823113690331
  0
ARC
  5
F6
100
AcDbEntity
  8
Main Ring
 62
256
370
-1
 48
1.0
  6
ByLayer
100
AcDbCircle
 10
364.8162686179061893
 20
194.5038940675163701
 30
0.0
 40
94.9999999999996589
100
AcDbArc
 50
138.5875823113694025
 51
161.4124176886319901
  0
ARC
  5
F7
100
AcDbEntity
  8
Main Ring
 62
256
370
-1
 48
1.0
  6
ByLayer
100
AcDbCircle
 10
275.7195421460407943
 20
224.4667599517661927
 30
0.0
 40
1.0
100
AcDbArc
 50
161.4124176886309101
 51
243.6168865175590952
  0
ARC
  5
F8
100
AcDbEntity
  8
Main Ring
 62
256
370
-1
 48
1.0
  6
ByLayer
100
AcDbCircle
 10
273.053315120444779
 20
219.091703352255621
 30
0.0
 40
5.0
100
AcDbArc
 50
266.3831134824351921
 51
63.6168865175593794
  0
ARC
  5
F9
100
AcDbEntity
  8
Main Ring
 62
256
370
-1
 48
1.0
  6
ByLayer
100
AcDbCircle
 10
272.6748071571115588
 20
213.1036542775002829
 30
0.0
 40
1.0
100
AcDbArc
 50
86.3831134824357179
 51
168.5875823113696867
  0
ARC
  5
FA
100
AcDbEntity
  8
Main Ring
 62
256
370
-1
 48
1.0
  6
ByLayer
100
AcDbCircle
 10
364.8162686179061893
 20
194.5038940675163701
 30
0.0
 40
94.9999999999997726
100
AcDbArc
 50
168.5875823113694878
 51
191.4124176886305975
  0
ARC
  5
FB
100
AcDbEntity
  8
Main Ring
 62
256
370
-1
 48
1.0
  6
ByLayer
100
AcDbCircle
 10
272.6748071571116725
 20
175.9041338575322868
 30
0.0
 40
1.0
100
AcDbArc
 50
191.4124176886286932
 51
273.6168865175632732
  0
ARC
  5
FC
100
AcDbEntity
  8
Main Ring
 62
256
370
-1
 48
1.0
  6
ByLayer
100
AcDbCircle
 10
273.053315120444779
 20
169.9160847827767213
 30
0.0
 40
5.0
100
AcDbArc
 50
296.3831134824362721
 51
93.6168865175630884
  0
ARC
  5
FD
100
AcDbEntity
  8
Main Ring
 62
256
370
-1
 48
1.0
  6
ByLayer
100
AcDbCircle
 10
275.7195421460413627
 20
164.5410281832638191
 30
0.0
 40
1.0
100
AcDbArc
 50
116.383113482437011
 51
198.5875823113726995
  0
ARC
  5
FE
100
AcDbEntity
  8
Main Ring
 62
256
370
-1
 48
1.0
  6
ByLayer
100
AcDbCircle
 10
364.8162686179061893
 20
194.5038940675163701
 30
0.0
 40
94.9999999999999147
100
AcDbArc
 50
198.5875823113698004
 51
221.4124176886298869
  0
ARC
  5
FF
100
AcDbEntity
  8
Main Ring
 62
256
370
-1
 48
1.0
  6
ByLayer
100
AcDbCircle
 10
294.3193023560244796
 20
132.3252984909748022
 30
0.0
 40
1.0
100
AcDbArc
 50
221.4124176886311091
 51
303.6168865175645806
  0
ARC
  5
100
100
AcDbEntity
  8
Main Ring
 62
256
370
-1
 48
1.0
  6
ByLayer
100
AcDbCircle
 10
297.6411244051843141
 20
127.3287498547941823
 30
0.0
 40
5.0
100
AcDbArc
 50
326.3831134824366131
 51
123.6168865175647937
  0
ARC
  5
101
100
AcDbEntity
  8
Main Ring
 62
256
370
-1
 48
1.0
  6
ByLayer
100
AcDbCircle
 10
364.8162686179061893
 20
194.5038940675163701
 30
0.0
 40
95.0000000000000284
100
AcDbArc
 50
228.5875823113696015
 51
251.4124176886298869
  0
ARC
  5
102
100
AcDbEntity
  8
Main Ring
 62
256
370
-1
 48
1.0
  6
ByLayer
100
AcDbCircle
 10
302.6376730413639962
 20
124.0069278056352005
 30
0.0
 40
1.0
100
AcDbArc
 50
146.3831134824368689
 51
228.587582311366333
  0
ARC
  5
103
100
AcDbEntity
  8
LED Ring
 62
256
370
-1
 48
1.0
  6
ByLayer
100
AcDbCircle
 10
284.6021691880774824
 20
256.8603770994679962
 30
0.0
 40
1.0
100
AcDbArc
 50
283.1394204352919246
 51
14.9999999999975877
  0
LINE
  5
104
100
AcDbEntity
100
AcDbLine
  8
LED Ring
 62
256
370
-1
 48
1.0
  6
ByLayer
 10
285.6198859518465838
 20
256.9259097345237137
 30
0.0
 11
285.5680950143665768
 21
257.1191961445704806
 31
0.0
  0
ARC
  5
105
100
AcDbEntity
  8
LED Ring
 62
256
370
-1
 48
1.0
  6
ByLayer
100
AcDbCircle
 10
284.6539601255574894
 20
256.6670906894211726
 30
0.0
 40
1.0
100
AcDbArc
 50
14.9999999999975877
 51
103.1514283547720936
  0
ARC
  5
106
100
AcDbEntity
  8
LED Ring
 62
256
370
-1
 48
1.0
  6
ByLayer
100
AcDbCircle
 10
277.6006711409395962
 20
286.854026845637577
 30
0.0
 40
30.0
100
AcDbArc
 50
291.8485716452286738
 51
283.1514283547713262
  0
ARC
  5
107
100
AcDbEntity
  8
LED Ring
 62
256
370
-1
 48
1.0
  6
ByLayer
100
AcDbCircle
 10
289.1374703150675032
 20
258.0807360221015756
 30
0.0
 40
1.0
100
AcDbArc
 50
111.8485716452285033
 51
200.0000000000036948
  0
ARC
  5
108
100
AcDbEntity
  8
LED Ring
 62
256
370
-1
 48
1.0
  6
ByLayer
100
AcDbCircle
 10
277.6006711409395962
 20
286.854026845637577
 30
0.0
 40
31.8000000000000007
100
AcDbArc
 50
291.8605795647082459
 51
283.1394204352916972
  0
LINE
  5
109
100
AcDbEntity
100
AcDbLine
  8
LED Ring
 62
256
370
-1
 48
1.0
  6
ByLayer
 10
288.1977776942816263
 20
257.7387158787757926
 30
0.0
 11
288.1293378163248917
 21
257.9267528980520865
 31
0.0
  0
ARC
  5
10A
100
AcDbEntity
  8
LED Ring
 62
256
370
-1
 48
1.0
  6
ByLayer
100
AcDbCircle
 10
289.0690304371108255
 20
258.2687730413778127
 30
0.0
 40
1.0
100
AcDbArc
 50
200.0000000000036948
 51
291.8605795647085301
  0
ARC
  5
10B
100
AcDbEntity
  8
Main Ring
 62
256
370
-1
 48
1.0
  6
ByLayer
100
AcDbCircle
 10
364.8162686179060756
 20
194.5038940675163701
 30
0.0
 40
95.0000000000001847
100
AcDbArc
 50
258.5876044591099117
 51
285.0000000000000568
  0
ARC
  5
10C
100
AcDbEntity
  8
Main Ring
 62
256
370
-1
 48
1.0
  6
ByLayer
100
AcDbCircle
 10
389.1452588575431832
 20
103.7068663963438837
 30
0.0
 40
1.0
100
AcDbArc
 50
285.0000000000022169
 51
15.0000000000031619
  0
LINE
  5
10D
100
AcDbEntity
100
AcDbLine
  8
Main Ring
 62
256
370
-1
 48
1.0
  6
ByLayer
 10
389.4734282567665673
 20
106.3458248301087963
 30
0.0
 11
390.1111846838322208
 21
103.9656854414464817
 31
0.0
  0
ARC
  5
10E
100
AcDbEntity
  8
Main Ring
 62
256
370
-1
 48
1.0
  6
ByLayer
100
AcDbCircle
 10
389.4040779026457813
 20
102.740940570054704
 30
0.0
 40
5.0
100
AcDbArc
 50
26.3831134824356788
 51
75.0000000000055564
  0
ARC
  5
10F
100
AcDbEntity
  8
Main Ring
 62
256
370
-1
 48
1.0
  6
ByLayer
100
AcDbCircle
 10
390.4393540830556049
 20
106.6046438752112806
 30
0.0
 40
1.0
100
AcDbArc
 50
75.0000000000053149
 51
195.0000000000023874
  0
LINE
  5
110
100
AcDbEntity
100
AcDbLine
  8
Back
 62
256
370
-1
 48
1.0
  6
ByLayer
 10
133.3842529601488138
 20
-221.3929562235260846
 30
0.0
 11
186.615747039851783
 21
-221.3929562235260846
 31
0.0
  0
ARC
  5
111
100
AcDbEntity
  8
Back
 62
256
370
-1
 48
1.0
  6
ByLayer
100
AcDbCircle
 10
160.0
 20
-125.0
 30
0.0
 40
99.9999999999998153
100
AcDbArc
 50
285.4357412204931848
 51
254.5642587795071279
  0
CIRCLE
  5
112
100
AcDbEntity
100
AcDbCircle
  8
Back
 62
256
370
-1
 48
1.0
  6
ByLayer
 10
227.1751442127221026
 20
-192.1751442127221878
 30
0.0
 40
1.0
  0
CIRCLE
  5
113
100
AcDbEntity
100
AcDbCircle
  8
Back
 62
256
370
-1
 48
1.0
  6
ByLayer
 10
92.8248557872780964
 20
-192.1751442127221878
 30
0.0
 40
1.0
  0
CIRCLE
  5
114
100
AcDbEntity
100
AcDbCircle
  8
Back
 62
256
370
-1
 48
1.0
  6
ByLayer
 10
92.8248557872780964
 20
-57.8248557872782953
 30
0.0
 40
1.0
  0
CIRCLE
  5
115
100
AcDbEntity
100
AcDbCircle
  8
Back
 62
256
370
-1
 48
1.0
  6
ByLayer
 10
227.1751442127222163
 20
-57.8248557872782953
 30
0.0
 40
1.0
  0
ARC
  5
116
100
AcDbEntity
  8
0
 62
256
370
-1
 48
1.0
  6
ByLayer
100
AcDbCircle
 10
250.7187666306894869
 20
189.4971410598762134
 30
0.0
 40
1.0
100
AcDbArc
 50
0.0
 51
74.5642587795068721
  0
LINE
  5
117
100
AcDbEntity
100
AcDbLine
  8
0
 62
256
370
-1
 48
1.0
  6
ByLayer
 10
251.7187666306894869
 20
189.4971410598762134
 30
0.0
 11
251.7187666306894869
 21
181.2614442167306947
 31
0.0
  0
ARC
  5
118
100
AcDbEntity
  8
0
 62
256
370
-1
 48
1.0
  6
ByLayer
100
AcDbCircle
 10
252.7187666306894869
 20
181.2614442167306947
 30
0.0
 40
1.0
100
AcDbArc
 50
180.0
 51
270.0
  0
LINE
  5
119
100
AcDbEntity
100
AcDbLine
  8
0
 62
256
370
-1
 48
1.0
  6
ByLayer
 10
252.7187666306894869
 20
180.2614442167306095
 30
0.0
 11
302.4825756511917803
 21
180.2614442167306095
 31
0.0
  0
ARC
  5
11A
100
AcDbEntity
  8
0
 62
256
370
-1
 48
1.0
  6
ByLayer
100
AcDbCircle
 10
302.4825756511917803
 20
181.2614442167306095
 30
0.0
 40
1.0
100
AcDbArc
 50
270.0
 51
0.0
  0
LINE
  5
11B
100
AcDbEntity
100
AcDbLine
  8
0
 62
256
370
-1
 48
1.0
  6
ByLayer
 10
303.4825756511917803
 20
189.4971410598762134
 30
0.0
 11
303.4825756511917803
 21
181.2614442167306095
 31
0.0
  0
ARC
  5
11C
100
AcDbEntity
  8
0
 62
256
370
-1
 48
1.0
  6
ByLayer
100
AcDbCircle
 10
304.4825756511917803
 20
189.4971410598762134
 30
0.0
 40
1.0
100
AcDbArc
 50
105.435741220493199
 51
180.0
  0
ARC
  5
11D
100
AcDbEntity
  8
0
 62
256
370
-1
 48
1.0
  6
ByLayer
100
AcDbCircle
 10
277.6006711409395962
 20
286.854026845637577
 30
0.0
 40
99.9999999999999147
100
AcDbArc
 50
285.4357412204943216
 51
254.5642587795069005
  0
ARC
  5
11E
100
AcDbEntity
  8
0
 62
256
370
-1
 48
1.0
  6
ByLayer
100
AcDbCircle
 10
247.6378052566865051
 20
197.7573003737728925
 30
0.0
 40
1.0
100
AcDbArc
 50
251.4124176886308817
 51
333.6168865175649785
  0
ARC
  5
11F
100
AcDbEntity
  8
0
 62
256
370
-1
 48
1.0
  6
ByLayer
100
AcDbCircle
 10
253.0128618562002032
 20
195.091073348175911
 30
0.0
 40
5.0
100
AcDbArc
 50
356.3831134824361584
 51
153.6168865175640121
  0
ARC
  5
120
100
AcDbEntity
  8
0
 62
256
370
-1
 48
1.0
  6
ByLayer
100
AcDbCircle
 10
259.0009109309556266
 20
194.7125653848428044
 30
0.0
 40
1.0
100
AcDbArc
 50
176.3831134824361015
 51
258.5875823113677825
  0
ARC
  5
121
100
AcDbEntity
  8
0
 62
256
370
-1
 48
1.0
  6
ByLayer
100
AcDbCircle
 10
307.5635370251927156
 20
197.7573003737728072
 30
0.0
 40
1.0
100
AcDbArc
 50
206.38311348243559
 51
288.5875823113674983
  0
ARC
  5
122
100
AcDbEntity
  8
0
 62
256
370
-1
 48
1.0
  6
ByLayer
100
AcDbCircle
 10
277.6006711409395962
 20
286.854026845637577
 30
0.0
 40
95.0000000000000711
100
AcDbArc
 50
288.5875823113698857
 51
311.4124176886305122
  0
ARC
  5
123
100
AcDbEntity
  8
0
 62
256
370
-1
 48
1.0
  6
ByLayer
100
AcDbCircle
 10
339.7792667174820735
 20
216.3570605837564926
 30
0.0
 40
1.0
100
AcDbArc
 50
311.41241768862659
 51
33.6168865175635716
  0
ARC
  5
124
100
AcDbEntity
  8
0
 62
256
370
-1
 48
1.0
  6
ByLayer
100
AcDbCircle
 10
344.7758153536616987
 20
219.6788826329153892
 30
0.0
 40
5.0
100
AcDbArc
 50
56.3831134824407698
 51
213.6168865175623921
  0
ARC
  5
125
100
AcDbEntity
  8
0
 62
256
370
-1
 48
1.0
  6
ByLayer
100
AcDbCircle
 10
348.0976374028192026
 20
224.675431269093707
 30
0.0
 40
1.0
100
AcDbArc
 50
236.3831134824415017
 51
318.5875823113706815
  0
ARC
  5
126
100
AcDbEntity
  8
0
 62
256
370
-1
 48
1.0
  6
ByLayer
100
AcDbCircle
 10
277.6006711409395962
 20
286.854026845637577
 30
0.0
 40
95.0000000000000142
100
AcDbArc
 50
318.5875823113682941
 51
341.4124176886306827
  0
ARC
  5
127
100
AcDbEntity
  8
0
 62
256
370
-1
 48
1.0
  6
ByLayer
100
AcDbCircle
 10
366.697397612804707
 20
256.8911609613858218
 30
0.0
 40
1.0
100
AcDbArc
 50
341.4124176886272721
 51
63.6168865175617029
  0
ARC
  5
128
100
AcDbEntity
  8
0
 62
256
370
-1
 48
1.0
  6
ByLayer
100
AcDbCircle
 10
369.363624638401177
 20
262.2662175608979283
 30
0.0
 40
5.0
100
AcDbArc
 50
86.3831134824388585
 51
243.6168865175619658
  0
ARC
  5
129
100
AcDbEntity
  8
0
 62
256
370
-1
 48
1.0
  6
ByLayer
100
AcDbCircle
 10
369.742132601734113
 20
268.2542666356536074
 30
0.0
 40
1.0
100
AcDbArc
 50
266.383113482438489
 51
348.587582311369772
  0
ARC
  5
12A
100
AcDbEntity
  8
0
 62
256
370
-1
 48
1.0
  6
ByLayer
100
AcDbCircle
 10
277.6006711409395962
 20
286.854026845637577
 30
0.0
 40
94.9999999999999005
100
AcDbArc
 50
348.5875823113694878
 51
11.4124176886286808
  0
ARC
  5
12B
100
AcDbEntity
  8
0
 62
256
370
-1
 48
1.0
  6
ByLayer
100
AcDbCircle
 10
369.7421326017346814
 20
305.4537870556185908
 30
0.0
 40
1.0
100
AcDbArc
 50
11.4124176886276896
 51
93.6168865175649785
  0
ARC
  5
12C
100
AcDbEntity
  8
0
 62
256
370
-1
 48
1.0
  6
ByLayer
100
AcDbCircle
 10
369.363624638401177
 20
311.4418361303768279
 30
0.0
 40
5.0
100
AcDbArc
 50
116.3831134824344815
 51
273.6168865175662859
  0
ARC
  5
12D
100
AcDbEntity
  8
0
 62
256
370
-1
 48
1.0
  6
ByLayer
100
AcDbCircle
 10
366.6973976128039112
 20
316.8168927298914923
 30
0.0
 40
1.0
100
AcDbArc
 50
296.3831134824358742
 51
18.5875823113706211
  0
ARC
  5
12E
100
AcDbEntity
  8
0
 62
256
370
-1
 48
1.0
  6
ByLayer
100
AcDbCircle
 10
277.6006711409395962
 20
286.854026845637577
 30
0.0
 40
94.9999999999997868
100
AcDbArc
 50
18.5875823113706211
 51
41.4124176886278832
  0
ARC
  5
12F
100
AcDbEntity
  8
0
 62
256
370
-1
 48
1.0
  6
ByLayer
100
AcDbCircle
 10
348.097637402823409
 20
349.0326224221768143
 30
0.0
 40
1.0
100
AcDbArc
 50
41.4124176886292972
 51
123.6168865175678917
  0
ARC
  5
130
100
AcDbEntity
  8
0
 62
256
370
-1
 48
1.0
  6
ByLayer
100
AcDbCircle
 10
344.7758153536618124
 20
354.0291710583592817
 30
0.0
 40
5.0
100
AcDbArc
 50
146.3831134824351921
 51
303.6168865175695259
  0
ARC
  5
131
100
AcDbEntity
  8
0
 62
256
370
-1
 48
1.0
  6
ByLayer
100
AcDbCircle
 10
339.7792667174805956
 20
357.3509931075195141
 30
0.0
 40
1.0
100
AcDbArc
 50
326.3831134824349078
 51
48.5875823113679601
  0
ARC
  5
132
100
AcDbEntity
  8
0
 62
256
370
-1
 48
1.0
  6
ByLayer
100
AcDbCircle
 10
277.6006711409395962
 20
286.854026845637577
 30
0.0
 40
94.9999999999996589
100
AcDbArc
 50
48.5875823113704897
 51
71.4124176886281532
  0
ARC
  5
133
100
AcDbEntity
  8
0
 62
256
370
-1
 48
1.0
  6
ByLayer
100
AcDbCircle
 10
307.5635370251953873
 20
375.9507533175013236
 30
0.0
 40
1.0
100
AcDbArc
 50
71.4124176886283237
 51
153.6168865175712313
  0
ARC
  5
134
100
AcDbEntity
  8
0
 62
256
370
-1
 48
1.0
  6
ByLayer
100
AcDbCircle
 10
302.1884804256791881
 20
378.6169803430988168
 30
0.0
 40
5.0
100
AcDbArc
 50
176.3831134824447133
 51
333.6168865175699239
  0
ARC
  5
135
100
AcDbEntity
  8
0
 62
256
370
-1
 48
1.0
  6
ByLayer
100
AcDbCircle
 10
296.2004313509277154
 20
378.9954883064307865
 30
0.0
 40
1.0
100
AcDbArc
 50
356.3831134824429228
 51
78.5875823113672283
  0
ARC
  5
136
100
AcDbEntity
  8
0
 62
256
370
-1
 48
1.0
  6
ByLayer
100
AcDbCircle
 10
277.6006711409395962
 20
286.854026845637577
 30
0.0
 40
94.9999999999996021
100
AcDbArc
 50
78.587582311366873
 51
101.4124176886322033
  0
ARC
  5
137
100
AcDbEntity
  8
0
 62
256
370
-1
 48
1.0
  6
ByLayer
100
AcDbCircle
 10
259.0009109309530118
 20
378.9954883064311844
 30
0.0
 40
1.0
100
AcDbArc
 50
101.412417688633397
 51
183.6168865175588962
  0
ARC
  5
138
100
AcDbEntity
  8
0
 62
256
370
-1
 48
1.0
  6
ByLayer
100
AcDbCircle
 10
253.0128618562002032
 20
378.6169803430988168
 30
0.0
 40
5.0
100
AcDbArc
 50
206.3831134824345099
 51
3.6168865175578788
  0
ARC
  5
139
100
AcDbEntity
  8
0
 62
256
370
-1
 48
1.0
  6
ByLayer
100
AcDbCircle
 10
247.6378052566855956
 20
375.9507533175016079
 30
0.0
 40
1.0
100
AcDbArc
 50
26.3831134824343785
 51
108.5875823113722021
  0
ARC
  5
13A
100
AcDbEntity
  8
0
 62
256
370
-1
 48
1.0
  6
ByLayer
100
AcDbCircle
 10
277.6006711409395962
 20
286.854026845637577
 30
0.0
 40
94.9999999999995595
100
AcDbArc
 50
108.587582311370781
 51
131.4124176886300006
  0
ARC
  5
13B
100
AcDbEntity
  8
0
 62
256
370
-1
 48
1.0
  6
ByLayer
100
AcDbCircle
 10
215.4220755643981136
 20
357.3509931075187751
 30
0.0
 40
1.0
100
AcDbArc
 50
131.4124176886301996
 51
213.616886517564069
  0
ARC
  5
13C
100
AcDbEntity
  8
0
 62
256
370
-1
 48
1.0
  6
ByLayer
100
AcDbCircle
 10
210.4255269282176926
 20
354.0291710583592817
 30
0.0
 40
5.0
100
AcDbArc
 50
236.3831134824363289
 51
33.6168865175633869
  0
ARC
  5
13D
100
AcDbEntity
  8
0
 62
256
370
-1
 48
1.0
  6
ByLayer
100
AcDbCircle
 10
207.1037048790589097
 20
349.0326224221798839
 30
0.0
 40
1.0
100
AcDbArc
 50
56.3831134824364284
 51
138.5875823113690331
  0
ARC
  5
13E
100
AcDbEntity
  8
0
 62
256
370
-1
 48
1.0
  6
ByLayer
100
AcDbCircle
 10
277.6006711409395962
 20
286.854026845637577
 30
0.0
 40
94.9999999999996589
100
AcDbArc
 50
138.5875823113694025
 51
161.4124176886319901
  0
ARC
  5
13F
100
AcDbEntity
  8
0
 62
256
370
-1
 48
1.0
  6
ByLayer
100
AcDbCircle
 10
188.5039446690742011
 20
316.8168927298873996
 30
0.0
 40
1.0
100
AcDbArc
 50
161.4124176886309101
 51
243.6168865175590952
  0
ARC
  5
140
100
AcDbEntity
  8
0
 62
256
370
-1
 48
1.0
  6
ByLayer
100
AcDbCircle
 10
185.8377176434781859
 20
311.4418361303768279
 30
0.0
 40
5.0
100
AcDbArc
 50
266.3831134824351921
 51
63.6168865175593794
  0
ARC
  5
141
100
AcDbEntity
  8
0
 62
256
370
-1
 48
1.0
  6
ByLayer
100
AcDbCircle
 10
185.4592096801449941
 20
305.4537870556214898
 30
0.0
 40
1.0
100
AcDbArc
 50
86.3831134824357179
 51
168.5875823113696867
  0
ARC
  5
142
100
AcDbEntity
  8
0
 62
256
370
-1
 48
1.0
  6
ByLayer
100
AcDbCircle
 10
277.6006711409395962
 20
286.854026845637577
 30
0.0
 40
94.9999999999997726
100
AcDbArc
 50
168.5875823113694878
 51
191.4124176886305975
  0
ARC
  5
143
100
AcDbEntity
  8
0
 62
256
370
-1
 48
1.0
  6
ByLayer
100
AcDbCircle
 10
185.4592096801451078
 20
268.2542666356534937
 30
0.0
 40
1.0
100
AcDbArc
 50
191.4124176886286932
 51
273.6168865175632732
  0
ARC
  5
144
100
AcDbEntity
  8
0
 62
256
370
-1
 48
1.0
  6
ByLayer
100
AcDbCircle
 10
185.8377176434781859
 20
262.2662175608979283
 30
0.0
 40
5.0
100
AcDbArc
 50
296.3831134824362721
 51
93.6168865175630884
  0
ARC
  5
145
100
AcDbEntity
  8
0
 62
256
370
-1
 48
1.0
  6
ByLayer
100
AcDbCircle
 10
188.503944669074798
 20
256.891160961385026
 30
0.0
 40
1.0
100
AcDbArc
 50
116.383113482437011
 51
198.5875823113726995
  0
ARC
  5
146
100
AcDbEntity
  8
0
 62
256
370
-1
 48
1.0
  6
ByLayer
100
AcDbCircle
 10
277.6006711409395962
 20
286.854026845637577
 30
0.0
 40
94.9999999999999147
100
AcDbArc
 50
198.5875823113698004
 51
221.4124176886298869
  0
ARC
  5
147
100
AcDbEntity
  8
0
 62
256
370
-1
 48
1.0
  6
ByLayer
100
AcDbCircle
 10
207.1037048790578865
 20
224.6754312690960091
 30
0.0
 40
1.0
100
AcDbArc
 50
221.4124176886311091
 51
303.6168865175645806
  0
ARC
  5
148
100
AcDbEntity
  8
0
 62
256
370
-1
 48
1.0
  6
ByLayer
100
AcDbCircle
 10
210.4255269282176926
 20
219.6788826329153892
 30
0.0
 40
5.0
100
AcDbArc
 50
326.3831134824366131
 51
123.6168865175647937
  0
ARC
  5
149
100
AcDbEntity
  8
0
 62
256
370
-1
 48
1.0
  6
ByLayer
100
AcDbCircle
 10
277.6006711409395962
 20
286.854026845637577
 30
0.0
 40
95.0000000000000284
100
AcDbArc
 50
228.5875823113696015
 51
251.4124176886298869
  0
ARC
  5
14A
100
AcDbEntity
  8
0
 62
256
370
-1
 48
1.0
  6
ByLayer
100
AcDbCircle
 10
215.422075564397403
 20
216.3570605837564074
 30
0.0
 40
1.0
100
AcDbArc
 50
146.3831134824368689
 51
228.587582311366333
  0
ARC
  5
14B
100
AcDbEntity
  8
0
 62
256
370
-1
 48
1.0
  6
ByLayer
100
AcDbCircle
 10
284.6021691880774824
 20
256.8603770994679962
 30
0.0
 40
1.0
100
AcDbArc
 50
283.1394204352919246
 51
14.9999999999975877
  0
LINE
  5
14C
100
AcDbEntity
100
AcDbLine
  8
0
 62
256
370
-1
 48
1.0
  6
ByLayer
 10
285.6198859518465838
 20
256.9259097345237137
 30
0.0
 11
285.5680950143665768
 21
257.1191961445704806
 31
0.0
  0
ARC
  5
14D
100
AcDbEntity
  8
0
 62
256
370
-1
 48
1.0
  6
ByLayer
100
AcDbCircle
 10
284.6539601255574894
 20
256.6670906894211726
 30
0.0
 40
1.0
100
AcDbArc
 50
14.9999999999975877
 51
103.1514283547720936
  0
ARC
  5
14E
100
AcDbEntity
  8
0
 62
256
370
-1
 48
1.0
  6
ByLayer
100
AcDbCircle
 10
277.6006711409395962
 20
286.854026845637577
 30
0.0
 40
30.0
100
AcDbArc
 50
291.8485716452286738
 51
283.1514283547713262
  0
ARC
  5
14F
100
AcDbEntity
  8
0
 62
256
370
-1
 48
1.0
  6
ByLayer
100
AcDbCircle
 10
289.1374703150675032
 20
258.0807360221015756
 30
0.0
 40
1.0
100
AcDbArc
 50
111.8485716452285033
 51
200.0000000000036948
  0
ARC
  5
150
100
AcDbEntity
  8
0
 62
256
370
-1
 48
1.0
  6
ByLayer
100
AcDbCircle
 10
277.6006711409395962
 20
286.854026845637577
 30
0.0
 40
31.8000000000000007
100
AcDbArc
 50
291.8605795647082459
 51
283.1394204352916972
  0
LINE
  5
151
100
AcDbEntity
100
AcDbLine
  8
0
 62
256
370
-1
 48
1.0
  6
ByLayer
 10
288.1977776942816263
 20
257.7387158787757926
 30
0.0
 11
288.1293378163248917
 21
257.9267528980520865
 31
0.0
  0
ARC
  5
152
100
AcDbEntity
  8
0
 62
256
370
-1
 48
1.0
  6
ByLayer
100
AcDbCircle
 10
289.0690304371108255
 20
258.2687730413778127
 30
0.0
 40
1.0
100
AcDbArc
 50
200.0000000000036948
 51
291.8605795647085301
  0
ARC
  5
153
100
AcDbEntity
  8
0
 62
256
370
-1
 48
1.0
  6
ByLayer
100
AcDbCircle
 10
277.6006711409394825
 20
286.854026845637577
 30
0.0
 40
95.0000000000001847
100
AcDbArc
 50
258.5876044591099117
 51
285.0000000000000568
  0
ARC
  5
154
100
AcDbEntity
  8
0
 62
256
370
-1
 48
1.0
  6
ByLayer
100
AcDbCircle
 10
301.9296613805765901
 20
196.0569991744650906
 30
0.0
 40
1.0
100
AcDbArc
 50
285.0000000000022169
 51
15.0000000000031619
  0
LINE
  5
155
100
AcDbEntity
100
AcDbLine
  8
0
 62
256
370
-1
 48
1.0
  6
ByLayer
 10
302.2578307797999742
 20
198.6959576082300032
 30
0.0
 11
302.8955872068656276
 21
196.3158182195676886
 31
0.0
  0
ARC
  5
156
100
AcDbEntity
  8
0
 62
256
370
-1
 48
1.0
  6
ByLayer
100
AcDbCircle
 10
302.1884804256791881
 20
195.091073348175911
 30
0.0
 40
5.0
100
AcDbArc
 50
26.3831134824356788
 51
75.0000000000055564
  0
ARC
  5
157
100
AcDbEntity
  8
0
 62
256
370
-1
 48
1.0
  6
ByLayer
100
AcDbCircle
 10
303.2237566060890117
 20
198.9547766533324875
 30
0.0
 40
1.0
100
AcDbArc
 50
75.0000000000053149
 51
195.0000000000023874
  0
ARC
  5
158
100
AcDbEntity
  8
0
 62
256
370
-1
 48
1.0
  6
ByLayer
100
AcDbCircle
 10
202.6006711409395962
 20
251.8540268456376054
 30
0.0
 40
5.0
100
AcDbArc
 50
180.0
 51
270.0
  0
LINE
  5
159
100
AcDbEntity
100
AcDbLine
  8
0
 62
256
370
-1
 48
1.0
  6
ByLayer
 10
202.6006711409395962
 20
246.8540268456376054
 30
0.0
 11
352.6006711409395962
 21
246.8540268456376054
 31
0.0
  0
ARC
  5
15A
100
AcDbEntity
  8
0
 62
256
370
-1
 48
1.0
  6
ByLayer
100
AcDbCircle
 10
352.6006711409395962
 20
251.8540268456374918
 30
0.0
 40
5.0
100
AcDbArc
 50
270.0
 51
0.0
  0
LINE
  5
15B
100
AcDbEntity
100
AcDbLine
  8
0
 62
256
370
-1
 48
1.0
  6
ByLayer
 10
357.6006711409395962
 20
251.8540268456374918
 30
0.0
 11
357.6006711409395962
 21
321.854026845637577
 31
0.0
  0
ARC
  5
15C
100
AcDbEntity
  8
0
 62
256
370
-1
 48
1.0
  6
ByLayer
100
AcDbCircle
 10
352.6006711409395962
 20
321.854026845637577
 30
0.0
 40
5.0
100
AcDbArc
 50
0.0
 51
90.0
  0
LINE
  5
15D
100
AcDbEntity
100
AcDbLine
  8
0
 62
256
370
-1
 48
1.0
  6
ByLayer
 10
202.6006711409395962
 20
326.854026845637577
 30
0.0
 11
352.6006711409395962
 21
326.854026845637577
 31
0.0
  0
LINE
  5
15E
100
AcDbEntity
100
AcDbLine
  8
0
 62
256
370
-1
 48
1.0
  6
ByLayer
 10
197.6006711409395962
 20
251.8540268456376054
 30
0.0
 11
197.6006711409395962
 21
321.854026845637577
 31
0.0
  0
ARC
  5
15F
100
AcDbEntity
  8
0
 62
256
370
-1
 48
1.0
  6
ByLayer
100
AcDbCircle
 10
202.6006711409395962
 20
321.854026845637577
 30
0.0
 40
5.0
100
AcDbArc
 50
90.0
 51
180.0
  0
ARC
  5
160
100
AcDbEntity
  8
0
 62
256
370
-1
 48
1.0
  6
ByLayer
100
AcDbCircle
 10
207.6006711409395962
 20
256.854026845637577
 30
0.0
 40
2.0
100
AcDbArc
 50
180.0
 51
270.0
  0
LINE
  5
161
100
AcDbEntity
100
AcDbLine
  8
0
 62
256
370
-1
 48
1.0
  6
ByLayer
 10
207.6006711409395962
 20
254.8540268456376054
 30
0.0
 11
240.6006711409395962
 21
254.8540268456376054
 31
0.0
  0
ARC
  5
162
100
AcDbEntity
  8
0
 62
256
370
-1
 48
1.0
  6
ByLayer
100
AcDbCircle
 10
240.6006711409395962
 20
256.854026845637577
 30
0.0
 40
2.0
100
AcDbArc
 50
270.0
 51
0.0
  0
LINE
  5
163
100
AcDbEntity
100
AcDbLine
  8
0
 62
256
370
-1
 48
1.0
  6
ByLayer
 10
242.6006711409395962
 20
256.854026845637577
 30
0.0
 11
242.6006711409395962
 21
297.854026845637577
 31
0.0
  0
ARC
  5
164
100
AcDbEntity
  8
0
 62
256
370
-1
 48
1.0
  6
ByLayer
100
AcDbCircle
 10
244.6006711409395962
 20
297.854026845637577
 30
0.0
 40
2.0
100
AcDbArc
 50
90.0
 51
180.0
  0
LINE
  5
165
100
AcDbEntity
100
AcDbLine
  8
0
 62
256
370
-1
 48
1.0
  6
ByLayer
 10
244.6006711409395962
 20
299.854026845637577
 30
0.0
 11
310.6006711409395962
 21
299.854026845637577
 31
0.0
  0
ARC
  5
166
100
AcDbEntity
  8
0
 62
256
370
-1
 48
1.0
  6
ByLayer
100
AcDbCircle
 10
310.6006711409395962
 20
297.854026845637577
 30
0.0
 40
2.0
100
AcDbArc
 50
0.0
 51
90.0
  0
LINE
  5
167
100
AcDbEntity
100
AcDbLine
  8
0
 62
256
370
-1
 48
1.0
  6
ByLayer
 10
312.6006711409395962
 20
256.854026845637577
 30
0.0
 11
312.6006711409395962
 21
297.854026845637577
 31
0.0
  0
ARC
  5
168
100
AcDbEntity
  8
0
 62
256
370
-1
 48
1.0
  6
ByLayer
100
AcDbCircle
 10
314.6006711409395962
 20
256.854026845637577
 30
0.0
 40
2.0
100
AcDbArc
 50
180.0
 51
270.0
  0
LINE
  5
169
100
AcDbEntity
100
AcDbLine
  8
0
 62
256
370
-1
 48
1.0
  6
ByLayer
 10
314.6006711409395962
 20
254.8540268456376054
 30
0.0
 11
347.6006711409395962
 21
254.8540268456376054
 31
0.0
  0
ARC
  5
16A
100
AcDbEntity
  8
0
 62
256
370
-1
 48
1.0
  6
ByLayer
100
AcDbCircle
 10
347.6006711409395962
 20
256.854026845637577
 30
0.0
 40
2.0
100
AcDbArc
 50
270.0
 51
0.0
  0
LINE
  5
16B
100
AcDbEntity
100
AcDbLine
  8
0
 62
256
370
-1
 48
1.0
  6
ByLayer
 10
349.6006711409395962
 20
256.854026845637577
 30
0.0
 11
349.6006711409395962
 21
316.854026845637577
 31
0.0
  0
ARC
  5
16C
100
AcDbEntity
  8
0
 62
256
370
-1
 48
1.0
  6
ByLayer
100
AcDbCircle
 10
347.6006711409395962
 20
316.854026845637577
 30
0.0
 40
2.0
100
AcDbArc
 50
0.0
 51
90.0
  0
LINE
  5
16D
100
AcDbEntity
100
AcDbLine
  8
0
 62
256
370
-1
 48
1.0
  6
ByLayer
 10
207.6006711409395962
 20
318.854026845637577
 30
0.0
 11
347.6006711409395962
 21
318.854026845637577
 31
0.0
  0
LINE
  5
16E
100
AcDbEntity
100
AcDbLine
  8
0
 62
256
370
-1
 48
1.0
  6
ByLayer
 10
205.6006711409395962
 20
256.854026845637577
 30
0.0
 11
205.6006711409395962
 21
316.854026845637577
 31
0.0
  0
ARC
  5
16F
100
AcDbEntity
  8
0
 62
256
370
-1
 48
1.0
  6
ByLayer
100
AcDbCircle
 10
207.6006711409395962
 20
316.854026845637577
 30
0.0
 40
2.0
100
AcDbArc
 50
90.0
 51
180.0
  0
ARC
  5
170
100
AcDbEntity
  8
0
 62
256
370
-1
 48
1.0
  6
ByLayer
100
AcDbCircle
 10
251.984924942049787
 20
291.104026845637577
 30
0.0
 40
1.0
100
AcDbArc
 50
90.0
 51
180.0
  0
LINE
  5
171
100
AcDbEntity
100
AcDbLine
  8
0
 62
256
370
-1
 48
1.0
  6
ByLayer
 10
251.984924942049787
 20
292.104026845637577
 30
0.0
 11
303.2164202886397106
 21
292.104026845637577
 31
0.0
  0
ARC
  5
172
100
AcDbEntity
  8
0
 62
256
370
-1
 48
1.0
  6
ByLayer
100
AcDbCircle
 10
303.2164202886397106
 20
291.104026845637577
 30
0.0
 40
1.0
100
AcDbArc
 50
0.0
 51
90.0
  0
LINE
  5
173
100
AcDbEntity
100
AcDbLine
  8
0
 62
256
370
-1
 48
1.0
  6
ByLayer
 10
304.2164202886397106
 20
282.604026845637577
 30
0.0
 11
304.2164202886397106
 21
291.104026845637577
 31
0.0
  0
ARC
  5
174
100
AcDbEntity
  8
0
 62
256
370
-1
 48
1.0
  6
ByLayer
100
AcDbCircle
 10
303.2164202886397106
 20
282.604026845637577
 30
0.0
 40
1.0
100
AcDbArc
 50
270.0
 51
0.0
  0
LINE
  5
175
100
AcDbEntity
100
AcDbLine
  8
0
 62
256
370
-1
 48
1.0
  6
ByLayer
 10
251.984924942049787
 20
281.604026845637577
 30
0.0
 11
303.2164202886397106
 21
281.604026845637577
 31
0.0
  0
LINE
  5
176
100
AcDbEntity
100
AcDbLine
  8
0
 62
256
370
-1
 48
1.0
  6
ByLayer
 10
250.984924942049787
 20
282.604026845637577
 30
0.0
 11
250.984924942049787
 21
291.104026845637577
 31
0.0
  0
ARC
  5
177
100
AcDbEntity
  8
0
 62
256
370
-1
 48
1.0
  6
ByLayer
100
AcDbCircle
 10
251.984924942049787
 20
282.604026845637577
 30
0.0
 40
1.0
100
AcDbArc
 50
180.0
 51
270.0
  0
ARC
  5
178
100
AcDbEntity
  8
0
 62
256
370
-1
 48
1.0
  6
ByLayer
100
AcDbCircle
 10
285.078568812024514
 20
194.6792723947027923
 30
0.0
 40
1.0
100
AcDbArc
 50
283.1394204352919246
 51
14.9999999999975877
  0
LINE
  5
179
100
AcDbEntity
100
AcDbLine
  8
0
 62
256
370
-1
 48
1.0
  6
ByLayer
 10
286.0962855757936154
 20
194.7448050297585098
 30
0.0
 11
286.0444946383136084
 21
194.9380914398051914
 31
0.0
  0
ARC
  5
17A
100
AcDbEntity
  8
0
 62
256
370
-1
 48
1.0
  6
ByLayer
100
AcDbCircle
 10
285.130359749504521
 20
194.4859859846559118
 30
0.0
 40
1.0
100
AcDbArc
 50
14.9999999999975877
 51
103.1514283547720936
  0
ARC
  5
17B
100
AcDbEntity
  8
0
 62
256
370
-1
 48
1.0
  6
ByLayer
100
AcDbCircle
 10
278.0770707648866278
 20
224.6729221408722879
 30
0.0
 40
30.0
100
AcDbArc
 50
291.8485716452286738
 51
283.1514283547713262
  0
ARC
  5
17C
100
AcDbEntity
  8
0
 62
256
370
-1
 48
1.0
  6
ByLayer
100
AcDbCircle
 10
289.6138699390144779
 20
195.8996313173362864
 30
0.0
 40
1.0
100
AcDbArc
 50
111.8485716452285033
 51
200.0000000000036948
  0
ARC
  5
17D
100
AcDbEntity
  8
0
 62
256
370
-1
 48
1.0
  6
ByLayer
100
AcDbCircle
 10
278.0770707648866278
 20
224.6729221408722879
 30
0.0
 40
31.8000000000000007
100
AcDbArc
 50
291.8605795647082459
 51
283.1394204352916972
  0
LINE
  5
17E
100
AcDbEntity
100
AcDbLine
  8
0
 62
256
370
-1
 48
1.0
  6
ByLayer
 10
288.6741773182286011
 20
195.5576111740105887
 30
0.0
 11
288.6057374402719233
 21
195.745648193286911
 31
0.0
  0
ARC
  5
17F
100
AcDbEntity
  8
0
 62
256
370
-1
 48
1.0
  6
ByLayer
100
AcDbCircle
 10
289.5454300610578002
 20
196.0876683366126088
 30
0.0
 40
1.0
100
AcDbArc
 50
200.0000000000036948
 51
291.8605795647085301
  0
ARC
  5
180
100
AcDbEntity
  8
0
 62
256
370
-1
 48
1.0
  6
ByLayer
100
AcDbCircle
 10
202.4079625628943973
 20
263.2774853435183786
 30
0.0
 40
5.0
100
AcDbArc
 50
180.0
 51
270.0
  0
LINE
  5
181
100
AcDbEntity
100
AcDbLine
  8
0
 62
256
370
-1
 48
1.0
  6
ByLayer
 10
202.4079625628943973
 20
258.2774853435183786
 30
0.0
 11
352.4079625628942836
 21
258.2774853435183786
 31
0.0
  0
ARC
  5
182
100
AcDbEntity
  8
0
 62
256
370
-1
 48
1.0
  6
ByLayer
100
AcDbCircle
 10
352.4079625628942836
 20
263.2774853435183218
 30
0.0
 40
5.0
100
AcDbArc
 50
270.0
 51
0.0
  0
LINE
  5
183
100
AcDbEntity
100
AcDbLine
  8
0
 62
256
370
-1
 48
1.0
  6
ByLayer
 10
357.4079625628942836
 20
263.2774853435183218
 30
0.0
 11
357.4079625628942836
 21
333.2774853435183786
 31
0.0
  0
ARC
  5
184
100
AcDbEntity
  8
0
 62
256
370
-1
 48
1.0
  6
ByLayer
100
AcDbCircle
 10
352.4079625628942836
 20
333.2774853435183786
 30
0.0
 40
5.0
100
AcDbArc
 50
0.0
 51
90.0
  0
LINE
  5
185
100
AcDbEntity
100
AcDbLine
  8
0
 62
256
370
-1
 48
1.0
  6
ByLayer
 10
202.4079625628943973
 20
338.2774853435183786
 30
0.0
 11
352.4079625628942836
 21
338.2774853435183786
 31
0.0
  0
LINE
  5
186
100
AcDbEntity
100
AcDbLine
  8
0
 62
256
370
-1
 48
1.0
  6
ByLayer
 10
197.4079625628943973
 20
263.2774853435183786
 30
0.0
 11
197.4079625628943973
 21
333.2774853435183786
 31
0.0
  0
ARC
  5
187
100
AcDbEntity
  8
0
 62
256
370
-1
 48
1.0
  6
ByLayer
100
AcDbCircle
 10
202.4079625628943973
 20
333.2774853435183786
 30
0.0
 40
5.0
100
AcDbArc
 50
90.0
 51
180.0
  0
ARC
  5
188
100
AcDbEntity
  8
0
 62
256
370
-1
 48
1.0
  6
ByLayer
100
AcDbCircle
 10
207.4079625628943973
 20
268.2774853435183786
 30
0.0
 40
2.0
100
AcDbArc
 50
180.0
 51
270.0
  0
LINE
  5
189
100
AcDbEntity
100
AcDbLine
  8
0
 62
256
370
-1
 48
1.0
  6
ByLayer
 10
207.4079625628943973
 20
266.2774853435183786
 30
0.0
 11
240.4079625628943973
 21
266.2774853435183786
 31
0.0
  0
ARC
  5
18A
100
AcDbEntity
  8
0
 62
256
370
-1
 48
1.0
  6
ByLayer
100
AcDbCircle
 10
240.4079625628943973
 20
268.2774853435183786
 30
0.0
 40
2.0
100
AcDbArc
 50
270.0
 51
0.0
  0
LINE
  5
18B
100
AcDbEntity
100
AcDbLine
  8
0
 62
256
370
-1
 48
1.0
  6
ByLayer
 10
242.4079625628943973
 20
268.2774853435183786
 30
0.0
 11
242.4079625628943973
 21
309.2774853435183786
 31
0.0
  0
ARC
  5
18C
100
AcDbEntity
  8
0
 62
256
370
-1
 48
1.0
  6
ByLayer
100
AcDbCircle
 10
244.4079625628943973
 20
309.2774853435183786
 30
0.0
 40
2.0
100
AcDbArc
 50
90.0
 51
180.0
  0
LINE
  5
18D
100
AcDbEntity
100
AcDbLine
  8
0
 62
256
370
-1
 48
1.0
  6
ByLayer
 10
244.4079625628943973
 20
311.2774853435183786
 30
0.0
 11
310.4079625628942836
 21
311.2774853435183786
 31
0.0
  0
ARC
  5
18E
100
AcDbEntity
  8
0
 62
256
370
-1
 48
1.0
  6
ByLayer
100
AcDbCircle
 10
310.4079625628942836
 20
309.2774853435183786
 30
0.0
 40
2.0
100
AcDbArc
 50
0.0
 51
90.0
  0
LINE
  5
18F
100
AcDbEntity
100
AcDbLine
  8
0
 62
256
370
-1
 48
1.0
  6
ByLayer
 10
312.4079625628942836
 20
268.2774853435183786
 30
0.0
 11
312.4079625628942836
 21
309.2774853435183786
 31
0.0
  0
ARC
  5
190
100
AcDbEntity
  8
0
 62
256
370
-1
 48
1.0
  6
ByLayer
100
AcDbCircle
 10
314.4079625628942836
 20
268.2774853435183786
 30
0.0
 40
2.0
100
AcDbArc
 50
180.0
 51
270.0
  0
LINE
  5
191
100
AcDbEntity
100
AcDbLine
  8
0
 62
256
370
-1
 48
1.0
  6
ByLayer
 10
314.4079625628942836
 20
266.2774853435183786
 30
0.0
 11
347.4079625628942836
 21
266.2774853435183786
 31
0.0
  0
ARC
  5
192
100
AcDbEntity
  8
0
 62
256
370
-1
 48
1.0
  6
ByLayer
100
AcDbCircle
 10
347.4079625628942836
 20
268.2774853435183786
 30
0.0
 40
2.0
100
AcDbArc
 50
270.0
 51
0.0
  0
LINE
  5
193
100
AcDbEntity
100
AcDbLine
  8
0
 62
256
370
-1
 48
1.0
  6
ByLayer
 10
349.4079625628942836
 20
268.2774853435183786
 30
0.0
 11
349.4079625628942836
 21
328.2774853435183786
 31
0.0
  0
ARC
  5
194
100
AcDbEntity
  8
0
 62
256
370
-1
 48
1.0
  6
ByLayer
100
AcDbCircle
 10
347.4079625628942836
 20
328.2774853435183786
 30
0.0
 40
2.0
100
AcDbArc
 50
0.0
 51
90.0
  0
LINE
  5
195
100
AcDbEntity
100
AcDbLine
  8
0
 62
256
370
-1
 48
1.0
  6
ByLayer
 10
207.4079625628943973
 20
330.2774853435183786
 30
0.0
 11
347.4079625628942836
 21
330.2774853435183786
 31
0.0
  0
LINE
  5
196
100
AcDbEntity
100
AcDbLine
  8
0
 62
256
370
-1
 48
1.0
  6
ByLayer
 10
205.4079625628943973
 20
268.2774853435183786
 30
0.0
 11
205.4079625628943973
 21
328.2774853435183786
 31
0.0
  0
ARC
  5
197
100
AcDbEntity
  8
0
 62
256
370
-1
 48
1.0
  6
ByLayer
100
AcDbCircle
 10
207.4079625628943973
 20
328.2774853435183786
 30
0.0
 40
2.0
100
AcDbArc
 50
90.0
 51
180.0
  0
ARC
  5
198
100
AcDbEntity
  8
0
 62
256
370
-1
 48
1.0
  6
ByLayer
100
AcDbCircle
 10
251.7922163640045881
 20
302.5274853435183786
 30
0.0
 40
1.0
100
AcDbArc
 50
90.0
 51
180.0
  0
LINE
  5
199
100
AcDbEntity
100
AcDbLine
  8
0
 62
256
370
-1
 48
1.0
  6
ByLayer
 10
251.7922163640045881
 20
303.5274853435183786
 30
0.0
 11
303.0237117105945117
 21
303.5274853435183786
 31
0.0
  0
ARC
  5
19A
100
AcDbEntity
  8
0
 62
256
370
-1
 48
1.0
  6
ByLayer
100
AcDbCircle
 10
303.0237117105945117
 20
302.5274853435183786
 30
0.0
 40
1.0
100
AcDbArc
 50
0.0
 51
90.0
  0
LINE
  5
19B
100
AcDbEntity
100
AcDbLine
  8
0
 62
256
370
-1
 48
1.0
  6
ByLayer
 10
304.0237117105945117
 20
294.0274853435183786
 30
0.0
 11
304.0237117105945117
 21
302.5274853435183786
 31
0.0
  0
ARC
  5
19C
100
AcDbEntity
  8
0
 62
256
370
-1
 48
1.0
  6
ByLayer
100
AcDbCircle
 10
303.0237117105945117
 20
294.0274853435183786
 30
0.0
 40
1.0
100
AcDbArc
 50
270.0
 51
0.0
  0
LINE
  5
19D
100
AcDbEntity
100
AcDbLine
  8
0
 62
256
370
-1
 48
1.0
  6
ByLayer
 10
251.7922163640045881
 20
293.0274853435183786
 30
0.0
 11
303.0237117105945117
 21
293.0274853435183786
 31
0.0
  0
LINE
  5
19E
100
AcDbEntity
100
AcDbLine
  8
0
 62
256
370
-1
 48
1.0
  6
ByLayer
 10
250.7922163640045881
 20
294.0274853435183786
 30
0.0
 11
250.7922163640045881
 21
302.5274853435183786
 31
0.0
  0
ARC
  5
19F
100
AcDbEntity
  8
0
 62
256
370
-1
 48
1.0
  6
ByLayer
100
AcDbCircle
 10
251.7922163640045881
 20
294.0274853435183786
 30
0.0
 40
1.0
100
AcDbArc
 50
180.0
 51
270.0
  0
ARC
  5
1A0
100
AcDbEntity
  8
Base Main
 62
256
370
-1
 48
1.0
  6
ByLayer
100
AcDbCircle
 10
289.8162686179061893
 20
4.0741392262890486
 30
0.0
 40
5.0
100
AcDbArc
 50
180.0
 51
270.0
  0
ARC
  5
1A1
100
AcDbEntity
  8
Base Main
 62
256
370
-1
 48
1.0
  6
ByLayer
100
AcDbCircle
 10
439.8162686179061893
 20
4.0741392262889349
 30
0.0
 40
5.0
100
AcDbArc
 50
270.0
 51
0.0
  0
LINE
  5
1A2
100
AcDbEntity
100
AcDbLine
  8
Base Main
 62
256
370
-1
 48
1.0
  6
ByLayer
 10
444.8162686179061893
 20
4.0741392262889349
 30
0.0
 11
444.8162686179061893
 21
74.0741392262889917
 31
0.0
  0
ARC
  5
1A3
100
AcDbEntity
  8
Base Main
 62
256
370
-1
 48
1.0
  6
ByLayer
100
AcDbCircle
 10
439.8162686179061893
 20
74.0741392262889917
 30
0.0
 40
5.0
100
AcDbArc
 50
0.0
 51
90.0
  0
LINE
  5
1A4
100
AcDbEntity
100
AcDbLine
  8
Base Main
 62
256
370
-1
 48
1.0
  6
ByLayer
 10
289.8162686179061893
 20
79.0741392262889917
 30
0.0
 11
439.8162686179061893
 21
79.0741392262889917
 31
0.0
  0
LINE
  5
1A5
100
AcDbEntity
100
AcDbLine
  8
Base Main
 62
256
370
-1
 48
1.0
  6
ByLayer
 10
284.8162686179061893
 20
4.0741392262890486
 30
0.0
 11
284.8162686179061893
 21
74.0741392262889917
 31
0.0
  0
ARC
  5
1A6
100
AcDbEntity
  8
Base Main
 62
256
370
-1
 48
1.0
  6
ByLayer
100
AcDbCircle
 10
289.8162686179061893
 20
74.0741392262889917
 30
0.0
 40
5.0
100
AcDbArc
 50
90.0
 51
180.0
  0
ARC
  5
1A7
100
AcDbEntity
  8
Base Main
 62
256
370
-1
 48
1.0
  6
ByLayer
100
AcDbCircle
 10
294.8162686179061893
 20
9.0741392262889917
 30
0.0
 40
2.0
100
AcDbArc
 50
180.0
 51
270.0
  0
LINE
  5
1A8
100
AcDbEntity
100
AcDbLine
  8
Base Main
 62
256
370
-1
 48
1.0
  6
ByLayer
 10
294.8162686179061893
 20
7.0741392262890486
 30
0.0
 11
327.8162686179061893
 21
7.0741392262890486
 31
0.0
  0
ARC
  5
1A9
100
AcDbEntity
  8
Base Main
 62
256
370
-1
 48
1.0
  6
ByLayer
100
AcDbCircle
 10
327.8162686179061893
 20
9.0741392262889917
 30
0.0
 40
2.0
100
AcDbArc
 50
270.0
 51
0.0
  0
LINE
  5
1AA
100
AcDbEntity
100
AcDbLine
  8
Base Main
 62
256
370
-1
 48
1.0
  6
ByLayer
 10
329.8162686179061893
 20
9.0741392262889917
 30
0.0
 11
329.8162686179061893
 21
50.0741392262889917
 31
0.0
  0
ARC
  5
1AB
100
AcDbEntity
  8
Base Main
 62
256
370
-1
 48
1.0
  6
ByLayer
100
AcDbCircle
 10
331.8162686179061893
 20
50.0741392262889917
 30
0.0
 40
2.0
100
AcDbArc
 50
90.0
 51
180.0
  0
LINE
  5
1AC
100
AcDbEntity
100
AcDbLine
  8
Base Main
 62
256
370
-1
 48
1.0
  6
ByLayer
 10
331.8162686179061893
 20
52.0741392262889917
 30
0.0
 11
397.8162686179061893
 21
52.0741392262889917
 31
0.0
  0
ARC
  5
1AD
100
AcDbEntity
  8
Base Main
 62
256
370
-1
 48
1.0
  6
ByLayer
100
AcDbCircle
 10
397.8162686179061893
 20
50.0741392262889917
 30
0.0
 40
2.0
100
AcDbArc
 50
0.0
 51
90.0
  0
LINE
  5
1AE
100
AcDbEntity
100
AcDbLine
  8
Base Main
 62
256
370
-1
 48
1.0
  6
ByLayer
 10
399.8162686179061893
 20
9.0741392262889917
 30
0.0
 11
399.8162686179061893
 21
50.0741392262889917
 31
0.0
  0
ARC
  5
1AF
100
AcDbEntity
  8
Base Main
 62
256
370
-1
 48
1.0
  6
ByLayer
100
AcDbCircle
 10
401.8162686179061893
 20
9.0741392262889917
 30
0.0
 40
2.0
100
AcDbArc
 50
180.0
 51
270.0
  0
LINE
  5
1B0
100
AcDbEntity
100
AcDbLine
  8
Base Main
 62
256
370
-1
 48
1.0
  6
ByLayer
 10
401.8162686179061893
 20
7.0741392262890486
 30
0.0
 11
434.8162686179061893
 21
7.0741392262890486
 31
0.0
  0
ARC
  5
1B1
100
AcDbEntity
  8
Base Main
 62
256
370
-1
 48
1.0
  6
ByLayer
100
AcDbCircle
 10
434.8162686179061893
 20
9.0741392262889917
 30
0.0
 40
2.0
100
AcDbArc
 50
270.0
 51
0.0
  0
LINE
  5
1B2
100
AcDbEntity
100
AcDbLine
  8
Base Main
 62
256
370
-1
 48
1.0
  6
ByLayer
 10
436.8162686179061893
 20
9.0741392262889917
 30
0.0
 11
436.8162686179061893
 21
69.0741392262889917
 31
0.0
  0
ARC
  5
1B3
100
AcDbEntity
  8
Base Main
 62
256
370
-1
 48
1.0
  6
ByLayer
100
AcDbCircle
 10
434.8162686179061893
 20
69.0741392262889917
 30
0.0
 40
2.0
100
AcDbArc
 50
0.0
 51
90.0
  0
LINE
  5
1B4
100
AcDbEntity
100
AcDbLine
  8
Base Main
 62
256
370
-1
 48
1.0
  6
ByLayer
 10
294.8162686179061893
 20
71.0741392262889917
 30
0.0
 11
434.8162686179061893
 21
71.0741392262889917
 31
0.0
  0
LINE
  5
1B5
100
AcDbEntity
100
AcDbLine
  8
Base Main
 62
256
370
-1
 48
1.0
  6
ByLayer
 10
292.8162686179061893
 20
9.0741392262889917
 30
0.0
 11
292.8162686179061893
 21
69.0741392262889917
 31
0.0
  0
ARC
  5
1B6
100
AcDbEntity
  8
Base Main
 62
256
370
-1
 48
1.0
  6
ByLayer
100
AcDbCircle
 10
294.8162686179061893
 20
69.0741392262889917
 30
0.0
 40
2.0
100
AcDbArc
 50
90.0
 51
180.0
  0
ARC
  5
1B7
100
AcDbEntity
  8
Base Main
 62
256
370
-1
 48
1.0
  6
ByLayer
100
AcDbCircle
 10
339.2005224190163517
 20
43.3241392262889917
 30
0.0
 40
1.0
100
AcDbArc
 50
90.0
 51
180.0
  0
LINE
  5
1B8
100
AcDbEntity
100
AcDbLine
  8
Base Main
 62
256
370
-1
 48
1.0
  6
ByLayer
 10
339.2005224190163517
 20
44.3241392262889917
 30
0.0
 11
390.4320177656063038
 21
44.3241392262889917
 31
0.0
  0
ARC
  5
1B9
100
AcDbEntity
  8
Base Main
 62
256
370
-1
 48
1.0
  6
ByLayer
100
AcDbCircle
 10
390.4320177656063038
 20
43.3241392262889917
 30
0.0
 40
1.0
100
AcDbArc
 50
0.0
 51
90.0
  0
LINE
  5
1BA
100
AcDbEntity
100
AcDbLine
  8
Base Main
 62
256
370
-1
 48
1.0
  6
ByLayer
 10
391.4320177656063038
 20
34.8241392262889917
 30
0.0
 11
391.4320177656063038
 21
43.3241392262889917
 31
0.0
  0
ARC
  5
1BB
100
AcDbEntity
  8
Base Main
 62
256
370
-1
 48
1.0
  6
ByLayer
100
AcDbCircle
 10
390.4320177656063038
 20
34.8241392262889917
 30
0.0
 40
1.0
100
AcDbArc
 50
270.0
 51
0.0
  0
LINE
  5
1BC
100
AcDbEntity
100
AcDbLine
  8
Base Main
 62
256
370
-1
 48
1.0
  6
ByLayer
 10
339.2005224190163517
 20
33.8241392262889917
 30
0.0
 11
390.4320177656063038
 21
33.8241392262889917
 31
0.0
  0
LINE
  5
1BD
100
AcDbEntity
100
AcDbLine
  8
Base Main
 62
256
370
-1
 48
1.0
  6
ByLayer
 10
338.2005224190163517
 20
34.8241392262889917
 30
0.0
 11
338.2005224190163517
 21
43.3241392262889917
 31
0.0
  0
ARC
  5
1BE
100
AcDbEntity
  8
Base Main
 62
256
370
-1
 48
1.0
  6
ByLayer
100
AcDbCircle
 10
339.2005224190163517
 20
34.8241392262889917
 30
0.0
 40
1.0
100
AcDbArc
 50
180.0
 51
270.0
  0
LINE
  5
1BF
100
AcDbEntity
100
AcDbLine
  8
Centre
 62
256
370
-1
 48
1.0
  6
ByLayer
 10
331.1006711409395962
 20
56.4242720044102626
 30
0.0
 11
331.1006711409395962
 21
136.4242720044103123
 31
0.0
  0
LINE
  5
1C0
100
AcDbEntity
100
AcDbLine
  8
Base Main
 62
256
370
-1
 48
1.0
  6
ByLayer
 10
289.8162686179061893
 20
-0.9258607737109514
 30
0.0
 11
411.3162686179061893
 21
-0.9258607737109514
 31
0.0
  0
ARC
  5
1C1
100
AcDbEntity
  8
Base Main
 62
256
370
-1
 48
1.0
  6
ByLayer
100
AcDbCircle
 10
411.3162686179061893
 20
0.0741392262890628
 30
0.0
 40
1.0
100
AcDbArc
 50
270.0
 51
0.0
  0
LINE
  5
1C2
100
AcDbEntity
100
AcDbLine
  8
Base Main
 62
256
370
-1
 48
1.0
  6
ByLayer
 10
412.3162686179061893
 20
0.0741392262890628
 30
0.0
 11
412.3162686179061893
 21
3.0741392262890628
 31
0.0
  0
ARC
  5
1C3
100
AcDbEntity
  8
Base Main
 62
256
370
-1
 48
1.0
  6
ByLayer
100
AcDbCircle
 10
413.3162686179061893
 20
3.0741392262890628
 30
0.0
 40
1.0
100
AcDbArc
 50
90.0
 51
180.0
  0
LINE
  5
1C4
100
AcDbEntity
100
AcDbLine
  8
Base Main
 62
256
370
-1
 48
1.0
  6
ByLayer
 10
413.3162686179061893
 20
4.0741392262890486
 30
0.0
 11
423.3162686179061893
 21
4.0741392262890486
 31
0.0
  0
ARC
  5
1C5
100
AcDbEntity
  8
Base Main
 62
256
370
-1
 48
1.0
  6
ByLayer
100
AcDbCircle
 10
423.3162686179061893
 20
3.0741392262890486
 30
0.0
 40
1.0
100
AcDbArc
 50
0.0
 51
90.0
  0
LINE
  5
1C6
100
AcDbEntity
100
AcDbLine
  8
Base Main
 62
256
370
-1
 48
1.0
  6
ByLayer
 10
424.3162686179061893
 20
0.0741392262890486
 30
0.0
 11
424.3162686179061893
 21
3.0741392262890486
 31
0.0
  0
LINE
  5
1C7
100
AcDbEntity
100
AcDbLine
  8
Base Main
 62
256
370
-1
 48
1.0
  6
ByLayer
 10
439.8162686179061893
 20
-0.9258607737110651
 30
0.0
 11
425.3162686179061893
 21
-0.9258607737109656
 31
0.0
  0
ARC
  5
1C8
100
AcDbEntity
  8
Base Main
 62
256
370
-1
 48
1.0
  6
ByLayer
100
AcDbCircle
 10
425.3162686179061893
 20
0.0741392262890486
 30
0.0
 40
1.0
100
AcDbArc
 50
180.0
 51
270.0
  0
ARC
  5
1C9
100
AcDbEntity
  8
Base Floor
 62
256
370
-1
 48
1.0
  6
ByLayer
100
AcDbCircle
 10
290.5616870399597929
 20
-132.3258938868285668
 30
0.0
 40
5.0
100
AcDbArc
 50
180.0
 51
270.0
  0
ARC
  5
1CA
100
AcDbEntity
  8
Base Floor
 62
256
370
-1
 48
1.0
  6
ByLayer
100
AcDbCircle
 10
440.5616870399597929
 20
-132.3258938868286805
 30
0.0
 40
5.0
100
AcDbArc
 50
270.0
 51
0.0
  0
LINE
  5
1CB
100
AcDbEntity
100
AcDbLine
  8
Base Floor
 62
256
370
-1
 48
1.0
  6
ByLayer
 10
445.5616870399597929
 20
-132.3258938868286805
 30
0.0
 11
445.5616870399597929
 21
-62.3258938868286236
 31
0.0
  0
ARC
  5
1CC
100
AcDbEntity
  8
Base Floor
 62
256
370
-1
 48
1.0
  6
ByLayer
100
AcDbCircle
 10
440.5616870399597929
 20
-62.3258938868286236
 30
0.0
 40
5.0
100
AcDbArc
 50
0.0
 51
90.0
  0
LINE
  5
1CD
100
AcDbEntity
100
AcDbLine
  8
Base Floor
 62
256
370
-1
 48
1.0
  6
ByLayer
 10
290.5616870399597929
 20
-57.3258938868286236
 30
0.0
 11
440.5616870399597929
 21
-57.3258938868286236
 31
0.0
  0
LINE
  5
1CE
100
AcDbEntity
100
AcDbLine
  8
Base Floor
 62
256
370
-1
 48
1.0
  6
ByLayer
 10
285.5616870399597929
 20
-132.3258938868285668
 30
0.0
 11
285.5616870399597929
 21
-62.3258938868286236
 31
0.0
  0
ARC
  5
1CF
100
AcDbEntity
  8
Base Floor
 62
256
370
-1
 48
1.0
  6
ByLayer
100
AcDbCircle
 10
290.5616870399597929
 20
-62.3258938868286236
 30
0.0
 40
5.0
100
AcDbArc
 50
90.0
 51
180.0
  0
LINE
  5
1D0
100
AcDbEntity
100
AcDbLine
  8
Base Floor
 62
256
370
-1
 48
1.0
  6
ByLayer
 10
290.5616870399597929
 20
-137.3258938868285668
 30
0.0
 11
440.5616870399597929
 21
-137.3258938868286805
 31
0.0
  0
ARC
  5
1D1
100
AcDbEntity
  8
Base Top
 62
256
370
-1
 48
1.0
  6
ByLayer
100
AcDbCircle
 10
340.1333636553572433
 20
-186.9947687251050752
 30
0.0
 40
1.0
100
AcDbArc
 50
90.0
 51
180.0
  0
LINE
  5
1D2
100
AcDbEntity
100
AcDbLine
  8
Base Top
 62
256
370
-1
 48
1.0
  6
ByLayer
 10
340.1333636553572433
 20
-185.9947687251050752
 30
0.0
 11
391.3648590019471385
 21
-185.9947687251050752
 31
0.0
  0
ARC
  5
1D3
100
AcDbEntity
  8
Base Top
 62
256
370
-1
 48
1.0
  6
ByLayer
100
AcDbCircle
 10
391.3648590019471385
 20
-186.9947687251050752
 30
0.0
 40
1.0
100
AcDbArc
 50
0.0
 51
90.0
  0
LINE
  5
1D4
100
AcDbEntity
100
AcDbLine
  8
Base Top
 62
256
370
-1
 48
1.0
  6
ByLayer
 10
392.3648590019471385
 20
-195.4947687251050752
 30
0.0
 11
392.3648590019471385
 21
-186.9947687251050752
 31
0.0
  0
ARC
  5
1D5
100
AcDbEntity
  8
Base Top
 62
256
370
-1
 48
1.0
  6
ByLayer
100
AcDbCircle
 10
391.3648590019471385
 20
-195.4947687251050752
 30
0.0
 40
1.0
100
AcDbArc
 50
270.0
 51
0.0
  0
LINE
  5
1D6
100
AcDbEntity
100
AcDbLine
  8
Base Top
 62
256
370
-1
 48
1.0
  6
ByLayer
 10
340.1333636553572433
 20
-196.4947687251050752
 30
0.0
 11
391.3648590019471385
 21
-196.4947687251050752
 31
0.0
  0
LINE
  5
1D7
100
AcDbEntity
100
AcDbLine
  8
Base Top
 62
256
370
-1
 48
1.0
  6
ByLayer
 10
339.1333636553572433
 20
-195.4947687251050752
 30
0.0
 11
339.1333636553572433
 21
-186.9947687251050752
 31
0.0
  0
ARC
  5
1D8
100
AcDbEntity
  8
Base Top
 62
256
370
-1
 48
1.0
  6
ByLayer
100
AcDbCircle
 10
340.1333636553572433
 20
-195.4947687251050752
 30
0.0
 40
1.0
100
AcDbArc
 50
180.0
 51
270.0
  0
ARC
  5
1D9
100
AcDbEntity
  8
Base Top
 62
256
370
-1
 48
1.0
  6
ByLayer
100
AcDbCircle
 10
290.749109854247024
 20
-226.2447687251050183
 30
0.0
 40
5.0
100
AcDbArc
 50
180.0
 51
270.0
  0
ARC
  5
1DA
100
AcDbEntity
  8
Base Top
 62
256
370
-1
 48
1.0
  6
ByLayer
100
AcDbCircle
 10
440.749109854247024
 20
-226.244768725105132
 30
0.0
 40
5.0
100
AcDbArc
 50
270.0
 51
0.0
  0
LINE
  5
1DB
100
AcDbEntity
100
AcDbLine
  8
Base Top
 62
256
370
-1
 48
1.0
  6
ByLayer
 10
445.749109854247024
 20
-226.244768725105132
 30
0.0
 11
445.749109854247024
 21
-156.2447687251050752
 31
0.0
  0
ARC
  5
1DC
100
AcDbEntity
  8
Base Top
 62
256
370
-1
 48
1.0
  6
ByLayer
100
AcDbCircle
 10
440.749109854247024
 20
-156.2447687251050752
 30
0.0
 40
5.0
100
AcDbArc
 50
0.0
 51
90.0
  0
LINE
  5
1DD
100
AcDbEntity
100
AcDbLine
  8
Base Top
 62
256
370
-1
 48
1.0
  6
ByLayer
 10
290.749109854247024
 20
-151.2447687251050752
 30
0.0
 11
440.749109854247024
 21
-151.2447687251050752
 31
0.0
  0
LINE
  5
1DE
100
AcDbEntity
100
AcDbLine
  8
Base Top
 62
256
370
-1
 48
1.0
  6
ByLayer
 10
285.749109854247024
 20
-226.2447687251050183
 30
0.0
 11
285.749109854247024
 21
-156.2447687251050752
 31
0.0
  0
ARC
  5
1DF
100
AcDbEntity
  8
Base Top
 62
256
370
-1
 48
1.0
  6
ByLayer
100
AcDbCircle
 10
290.749109854247024
 20
-156.2447687251050752
 30
0.0
 40
5.0
100
AcDbArc
 50
90.0
 51
180.0
  0
LINE
  5
1E0
100
AcDbEntity
100
AcDbLine
  8
Base Top
 62
256
370
-1
 48
1.0
  6
ByLayer
 10
290.749109854247024
 20
-231.2447687251050183
 30
0.0
 11
440.749109854247024
 21
-231.244768725105132
 31
0.0
  0
ARC
  5
1E1
100
AcDbEntity
  8
Middle
 62
256
370
-1
 48
1.0
  6
ByLayer
100
AcDbCircle
 10
-46.6464608131504406
 20
71.3995158343190042
 30
0.0
 40
1.0
100
AcDbArc
 50
275.4831176361200278
 51
359.1565624198520936
  0
ARC
  5
1E2
100
AcDbEntity
  8
Middle
 62
256
370
-1
 48
1.0
  6
ByLayer
100
AcDbCircle
 10
-44.6453003673512967
 20
71.4636196593688737
 30
0.0
 40
1.0
100
AcDbArc
 50
109.9660177702029955
 51
179.1565624198520936
  0
ARC
  5
1E3
100
AcDbEntity
  8
Middle
 62
256
370
-1
 48
1.0
  6
ByLayer
100
AcDbCircle
 10
-33.3770296232907526
 20
40.4470744868562804
 30
0.0
 40
34.0
100
AcDbArc
 50
100.3751996260165953
 51
109.9660177702019013
  0
ARC
  5
1E4
100
AcDbEntity
  8
Middle
 62
256
370
-1
 48
1.0
  6
ByLayer
100
AcDbCircle
 10
-39.320111533890497
 20
72.9075085166707026
 30
0.0
 40
1.0
100
AcDbArc
 50
31.0121785049967116
 51
100.3751996260176043
  0
ARC
  5
1E5
100
AcDbEntity
  8
Middle
 62
256
370
-1
 48
1.0
  6
ByLayer
100
AcDbCircle
 10
-49.3697056966258288
 20
99.769111131126067
 30
0.0
 40
29.5
100
AcDbArc
 50
294.511638035875194
 51
275.4831176361200278
  0
ARC
  5
1E6
100
AcDbEntity
  8
Middle
 62
256
370
-1
 48
1.0
  6
ByLayer
100
AcDbCircle
 10
-37.5456807787498974
 20
73.8376160962951076
 30
0.0
 40
1.0
100
AcDbArc
 50
211.0121785049977916
 51
294.5116380358750234
  0
CIRCLE
  5
1E7
100
AcDbEntity
100
AcDbCircle
  8
Base Floor
 62
256
370
-1
 48
1.0
  6
ByLayer
 10
440.5616870399597929
 20
-62.3258938868286236
 30
0.0
 40
1.0
  0
CIRCLE
  5
1E8
100
AcDbEntity
100
AcDbCircle
  8
Base Floor
 62
256
370
-1
 48
1.0
  6
ByLayer
 10
440.5616870399597929
 20
-132.3258938868286805
 30
0.0
 40
1.0
  0
CIRCLE
  5
1E9
100
AcDbEntity
100
AcDbCircle
  8
Base Floor
 62
256
370
-1
 48
1.0
  6
ByLayer
 10
290.5616870399597929
 20
-132.3258938868285668
 30
0.0
 40
1.0
  0
CIRCLE
  5
1EA
100
AcDbEntity
100
AcDbCircle
  8
Base Floor
 62
256
370
-1
 48
1.0
  6
ByLayer
 10
290.5616870399597929
 20
-62.3258938868286236
 30
0.0
 40
1.0
  0
ENDSEC
  0
SECTION
  2
OBJECTS
  0
DICTIONARY
  5
C
100
AcDbDictionary
280
0
281
1
  3
ACAD_GROUP
350
D
  3
ACAD_LAYOUT
350
1A
  3
ACAD_MLINESTYLE
350
17
  3
ACAD_PLOTSETTINGS
350
19
  3
ACAD_PLOTSTYLENAME
350
E
  3
AcDbVariableDictionary
350
1EB
  3
QCAD_OBJECTS
350
1EC
  0
DICTIONARY
  5
D
100
AcDbDictionary
280
0
281
1
  0
ACDBDICTIONARYWDFLT
  5
E
100
AcDbDictionary
281
1
  3
Normal
350
F
100
AcDbDictionaryWithDefault
340
F
  0
ACDBPLACEHOLDER
  5
F
  0
DICTIONARY
  5
17
100
AcDbDictionary
280
0
281
1
  3
Standard
350
18
  0
MLINESTYLE
  5
18
100
AcDbMlineStyle
  2
STANDARD
 70
0
  3

 62
256
 51
90.0
 52
90.0
 71
2
 49
0.5
 62
256
  6
BYLAYER
 49
-0.5
 62
256
  6
BYLAYER
  0
DICTIONARY
  5
19
100
AcDbDictionary
280
0
281
1
  0
DICTIONARY
  5
1A
100
AcDbDictionary
281
1
  3
Layout1
350
1E
  3
Layout2
350
26
  3
Model
350
22
  0
LAYOUT
  5
1E
100
AcDbPlotSettings
  1

  2
none_device
  4

  6

 40
0.0
 41
0.0
 42
0.0
 43
0.0
 44
0.0
 45
0.0
 46
0.0
 47
0.0
 48
0.0
 49
0.0
140
0.0
141
0.0
142
1.0
143
1.0
 70
688
 72
0
 73
0
 74
5
  7

 75
16
147
1.0
148
0.0
149
0.0
100
AcDbLayout
  1
Layout1
 70
1
 71
1
 10
0.0
 20
0.0
 11
420.0
 21
297.0
 12
0.0
 22
0.0
 32
0.0
 14
100000000000000000000.0
 24
100000000000000000000.0
 34
100000000000000000000.0
 15
-100000000000000000000.0
 25
-100000000000000000000.0
 35
-100000000000000000000.0
146
0.0
 13
0.0
 23
0.0
 33
0.0
 16
1.0
 26
0.0
 36
0.0
 17
0.0
 27
1.0
 37
0.0
 76
0
330
1B
  0
LAYOUT
  5
22
100
AcDbPlotSettings
  1

  2
none_device
  4

  6

 40
0.0
 41
0.0
 42
0.0
 43
0.0
 44
0.0
 45
0.0
 46
0.0
 47
0.0
 48
0.0
 49
0.0
140
0.0
141
0.0
142
1.0
143
1.0
 70
1712
 72
0
 73
0
 74
0
  7

 75
0
147
1.0
148
0.0
149
0.0
100
AcDbLayout
  1
Model
 70
1
 71
0
 10
0.0
 20
0.0
 11
12.0
 21
9.0
 12
0.0
 22
0.0
 32
0.0
 14
0.0
 24
0.0
 34
0.0
 15
0.0
 25
0.0
 35
0.0
146
0.0
 13
0.0
 23
0.0
 33
0.0
 16
1.0
 26
0.0
 36
0.0
 17
0.0
 27
1.0
 37
0.0
 76
0
330
1F
  0
LAYOUT
  5
26
100
AcDbPlotSettings
  1

  2
none_device
  4

  6

 40
0.0
 41
0.0
 42
0.0
 43
0.0
 44
0.0
 45
0.0
 46
0.0
 47
0.0
 48
0.0
 49
0.0
140
0.0
141
0.0
142
1.0
143
1.0
 70
688
 72
0
 73
0
 74
5
  7

 75
16
147
1.0
148
0.0
149
0.0
100
AcDbLayout
  1
Layout2
 70
1
 71
2
 10
0.0
 20
0.0
 11
12.0
 21
9.0
 12
0.0
 22
0.0
 32
0.0
 14
0.0
 24
0.0
 34
0.0
 15
0.0
 25
0.0
 35
0.0
146
0.0
 13
0.0
 23
0.0
 33
0.0
 16
1.0
 26
0.0
 36
0.0
 17
0.0
 27
1.0
 37
0.0
 76
0
330
23
  0
DICTIONARY
  5
1EB
100
AcDbDictionary
281
1
  3
DIMASSOC
350
1EE
  3
HIDETEXT
350
1ED
  0
DICTIONARYVAR
  5
1ED
100
DictionaryVariables
280
0
  1
2
  0
DICTIONARYVAR
  5
1EE
100
DictionaryVariables
280
0
  1
1
  0
DICTIONARY
  5
1EC
100
AcDbDictionary
281
1
  3
ColorSettings/BackgroundColor
350
1EF
  3
ColorSettings/ColorMode
350
1F0
  3
Grid/DisplayGrid00
350
1F1
  3
Grid/DisplayGrid01
350
1F2
  3
Grid/DisplayGrid02
350
1F3
  3
Grid/DisplayGrid03
350
1F4
  3
Grid/GridSpacingX00
350
1F5
  3
Grid/GridSpacingX01
350
1F6
  3
Grid/GridSpacingX02
350
1F7
  3
Grid/GridSpacingX03
350
1F8
  3
Grid/GridSpacingY00
350
1F9
  3
Grid/GridSpacingY01
350
1FA
  3
Grid/GridSpacingY02
350
1FB
  3
Grid/GridSpacingY03
350
1FC
  3
Grid/IsometricGrid00
350
1FD
  3
Grid/IsometricGrid01
350
1FE
  3
Grid/IsometricGrid02
350
1FF
  3
Grid/IsometricGrid03
350
200
  3
Grid/IsometricProjection00
350
201
  3
Grid/IsometricProjection01
350
202
  3
Grid/IsometricProjection02
350
203
  3
Grid/IsometricProjection03
350
204
  3
Grid/MetaGridSpacingX00
350
205
  3
Grid/MetaGridSpacingX01
350
206
  3
Grid/MetaGridSpacingX02
350
207
  3
Grid/MetaGridSpacingX03
350
208
  3
Grid/MetaGridSpacingY00
350
209
  3
Grid/MetaGridSpacingY01
350
20A
  3
Grid/MetaGridSpacingY02
350
20B
  3
Grid/MetaGridSpacingY03
350
20C
  3
MultiPageSettings/Columns
350
20D
  3
MultiPageSettings/GlueMarginsBottom
350
20E
  3
MultiPageSettings/GlueMarginsLeft
350
20F
  3
MultiPageSettings/GlueMarginsRight
350
210
  3
MultiPageSettings/GlueMarginsTop
350
211
  3
MultiPageSettings/PrintCropMarks
350
212
  3
MultiPageSettings/Rows
350
213
  3
PageSettings/OffsetX
350
214
  3
PageSettings/OffsetY
350
215
  3
PageSettings/PageOrientation
350
216
  3
PageSettings/PaperHeight
350
217
  3
PageSettings/PaperWidth
350
218
  3
PageSettings/Scale
350
219
  3
PageSettings/ShowPaperBorders
350
21A
  3
QCADVersion
350
21B
  3
UnitSettings/PaperUnit
350
21C
  0
XRECORD
  5
1EF
330
1EC
100
AcDbXrecord
280
1
1000
White
  0
XRECORD
  5
1F0
330
1EC
100
AcDbXrecord
280
1
1000
FullColor
  0
XRECORD
  5
1F1
330
1EC
100
AcDbXrecord
280
1
290
1
  0
XRECORD
  5
1F2
330
1EC
100
AcDbXrecord
280
1
290
1
  0
XRECORD
  5
1F3
330
1EC
100
AcDbXrecord
280
1
290
1
  0
XRECORD
  5
1F4
330
1EC
100
AcDbXrecord
280
1
290
1
  0
XRECORD
  5
1F5
330
1EC
100
AcDbXrecord
280
1
1000
auto
  0
XRECORD
  5
1F6
330
1EC
100
AcDbXrecord
280
1
1000
auto
  0
XRECORD
  5
1F7
330
1EC
100
AcDbXrecord
280
1
1000
auto
  0
XRECORD
  5
1F8
330
1EC
100
AcDbXrecord
280
1
1000
auto
  0
XRECORD
  5
1F9
330
1EC
100
AcDbXrecord
280
1
1000
auto
  0
XRECORD
  5
1FA
330
1EC
100
AcDbXrecord
280
1
1000
auto
  0
XRECORD
  5
1FB
330
1EC
100
AcDbXrecord
280
1
1000
auto
  0
XRECORD
  5
1FC
330
1EC
100
AcDbXrecord
280
1
1000
auto
  0
XRECORD
  5
1FD
330
1EC
100
AcDbXrecord
280
1
290
0
  0
XRECORD
  5
1FE
330
1EC
100
AcDbXrecord
280
1
290
0
  0
XRECORD
  5
1FF
330
1EC
100
AcDbXrecord
280
1
290
0
  0
XRECORD
  5
200
330
1EC
100
AcDbXrecord
280
1
290
0
  0
XRECORD
  5
201
330
1EC
100
AcDbXrecord
280
1
 90
0
  0
XRECORD
  5
202
330
1EC
100
AcDbXrecord
280
1
 90
0
  0
XRECORD
  5
203
330
1EC
100
AcDbXrecord
280
1
 90
0
  0
XRECORD
  5
204
330
1EC
100
AcDbXrecord
280
1
 90
0
  0
XRECORD
  5
205
330
1EC
100
AcDbXrecord
280
1
1000
auto
  0
XRECORD
  5
206
330
1EC
100
AcDbXrecord
280
1
1000
auto
  0
XRECORD
  5
207
330
1EC
100
AcDbXrecord
280
1
1000
auto
  0
XRECORD
  5
208
330
1EC
100
AcDbXrecord
280
1
1000
auto
  0
XRECORD
  5
209
330
1EC
100
AcDbXrecord
280
1
1000
auto
  0
XRECORD
  5
20A
330
1EC
100
AcDbXrecord
280
1
1000
auto
  0
XRECORD
  5
20B
330
1EC
100
AcDbXrecord
280
1
1000
auto
  0
XRECORD
  5
20C
330
1EC
100
AcDbXrecord
280
1
1000
auto
  0
XRECORD
  5
20D
330
1EC
100
AcDbXrecord
280
1
 90
1
  0
XRECORD
  5
20E
330
1EC
100
AcDbXrecord
280
1
 40
10.0
  0
XRECORD
  5
20F
330
1EC
100
AcDbXrecord
280
1
 40
10.0
  0
XRECORD
  5
210
330
1EC
100
AcDbXrecord
280
1
 40
10.0
  0
XRECORD
  5
211
330
1EC
100
AcDbXrecord
280
1
 40
10.0
  0
XRECORD
  5
212
330
1EC
100
AcDbXrecord
280
1
290
0
  0
XRECORD
  5
213
330
1EC
100
AcDbXrecord
280
1
 90
1
  0
XRECORD
  5
214
330
1EC
100
AcDbXrecord
280
1
 40
0.0
  0
XRECORD
  5
215
330
1EC
100
AcDbXrecord
280
1
 40
0.0
  0
XRECORD
  5
216
330
1EC
100
AcDbXrecord
280
1
1000
Portrait
  0
XRECORD
  5
217
330
1EC
100
AcDbXrecord
280
1
 40
297.0
  0
XRECORD
  5
218
330
1EC
100
AcDbXrecord
280
1
 40
210.0
  0
XRECORD
  5
219
330
1EC
100
AcDbXrecord
280
1
1000
1:1
  0
XRECORD
  5
21A
330
1EC
100
AcDbXrecord
280
1
290
1
  0
XRECORD
  5
21B
330
1EC
100
AcDbXrecord
280
1
1000
3.12.5
  0
XRECORD
  5
21C
330
1EC
100
AcDbXrecord
280
1
 90
4
  0
ENDSEC
  0
EOF
